<?xml version="1.0" standalone="no"?>
<!DOCTYPE svg PUBLIC "-//W3C//DTD SVG 1.1//EN" "http://www.w3.org/Graphics/SVG/1.1/DTD/svg11.dtd" >
<svg xmlns="http://www.w3.org/2000/svg">
    <defs>
        <font id="OpenSans-Italic">
            <font-face font-family="OpenSans-Italic"
                       units-per-em="2048"
                       ascent="2189"
                       descent="-600"
                       bbox="-487 -496 1921 1907"
                    />
            <missing-glyph horiz-adv-x="0" />
            
            <glyph glyph-name="!" unicode="&#x21;" horiz-adv-x="555" d=" M555,1462 L281,403 L172,403 Q221,710 348,1462 M43,78 Q43,154 82.5,198 Q122,242 190,242 Q235,242 263,214.5 Q291,187 291,133 Q291,65 252,18 Q213,-29 147,-29 Q98,-29 70.5,-1 Q43,27 43,78"/> 
            <glyph glyph-name="&quot;" unicode="&#x22;" horiz-adv-x="834" d=" M485,1462 L332,934 L225,934 L297,1462 M834,1462 L680,934 L573,934 L645,1462"/> 
            <glyph glyph-name="#" unicode="&#x23;" horiz-adv-x="1339" d=" M1036,899 L938,559 L1223,559 L1210,430 L901,430 L776,0 L637,0 L766,430 L463,430 L336,0 L203,0 L324,430 L63,430 L76,559 L360,559 L461,899 L184,899 L197,1026 L498,1026 L621,1462 L760,1462 L635,1026 L940,1026 L1067,1462 L1200,1462 L1075,1026 L1339,1026 L1327,899 M500,559 L803,559 L899,899 L596,899"/> 
            <glyph glyph-name="$" unicode="&#x24;" horiz-adv-x="1071" d=" M942,492 Q942,330 829.5,229 Q717,128 520,106 L471,-119 L338,-119 L387,104 Q192,118 72,176 L72,330 Q154,289 247.5,266.5 Q341,244 414,244 L512,696 Q373,745 310.5,819.5 Q248,894 248,1008 Q248,1167 356,1263 Q464,1359 655,1376 L694,1552 L827,1552 L788,1374 Q947,1362 1071,1298 L1008,1163 Q887,1226 760,1235 L666,795 Q815,740 878.5,670 Q942,600 942,492 M549,250 Q656,263 719,325 Q782,387 782,479 Q782,533 749,575 Q716,617 635,649 M627,1235 Q519,1224 460,1166 Q401,1108 401,1010 Q401,957 435.5,912.5 Q470,868 543,842"/> 
            <glyph glyph-name="%" unicode="&#x25;" horiz-adv-x="1532" d=" M1468,1462 L383,0 L231,0 L1317,1462 M1284,772 Q1217,772 1164.5,707.5 Q1112,643 1080.5,519 Q1049,395 1049,279 Q1049,106 1155,106 Q1220,106 1272,171 Q1324,236 1358.5,369.5 Q1393,503 1393,606 Q1393,772 1284,772 M1532,621 Q1532,514 1500.5,385 Q1469,256 1418.5,167.5 Q1368,79 1297.5,29.5 Q1227,-20 1141,-20 Q1031,-20 970,54.5 Q909,129 909,274 Q909,440 959.5,592.5 Q1010,745 1096,821 Q1182,897 1296,897 Q1412,897 1472,825.5 Q1532,754 1532,621 M543,1358 Q477,1358 424,1295 Q371,1232 339,1107.5 Q307,983 307,864 Q307,692 414,692 Q466,692 508,731.5 Q550,771 581.5,845.5 Q613,920 632,1020.5 Q651,1121 651,1192 Q651,1358 543,1358 M791,1206 Q791,1098 759,968.5 Q727,839 676.5,751 Q626,663 556,614 Q486,565 399,565 Q290,565 229,640 Q168,715 168,860 Q168,1026 218.5,1178.5 Q269,1331 355,1407 Q441,1483 555,1483 Q671,1483 731,1411 Q791,1339 791,1206"/> 
            <glyph glyph-name="&amp;" unicode="&#x26;" horiz-adv-x="1311" d=" M737,1348 Q632,1348 574,1288 Q516,1228 516,1118 Q516,998 598,883 Q737,954 789,993 Q841,1032 872,1078 Q903,1124 903,1182 Q903,1259 860.5,1303.5 Q818,1348 737,1348 M471,119 Q558,119 639,152 Q720,185 834,276 L528,709 Q400,642 344,593 Q288,544 258.5,485.5 Q229,427 229,354 Q229,248 295.5,183.5 Q362,119 471,119 M66,342 Q66,490 156,599.5 Q246,709 459,811 Q356,976 356,1120 Q356,1284 462,1384.5 Q568,1485 743,1485 Q892,1485 979.5,1406 Q1067,1327 1067,1194 Q1067,1116 1034.5,1057 Q1002,998 947,949 Q892,900 819.5,859 Q747,818 666,776 L944,387 Q1071,497 1143,682 L1311,682 Q1210,446 1028,270 L1231,0 L1030,0 L913,166 Q793,66 683,23 Q573,-20 436,-20 Q268,-20 167,76 Q66,172 66,342"/> 
            <glyph glyph-name="'" unicode="&#x27;" horiz-adv-x="485" d=" M485,1462 L332,934 L225,934 L297,1462"/> 
            <glyph glyph-name="(" unicode="&#x28;" horiz-adv-x="743" d=" M82,272 Q82,611 202,899 Q322,1187 586,1462 L743,1462 Q497,1192 371.5,892 Q246,592 246,274 Q246,-65 360,-324 L229,-324 Q82,-58 82,272"/> 
            <glyph glyph-name=")" unicode="&#x29;" horiz-adv-x="500" d=" M500,864 Q500,523 378.5,234.5 Q257,-54 -4,-324 L-160,-324 Q336,227 336,864 Q336,1205 223,1462 L354,1462 Q500,1193 500,864"/> 
            <glyph glyph-name="*" unicode="&#x2A;" horiz-adv-x="1153" d=" M854,1528 L731,1145 L1153,1163 L1145,1006 L752,1053 L932,670 L766,618 L653,1024 L395,680 L279,801 L588,1085 L215,1194 L270,1348 L641,1163 L682,1563"/> 
            <glyph glyph-name="+" unicode="&#x2B;" horiz-adv-x="1047" d=" M516,651 L127,651 L127,793 L516,793 L516,1184 L657,1184 L657,793 L1047,793 L1047,651 L657,651 L657,264 L516,264"/> 
            <glyph glyph-name="," unicode="&#x2C;" horiz-adv-x="299" d=" M291,238 L299,215 Q186,-20 29,-264 L-100,-264 Q26,22 104,238"/> 
            <glyph glyph-name="-" unicode="&#x2D;" horiz-adv-x="569" d=" M55,469 L90,627 L569,627 L535,469"/> 
            <glyph glyph-name="." unicode="&#x2E;" horiz-adv-x="291" d=" M43,74 Q43,151 83.5,196.5 Q124,242 195,242 Q238,242 264.5,216 Q291,190 291,137 Q291,66 251,18.5 Q211,-29 143,-29 Q97,-29 70,-3 Q43,23 43,74"/> 
            <glyph glyph-name="/" unicode="&#x2F;" horiz-adv-x="893" d=" M893,1462 L80,0 L-94,0 L719,1462"/> 
            <glyph glyph-name="0" unicode="&#x30;" horiz-adv-x="1092" d=" M1092,1014 Q1092,719 1013.5,475 Q935,231 799.5,105.5 Q664,-20 485,-20 Q309,-20 215,107.5 Q121,235 121,477 Q121,747 203,991.5 Q285,1236 419.5,1360.5 Q554,1485 727,1485 Q1092,1485 1092,1014 M717,1341 Q604,1341 508,1225.5 Q412,1110 352.5,902.5 Q293,695 293,479 Q293,307 343,215 Q393,123 504,123 Q619,123 713,237 Q807,351 863.5,565 Q920,779 920,1018 Q920,1341 717,1341"/> 
            <glyph glyph-name="1" unicode="&#x31;" horiz-adv-x="901" d=" M588,0 L416,0 L612,913 Q671,1174 700,1272 Q650,1219 561,1161 L383,1051 L303,1178 L752,1462 L901,1462"/> 
            <glyph glyph-name="2" unicode="&#x32;" horiz-adv-x="1079" d=" M911,0 L12,0 L43,147 L508,567 Q610,660 684.5,730.5 Q759,801 807.5,863.5 Q856,926 879.5,987.5 Q903,1049 903,1124 Q903,1223 843,1281 Q783,1339 680,1339 Q603,1339 529.5,1310.5 Q456,1282 367,1214 L285,1329 Q476,1483 698,1483 Q874,1483 976.5,1394.5 Q1079,1306 1079,1151 Q1079,1040 1039.5,947 Q1000,854 908.5,750 Q817,646 614,469 L262,162 L262,154 L940,154"/> 
            <glyph glyph-name="3" unicode="&#x33;" horiz-adv-x="1073" d=" M1073,1159 Q1073,1003 972,894.5 Q871,786 692,754 L692,745 Q816,722 887,638.5 Q958,555 958,430 Q958,297 896,195.5 Q834,94 715,37 Q596,-20 432,-20 Q222,-20 47,59 L47,223 Q141,174 246,147.5 Q351,121 436,121 Q598,121 688,200.5 Q778,280 778,418 Q778,549 699,616.5 Q620,684 479,684 L348,684 L379,827 L518,827 Q683,827 792,914 Q901,1001 901,1141 Q901,1233 843,1287 Q785,1341 686,1341 Q606,1341 529,1314 Q452,1287 354,1221 L274,1339 Q469,1483 698,1483 Q877,1483 975,1396 Q1073,1309 1073,1159"/> 
            <glyph glyph-name="4" unicode="&#x34;" horiz-adv-x="1100" d=" M1067,334 L834,334 L762,0 L598,0 L672,334 L16,334 L45,492 L879,1470 L1075,1470 L868,487 L1100,487 M705,487 Q751,707 783,860 Q815,1013 899,1305 L891,1305 Q874,1276 824.5,1208.5 Q775,1141 752,1112 L219,487"/> 
            <glyph glyph-name="5" unicode="&#x35;" horiz-adv-x="1096" d=" M598,893 Q780,893 887.5,788.5 Q995,684 995,506 Q995,345 922,223 Q849,101 718,40.5 Q587,-20 410,-20 Q217,-20 80,59 L80,223 Q244,121 414,121 Q605,121 712,217 Q819,313 819,485 Q819,611 745.5,684.5 Q672,758 541,758 Q493,758 444,751.5 Q395,745 305,721 L231,778 L428,1462 L1096,1462 L1063,1309 L541,1309 L414,870 Q501,893 598,893"/> 
            <glyph glyph-name="6" unicode="&#x36;" horiz-adv-x="1114" d=" M133,424 Q133,633 193.5,839 Q254,1045 357,1190.5 Q460,1336 603,1409.5 Q746,1483 930,1483 Q1041,1483 1114,1460 L1079,1315 Q1011,1337 909,1337 Q697,1337 552.5,1188 Q408,1039 340,745 L348,745 Q407,824 494.5,871 Q582,918 688,918 Q842,918 932,819.5 Q1022,721 1022,549 Q1022,388 955.5,254.5 Q889,121 775,50.5 Q661,-20 514,-20 Q332,-20 232.5,95 Q133,210 133,424 M532,121 Q626,121 699.5,175 Q773,229 813.5,324 Q854,419 854,532 Q854,780 633,780 Q567,780 505,751.5 Q443,723 395,675.5 Q347,628 323,571 Q299,514 299,416 Q299,279 359.5,200 Q420,121 532,121"/> 
            <glyph glyph-name="7" unicode="&#x37;" horiz-adv-x="1145" d=" M174,0 L942,1313 L223,1313 L254,1462 L1145,1462 L1118,1323 L354,0"/> 
            <glyph glyph-name="8" unicode="&#x38;" horiz-adv-x="1110" d=" M741,1485 Q915,1485 1012.5,1398.5 Q1110,1312 1110,1163 Q1110,1034 1032,938 Q954,842 766,762 Q893,684 946,597 Q999,510 999,395 Q999,273 939,177.5 Q879,82 766.5,31 Q654,-20 502,-20 Q312,-20 204,78.5 Q96,177 96,346 Q96,494 191,602 Q286,710 487,786 Q392,855 351.5,930.5 Q311,1006 311,1102 Q311,1213 365.5,1300.5 Q420,1388 519,1436.5 Q618,1485 741,1485 M608,700 Q423,640 346.5,556.5 Q270,473 270,354 Q270,247 339,184 Q408,121 520,121 Q659,121 742,195 Q825,269 825,391 Q825,490 773,565 Q721,640 608,700 M729,1341 Q615,1341 547,1275.5 Q479,1210 479,1100 Q479,1018 518,956 Q557,894 645,840 Q806,900 873,971.5 Q940,1043 940,1145 Q940,1235 882.5,1288 Q825,1341 729,1341"/> 
            <glyph glyph-name="9" unicode="&#x39;" horiz-adv-x="1067" d=" M1067,1034 Q1067,840 1011,627.5 Q955,415 863.5,267.5 Q772,120 642,50 Q512,-20 340,-20 Q204,-20 98,14 L98,172 Q232,125 344,125 Q546,125 671,266 Q796,407 860,707 L850,707 Q799,632 717.5,588.5 Q636,545 537,545 Q368,545 276,643.5 Q184,742 184,932 Q184,1085 248.5,1212.5 Q313,1340 428.5,1411.5 Q544,1483 688,1483 Q868,1483 967.5,1368.5 Q1067,1254 1067,1034 M682,1341 Q532,1341 441,1228 Q350,1115 350,938 Q350,814 404.5,748 Q459,682 567,682 Q643,682 707,710.5 Q771,739 815.5,792 Q860,845 880.5,906 Q901,967 901,1057 Q901,1188 842,1264.5 Q783,1341 682,1341"/> 
            <glyph glyph-name=":" unicode="&#x3A;" horiz-adv-x="451" d=" M43,74 Q43,151 83.5,196.5 Q124,242 195,242 Q238,242 264.5,216 Q291,190 291,137 Q291,66 251,18.5 Q211,-29 143,-29 Q97,-29 70,-3 Q43,23 43,74 M203,956 Q203,1033 243,1078.5 Q283,1124 354,1124 Q451,1124 451,1020 Q451,947 409.5,900.5 Q368,854 303,854 Q257,854 230,880.5 Q203,907 203,956"/> 
            <glyph glyph-name=";" unicode="&#x3B;" horiz-adv-x="451" d=" M291,238 L299,215 Q186,-20 29,-264 L-100,-264 Q26,22 104,238 M203,956 Q203,1033 243,1078.5 Q283,1124 354,1124 Q451,1124 451,1020 Q451,947 409.5,900.5 Q368,854 303,854 Q257,854 230,880.5 Q203,907 203,956"/> 
            <glyph glyph-name="&lt;" unicode="&#x3C;" horiz-adv-x="1040" d=" M1040,242 L121,664 L121,762 L1040,1241 L1040,1092 L293,721 L1040,393"/> 
            <glyph glyph-name="=" unicode="&#x3D;" horiz-adv-x="1047" d=" M127,858 L127,997 L1047,997 L1047,858 M127,444 L127,586 L1047,586 L1047,444"/> 
            <glyph glyph-name="&gt;" unicode="&#x3E;" horiz-adv-x="1040" d=" M121,393 L866,721 L121,1092 L121,1241 L1040,762 L1040,664 L121,242"/> 
            <glyph glyph-name="?" unicode="&#x3F;" horiz-adv-x="922" d=" M260,403 Q282,533 332.5,616.5 Q383,700 498,791 Q626,891 666,935 Q706,979 729,1029 Q752,1079 752,1141 Q752,1234 700.5,1284.5 Q649,1335 553,1335 Q472,1335 398,1309.5 Q324,1284 258,1253 L197,1382 Q289,1433 389,1458 Q489,1483 571,1483 Q738,1483 830,1399 Q922,1315 922,1161 Q922,1038 856.5,934.5 Q791,831 631,711 Q506,620 462,563.5 Q418,507 395,403 M158,74 Q158,151 198,196.5 Q238,242 309,242 Q353,242 379.5,216 Q406,190 406,137 Q406,64 364.5,17.5 Q323,-29 258,-29 Q212,-29 185,-3 Q158,23 158,74"/> 
            <glyph glyph-name="@" unicode="&#x40;" horiz-adv-x="1679" d=" M1679,852 Q1679,673 1624,528 Q1569,383 1469,301 Q1369,219 1247,219 Q1050,219 1034,403 L1026,403 Q915,219 735,219 Q620,219 554.5,294.5 Q489,370 489,504 Q489,661 557,788 Q625,915 745.5,987 Q866,1059 1006,1059 Q1071,1059 1133.5,1047 Q1196,1035 1284,999 Q1220,757 1186,631 Q1152,505 1155,459 Q1155,342 1257,342 Q1335,342 1398.5,409 Q1462,476 1499,592.5 Q1536,709 1536,836 Q1536,1075 1408,1203 Q1280,1331 1038,1331 Q810,1331 631.5,1224 Q453,1117 354.5,928.5 Q256,740 256,512 Q256,242 399.5,93.5 Q543,-55 809,-55 Q1006,-55 1229,31 L1229,-96 Q1010,-186 786,-186 Q472,-186 291.5,-1.5 Q111,183 111,504 Q111,765 237.5,989.5 Q364,1214 581,1337 Q798,1460 1067,1460 Q1258,1460 1396,1384.5 Q1534,1309 1606.5,1171 Q1679,1033 1679,852 M985,938 Q891,938 811,883 Q731,828 685,730 Q639,632 639,518 Q639,425 672,383.5 Q705,342 770,342 Q957,342 1042,657 L1112,915 Q1049,938 985,938"/> 
            <glyph glyph-name="A" unicode="&#x41;" horiz-adv-x="1040" d=" M813,465 L317,465 L72,0 L-117,0 L682,1462 L856,1462 L1040,0 L870,0 M795,621 L760,920 Q736,1099 731,1270 Q694,1182 650.5,1095 Q607,1008 401,621"/> 
            <glyph glyph-name="B" unicode="&#x42;" horiz-adv-x="1202" d=" M770,1462 Q1202,1462 1202,1126 Q1202,985 1115,888 Q1028,791 870,762 L870,752 Q985,720 1046.5,641.5 Q1108,563 1108,453 Q1108,241 956,120.5 Q804,0 549,0 L86,0 L395,1462 M434,836 L682,836 Q838,836 931,909 Q1024,982 1024,1108 Q1024,1212 957.5,1263.5 Q891,1315 748,1315 L537,1315 M287,145 L553,145 Q734,145 831,225.5 Q928,306 928,453 Q928,569 853.5,630.5 Q779,692 639,692 L403,692"/> 
            <glyph glyph-name="C" unicode="&#x43;" horiz-adv-x="1290" d=" M942,1331 Q768,1331 630.5,1234 Q493,1137 412.5,949.5 Q332,762 332,541 Q332,354 429.5,242.5 Q527,131 698,131 Q837,131 1020,188 L1020,39 Q934,8 856,-6 Q778,-20 668,-20 Q426,-20 288,129.5 Q150,279 150,537 Q150,798 255.5,1022.5 Q361,1247 539,1365 Q717,1483 942,1483 Q1139,1483 1290,1403 L1221,1262 Q1083,1331 942,1331"/> 
            <glyph glyph-name="D" unicode="&#x44;" horiz-adv-x="1300" d=" M1300,877 Q1300,616 1195,416 Q1090,216 895,108 Q700,0 438,0 L86,0 L395,1462 L737,1462 Q1013,1462 1156.5,1312.5 Q1300,1163 1300,877 M449,147 Q651,147 804,238.5 Q957,330 1038.5,497 Q1120,664 1120,879 Q1120,1094 1017,1204.5 Q914,1315 715,1315 L537,1315 L287,147"/> 
            <glyph glyph-name="E" unicode="&#x45;" horiz-adv-x="1130" d=" M821,0 L86,0 L395,1462 L1130,1462 L1098,1309 L532,1309 L434,840 L961,840 L932,688 L403,688 L289,152 L854,152"/> 
            <glyph glyph-name="F" unicode="&#x46;" horiz-adv-x="1130" d=" M258,0 L86,0 L395,1462 L1130,1462 L1100,1309 L532,1309 L422,776 L950,776 L918,623 L389,623"/> 
            <glyph glyph-name="G" unicode="&#x47;" horiz-adv-x="1358" d=" M821,766 L1280,766 L1126,55 Q910,-20 707,-20 Q443,-20 296.5,124.5 Q150,269 150,528 Q150,797 251.5,1017.5 Q353,1238 533,1360.5 Q713,1483 932,1483 Q1049,1483 1151.5,1463 Q1254,1443 1358,1399 L1292,1247 Q1215,1281 1126.5,1306 Q1038,1331 932,1331 Q763,1331 624.5,1229.5 Q486,1128 409,946 Q332,764 332,539 Q332,349 434.5,240 Q537,131 721,131 Q875,131 981,170 L1077,614 L788,614"/> 
            <glyph glyph-name="H" unicode="&#x48;" horiz-adv-x="1395" d=" M1085,0 L918,0 L1061,688 L401,688 L256,0 L86,0 L395,1462 L565,1462 L434,840 L1094,840 L1227,1462 L1395,1462"/> 
            <glyph glyph-name="I" unicode="&#x49;" horiz-adv-x="565" d=" M86,0 L397,1462 L565,1462 L254,0"/> 
            <glyph glyph-name="J" unicode="&#x4A;" horiz-adv-x="565" d=" M-166,-385 Q-271,-385 -319,-360 L-313,-213 Q-244,-233 -168,-233 Q-68,-233 -2.5,-170.5 Q63,-108 88,12 L395,1462 L565,1462 L256,-6 Q177,-385 -166,-385"/> 
            <glyph glyph-name="K" unicode="&#x4B;" horiz-adv-x="1323" d=" M1034,0 L848,0 Q776,181 701.5,359.5 Q627,538 555,721 L381,590 L256,0 L86,0 L395,1462 L565,1462 L414,752 L1114,1462 L1323,1462 L684,825"/> 
            <glyph glyph-name="L" unicode="&#x4C;" horiz-adv-x="854" d=" M86,0 L395,1462 L565,1462 L289,154 L854,154 L821,0"/> 
            <glyph glyph-name="M" unicode="&#x4D;" horiz-adv-x="1720" d=" M676,0 L510,1296 L502,1296 Q495,1224 473.5,1098.5 Q452,973 436,899 L246,0 L84,0 L393,1462 L637,1462 L786,258 L795,258 L1454,1462 L1720,1462 L1417,0 L1243,0 Q1369,590 1436,905.5 Q1503,1221 1530,1298 L1524,1298 L807,0"/> 
            <glyph glyph-name="N" unicode="&#x4E;" horiz-adv-x="1448" d=" M1139,0 L958,0 L498,1223 L492,1223 Q460,1002 418,805 L246,0 L84,0 L393,1462 L573,1462 L1032,242 L1038,242 Q1068,466 1110,647 L1284,1462 L1448,1462"/> 
            <glyph glyph-name="O" unicode="&#x4F;" horiz-adv-x="1411" d=" M1411,907 Q1411,638 1323,425.5 Q1235,213 1071,96.5 Q907,-20 692,-20 Q436,-20 293,129.5 Q150,279 150,549 Q150,813 246,1031 Q342,1249 509.5,1367 Q677,1485 887,1485 Q1131,1485 1271,1331 Q1411,1177 1411,907 M874,1333 Q717,1333 593,1232 Q469,1131 400.5,951 Q332,771 332,553 Q332,354 430,242.5 Q528,131 696,131 Q848,131 968.5,228.5 Q1089,326 1159,508 Q1229,690 1229,911 Q1229,1110 1135,1221.5 Q1041,1333 874,1333"/> 
            <glyph glyph-name="P" unicode="&#x50;" horiz-adv-x="1159" d=" M1159,1085 Q1159,837 995,706 Q831,575 514,575 L379,575 L256,0 L86,0 L395,1462 L725,1462 Q939,1462 1049,1367.5 Q1159,1273 1159,1085 M410,721 L543,721 Q759,721 871,812 Q983,903 983,1079 Q983,1204 913.5,1259.5 Q844,1315 700,1315 L537,1315"/> 
            <glyph glyph-name="Q" unicode="&#x51;" horiz-adv-x="1411" d=" M874,1333 Q717,1333 593,1232 Q469,1131 400.5,951 Q332,771 332,553 Q332,354 430,242.5 Q528,131 696,131 Q854,131 975,231 Q1096,331 1162.5,511.5 Q1229,692 1229,911 Q1229,1110 1135,1221.5 Q1041,1333 874,1333 M725,-18 L708,-20 L692,-20 Q436,-20 293,129.5 Q150,279 150,549 Q150,813 246,1031 Q342,1249 509.5,1367 Q677,1485 887,1485 Q1131,1485 1271,1331 Q1411,1177 1411,907 Q1411,574 1272,331 Q1133,88 897,10 L1171,-348 L952,-348"/> 
            <glyph glyph-name="R" unicode="&#x52;" horiz-adv-x="1161" d=" M385,608 L256,0 L86,0 L395,1462 L715,1462 Q1161,1462 1161,1096 Q1161,748 793,647 L1032,0 L846,0 L637,608 M532,1313 Q430,819 416,754 L584,754 Q777,754 881,839 Q985,924 985,1083 Q985,1204 917.5,1258.5 Q850,1313 698,1313"/> 
            <glyph glyph-name="S" unicode="&#x53;" horiz-adv-x="1059" d=" M913,424 Q913,213 772.5,96.5 Q632,-20 377,-20 Q271,-20 190.5,-5.5 Q110,9 39,43 L39,213 Q201,129 379,129 Q541,129 636,204.5 Q731,280 731,412 Q731,490 678.5,549.5 Q626,609 483,690 Q332,775 273.5,860 Q215,945 215,1061 Q215,1248 347,1365.5 Q479,1483 694,1483 Q793,1483 878.5,1464 Q964,1445 1059,1399 L993,1249 Q927,1287 845,1309 Q763,1331 694,1331 Q560,1331 478.5,1261.5 Q397,1192 397,1073 Q397,1019 414,980.5 Q431,942 468,908 Q505,874 610,813 Q757,725 808.5,675 Q860,625 886.5,564.5 Q913,504 913,424"/> 
            <glyph glyph-name="T" unicode="&#x54;" horiz-adv-x="1204" d=" M487,0 L315,0 L592,1311 L186,1311 L219,1462 L1204,1462 L1174,1311 L766,1311"/> 
            <glyph glyph-name="U" unicode="&#x55;" horiz-adv-x="1407" d=" M1407,1462 L1202,496 Q1147,233 1004.5,106.5 Q862,-20 616,-20 Q386,-20 275,84 Q164,188 164,383 Q164,464 188,584 L377,1462 L547,1462 L356,571 Q334,465 334,383 Q334,266 407,198.5 Q480,131 625,131 Q797,131 892.5,218.5 Q988,306 1032,508 L1237,1462"/> 
            <glyph glyph-name="V" unicode="&#x56;" horiz-adv-x="1311" d=" M479,197 Q540,341 641,535 L1120,1462 L1311,1462 L530,0 L350,0 L188,1462 L358,1462 L455,532 Q475,336 475,197"/> 
            <glyph glyph-name="W" unicode="&#x57;" horiz-adv-x="1921" d=" M1257,0 L1087,0 L1038,965 Q1030,1101 1030,1247 L1024,1247 Q999,1175 963,1092.5 Q927,1010 459,0 L285,0 L223,1462 L393,1462 L424,561 L426,473 Q426,375 416,215 L422,215 Q511,458 578,598 L983,1462 L1161,1462 L1204,602 Q1213,449 1213,298 L1212,215 L1221,215 Q1296,439 1352,569 L1739,1462 L1921,1462"/> 
            <glyph glyph-name="X" unicode="&#x58;" horiz-adv-x="1233" d=" M956,0 L776,0 L563,641 L82,0 L-104,0 L492,776 L229,1462 L401,1462 L604,899 L1047,1462 L1233,1462 L678,768"/> 
            <glyph glyph-name="Y" unicode="&#x59;" horiz-adv-x="1219" d=" M537,715 L1026,1462 L1219,1462 L592,541 L479,0 L307,0 L426,549 L188,1462 L358,1462"/> 
            <glyph glyph-name="Z" unicode="&#x5A;" horiz-adv-x="1171" d=" M885,0 L-16,0 L12,137 L936,1307 L281,1307 L313,1462 L1171,1462 L1145,1323 L221,154 L918,154"/> 
            <glyph glyph-name="[" unicode="&#x5B;" horiz-adv-x="752" d=" M371,-324 L-16,-324 L365,1462 L752,1462 L721,1321 L494,1321 L176,-182 L403,-182"/> 
            <glyph glyph-name="\" unicode="&#x5C;" horiz-adv-x="592" d=" M375,1462 L592,0 L438,0 L221,1462"/> 
            <glyph glyph-name="]" unicode="&#x5D;" horiz-adv-x="618" d=" M-119,-182 L106,-182 L426,1321 L199,1321 L229,1462 L618,1462 L238,-324 L-150,-324"/> 
            <glyph glyph-name="^" unicode="&#x5E;" horiz-adv-x="1026" d=" M53,553 L651,1473 L760,1473 L1026,553 L881,553 L680,1300 L213,553"/> 
            <glyph glyph-name="_" unicode="&#x5F;" horiz-adv-x="653" d=" M623,-324 L-188,-324 L-158,-184 L653,-184"/> 
            <glyph glyph-name="`" unicode="&#x60;" horiz-adv-x="903" d=" M903,1241 L799,1241 Q738,1302 670.5,1395 Q603,1488 575,1548 L575,1569 L756,1569 Q799,1433 903,1266"/> 
            <glyph glyph-name="a" unicode="&#x61;" horiz-adv-x="1120" d=" M639,1116 Q731,1116 803,1066.5 Q875,1017 915,924 L926,924 L993,1096 L1120,1096 L887,0 L754,0 L780,209 L772,209 Q593,-20 395,-20 Q256,-20 177,79 Q98,178 98,350 Q98,558 169,736 Q240,914 365,1015 Q490,1116 639,1116 M449,119 Q546,119 642,211.5 Q738,304 798,452.5 Q858,601 858,750 Q858,853 802,914 Q746,975 655,975 Q551,975 461.5,889 Q372,803 321,656 Q270,509 270,346 Q270,232 317,175.5 Q364,119 449,119"/> 
            <glyph glyph-name="b" unicode="&#x62;" horiz-adv-x="1081" d=" M545,-20 Q448,-20 374.5,31 Q301,82 264,170 L254,170 L184,0 L59,0 L389,1556 L557,1556 Q506,1314 478.5,1185.5 Q451,1057 403,885 L412,885 Q505,1003 595.5,1058.5 Q686,1114 782,1114 Q923,1114 1002,1015 Q1081,916 1081,743 Q1081,534 1012.5,356.5 Q944,179 821.5,79.5 Q699,-20 545,-20 M731,975 Q635,975 535.5,880 Q436,785 377.5,641 Q319,497 319,346 Q319,236 374.5,177.5 Q430,119 535,119 Q634,119 719.5,200 Q805,281 857,430.5 Q909,580 909,748 Q909,975 731,975"/> 
            <glyph glyph-name="c" unicode="&#x63;" horiz-adv-x="938" d=" M506,-20 Q312,-20 205,87 Q98,194 98,389 Q98,589 172,758 Q246,927 376.5,1021.5 Q507,1116 670,1116 Q807,1116 938,1065 L891,924 Q771,975 672,975 Q560,975 467.5,898.5 Q375,822 322.5,685.5 Q270,549 270,389 Q270,261 336.5,190 Q403,119 520,119 Q592,119 656,139 Q720,159 782,186 L782,43 Q658,-20 506,-20"/> 
            <glyph glyph-name="d" unicode="&#x64;" horiz-adv-x="1219" d=" M639,1114 Q833,1114 920,924 L930,924 Q947,1079 975,1198 L1053,1556 L1219,1556 L889,0 L750,0 L772,209 L764,209 Q663,84 575,32 Q487,-20 393,-20 Q254,-20 176,78 Q98,176 98,350 Q98,564 170,742 Q242,920 364.5,1017 Q487,1114 639,1114 M449,119 Q543,119 643,212.5 Q743,306 801.5,451.5 Q860,597 860,748 Q860,859 806,917 Q752,975 649,975 Q548,975 461.5,892.5 Q375,810 322.5,660.5 Q270,511 270,346 Q270,119 449,119"/> 
            <glyph glyph-name="e" unicode="&#x65;" horiz-adv-x="948" d=" M492,-20 Q308,-20 203,89 Q98,198 98,391 Q98,579 172.5,751.5 Q247,924 370,1020 Q493,1116 641,1116 Q794,1116 871,1049.5 Q948,983 948,864 Q948,684 782,581.5 Q616,479 307,479 L274,479 L270,399 Q270,268 331.5,194.5 Q393,121 522,121 Q585,121 651.5,139 Q718,157 817,205 L817,59 Q723,15 651,-2.5 Q579,-20 492,-20 M631,973 Q528,973 437.5,879 Q347,785 299,618 L311,618 Q539,618 660.5,677.5 Q782,737 782,850 Q782,903 745.5,938 Q709,973 631,973"/> 
            <glyph glyph-name="f" unicode="&#x66;" horiz-adv-x="899" d=" M-104,-492 Q-173,-492 -229,-471 L-229,-330 Q-165,-352 -117,-352 Q-41,-352 0,-290 Q41,-228 66,-113 L293,969 L100,969 L113,1036 L319,1102 L342,1202 Q388,1402 469.5,1484.5 Q551,1567 711,1567 Q751,1567 809,1555.5 Q867,1544 899,1530 L856,1401 Q780,1430 719,1430 Q632,1430 585.5,1381.5 Q539,1333 510,1204 L485,1096 L723,1096 L698,969 L461,969 L229,-129 Q190,-318 109,-405 Q28,-492 -104,-492"/> 
            <glyph glyph-name="g" unicode="&#x67;" horiz-adv-x="1100" d=" M1100,1096 L1075,989 L864,965 Q905,903 905,807 Q905,616 788.5,502.5 Q672,389 477,389 Q422,389 393,397 Q254,344 254,266 Q254,225 287,211.5 Q320,198 383,190 L500,176 Q681,154 762.5,88 Q844,22 844,-106 Q844,-290 698,-391 Q552,-492 287,-492 Q93,-492 -17,-418.5 Q-127,-345 -127,-211 Q-127,-106 -55,-29 Q17,48 178,102 Q100,143 100,223 Q100,292 151,341.5 Q202,391 293,434 Q230,466 190,528.5 Q150,591 150,674 Q150,868 269.5,992 Q389,1116 575,1116 Q653,1116 729,1096 M35,-195 Q35,-272 100,-317 Q165,-362 293,-362 Q475,-362 577.5,-298.5 Q680,-235 680,-119 Q680,-57 626,-21 Q572,15 442,29 L283,45 Q163,20 99,-43 Q35,-106 35,-195 M313,680 Q313,595 358,550.5 Q403,506 483,506 Q562,506 621,548 Q680,590 711.5,663.5 Q743,737 743,823 Q743,905 699,948 Q655,991 573,991 Q495,991 436.5,950.5 Q378,910 345.5,837.5 Q313,765 313,680"/> 
            <glyph glyph-name="h" unicode="&#x68;" horiz-adv-x="1065" d=" M729,0 L877,692 Q895,786 895,827 Q895,975 748,975 Q659,975 574.5,916 Q490,857 425.5,744.5 Q361,632 328,473 L227,0 L59,0 L389,1556 L557,1556 Q539,1474 522.5,1397 Q506,1320 488.5,1240.5 Q471,1161 450.5,1074 Q430,987 403,885 L414,885 Q508,1008 599.5,1061 Q691,1114 791,1114 Q922,1114 993.5,1042 Q1065,970 1065,838 Q1065,776 1042,672 Q1003,479 897,0"/> 
            <glyph glyph-name="i" unicode="&#x69;" horiz-adv-x="543" d=" M227,0 L59,0 L293,1096 L461,1096 M340,1376 Q340,1432 372,1467.5 Q404,1503 455,1503 Q543,1503 543,1413 Q543,1358 509.5,1320 Q476,1282 432,1282 Q392,1282 366,1306.5 Q340,1331 340,1376"/> 
            <glyph glyph-name="j" unicode="&#x6A;" horiz-adv-x="541" d=" M-135,-492 Q-204,-492 -258,-471 L-258,-330 Q-197,-352 -139,-352 Q-14,-352 29,-147 L293,1096 L459,1096 L193,-162 Q157,-333 78.5,-412.5 Q0,-492 -135,-492 M340,1376 Q340,1432 372,1467.5 Q404,1503 455,1503 Q541,1503 541,1413 Q541,1358 507.5,1320 Q474,1282 430,1282 Q392,1282 366,1306.5 Q340,1331 340,1376"/> 
            <glyph glyph-name="k" unicode="&#x6B;" horiz-adv-x="1057" d=" M330,559 L856,1096 L1057,1096 L588,629 L883,0 L696,0 L461,524 L309,401 L227,0 L57,0 L387,1556 L557,1556 Q485,1220 428,954 Q371,688 326,559"/> 
            <glyph glyph-name="l" unicode="&#x6C;" horiz-adv-x="557" d=" M225,0 L57,0 L389,1556 L557,1556"/> 
            <glyph glyph-name="m" unicode="&#x6D;" horiz-adv-x="1671" d=" M696,0 L844,692 Q862,786 862,827 Q862,897 831,936 Q800,975 725,975 Q641,975 561.5,915 Q482,855 421.5,743.5 Q361,632 328,475 L227,0 L59,0 L293,1096 L432,1096 L410,893 L420,893 Q507,1012 593.5,1064 Q680,1116 772,1116 Q885,1116 946,1051 Q1007,986 1018,870 L1026,870 Q1112,995 1209,1055.5 Q1306,1116 1405,1116 Q1532,1116 1601.5,1048 Q1671,980 1671,850 Q1671,782 1649,672 L1505,0 L1335,0 L1483,692 Q1503,796 1503,838 Q1503,900 1468.5,937.5 Q1434,975 1360,975 Q1279,975 1200,917 Q1121,859 1061.5,752.5 Q1002,646 971,500 L864,0"/> 
            <glyph glyph-name="n" unicode="&#x6E;" horiz-adv-x="1065" d=" M729,0 L877,692 Q897,796 897,836 Q897,899 861.5,937 Q826,975 748,975 Q659,975 574.5,915 Q490,855 425.5,744 Q361,633 328,475 L227,0 L59,0 L293,1096 L432,1096 L410,893 L420,893 Q516,1015 605.5,1065.5 Q695,1116 791,1116 Q918,1116 991.5,1046.5 Q1065,977 1065,852 Q1065,773 1042,672 L899,0"/> 
            <glyph glyph-name="o" unicode="&#x6F;" horiz-adv-x="1053" d=" M643,1110 Q833,1110 943,997.5 Q1053,885 1053,688 Q1053,500 981,333 Q909,166 786,75 Q663,-16 508,-16 Q316,-16 207,97 Q98,210 98,406 Q98,596 171,763.5 Q244,931 368,1020.5 Q492,1110 643,1110 M879,711 Q879,826 816.5,897.5 Q754,969 647,969 Q538,969 451.5,895 Q365,821 317.5,689.5 Q270,558 270,397 Q270,266 333.5,194.5 Q397,123 516,123 Q620,123 703,196 Q786,269 832.5,403.5 Q879,538 879,711"/> 
            <glyph glyph-name="p" unicode="&#x70;" horiz-adv-x="1081" d=" M545,-20 Q448,-20 375,30 Q302,80 262,170 L252,170 L248,132 Q245,107 237.5,62 Q230,17 123,-492 L-43,-492 L293,1096 L432,1096 L406,887 L414,887 Q593,1114 786,1114 Q923,1114 1002,1016.5 Q1081,919 1081,743 Q1081,531 1012,354 Q943,177 821,78.5 Q699,-20 545,-20 M731,975 Q635,975 535.5,880 Q436,785 377.5,641 Q319,497 319,346 Q319,236 374.5,177.5 Q430,119 535,119 Q634,119 719.5,200 Q805,281 857,430.5 Q909,580 909,748 Q909,975 731,975"/> 
            <glyph glyph-name="q" unicode="&#x71;" horiz-adv-x="1120" d=" M641,1116 Q735,1116 806.5,1065.5 Q878,1015 915,924 L928,924 L995,1096 L1120,1096 L784,-492 L618,-492 L719,-12 Q728,33 776,209 L768,209 Q673,88 583,34 Q493,-20 397,-20 Q257,-20 177.5,77.5 Q98,175 98,350 Q98,562 170.5,742 Q243,922 366.5,1019 Q490,1116 641,1116 M449,119 Q541,119 639,211 Q737,303 797.5,448 Q858,593 858,748 Q858,853 803.5,914 Q749,975 651,975 Q550,975 462,890.5 Q374,806 322,657.5 Q270,509 270,346 Q270,119 449,119"/> 
            <glyph glyph-name="r" unicode="&#x72;" horiz-adv-x="872" d=" M752,1116 Q821,1116 872,1102 L836,952 Q783,965 731,965 Q640,965 560.5,905 Q481,845 421.5,738.5 Q362,632 334,502 L227,0 L59,0 L293,1096 L432,1096 L410,893 L420,893 Q492,988 539,1029.5 Q586,1071 637.5,1093.5 Q689,1116 752,1116"/> 
            <glyph glyph-name="s" unicode="&#x73;" horiz-adv-x="836" d=" M735,311 Q735,155 624.5,67.5 Q514,-20 313,-20 Q144,-20 8,49 L8,207 Q78,165 159,142 Q240,119 309,119 Q435,119 499,169 Q563,219 563,297 Q563,354 528,393 Q493,432 377,500 Q247,573 193,643 Q139,713 139,809 Q139,947 240,1031.5 Q341,1116 506,1116 Q677,1116 836,1042 L782,905 L726,930 Q625,973 506,973 Q413,973 360,929.5 Q307,886 307,817 Q307,761 342.5,721 Q378,681 489,618 Q596,558 642.5,515 Q689,472 712,422.5 Q735,373 735,311"/> 
            <glyph glyph-name="t" unicode="&#x74;" horiz-adv-x="731" d=" M395,117 Q450,117 539,143 L539,14 Q505,0 455,-10 Q405,-20 375,-20 Q250,-20 183.5,39.5 Q117,99 117,217 Q117,283 135,367 L262,969 L90,969 L104,1042 L289,1120 L414,1348 L512,1348 L457,1096 L731,1096 L705,969 L432,969 L303,365 Q285,278 285,233 Q285,177 314,147 Q343,117 395,117"/> 
            <glyph glyph-name="u" unicode="&#x75;" horiz-adv-x="1118" d=" M451,1096 L301,401 Q283,312 283,262 Q283,119 430,119 Q518,119 603,179 Q688,239 753,351 Q818,463 852,621 L952,1096 L1118,1096 L887,0 L748,0 L770,203 L758,203 Q660,78 571,29 Q482,-20 387,-20 Q259,-20 186,49.5 Q113,119 113,248 Q113,310 135,420 L281,1096"/> 
            <glyph glyph-name="v" unicode="&#x76;" horiz-adv-x="1042" d=" M223,0 L98,1096 L266,1096 L330,483 Q354,225 354,121 L360,121 Q487,396 539,492 L864,1096 L1042,1096 L451,0"/> 
            <glyph glyph-name="w" unicode="&#x77;" horiz-adv-x="1542" d=" M831,0 L799,602 Q795,696 795,774 L795,930 L786,930 L736,812 L653,623 L362,0 L160,0 L117,1096 L281,1096 L299,502 L299,414 Q299,267 291,145 L297,145 Q344,269 434,467 L729,1096 L911,1096 L948,502 Q954,334 954,240 L954,187 L952,145 L958,145 Q986,231 1041,363.5 Q1096,496 1364,1096 L1542,1096 L1036,0"/> 
            <glyph glyph-name="x" unicode="&#x78;" horiz-adv-x="1030" d=" M467,434 L121,0 L-74,0 L401,565 L162,1096 L332,1096 L506,684 L836,1096 L1030,1096 L575,557 L827,0 L659,0"/> 
            <glyph glyph-name="y" unicode="&#x79;" horiz-adv-x="1042" d=" M98,1096 L266,1096 L340,551 Q350,482 359.5,347.5 Q369,213 369,131 L375,131 Q410,218 462,331 Q514,444 539,487 L864,1096 L1042,1096 L346,-186 Q253,-358 162,-425 Q71,-492 -57,-492 Q-129,-492 -197,-471 L-197,-336 Q-134,-354 -66,-354 Q16,-354 74.5,-303.5 Q133,-253 188,-154 L264,-18"/> 
            <glyph glyph-name="z" unicode="&#x7A;" horiz-adv-x="893" d=" M690,0 L-29,0 L-6,117 L688,971 L209,971 L236,1096 L893,1096 L864,956 L184,125 L715,125"/> 
            <glyph glyph-name="{" unicode="&#x7B;" horiz-adv-x="815" d=" M442,-324 Q301,-324 225.5,-271.5 Q150,-219 150,-100 Q150,-48 170,41 Q203,187 221.5,268.5 Q240,350 236,371 Q236,514 27,514 L59,657 Q177,657 248.5,700.5 Q320,744 342,848 L410,1174 Q444,1334 527.5,1398 Q611,1462 782,1462 L815,1462 L784,1321 Q679,1321 633,1284.5 Q587,1248 567,1161 L496,840 Q468,717 405,656 Q342,595 238,578 L238,573 Q389,532 389,360 Q389,301 371,229 L324,18 Q309,-40 309,-80 Q309,-133 345.5,-157.5 Q382,-182 465,-182 L465,-324"/> 
            <glyph glyph-name="|" unicode="&#x7C;" horiz-adv-x="680" d=" M541,1556 L680,1556 L680,-496 L541,-496"/> 
            <glyph glyph-name="}" unicode="&#x7D;" horiz-adv-x="705" d=" M285,1462 Q429,1462 505.5,1409.5 Q582,1357 582,1239 Q582,1191 561,1098 L512,879 Q496,811 496,768 Q496,625 705,625 L672,481 Q553,481 482,438 Q411,395 389,291 L322,-35 Q286,-199 203,-261.5 Q120,-324 -61,-324 L-74,-324 L-74,-182 Q41,-182 93,-146 Q145,-110 164,-23 L236,299 Q261,416 324,478.5 Q387,541 494,559 L494,565 Q344,607 344,776 Q344,835 362,907 L412,1120 Q426,1185 426,1219 Q426,1272 385.5,1296.5 Q345,1321 246,1321 L274,1462"/> 
            <glyph glyph-name="~" unicode="&#x7E;" horiz-adv-x="1075" d=" M348,713 Q294,713 229.5,678.5 Q165,644 115,592 L115,743 Q213,852 358,852 Q427,852 485,837.5 Q543,823 629,786 Q693,759 741.5,745 Q790,731 840,731 Q895,731 959.5,764 Q1024,797 1075,852 L1075,702 Q975,592 831,592 Q759,592 696,608.5 Q633,625 561,657 Q486,689 441,701 Q396,713 348,713"/> 
            <glyph glyph-name="¡" unicode="&#xA1;" horiz-adv-x="498" d=" M260,684 L369,684 L193,-373 L-14,-373 M250,950 Q250,1026 290.5,1072 Q331,1118 401,1118 Q445,1118 471.5,1092 Q498,1066 498,1012 Q498,941 457.5,894.5 Q417,848 352,848 Q304,848 277,873.5 Q250,899 250,950"/> 
            <glyph glyph-name="¢" unicode="&#xA2;" horiz-adv-x="1065" d=" M582,-20 L457,-20 L500,195 Q368,229 296.5,332.5 Q225,436 225,590 Q225,775 288.5,934 Q352,1093 467,1192.5 Q582,1292 727,1313 L762,1483 L885,1483 L848,1315 Q967,1306 1065,1266 L1018,1124 Q909,1176 799,1176 Q687,1176 594.5,1099.5 Q502,1023 449.5,886.5 Q397,750 397,590 Q397,465 463,392 Q529,319 647,319 Q719,319 783,339 Q847,359 909,387 L909,244 Q786,182 623,178"/> 
            <glyph glyph-name="£" unicode="&#xA3;" horiz-adv-x="1178" d=" M842,1481 Q1026,1481 1178,1395 L1112,1262 Q966,1341 834,1341 Q621,1341 571,1104 L502,778 L872,778 L846,651 L475,651 L428,432 Q406,334 362,265.5 Q318,197 238,154 L963,154 L930,0 L-23,0 L4,141 Q209,187 262,430 L309,651 L109,651 L135,778 L336,778 L412,1128 Q487,1481 842,1481"/> 
            <glyph glyph-name="¤" unicode="&#xA4;" horiz-adv-x="1040" d=" M229,723 Q229,840 297,938 L168,1067 L260,1159 L387,1030 Q490,1100 604,1100 Q718,1100 819,1030 L948,1159 L1040,1069 L911,940 Q981,836 981,723 Q981,604 911,506 L1038,379 L948,289 L819,416 Q721,348 604,348 Q485,348 387,418 L260,291 L170,381 L297,508 Q229,604 229,723 M358,723 Q358,620 429.5,548.5 Q501,477 604,477 Q708,477 781,548.5 Q854,620 854,723 Q854,827 781,900 Q708,973 604,973 Q502,973 430,900.5 Q358,828 358,723"/> 
            <glyph glyph-name="¥" unicode="&#xA5;" horiz-adv-x="1260" d=" M582,715 L1073,1462 L1260,1462 L727,692 L958,692 L930,559 L633,559 L600,399 L897,399 L868,266 L573,266 L516,0 L362,0 L418,266 L127,266 L156,399 L446,399 L479,559 L188,559 L217,692 L442,692 L240,1462 L403,1462"/> 
            <glyph glyph-name="¦" unicode="&#xA6;" horiz-adv-x="680" d=" M541,1556 L680,1556 L680,780 L541,780 M541,281 L680,281 L680,-496 L541,-496"/> 
            <glyph glyph-name="§" unicode="&#xA7;" horiz-adv-x="997" d=" M174,770 Q174,971 412,1077 Q293,1147 293,1280 Q293,1407 396.5,1486 Q500,1565 676,1565 Q865,1565 997,1497 L944,1374 Q796,1434 678,1434 Q576,1434 515.5,1393.5 Q455,1353 455,1284 Q455,1235 493,1200.5 Q531,1166 655,1110 Q755,1066 804,1026.5 Q853,987 879,937 Q905,887 905,823 Q905,726 844,643 Q783,560 672,504 Q786,433 786,315 Q786,163 672,77.5 Q558,-8 354,-8 Q178,-8 59,53 L59,201 Q115,167 195.5,145 Q276,123 352,123 Q485,123 556,167.5 Q627,212 627,297 Q627,345 576.5,386 Q526,427 424,473 Q286,534 230,603.5 Q174,673 174,770 M514,1010 Q432,984 379,922.5 Q326,861 326,791 Q326,721 376.5,674 Q427,627 575,563 Q655,607 702.5,670 Q750,733 750,801 Q750,861 700.5,906.5 Q651,952 514,1010"/> 
            <glyph glyph-name="¨" unicode="&#xA8;" horiz-adv-x="1001" d=" M457,1378 Q457,1424 485,1457.5 Q513,1491 559,1491 Q637,1491 637,1411 Q637,1362 607.5,1328 Q578,1294 539,1294 Q504,1294 480.5,1316 Q457,1338 457,1378 M821,1378 Q821,1424 849,1457.5 Q877,1491 924,1491 Q1001,1491 1001,1411 Q1001,1362 971.5,1328 Q942,1294 903,1294 Q868,1294 844.5,1316 Q821,1338 821,1378"/> 
            <glyph glyph-name="©" unicode="&#xA9;" horiz-adv-x="1642" d=" M928,1059 Q803,1059 736.5,972 Q670,885 670,731 Q670,562 735,481.5 Q800,401 928,401 Q1010,401 1139,444 L1139,322 Q1073,294 1026,284 Q979,274 922,274 Q730,274 625,393.5 Q520,513 520,733 Q520,941 630,1063.5 Q740,1186 930,1186 Q1060,1186 1178,1126 L1118,1006 Q1012,1059 928,1059 M139,731 Q139,931 239,1106 Q339,1281 514,1382 Q689,1483 891,1483 Q1088,1483 1261,1386 Q1434,1289 1538,1114 Q1642,939 1642,731 Q1642,527 1541.5,354.5 Q1441,182 1268.5,81 Q1096,-20 891,-20 Q684,-20 509,83.5 Q334,187 236.5,360 Q139,533 139,731 M244,731 Q244,558 331,407.5 Q418,257 568.5,170.5 Q719,84 891,84 Q1065,84 1214,171 Q1363,258 1450.5,406.5 Q1538,555 1538,731 Q1538,905 1451,1054 Q1364,1203 1215.5,1290.5 Q1067,1378 891,1378 Q717,1378 568,1291 Q419,1204 331.5,1055.5 Q244,907 244,731"/> 
            <glyph glyph-name="ª" unicode="&#xAA;" horiz-adv-x="780" d=" M498,1479 Q612,1479 651,1376 L657,1376 L694,1466 L780,1466 L641,801 L549,801 L563,918 L559,918 Q519,862 469,825 Q419,788 346,788 Q269,788 219.5,848 Q170,908 170,1014 Q170,1141 211.5,1248.5 Q253,1356 328,1417.5 Q403,1479 498,1479 M381,891 Q442,891 493.5,940 Q545,989 579.5,1077.5 Q614,1166 614,1245 Q614,1307 585.5,1341.5 Q557,1376 500,1376 Q408,1376 345.5,1273 Q283,1170 283,1030 Q283,891 381,891"/> 
            <glyph glyph-name="«" unicode="&#xAB;" horiz-adv-x="936" d=" M88,584 L479,958 L557,877 L260,549 L432,162 L319,113 L88,555 M483,541 L850,946 L936,877 L653,512 L811,162 L698,113 L483,510"/> 
            <glyph glyph-name="¬" unicode="&#xAC;" horiz-adv-x="1047" d=" M1047,793 L1047,264 L907,264 L907,651 L127,651 L127,793"/> 
            <glyph glyph-name="­" unicode="&#xAD;" horiz-adv-x="569" d=" M55,469 L90,627 L569,627 L535,469"/> 
            <glyph glyph-name="®" unicode="&#xAE;" horiz-adv-x="1642" d=" M139,731 Q139,931 239,1106 Q339,1281 514,1382 Q689,1483 891,1483 Q1088,1483 1261,1386 Q1434,1289 1538,1114 Q1642,939 1642,731 Q1642,527 1541.5,354.5 Q1441,182 1268.5,81 Q1096,-20 891,-20 Q684,-20 509,83.5 Q334,187 236.5,360 Q139,533 139,731 M244,731 Q244,558 331,407.5 Q418,257 568.5,170.5 Q719,84 891,84 Q1065,84 1214,171 Q1363,258 1450.5,406.5 Q1538,555 1538,731 Q1538,905 1451,1054 Q1364,1203 1215.5,1290.5 Q1067,1378 891,1378 Q717,1378 568,1291 Q419,1204 331.5,1055.5 Q244,907 244,731 M1194,915 Q1194,837 1146.5,774 Q1099,711 1014,676 L1241,291 L1092,291 L885,643 L772,643 L772,291 L645,291 L645,1171 L874,1171 Q1037,1171 1115.5,1108 Q1194,1045 1194,915 M772,762 L864,762 Q1059,762 1059,911 Q1059,987 1011.5,1018 Q964,1049 862,1049 L772,1049"/> 
            <glyph glyph-name="¯" unicode="&#xAF;" horiz-adv-x="1047" d=" M1012,1556 L227,1556 L260,1688 L1047,1688"/> 
            <glyph glyph-name="°" unicode="&#xB0;" horiz-adv-x="838" d=" M215,1171 Q215,1299 305.5,1391 Q396,1483 526,1483 Q609,1483 681.5,1441.5 Q754,1400 796,1327.5 Q838,1255 838,1171 Q838,1043 747.5,952.5 Q657,862 526,862 Q395,862 305,952.5 Q215,1043 215,1171 M328,1171 Q328,1091 386,1033 Q444,975 526,975 Q609,975 666,1033.5 Q723,1092 723,1171 Q723,1253 665.5,1311.5 Q608,1370 526,1370 Q446,1370 387,1311.5 Q328,1253 328,1171"/> 
            <glyph glyph-name="±" unicode="&#xB1;" horiz-adv-x="1047" d=" M516,643 L127,643 L127,784 L516,784 L516,1176 L657,1176 L657,784 L1047,784 L1047,643 L657,643 L657,256 L516,256 M127,0 L127,141 L1047,141 L1047,0"/> 
            <glyph glyph-name="²" unicode="&#xB2;" horiz-adv-x="758" d=" M657,586 L96,586 L119,692 L383,920 Q498,1020 541.5,1069.5 Q585,1119 605,1162.5 Q625,1206 625,1253 Q625,1306 594,1338 Q563,1370 504,1370 Q414,1370 309,1290 L250,1380 Q375,1481 524,1481 Q633,1481 695.5,1424.5 Q758,1368 758,1274 Q758,1175 705.5,1094.5 Q653,1014 508,889 L287,702 L682,702"/> 
            <glyph glyph-name="³" unicode="&#xB3;" horiz-adv-x="756" d=" M549,1036 Q618,1019 657,968 Q696,917 696,848 Q696,716 605,642.5 Q514,569 352,569 Q227,569 119,625 L119,752 Q244,680 358,680 Q563,680 563,850 Q563,987 385,987 L295,987 L317,1094 L412,1094 Q509,1094 567,1135 Q625,1176 625,1247 Q625,1307 590.5,1337.5 Q556,1368 497,1368 Q395,1368 301,1300 L246,1393 Q355,1481 514,1481 Q628,1481 692,1425 Q756,1369 756,1274 Q756,1094 549,1040"/> 
            <glyph glyph-name="´" unicode="&#xB4;" horiz-adv-x="954" d=" M532,1268 Q588,1328 657.5,1419.5 Q727,1511 764,1569 L954,1569 L954,1548 Q916,1499 814,1397 Q712,1295 637,1241 L532,1241"/> 
            <glyph glyph-name="µ" unicode="&#xB5;" horiz-adv-x="1130" d=" M295,266 Q295,119 442,119 Q531,119 614,178 Q697,237 762.5,349 Q828,461 862,618 L967,1096 L1130,1096 L897,0 L758,0 L782,205 L770,205 Q677,84 587,32 Q497,-20 399,-20 Q287,-20 236,76 L227,76 Q216,-2 204.5,-72 Q193,-142 121,-492 L-43,-492 L293,1096 L461,1096 L313,401 Q295,309 295,266"/> 
            <glyph glyph-name="¶" unicode="&#xB6;" horiz-adv-x="1206" d=" M1206,-260 L1092,-260 L1092,1401 L879,1401 L879,-260 L764,-260 L764,559 Q702,541 618,541 Q402,541 300.5,666 Q199,791 199,1042 Q199,1302 308,1429 Q417,1556 649,1556 L1206,1556"/> 
            <glyph glyph-name="·" unicode="&#xB7;" horiz-adv-x="418" d=" M170,690 Q170,767 210.5,812.5 Q251,858 322,858 Q365,858 391.5,832 Q418,806 418,753 Q418,682 378,634.5 Q338,587 270,587 Q224,587 197,613 Q170,639 170,690"/> 
            <glyph glyph-name="¸" unicode="&#xB8;" horiz-adv-x="211" d=" M211,-276 Q211,-374 130,-433 Q49,-492 -84,-492 Q-125,-492 -170,-483 L-170,-383 Q-132,-389 -102,-389 Q72,-389 72,-279 Q72,-233 33,-211.5 Q-6,-190 -66,-182 L35,0 L141,0 L80,-121 Q211,-159 211,-276"/> 
            <glyph glyph-name="¹" unicode="&#xB9;" horiz-adv-x="655" d=" M537,1462 L655,1462 L469,586 L334,586 L446,1112 Q471,1215 504,1337 Q479,1312 454,1290.5 Q429,1269 309,1190 L258,1280"/> 
            <glyph glyph-name="º" unicode="&#xBA;" horiz-adv-x="745" d=" M745,1219 Q745,1028 656.5,908 Q568,788 416,788 Q303,788 235.5,859 Q168,930 168,1055 Q168,1172 210,1270.5 Q252,1369 327.5,1424 Q403,1479 502,1479 Q619,1479 682,1412 Q745,1345 745,1219 M500,1376 Q398,1376 339.5,1288.5 Q281,1201 281,1059 Q281,974 319,931.5 Q357,889 426,889 Q520,889 578.5,977.5 Q637,1066 637,1210 Q637,1376 500,1376"/> 
            <glyph glyph-name="»" unicode="&#xBB;" horiz-adv-x="872" d=" M872,485 L479,115 L401,197 L698,520 L526,911 L639,961 L872,514 M477,528 L109,127 L23,197 L305,557 L147,911 L260,961 L477,559"/> 
            <glyph glyph-name="¼" unicode="&#xBC;" horiz-adv-x="1362" d=" M1362,1462 L276,0 L123,0 L1208,1462 M739,1462 L857,1462 L671,586 L536,586 L648,1112 Q673,1215 706,1337 Q681,1312 656,1290.5 Q631,1269 511,1190 L460,1280 M1327,65739 L1198,65739 L1155,65537 L1028,65537 L1071,65739 L706,65739 L729,65840 L1210,66419 L1343,66419 L1222,65856 L1349,65856 M1095,65856 Q1164,66178 1185,66251 Q1165,66215 1075,66102 L870,65856"/> 
            <glyph glyph-name="½" unicode="&#xBD;" horiz-adv-x="1444" d=" M683,1462 L801,1462 L615,586 L480,586 L592,1112 Q617,1215 650,1337 Q625,1312 600,1290.5 Q575,1269 455,1190 L404,1280 M1305,1462 L219,0 L66,0 L1151,1462 M1343,65537 L782,65537 L805,65643 L1069,65871 Q1184,65971 1227.5,66020.5 Q1271,66070 1291,66113.5 Q1311,66157 1311,66204 Q1311,66257 1280,66289 Q1249,66321 1190,66321 Q1100,66321 995,66241 L936,66331 Q1061,66432 1210,66432 Q1319,66432 1381.5,66375.5 Q1444,66319 1444,66225 Q1444,66126 1391.5,66045.5 Q1339,65965 1194,65840 L973,65653 L1368,65653"/> 
            <glyph glyph-name="¾" unicode="&#xBE;" horiz-adv-x="1512" d=" M773,1036 Q842,1019 881,968 Q920,917 920,848 Q920,716 829,642.5 Q738,569 576,569 Q451,569 343,625 L343,752 Q468,680 582,680 Q787,680 787,850 Q787,987 609,987 L519,987 L541,1094 L636,1094 Q733,1094 791,1135 Q849,1176 849,1247 Q849,1307 814.5,1337.5 Q780,1368 721,1368 Q619,1368 525,1300 L470,1393 Q579,1481 738,1481 Q852,1481 916,1425 Q980,1369 980,1274 Q980,1094 773,1040 M1512,1462 L426,0 L273,0 L1358,1462 M1477,65739 L1348,65739 L1305,65537 L1178,65537 L1221,65739 L856,65739 L879,65840 L1360,66419 L1493,66419 L1372,65856 L1499,65856 M1245,65856 Q1314,66178 1335,66251 Q1315,66215 1225,66102 L1020,65856"/> 
            <glyph glyph-name="¿" unicode="&#xBF;" horiz-adv-x="760" d=" M657,680 Q635,550 585,468 Q535,386 420,293 L325,218 Q166,91 166,-57 Q166,-150 217.5,-201 Q269,-252 365,-252 Q445,-252 519,-226.5 Q593,-201 659,-170 L721,-299 Q631,-347 532,-373 Q433,-399 346,-399 Q178,-399 87,-315.5 Q-4,-232 -4,-78 Q-4,46 62,150 Q128,254 287,373 Q419,471 459.5,525.5 Q500,580 522,680 M760,1010 Q760,933 719.5,887.5 Q679,842 608,842 Q565,842 538.5,868 Q512,894 512,946 Q512,1017 552,1064.5 Q592,1112 659,1112 Q706,1112 733,1086.5 Q760,1061 760,1010"/> 
            <glyph glyph-name="À" unicode="&#xC0;" horiz-adv-x="1040" d=" M813,465 L317,465 L72,0 L-117,0 L682,1462 L856,1462 L1040,0 L870,0 M795,621 L760,920 Q736,1099 731,1270 Q694,1182 650.5,1095 Q607,1008 401,621 M66399,1579 L66295,1579 Q66234,1640 66166.5,1733 Q66099,1826 66071,1886 L66071,1907 L66252,1907 Q66295,1771 66399,1604"/> 
            <glyph glyph-name="Á" unicode="&#xC1;" horiz-adv-x="1101" d=" M813,465 L317,465 L72,0 L-117,0 L682,1462 L856,1462 L1040,0 L870,0 M795,621 L760,920 Q736,1099 731,1270 Q694,1182 650.5,1095 Q607,1008 401,621 M679,1606 Q735,1666 804.5,1757.5 Q874,1849 911,1907 L1101,1907 L1101,1886 Q1063,1837 961,1735 Q859,1633 784,1579 L679,1579"/> 
            <glyph glyph-name="Â" unicode="&#xC2;" horiz-adv-x="1080" d=" M813,465 L317,465 L72,0 L-117,0 L682,1462 L856,1462 L1040,0 L870,0 M795,621 L760,920 Q736,1099 731,1270 Q694,1182 650.5,1095 Q607,1008 401,621 M1080,1579 L977,1579 Q920,1627 816,1768 Q682,1649 574,1579 L465,1579 L465,1606 Q610,1739 669.5,1803.5 Q729,1868 752,1907 L910,1907 Q947,1808 1038,1672 L1080,1606"/> 
            <glyph glyph-name="Ã" unicode="&#xC3;" horiz-adv-x="1167" d=" M813,465 L317,465 L72,0 L-117,0 L682,1462 L856,1462 L1040,0 L870,0 M795,621 L760,920 Q736,1099 731,1270 Q694,1182 650.5,1095 Q607,1008 401,621 M934,1581 Q894,1581 856.5,1598.5 Q819,1616 783.5,1637.5 Q748,1659 714.5,1676.5 Q681,1694 649,1694 Q605,1694 579.5,1665.5 Q554,1637 532,1579 L432,1579 Q490,1837 663,1837 Q707,1837 746.5,1819 Q786,1801 821.5,1779.5 Q857,1758 888,1740 Q919,1722 946,1722 Q990,1722 1015.5,1749 Q1041,1776 1067,1839 L1167,1839 Q1101,1581 934,1581"/> 
            <glyph glyph-name="Ä" unicode="&#xC4;" horiz-adv-x="1067" d=" M813,465 L317,465 L72,0 L-117,0 L682,1462 L856,1462 L1040,0 L870,0 M795,621 L760,920 Q736,1099 731,1270 Q694,1182 650.5,1095 Q607,1008 401,621 M523,1716 Q523,1762 551,1795.5 Q579,1829 625,1829 Q703,1829 703,1749 Q703,1700 673.5,1666 Q644,1632 605,1632 Q570,1632 546.5,1654 Q523,1676 523,1716 M887,1716 Q887,1762 915,1795.5 Q943,1829 990,1829 Q1067,1829 1067,1749 Q1067,1700 1037.5,1666 Q1008,1632 969,1632 Q934,1632 910.5,1654 Q887,1676 887,1716"/> 
            <glyph glyph-name="Å" unicode="&#xC5;" horiz-adv-x="1040" d=" M813,465 L317,465 L72,0 L-117,0 L682,1462 L856,1462 L1040,0 L870,0 M795,621 L760,920 Q736,1099 731,1270 Q694,1182 650.5,1095 Q607,1008 401,621 M991,1585 Q991,1486 931,1428 Q871,1370 772,1370 Q671,1370 612,1427.5 Q553,1485 553,1583 Q553,1677 615,1735.5 Q677,1794 772,1794 Q873,1794 932,1737 Q991,1680 991,1585 M887,1583 Q887,1636 855,1667 Q823,1698 772,1698 Q723,1698 690,1667 Q657,1636 657,1583 Q657,1529 686.5,1498.5 Q716,1468 772,1468 Q823,1468 855,1498.5 Q887,1529 887,1583"/> 
            <glyph glyph-name="Æ" unicode="&#xC6;" horiz-adv-x="1757" d=" M1448,0 L711,0 L809,465 L371,465 L78,0 L-119,0 L819,1462 L1757,1462 L1724,1309 L1159,1309 L1059,840 L1587,840 L1559,690 L1030,690 L915,152 L1481,152 M840,621 L987,1309 L903,1309 L469,621"/> 
            <glyph glyph-name="Ç" unicode="&#xC7;" horiz-adv-x="1290" d=" M942,1331 Q768,1331 630.5,1234 Q493,1137 412.5,949.5 Q332,762 332,541 Q332,354 429.5,242.5 Q527,131 698,131 Q837,131 1020,188 L1020,39 Q934,8 856,-6 Q778,-20 668,-20 Q426,-20 288,129.5 Q150,279 150,537 Q150,798 255.5,1022.5 Q361,1247 539,1365 Q717,1483 942,1483 Q1139,1483 1290,1403 L1221,1262 Q1083,1331 942,1331 M758,-276 Q758,-374 677,-433 Q596,-492 463,-492 Q422,-492 377,-483 L377,-383 Q415,-389 445,-389 Q619,-389 619,-279 Q619,-233 580,-211.5 Q541,-190 481,-182 L582,0 L688,0 L627,-121 Q758,-159 758,-276"/> 
            <glyph glyph-name="È" unicode="&#xC8;" horiz-adv-x="1130" d=" M821,0 L86,0 L395,1462 L1130,1462 L1098,1309 L532,1309 L434,840 L961,840 L932,688 L403,688 L289,152 L854,152 M66434,1579 L66330,1579 Q66269,1640 66201.5,1733 Q66134,1826 66106,1886 L66106,1907 L66287,1907 Q66330,1771 66434,1604"/> 
            <glyph glyph-name="É" unicode="&#xC9;" horiz-adv-x="1130" d=" M821,0 L86,0 L395,1462 L1130,1462 L1098,1309 L532,1309 L434,840 L961,840 L932,688 L403,688 L289,152 L854,152 M657,1606 Q713,1666 782.5,1757.5 Q852,1849 889,1907 L1079,1907 L1079,1886 Q1041,1837 939,1735 Q837,1633 762,1579 L657,1579"/> 
            <glyph glyph-name="Ê" unicode="&#xCA;" horiz-adv-x="1130" d=" M821,0 L86,0 L395,1462 L1130,1462 L1098,1309 L532,1309 L434,840 L961,840 L932,688 L403,688 L289,152 L854,152 M1084,1579 L981,1579 Q924,1627 820,1768 Q686,1649 578,1579 L469,1579 L469,1606 Q614,1739 673.5,1803.5 Q733,1868 756,1907 L914,1907 Q951,1808 1042,1672 L1084,1606"/> 
            <glyph glyph-name="Ë" unicode="&#xCB;" horiz-adv-x="1130" d=" M821,0 L86,0 L395,1462 L1130,1462 L1098,1309 L532,1309 L434,840 L961,840 L932,688 L403,688 L289,152 L854,152 M523,1716 Q523,1762 551,1795.5 Q579,1829 625,1829 Q703,1829 703,1749 Q703,1700 673.5,1666 Q644,1632 605,1632 Q570,1632 546.5,1654 Q523,1676 523,1716 M887,1716 Q887,1762 915,1795.5 Q943,1829 990,1829 Q1067,1829 1067,1749 Q1067,1700 1037.5,1666 Q1008,1632 969,1632 Q934,1632 910.5,1654 Q887,1676 887,1716"/> 
            <glyph glyph-name="Ì" unicode="&#xCC;" horiz-adv-x="593" d=" M86,0 L397,1462 L565,1462 L254,0 M66129,1579 L66025,1579 Q65964,1640 65896.5,1733 Q65829,1826 65801,1886 L65801,1907 L65982,1907 Q66025,1771 66129,1604"/> 
            <glyph glyph-name="Í" unicode="&#xCD;" horiz-adv-x="834" d=" M86,0 L397,1462 L565,1462 L254,0 M65948,1606 Q66004,1666 66073.5,1757.5 Q66143,1849 66180,1907 L66370,1907 L66370,1886 Q66332,1837 66230,1735 Q66128,1633 66053,1579 L65948,1579"/> 
            <glyph glyph-name="Î" unicode="&#xCE;" horiz-adv-x="808" d=" M86,0 L397,1462 L565,1462 L254,0 M66344,1579 L66241,1579 Q66184,1627 66080,1768 Q65946,1649 65838,1579 L65729,1579 L65729,1606 Q65874,1739 65933.5,1803.5 Q65993,1868 66016,1907 L66174,1907 Q66211,1808 66302,1672 L66344,1606"/> 
            <glyph glyph-name="Ï" unicode="&#xCF;" horiz-adv-x="809" d=" M86,0 L397,1462 L565,1462 L254,0 M65801,1716 Q65801,1762 65829,1795.5 Q65857,1829 65903,1829 Q65981,1829 65981,1749 Q65981,1700 65951.5,1666 Q65922,1632 65883,1632 Q65848,1632 65824.5,1654 Q65801,1676 65801,1716 M66165,1716 Q66165,1762 66193,1795.5 Q66221,1829 66268,1829 Q66345,1829 66345,1749 Q66345,1700 66315.5,1666 Q66286,1632 66247,1632 Q66212,1632 66188.5,1654 Q66165,1676 66165,1716"/> 
            <glyph glyph-name="Ð" unicode="&#xD0;" horiz-adv-x="1300" d=" M1300,877 Q1300,616 1195,416 Q1090,216 895,108 Q700,0 438,0 L86,0 L221,649 L72,649 L104,799 L254,799 L395,1462 L737,1462 Q1013,1462 1156.5,1312.5 Q1300,1163 1300,877 M449,147 Q651,147 804,238.5 Q957,330 1038.5,497 Q1120,664 1120,879 Q1120,1094 1017,1204.5 Q914,1315 715,1315 L537,1315 L426,799 L756,799 L723,649 L393,649 L287,147"/> 
            <glyph glyph-name="Ñ" unicode="&#xD1;" horiz-adv-x="1448" d=" M1139,0 L958,0 L498,1223 L492,1223 Q460,1002 418,805 L246,0 L84,0 L393,1462 L573,1462 L1032,242 L1038,242 Q1068,466 1110,647 L1284,1462 L1448,1462 M1102,1581 Q1062,1581 1024.5,1598.5 Q987,1616 951.5,1637.5 Q916,1659 882.5,1676.5 Q849,1694 817,1694 Q773,1694 747.5,1665.5 Q722,1637 700,1579 L600,1579 Q658,1837 831,1837 Q875,1837 914.5,1819 Q954,1801 989.5,1779.5 Q1025,1758 1056,1740 Q1087,1722 1114,1722 Q1158,1722 1183.5,1749 Q1209,1776 1235,1839 L1335,1839 Q1269,1581 1102,1581"/> 
            <glyph glyph-name="Ò" unicode="&#xD2;" horiz-adv-x="1411" d=" M1411,907 Q1411,638 1323,425.5 Q1235,213 1071,96.5 Q907,-20 692,-20 Q436,-20 293,129.5 Q150,279 150,549 Q150,813 246,1031 Q342,1249 509.5,1367 Q677,1485 887,1485 Q1131,1485 1271,1331 Q1411,1177 1411,907 M874,1333 Q717,1333 593,1232 Q469,1131 400.5,951 Q332,771 332,553 Q332,354 430,242.5 Q528,131 696,131 Q848,131 968.5,228.5 Q1089,326 1159,508 Q1229,690 1229,911 Q1229,1110 1135,1221.5 Q1041,1333 874,1333 M1007,1579 L903,1579 Q842,1640 774.5,1733 Q707,1826 679,1886 L679,1907 L860,1907 Q903,1771 1007,1604"/> 
            <glyph glyph-name="Ó" unicode="&#xD3;" horiz-adv-x="1411" d=" M1411,907 Q1411,638 1323,425.5 Q1235,213 1071,96.5 Q907,-20 692,-20 Q436,-20 293,129.5 Q150,279 150,549 Q150,813 246,1031 Q342,1249 509.5,1367 Q677,1485 887,1485 Q1131,1485 1271,1331 Q1411,1177 1411,907 M874,1333 Q717,1333 593,1232 Q469,1131 400.5,951 Q332,771 332,553 Q332,354 430,242.5 Q528,131 696,131 Q848,131 968.5,228.5 Q1089,326 1159,508 Q1229,690 1229,911 Q1229,1110 1135,1221.5 Q1041,1333 874,1333 M821,1606 Q877,1666 946.5,1757.5 Q1016,1849 1053,1907 L1243,1907 L1243,1886 Q1205,1837 1103,1735 Q1001,1633 926,1579 L821,1579"/> 
            <glyph glyph-name="Ô" unicode="&#xD4;" horiz-adv-x="1411" d=" M1411,907 Q1411,638 1323,425.5 Q1235,213 1071,96.5 Q907,-20 692,-20 Q436,-20 293,129.5 Q150,279 150,549 Q150,813 246,1031 Q342,1249 509.5,1367 Q677,1485 887,1485 Q1131,1485 1271,1331 Q1411,1177 1411,907 M874,1333 Q717,1333 593,1232 Q469,1131 400.5,951 Q332,771 332,553 Q332,354 430,242.5 Q528,131 696,131 Q848,131 968.5,228.5 Q1089,326 1159,508 Q1229,690 1229,911 Q1229,1110 1135,1221.5 Q1041,1333 874,1333 M1227,1579 L1124,1579 Q1067,1627 963,1768 Q829,1649 721,1579 L612,1579 L612,1606 Q757,1739 816.5,1803.5 Q876,1868 899,1907 L1057,1907 Q1094,1808 1185,1672 L1227,1606"/> 
            <glyph glyph-name="Õ" unicode="&#xD5;" horiz-adv-x="1411" d=" M1411,907 Q1411,638 1323,425.5 Q1235,213 1071,96.5 Q907,-20 692,-20 Q436,-20 293,129.5 Q150,279 150,549 Q150,813 246,1031 Q342,1249 509.5,1367 Q677,1485 887,1485 Q1131,1485 1271,1331 Q1411,1177 1411,907 M874,1333 Q717,1333 593,1232 Q469,1131 400.5,951 Q332,771 332,553 Q332,354 430,242.5 Q528,131 696,131 Q848,131 968.5,228.5 Q1089,326 1159,508 Q1229,690 1229,911 Q1229,1110 1135,1221.5 Q1041,1333 874,1333 M1067,1581 Q1027,1581 989.5,1598.5 Q952,1616 916.5,1637.5 Q881,1659 847.5,1676.5 Q814,1694 782,1694 Q738,1694 712.5,1665.5 Q687,1637 665,1579 L565,1579 Q623,1837 796,1837 Q840,1837 879.5,1819 Q919,1801 954.5,1779.5 Q990,1758 1021,1740 Q1052,1722 1079,1722 Q1123,1722 1148.5,1749 Q1174,1776 1200,1839 L1300,1839 Q1234,1581 1067,1581"/> 
            <glyph glyph-name="Ö" unicode="&#xD6;" horiz-adv-x="1411" d=" M1411,907 Q1411,638 1323,425.5 Q1235,213 1071,96.5 Q907,-20 692,-20 Q436,-20 293,129.5 Q150,279 150,549 Q150,813 246,1031 Q342,1249 509.5,1367 Q677,1485 887,1485 Q1131,1485 1271,1331 Q1411,1177 1411,907 M874,1333 Q717,1333 593,1232 Q469,1131 400.5,951 Q332,771 332,553 Q332,354 430,242.5 Q528,131 696,131 Q848,131 968.5,228.5 Q1089,326 1159,508 Q1229,690 1229,911 Q1229,1110 1135,1221.5 Q1041,1333 874,1333 M664,1716 Q664,1762 692,1795.5 Q720,1829 766,1829 Q844,1829 844,1749 Q844,1700 814.5,1666 Q785,1632 746,1632 Q711,1632 687.5,1654 Q664,1676 664,1716 M1028,1716 Q1028,1762 1056,1795.5 Q1084,1829 1131,1829 Q1208,1829 1208,1749 Q1208,1700 1178.5,1666 Q1149,1632 1110,1632 Q1075,1632 1051.5,1654 Q1028,1676 1028,1716"/> 
            <glyph glyph-name="×" unicode="&#xD7;" horiz-adv-x="1008" d=" M487,723 L168,1044 L266,1143 L586,823 L909,1143 L1008,1047 L684,723 L1006,401 L909,305 L586,625 L266,307 L170,403"/> 
            <glyph glyph-name="Ø" unicode="&#xD8;" horiz-adv-x="1462" d=" M1411,907 Q1411,638 1323,425.5 Q1235,213 1071,96.5 Q907,-20 692,-20 Q492,-20 360,76 L231,-84 L119,8 L256,178 Q150,314 150,549 Q150,813 246,1031 Q342,1249 509.5,1367 Q677,1485 887,1485 Q986,1485 1065.5,1458 Q1145,1431 1217,1374 L1348,1540 L1462,1448 L1313,1264 Q1361,1202 1386,1108 Q1411,1014 1411,907 M874,1333 Q717,1333 593,1232 Q469,1131 400.5,951 Q332,771 332,553 Q332,418 373,326 L1110,1245 Q1020,1333 874,1333 M1229,911 Q1229,1029 1196,1116 L463,205 Q554,131 696,131 Q848,131 968.5,228.5 Q1089,326 1159,508 Q1229,690 1229,911"/> 
            <glyph glyph-name="Ù" unicode="&#xD9;" horiz-adv-x="1407" d=" M1407,1462 L1202,496 Q1147,233 1004.5,106.5 Q862,-20 616,-20 Q386,-20 275,84 Q164,188 164,383 Q164,464 188,584 L377,1462 L547,1462 L356,571 Q334,465 334,383 Q334,266 407,198.5 Q480,131 625,131 Q797,131 892.5,218.5 Q988,306 1032,508 L1237,1462 M991,1579 L887,1579 Q826,1640 758.5,1733 Q691,1826 663,1886 L663,1907 L844,1907 Q887,1771 991,1604"/> 
            <glyph glyph-name="Ú" unicode="&#xDA;" horiz-adv-x="1407" d=" M1407,1462 L1202,496 Q1147,233 1004.5,106.5 Q862,-20 616,-20 Q386,-20 275,84 Q164,188 164,383 Q164,464 188,584 L377,1462 L547,1462 L356,571 Q334,465 334,383 Q334,266 407,198.5 Q480,131 625,131 Q797,131 892.5,218.5 Q988,306 1032,508 L1237,1462 M823,1606 Q879,1666 948.5,1757.5 Q1018,1849 1055,1907 L1245,1907 L1245,1886 Q1207,1837 1105,1735 Q1003,1633 928,1579 L823,1579"/> 
            <glyph glyph-name="Û" unicode="&#xDB;" horiz-adv-x="1407" d=" M1407,1462 L1202,496 Q1147,233 1004.5,106.5 Q862,-20 616,-20 Q386,-20 275,84 Q164,188 164,383 Q164,464 188,584 L377,1462 L547,1462 L356,571 Q334,465 334,383 Q334,266 407,198.5 Q480,131 625,131 Q797,131 892.5,218.5 Q988,306 1032,508 L1237,1462 M1217,1579 L1114,1579 Q1057,1627 953,1768 Q819,1649 711,1579 L602,1579 L602,1606 Q747,1739 806.5,1803.5 Q866,1868 889,1907 L1047,1907 Q1084,1808 1175,1672 L1217,1606"/> 
            <glyph glyph-name="Ü" unicode="&#xDC;" horiz-adv-x="1407" d=" M1407,1462 L1202,496 Q1147,233 1004.5,106.5 Q862,-20 616,-20 Q386,-20 275,84 Q164,188 164,383 Q164,464 188,584 L377,1462 L547,1462 L356,571 Q334,465 334,383 Q334,266 407,198.5 Q480,131 625,131 Q797,131 892.5,218.5 Q988,306 1032,508 L1237,1462 M643,1716 Q643,1762 671,1795.5 Q699,1829 745,1829 Q823,1829 823,1749 Q823,1700 793.5,1666 Q764,1632 725,1632 Q690,1632 666.5,1654 Q643,1676 643,1716 M1007,1716 Q1007,1762 1035,1795.5 Q1063,1829 1110,1829 Q1187,1829 1187,1749 Q1187,1700 1157.5,1666 Q1128,1632 1089,1632 Q1054,1632 1030.5,1654 Q1007,1676 1007,1716"/> 
            <glyph glyph-name="Ý" unicode="&#xDD;" horiz-adv-x="1219" d=" M537,715 L1026,1462 L1219,1462 L592,541 L479,0 L307,0 L426,549 L188,1462 L358,1462 M616,1606 Q672,1666 741.5,1757.5 Q811,1849 848,1907 L1038,1907 L1038,1886 Q1000,1837 898,1735 Q796,1633 721,1579 L616,1579"/> 
            <glyph glyph-name="Þ" unicode="&#xDE;" horiz-adv-x="1106" d=" M1106,829 Q1106,581 942,450 Q778,319 459,319 L326,319 L256,0 L86,0 L395,1462 L565,1462 L512,1206 L672,1206 Q885,1206 995.5,1111 Q1106,1016 1106,829 M354,465 L489,465 Q704,465 817,556 Q930,647 930,823 Q930,949 860,1004 Q790,1059 645,1059 L479,1059"/> 
            <glyph glyph-name="ß" unicode="&#xDF;" horiz-adv-x="1112" d=" M-133,-492 Q-202,-492 -256,-471 L-256,-328 Q-195,-350 -145,-350 Q-80,-350 -38,-302.5 Q4,-255 27,-145 L307,1169 Q350,1369 463,1468 Q576,1567 770,1567 Q932,1567 1022,1496 Q1112,1425 1112,1300 Q1112,1243 1091,1193.5 Q1070,1144 1029.5,1098.5 Q989,1053 851,948 Q741,865 741,797 Q741,741 836,675 Q883,641 937,587.5 Q991,534 1016.5,477.5 Q1042,421 1042,354 Q1042,179 933.5,79.5 Q825,-20 641,-20 Q466,-20 373,51 L373,211 Q424,170 491.5,144.5 Q559,119 621,119 Q734,119 802,177 Q870,235 870,336 Q870,376 859.5,407 Q849,438 826,466 Q803,494 737,549 Q649,618 614.5,673 Q580,728 580,788 Q580,841 598.5,884 Q617,927 648,962.5 Q679,998 772,1067 Q852,1123 883,1154.5 Q914,1186 931,1219.5 Q948,1253 948,1290 Q948,1354 895.5,1390.5 Q843,1427 754,1427 Q635,1427 568,1364.5 Q501,1302 473,1174 L199,-129 Q159,-318 78,-405 Q-3,-492 -133,-492"/> 
            <glyph glyph-name="à" unicode="&#xE0;" horiz-adv-x="1120" d=" M639,1116 Q731,1116 803,1066.5 Q875,1017 915,924 L926,924 L993,1096 L1120,1096 L887,0 L754,0 L780,209 L772,209 Q593,-20 395,-20 Q256,-20 177,79 Q98,178 98,350 Q98,558 169,736 Q240,914 365,1015 Q490,1116 639,1116 M449,119 Q546,119 642,211.5 Q738,304 798,452.5 Q858,601 858,750 Q858,853 802,914 Q746,975 655,975 Q551,975 461.5,889 Q372,803 321,656 Q270,509 270,346 Q270,232 317,175.5 Q364,119 449,119 M1080,1241 L976,1241 Q915,1302 847.5,1395 Q780,1488 752,1548 L752,1569 L933,1569 Q976,1433 1080,1266"/> 
            <glyph glyph-name="á" unicode="&#xE1;" horiz-adv-x="1120" d=" M639,1116 Q731,1116 803,1066.5 Q875,1017 915,924 L926,924 L993,1096 L1120,1096 L887,0 L754,0 L780,209 L772,209 Q593,-20 395,-20 Q256,-20 177,79 Q98,178 98,350 Q98,558 169,736 Q240,914 365,1015 Q490,1116 639,1116 M449,119 Q546,119 642,211.5 Q738,304 798,452.5 Q858,601 858,750 Q858,853 802,914 Q746,975 655,975 Q551,975 461.5,889 Q372,803 321,656 Q270,509 270,346 Q270,232 317,175.5 Q364,119 449,119 M600,1268 Q656,1328 725.5,1419.5 Q795,1511 832,1569 L1022,1569 L1022,1548 Q984,1499 882,1397 Q780,1295 705,1241 L600,1241"/> 
            <glyph glyph-name="â" unicode="&#xE2;" horiz-adv-x="1120" d=" M639,1116 Q731,1116 803,1066.5 Q875,1017 915,924 L926,924 L993,1096 L1120,1096 L887,0 L754,0 L780,209 L772,209 Q593,-20 395,-20 Q256,-20 177,79 Q98,178 98,350 Q98,558 169,736 Q240,914 365,1015 Q490,1116 639,1116 M449,119 Q546,119 642,211.5 Q738,304 798,452.5 Q858,601 858,750 Q858,853 802,914 Q746,975 655,975 Q551,975 461.5,889 Q372,803 321,656 Q270,509 270,346 Q270,232 317,175.5 Q364,119 449,119 M1261,1241 L1158,1241 Q1101,1289 997,1430 Q863,1311 755,1241 L646,1241 L646,1268 Q791,1401 850.5,1465.5 Q910,1530 933,1569 L1091,1569 Q1128,1470 1219,1334 L1261,1268"/> 
            <glyph glyph-name="ã" unicode="&#xE3;" horiz-adv-x="1120" d=" M639,1116 Q731,1116 803,1066.5 Q875,1017 915,924 L926,924 L993,1096 L1120,1096 L887,0 L754,0 L780,209 L772,209 Q593,-20 395,-20 Q256,-20 177,79 Q98,178 98,350 Q98,558 169,736 Q240,914 365,1015 Q490,1116 639,1116 M449,119 Q546,119 642,211.5 Q738,304 798,452.5 Q858,601 858,750 Q858,853 802,914 Q746,975 655,975 Q551,975 461.5,889 Q372,803 321,656 Q270,509 270,346 Q270,232 317,175.5 Q364,119 449,119 M856,1243 Q816,1243 778.5,1260.5 Q741,1278 705.5,1299.5 Q670,1321 636.5,1338.5 Q603,1356 571,1356 Q527,1356 501.5,1327.5 Q476,1299 454,1241 L354,1241 Q412,1499 585,1499 Q629,1499 668.5,1481 Q708,1463 743.5,1441.5 Q779,1420 810,1402 Q841,1384 868,1384 Q912,1384 937.5,1411 Q963,1438 989,1501 L1089,1501 Q1023,1243 856,1243"/> 
            <glyph glyph-name="ä" unicode="&#xE4;" horiz-adv-x="1120" d=" M639,1116 Q731,1116 803,1066.5 Q875,1017 915,924 L926,924 L993,1096 L1120,1096 L887,0 L754,0 L780,209 L772,209 Q593,-20 395,-20 Q256,-20 177,79 Q98,178 98,350 Q98,558 169,736 Q240,914 365,1015 Q490,1116 639,1116 M449,119 Q546,119 642,211.5 Q738,304 798,452.5 Q858,601 858,750 Q858,853 802,914 Q746,975 655,975 Q551,975 461.5,889 Q372,803 321,656 Q270,509 270,346 Q270,232 317,175.5 Q364,119 449,119 M710,1378 Q710,1424 738,1457.5 Q766,1491 812,1491 Q890,1491 890,1411 Q890,1362 860.5,1328 Q831,1294 792,1294 Q757,1294 733.5,1316 Q710,1338 710,1378 M1074,1378 Q1074,1424 1102,1457.5 Q1130,1491 1177,1491 Q1254,1491 1254,1411 Q1254,1362 1224.5,1328 Q1195,1294 1156,1294 Q1121,1294 1097.5,1316 Q1074,1338 1074,1378"/> 
            <glyph glyph-name="å" unicode="&#xE5;" horiz-adv-x="1120" d=" M639,1116 Q731,1116 803,1066.5 Q875,1017 915,924 L926,924 L993,1096 L1120,1096 L887,0 L754,0 L780,209 L772,209 Q593,-20 395,-20 Q256,-20 177,79 Q98,178 98,350 Q98,558 169,736 Q240,914 365,1015 Q490,1116 639,1116 M449,119 Q546,119 642,211.5 Q738,304 798,452.5 Q858,601 858,750 Q858,853 802,914 Q746,975 655,975 Q551,975 461.5,889 Q372,803 321,656 Q270,509 270,346 Q270,232 317,175.5 Q364,119 449,119 M1207,1456 Q1207,1357 1147,1299 Q1087,1241 988,1241 Q887,1241 828,1298.5 Q769,1356 769,1454 Q769,1548 831,1606.5 Q893,1665 988,1665 Q1089,1665 1148,1608 Q1207,1551 1207,1456 M1103,1454 Q1103,1507 1071,1538 Q1039,1569 988,1569 Q939,1569 906,1538 Q873,1507 873,1454 Q873,1400 902.5,1369.5 Q932,1339 988,1339 Q1039,1339 1071,1369.5 Q1103,1400 1103,1454"/> 
            <glyph glyph-name="æ" unicode="&#xE6;" horiz-adv-x="1624" d=" M1165,-20 Q1057,-20 975.5,19.5 Q894,59 854,139 L823,0 L709,0 L735,209 L727,209 Q618,77 535.5,28.5 Q453,-20 358,-20 Q236,-20 167,79 Q98,178 98,348 Q98,554 168.5,733 Q239,912 360,1014 Q481,1116 623,1116 Q705,1116 768,1067.5 Q831,1019 870,924 L881,924 L948,1096 L1057,1096 L1026,950 Q1149,1116 1358,1116 Q1477,1116 1550.5,1048 Q1624,980 1624,864 Q1624,682 1457.5,580.5 Q1291,479 985,479 L946,479 L942,399 Q942,268 1004.5,194.5 Q1067,121 1198,121 Q1253,121 1314.5,137.5 Q1376,154 1493,205 L1493,55 Q1329,-20 1165,-20 M412,119 Q507,119 600.5,210.5 Q694,302 753.5,451 Q813,600 813,750 Q813,853 767.5,914 Q722,975 645,975 Q546,975 458,888.5 Q370,802 320,657 Q270,512 270,348 Q270,234 307,176.5 Q344,119 412,119 M1325,973 Q1208,973 1114,878.5 Q1020,784 973,618 L987,618 Q1213,618 1335.5,676.5 Q1458,735 1458,846 Q1458,907 1423,940 Q1388,973 1325,973"/> 
            <glyph glyph-name="ç" unicode="&#xE7;" horiz-adv-x="938" d=" M506,-20 Q312,-20 205,87 Q98,194 98,389 Q98,589 172,758 Q246,927 376.5,1021.5 Q507,1116 670,1116 Q807,1116 938,1065 L891,924 Q771,975 672,975 Q560,975 467.5,898.5 Q375,822 322.5,685.5 Q270,549 270,389 Q270,261 336.5,190 Q403,119 520,119 Q592,119 656,139 Q720,159 782,186 L782,43 Q658,-20 506,-20 M592,-276 Q592,-374 511,-433 Q430,-492 297,-492 Q256,-492 211,-483 L211,-383 Q249,-389 279,-389 Q453,-389 453,-279 Q453,-233 414,-211.5 Q375,-190 315,-182 L416,0 L522,0 L461,-121 Q592,-159 592,-276"/> 
            <glyph glyph-name="è" unicode="&#xE8;" horiz-adv-x="948" d=" M492,-20 Q308,-20 203,89 Q98,198 98,391 Q98,579 172.5,751.5 Q247,924 370,1020 Q493,1116 641,1116 Q794,1116 871,1049.5 Q948,983 948,864 Q948,684 782,581.5 Q616,479 307,479 L274,479 L270,399 Q270,268 331.5,194.5 Q393,121 522,121 Q585,121 651.5,139 Q718,157 817,205 L817,59 Q723,15 651,-2.5 Q579,-20 492,-20 M631,973 Q528,973 437.5,879 Q347,785 299,618 L311,618 Q539,618 660.5,677.5 Q782,737 782,850 Q782,903 745.5,938 Q709,973 631,973 M1033,1241 L929,1241 Q868,1302 800.5,1395 Q733,1488 705,1548 L705,1569 L886,1569 Q929,1433 1033,1266"/> 
            <glyph glyph-name="é" unicode="&#xE9;" horiz-adv-x="1007" d=" M492,-20 Q308,-20 203,89 Q98,198 98,391 Q98,579 172.5,751.5 Q247,924 370,1020 Q493,1116 641,1116 Q794,1116 871,1049.5 Q948,983 948,864 Q948,684 782,581.5 Q616,479 307,479 L274,479 L270,399 Q270,268 331.5,194.5 Q393,121 522,121 Q585,121 651.5,139 Q718,157 817,205 L817,59 Q723,15 651,-2.5 Q579,-20 492,-20 M631,973 Q528,973 437.5,879 Q347,785 299,618 L311,618 Q539,618 660.5,677.5 Q782,737 782,850 Q782,903 745.5,938 Q709,973 631,973 M585,1268 Q641,1328 710.5,1419.5 Q780,1511 817,1569 L1007,1569 L1007,1548 Q969,1499 867,1397 Q765,1295 690,1241 L585,1241"/> 
            <glyph glyph-name="ê" unicode="&#xEA;" horiz-adv-x="966" d=" M492,-20 Q308,-20 203,89 Q98,198 98,391 Q98,579 172.5,751.5 Q247,924 370,1020 Q493,1116 641,1116 Q794,1116 871,1049.5 Q948,983 948,864 Q948,684 782,581.5 Q616,479 307,479 L274,479 L270,399 Q270,268 331.5,194.5 Q393,121 522,121 Q585,121 651.5,139 Q718,157 817,205 L817,59 Q723,15 651,-2.5 Q579,-20 492,-20 M631,973 Q528,973 437.5,879 Q347,785 299,618 L311,618 Q539,618 660.5,677.5 Q782,737 782,850 Q782,903 745.5,938 Q709,973 631,973 M1222,1241 L1119,1241 Q1062,1289 958,1430 Q824,1311 716,1241 L607,1241 L607,1268 Q752,1401 811.5,1465.5 Q871,1530 894,1569 L1052,1569 Q1089,1470 1180,1334 L1222,1268"/> 
            <glyph glyph-name="ë" unicode="&#xEB;" horiz-adv-x="957" d=" M492,-20 Q308,-20 203,89 Q98,198 98,391 Q98,579 172.5,751.5 Q247,924 370,1020 Q493,1116 641,1116 Q794,1116 871,1049.5 Q948,983 948,864 Q948,684 782,581.5 Q616,479 307,479 L274,479 L270,399 Q270,268 331.5,194.5 Q393,121 522,121 Q585,121 651.5,139 Q718,157 817,205 L817,59 Q723,15 651,-2.5 Q579,-20 492,-20 M631,973 Q528,973 437.5,879 Q347,785 299,618 L311,618 Q539,618 660.5,677.5 Q782,737 782,850 Q782,903 745.5,938 Q709,973 631,973 M669,1378 Q669,1424 697,1457.5 Q725,1491 771,1491 Q849,1491 849,1411 Q849,1362 819.5,1328 Q790,1294 751,1294 Q716,1294 692.5,1316 Q669,1338 669,1378 M1033,1378 Q1033,1424 1061,1457.5 Q1089,1491 1136,1491 Q1213,1491 1213,1411 Q1213,1362 1183.5,1328 Q1154,1294 1115,1294 Q1080,1294 1056.5,1316 Q1033,1338 1033,1378"/> 
            <glyph glyph-name="ì" unicode="&#xEC;" horiz-adv-x="492" d=" M227,0 L59,0 L293,1096 L461,1096 M66028,1241 L65924,1241 Q65863,1302 65795.5,1395 Q65728,1488 65700,1548 L65700,1569 L65881,1569 Q65924,1433 66028,1266"/> 
            <glyph glyph-name="í" unicode="&#xED;" horiz-adv-x="746" d=" M227,0 L59,0 L293,1096 L461,1096 M65860,1268 Q65916,1328 65985.5,1419.5 Q66055,1511 66092,1569 L66282,1569 L66282,1548 Q66244,1499 66142,1397 Q66040,1295 65965,1241 L65860,1241"/> 
            <glyph glyph-name="î" unicode="&#xEE;" horiz-adv-x="708" d=" M227,0 L59,0 L293,1096 L461,1096 M66244,1241 L66141,1241 Q66084,1289 65980,1430 Q65846,1311 65738,1241 L65629,1241 L65629,1268 Q65774,1401 65833.5,1465.5 Q65893,1530 65916,1569 L66074,1569 Q66111,1470 66202,1334 L66244,1268"/> 
            <glyph glyph-name="ï" unicode="&#xEF;" horiz-adv-x="705" d=" M227,0 L59,0 L293,1096 L461,1096 M65697,1378 Q65697,1424 65725,1457.5 Q65753,1491 65799,1491 Q65877,1491 65877,1411 Q65877,1362 65847.5,1328 Q65818,1294 65779,1294 Q65744,1294 65720.5,1316 Q65697,1338 65697,1378 M66061,1378 Q66061,1424 66089,1457.5 Q66117,1491 66164,1491 Q66241,1491 66241,1411 Q66241,1362 66211.5,1328 Q66182,1294 66143,1294 Q66108,1294 66084.5,1316 Q66061,1338 66061,1378"/> 
            <glyph glyph-name="ð" unicode="&#xF0;" horiz-adv-x="1137" d=" M676,1343 Q610,1401 530,1456 L625,1573 Q743,1489 813,1419 L1073,1565 L1137,1460 L897,1327 Q984,1212 1023.5,1086.5 Q1063,961 1063,817 Q1063,564 991.5,370 Q920,176 788.5,78 Q657,-20 477,-20 Q295,-20 192.5,84 Q90,188 90,373 Q90,533 157.5,671 Q225,809 344.5,888 Q464,967 612,967 Q717,967 793.5,921.5 Q870,876 905,797 L911,799 L911,816 Q911,952 874.5,1056 Q838,1160 764,1253 L494,1104 L438,1212 M487,121 Q594,121 677,177 Q760,233 811,345 Q862,457 862,571 Q862,689 796.5,758 Q731,827 618,827 Q509,827 429,769.5 Q349,712 305.5,608.5 Q262,505 262,377 Q262,251 319.5,186 Q377,121 487,121"/> 
            <glyph glyph-name="ñ" unicode="&#xF1;" horiz-adv-x="1104" d=" M729,0 L877,692 Q897,796 897,836 Q897,899 861.5,937 Q826,975 748,975 Q659,975 574.5,915 Q490,855 425.5,744 Q361,633 328,475 L227,0 L59,0 L293,1096 L432,1096 L410,893 L420,893 Q516,1015 605.5,1065.5 Q695,1116 791,1116 Q918,1116 991.5,1046.5 Q1065,977 1065,852 Q1065,773 1042,672 L899,0 M871,1243 Q831,1243 793.5,1260.5 Q756,1278 720.5,1299.5 Q685,1321 651.5,1338.5 Q618,1356 586,1356 Q542,1356 516.5,1327.5 Q491,1299 469,1241 L369,1241 Q427,1499 600,1499 Q644,1499 683.5,1481 Q723,1463 758.5,1441.5 Q794,1420 825,1402 Q856,1384 883,1384 Q927,1384 952.5,1411 Q978,1438 1004,1501 L1104,1501 Q1038,1243 871,1243"/> 
            <glyph glyph-name="ò" unicode="&#xF2;" horiz-adv-x="1053" d=" M643,1110 Q833,1110 943,997.5 Q1053,885 1053,688 Q1053,500 981,333 Q909,166 786,75 Q663,-16 508,-16 Q316,-16 207,97 Q98,210 98,406 Q98,596 171,763.5 Q244,931 368,1020.5 Q492,1110 643,1110 M879,711 Q879,826 816.5,897.5 Q754,969 647,969 Q538,969 451.5,895 Q365,821 317.5,689.5 Q270,558 270,397 Q270,266 333.5,194.5 Q397,123 516,123 Q620,123 703,196 Q786,269 832.5,403.5 Q879,538 879,711 M1054,1241 L950,1241 Q889,1302 821.5,1395 Q754,1488 726,1548 L726,1569 L907,1569 Q950,1433 1054,1266"/> 
            <glyph glyph-name="ó" unicode="&#xF3;" horiz-adv-x="1053" d=" M643,1110 Q833,1110 943,997.5 Q1053,885 1053,688 Q1053,500 981,333 Q909,166 786,75 Q663,-16 508,-16 Q316,-16 207,97 Q98,210 98,406 Q98,596 171,763.5 Q244,931 368,1020.5 Q492,1110 643,1110 M879,711 Q879,826 816.5,897.5 Q754,969 647,969 Q538,969 451.5,895 Q365,821 317.5,689.5 Q270,558 270,397 Q270,266 333.5,194.5 Q397,123 516,123 Q620,123 703,196 Q786,269 832.5,403.5 Q879,538 879,711 M589,1268 Q645,1328 714.5,1419.5 Q784,1511 821,1569 L1011,1569 L1011,1548 Q973,1499 871,1397 Q769,1295 694,1241 L589,1241"/> 
            <glyph glyph-name="ô" unicode="&#xF4;" horiz-adv-x="1053" d=" M643,1110 Q833,1110 943,997.5 Q1053,885 1053,688 Q1053,500 981,333 Q909,166 786,75 Q663,-16 508,-16 Q316,-16 207,97 Q98,210 98,406 Q98,596 171,763.5 Q244,931 368,1020.5 Q492,1110 643,1110 M879,711 Q879,826 816.5,897.5 Q754,969 647,969 Q538,969 451.5,895 Q365,821 317.5,689.5 Q270,558 270,397 Q270,266 333.5,194.5 Q397,123 516,123 Q620,123 703,196 Q786,269 832.5,403.5 Q879,538 879,711 M1253,1241 L1150,1241 Q1093,1289 989,1430 Q855,1311 747,1241 L638,1241 L638,1268 Q783,1401 842.5,1465.5 Q902,1530 925,1569 L1083,1569 Q1120,1470 1211,1334 L1253,1268"/> 
            <glyph glyph-name="õ" unicode="&#xF5;" horiz-adv-x="1077" d=" M643,1110 Q833,1110 943,997.5 Q1053,885 1053,688 Q1053,500 981,333 Q909,166 786,75 Q663,-16 508,-16 Q316,-16 207,97 Q98,210 98,406 Q98,596 171,763.5 Q244,931 368,1020.5 Q492,1110 643,1110 M879,711 Q879,826 816.5,897.5 Q754,969 647,969 Q538,969 451.5,895 Q365,821 317.5,689.5 Q270,558 270,397 Q270,266 333.5,194.5 Q397,123 516,123 Q620,123 703,196 Q786,269 832.5,403.5 Q879,538 879,711 M844,1243 Q804,1243 766.5,1260.5 Q729,1278 693.5,1299.5 Q658,1321 624.5,1338.5 Q591,1356 559,1356 Q515,1356 489.5,1327.5 Q464,1299 442,1241 L342,1241 Q400,1499 573,1499 Q617,1499 656.5,1481 Q696,1463 731.5,1441.5 Q767,1420 798,1402 Q829,1384 856,1384 Q900,1384 925.5,1411 Q951,1438 977,1501 L1077,1501 Q1011,1243 844,1243"/> 
            <glyph glyph-name="ö" unicode="&#xF6;" horiz-adv-x="1053" d=" M643,1110 Q833,1110 943,997.5 Q1053,885 1053,688 Q1053,500 981,333 Q909,166 786,75 Q663,-16 508,-16 Q316,-16 207,97 Q98,210 98,406 Q98,596 171,763.5 Q244,931 368,1020.5 Q492,1110 643,1110 M879,711 Q879,826 816.5,897.5 Q754,969 647,969 Q538,969 451.5,895 Q365,821 317.5,689.5 Q270,558 270,397 Q270,266 333.5,194.5 Q397,123 516,123 Q620,123 703,196 Q786,269 832.5,403.5 Q879,538 879,711 M689,1378 Q689,1424 717,1457.5 Q745,1491 791,1491 Q869,1491 869,1411 Q869,1362 839.5,1328 Q810,1294 771,1294 Q736,1294 712.5,1316 Q689,1338 689,1378 M1053,1378 Q1053,1424 1081,1457.5 Q1109,1491 1156,1491 Q1233,1491 1233,1411 Q1233,1362 1203.5,1328 Q1174,1294 1135,1294 Q1100,1294 1076.5,1316 Q1053,1338 1053,1378"/> 
            <glyph glyph-name="÷" unicode="&#xF7;" horiz-adv-x="1047" d=" M127,651 L127,793 L1047,793 L1047,651 M475,373 Q475,494 586,494 Q639,494 668.5,463.5 Q698,433 698,373 Q698,315 668,283.5 Q638,252 586,252 Q534,252 504.5,283 Q475,314 475,373 M475,1071 Q475,1192 586,1192 Q639,1192 668.5,1161.5 Q698,1131 698,1071 Q698,1013 668,981.5 Q638,950 586,950 Q534,950 504.5,981 Q475,1012 475,1071"/> 
            <glyph glyph-name="ø" unicode="&#xF8;" horiz-adv-x="1104" d=" M1047,705 Q1047,516 977.5,345 Q908,174 786,79 Q664,-16 510,-16 Q364,-16 264,49 L166,-76 L61,6 L170,141 Q102,244 102,406 Q102,600 175.5,767 Q249,934 371,1022 Q493,1110 643,1110 Q789,1110 895,1042 L999,1171 L1104,1092 L985,963 Q1047,866 1047,705 M647,971 Q539,971 451.5,898 Q364,825 314,696 Q264,567 264,416 Q264,324 281,279 L799,924 Q745,971 647,971 M885,688 Q885,772 872,807 L358,166 Q415,121 516,121 Q619,121 704.5,192.5 Q790,264 837.5,393 Q885,522 885,688"/> 
            <glyph glyph-name="ù" unicode="&#xF9;" horiz-adv-x="1118" d=" M451,1096 L301,401 Q283,312 283,262 Q283,119 430,119 Q518,119 603,179 Q688,239 753,351 Q818,463 852,621 L952,1096 L1118,1096 L887,0 L748,0 L770,203 L758,203 Q660,78 571,29 Q482,-20 387,-20 Q259,-20 186,49.5 Q113,119 113,248 Q113,310 135,420 L281,1096 M1056,1241 L952,1241 Q891,1302 823.5,1395 Q756,1488 728,1548 L728,1569 L909,1569 Q952,1433 1056,1266"/> 
            <glyph glyph-name="ú" unicode="&#xFA;" horiz-adv-x="1118" d=" M451,1096 L301,401 Q283,312 283,262 Q283,119 430,119 Q518,119 603,179 Q688,239 753,351 Q818,463 852,621 L952,1096 L1118,1096 L887,0 L748,0 L770,203 L758,203 Q660,78 571,29 Q482,-20 387,-20 Q259,-20 186,49.5 Q113,119 113,248 Q113,310 135,420 L281,1096 M636,1268 Q692,1328 761.5,1419.5 Q831,1511 868,1569 L1058,1569 L1058,1548 Q1020,1499 918,1397 Q816,1295 741,1241 L636,1241"/> 
            <glyph glyph-name="û" unicode="&#xFB;" horiz-adv-x="1118" d=" M451,1096 L301,401 Q283,312 283,262 Q283,119 430,119 Q518,119 603,179 Q688,239 753,351 Q818,463 852,621 L952,1096 L1118,1096 L887,0 L748,0 L770,203 L758,203 Q660,78 571,29 Q482,-20 387,-20 Q259,-20 186,49.5 Q113,119 113,248 Q113,310 135,420 L281,1096 M1024,1241 L921,1241 Q864,1289 760,1430 Q626,1311 518,1241 L409,1241 L409,1268 Q554,1401 613.5,1465.5 Q673,1530 696,1569 L854,1569 Q891,1470 982,1334 L1024,1268"/> 
            <glyph glyph-name="ü" unicode="&#xFC;" horiz-adv-x="1118" d=" M451,1096 L301,401 Q283,312 283,262 Q283,119 430,119 Q518,119 603,179 Q688,239 753,351 Q818,463 852,621 L952,1096 L1118,1096 L887,0 L748,0 L770,203 L758,203 Q660,78 571,29 Q482,-20 387,-20 Q259,-20 186,49.5 Q113,119 113,248 Q113,310 135,420 L281,1096 M457,1378 Q457,1424 485,1457.5 Q513,1491 559,1491 Q637,1491 637,1411 Q637,1362 607.5,1328 Q578,1294 539,1294 Q504,1294 480.5,1316 Q457,1338 457,1378 M821,1378 Q821,1424 849,1457.5 Q877,1491 924,1491 Q1001,1491 1001,1411 Q1001,1362 971.5,1328 Q942,1294 903,1294 Q868,1294 844.5,1316 Q821,1338 821,1378"/> 
            <glyph glyph-name="ý" unicode="&#xFD;" horiz-adv-x="1042" d=" M98,1096 L266,1096 L340,551 Q350,482 359.5,347.5 Q369,213 369,131 L375,131 Q410,218 462,331 Q514,444 539,487 L864,1096 L1042,1096 L346,-186 Q253,-358 162,-425 Q71,-492 -57,-492 Q-129,-492 -197,-471 L-197,-336 Q-134,-354 -66,-354 Q16,-354 74.5,-303.5 Q133,-253 188,-154 L264,-18 M756,1268 Q812,1328 881.5,1419.5 Q951,1511 988,1569 L1178,1569 L1178,1548 Q1140,1499 1038,1397 Q936,1295 861,1241 L756,1241"/> 
            <glyph glyph-name="þ" unicode="&#xFE;" horiz-adv-x="1081" d=" M545,-20 Q447,-20 373,31 Q299,82 260,170 L250,170 Q242,66 225,-6 L123,-492 L-43,-492 L389,1556 L557,1556 Q462,1115 442,1034 Q422,953 403,885 L412,885 Q513,1010 601,1062 Q689,1114 784,1114 Q923,1114 1002,1016.5 Q1081,919 1081,743 Q1081,531 1012,354 Q943,177 821,78.5 Q699,-20 545,-20 M731,975 Q635,975 535.5,880 Q436,785 377.5,641 Q319,497 319,346 Q319,236 374.5,177.5 Q430,119 535,119 Q634,119 719.5,200 Q805,281 857,430.5 Q909,580 909,748 Q909,975 731,975"/> 
            <glyph glyph-name="ÿ" unicode="&#xFF;" horiz-adv-x="1042" d=" M98,1096 L266,1096 L340,551 Q350,482 359.5,347.5 Q369,213 369,131 L375,131 Q410,218 462,331 Q514,444 539,487 L864,1096 L1042,1096 L346,-186 Q253,-358 162,-425 Q71,-492 -57,-492 Q-129,-492 -197,-471 L-197,-336 Q-134,-354 -66,-354 Q16,-354 74.5,-303.5 Q133,-253 188,-154 L264,-18 M591,1378 Q591,1424 619,1457.5 Q647,1491 693,1491 Q771,1491 771,1411 Q771,1362 741.5,1328 Q712,1294 673,1294 Q638,1294 614.5,1316 Q591,1338 591,1378 M955,1378 Q955,1424 983,1457.5 Q1011,1491 1058,1491 Q1135,1491 1135,1411 Q1135,1362 1105.5,1328 Q1076,1294 1037,1294 Q1002,1294 978.5,1316 Q955,1338 955,1378"/> 
            <glyph glyph-name="ı" unicode="&#x131;" horiz-adv-x="461" d=" M227,0 L59,0 L293,1096 L461,1096"/> 
            <glyph glyph-name="Œ" unicode="&#x152;" horiz-adv-x="1833" d=" M1524,0 L850,0 Q772,-20 692,-20 Q436,-20 293,129.5 Q150,279 150,549 Q150,813 246,1031 Q342,1249 509.5,1367 Q677,1485 887,1485 Q1039,1485 1124,1462 L1833,1462 L1802,1309 L1237,1309 L1137,840 L1665,840 L1634,690 L1106,690 L991,152 L1556,152 M696,131 Q765,131 819,150 L1065,1311 Q989,1333 874,1333 Q717,1333 593,1232 Q469,1131 400.5,951 Q332,771 332,553 Q332,354 430,242.5 Q528,131 696,131"/> 
            <glyph glyph-name="œ" unicode="&#x153;" horiz-adv-x="1708" d=" M1251,-20 Q981,-20 895,205 Q826,98 723.5,41 Q621,-16 498,-16 Q314,-16 206,98 Q98,212 98,406 Q98,599 173,766 Q248,933 374,1021.5 Q500,1110 655,1110 Q925,1110 1014,885 Q1089,994 1191.5,1055 Q1294,1116 1413,1116 Q1552,1116 1630,1050.5 Q1708,985 1708,864 Q1708,681 1543.5,580 Q1379,479 1075,479 L1034,479 L1030,399 Q1030,268 1091.5,194.5 Q1153,121 1282,121 Q1357,121 1427,145.5 Q1497,170 1577,205 L1577,55 Q1415,-20 1251,-20 M649,969 Q540,969 453,896 Q366,823 318,694 Q270,565 270,410 Q270,269 332,196 Q394,123 504,123 Q681,123 782,283.5 Q883,444 883,711 Q883,835 823.5,902 Q764,969 649,969 M1413,973 Q1288,973 1192.5,878.5 Q1097,784 1053,618 L1071,618 Q1302,618 1422,679 Q1542,740 1542,856 Q1542,904 1510,938.5 Q1478,973 1413,973"/> 
            <glyph glyph-name="ˆ" unicode="&#x2C6;" horiz-adv-x="1014" d=" M1014,1241 L911,1241 Q854,1289 750,1430 Q616,1311 508,1241 L399,1241 L399,1268 Q544,1401 603.5,1465.5 Q663,1530 686,1569 L844,1569 Q881,1470 972,1334 L1014,1268"/> 
            <glyph glyph-name="˚" unicode="&#x2DA;" horiz-adv-x="989" d=" M989,1456 Q989,1357 929,1299 Q869,1241 770,1241 Q669,1241 610,1298.5 Q551,1356 551,1454 Q551,1548 613,1606.5 Q675,1665 770,1665 Q871,1665 930,1608 Q989,1551 989,1456 M885,1454 Q885,1507 853,1538 Q821,1569 770,1569 Q721,1569 688,1538 Q655,1507 655,1454 Q655,1400 684.5,1369.5 Q714,1339 770,1339 Q821,1339 853,1369.5 Q885,1400 885,1454"/> 
            <glyph glyph-name="˜" unicode="&#x2DC;" horiz-adv-x="1071" d=" M838,1243 Q798,1243 760.5,1260.5 Q723,1278 687.5,1299.5 Q652,1321 618.5,1338.5 Q585,1356 553,1356 Q509,1356 483.5,1327.5 Q458,1299 436,1241 L336,1241 Q394,1499 567,1499 Q611,1499 650.5,1481 Q690,1463 725.5,1441.5 Q761,1420 792,1402 Q823,1384 850,1384 Q894,1384 919.5,1411 Q945,1438 971,1501 L1071,1501 Q1005,1243 838,1243"/> 
            <glyph glyph-name="–" unicode="&#x2013;" horiz-adv-x="913" d=" M55,469 L90,629 L913,629 L879,469"/> 
            <glyph glyph-name="—" unicode="&#x2014;" horiz-adv-x="1896" d=" M55,469 L90,629 L1896,629 L1862,469"/> 
            <glyph glyph-name="‘" unicode="&#x2018;" horiz-adv-x="520" d=" M129,961 L123,983 Q221,1194 393,1462 L520,1462 Q373,1117 317,961"/> 
            <glyph glyph-name="’" unicode="&#x2019;" horiz-adv-x="524" d=" M516,1462 L524,1440 Q484,1349 413,1221.5 Q342,1094 254,961 L125,961 Q259,1259 328,1462"/> 
            <glyph glyph-name="‚" unicode="&#x201A;" horiz-adv-x="299" d=" M291,238 L299,215 Q186,-20 29,-264 L-100,-264 Q26,22 104,238"/> 
            <glyph glyph-name="“" unicode="&#x201C;" horiz-adv-x="891" d=" M500,961 L492,983 Q572,1164 764,1462 L891,1462 Q729,1083 688,961 M129,961 L123,983 Q221,1194 393,1462 L520,1462 Q373,1117 317,961"/> 
            <glyph glyph-name="”" unicode="&#x201D;" horiz-adv-x="895" d=" M516,1462 L524,1440 Q484,1349 413,1221.5 Q342,1094 254,961 L125,961 Q259,1259 328,1462 M885,1462 L895,1440 Q801,1234 621,961 L494,961 Q551,1087 609.5,1233.5 Q668,1380 696,1462"/> 
            <glyph glyph-name="„" unicode="&#x201E;" horiz-adv-x="668" d=" M291,238 L299,215 Q186,-20 29,-264 L-100,-264 Q26,22 104,238 M659,238 L668,215 Q573,10 397,-264 L268,-264 Q408,52 471,238"/> 
            <glyph glyph-name="•" unicode="&#x2022;" horiz-adv-x="657" d=" M199,684 Q199,829 272.5,915 Q346,1001 471,1001 Q563,1001 610,952 Q657,903 657,811 Q657,670 583,581 Q509,492 381,492 Q292,492 245.5,541.5 Q199,591 199,684"/> 
            <glyph glyph-name="…" unicode="&#x2026;" horiz-adv-x="1333" d=" M563,74 Q563,151 603.5,196.5 Q644,242 715,242 Q758,242 784.5,216 Q811,190 811,137 Q811,66 771,18.5 Q731,-29 663,-29 Q617,-29 590,-3 Q563,23 563,74 M1085,74 Q1085,151 1125.5,196.5 Q1166,242 1237,242 Q1280,242 1306.5,216 Q1333,190 1333,137 Q1333,66 1293,18.5 Q1253,-29 1185,-29 Q1139,-29 1112,-3 Q1085,23 1085,74 M43,74 Q43,151 83.5,196.5 Q124,242 195,242 Q238,242 264.5,216 Q291,190 291,137 Q291,66 251,18.5 Q211,-29 143,-29 Q97,-29 70,-3 Q43,23 43,74"/> 
            <glyph glyph-name="‹" unicode="&#x2039;" horiz-adv-x="557" d=" M88,578 L479,958 L557,877 L260,543 L432,162 L319,113 L88,549"/> 
            <glyph glyph-name="›" unicode="&#x203A;" horiz-adv-x="492" d=" M492,496 L100,115 L23,197 L319,530 L147,911 L260,961 L492,524"/> 
            <glyph glyph-name="⁄" unicode="&#x2044;" horiz-adv-x="752" d=" M752,1462 L-334,0 L-487,0 L598,1462"/> 
            <glyph glyph-name="⁴" unicode="&#x2074;" horiz-adv-x="735" d=" M713,788 L584,788 L541,586 L414,586 L457,788 L92,788 L115,889 L596,1468 L729,1468 L608,905 L735,905 M481,905 Q550,1227 571,1300 Q551,1264 461,1151 L256,905"/> 
            <glyph glyph-name="€" unicode="&#x20AC;" horiz-adv-x="1239" d=" M928,1329 Q788,1329 674,1230 Q560,1131 485,932 L911,932 L885,799 L444,799 Q423,734 412,635 L793,635 L764,504 L403,504 Q403,131 700,131 Q823,131 956,186 L956,39 Q829,-20 678,-20 Q466,-20 349.5,113.5 Q233,247 233,492 L233,504 L63,504 L90,635 L244,635 Q252,715 274,799 L123,799 L150,932 L309,932 Q406,1199 568.5,1340 Q731,1481 938,1481 Q1027,1481 1098,1459.5 Q1169,1438 1239,1389 L1159,1251 Q1046,1329 928,1329"/> 
            <glyph glyph-name="−" unicode="&#x2212;" horiz-adv-x="1047" d=" M127,651 L127,793 L1047,793 L1047,651"/> 
            <glyph glyph-name=" " unicode="&#x20;" horiz-adv-x="555" d=" M555,1462 L281,403 L172,403 Q221,710 348,1462 M43,78 Q43,154 82.5,198 Q122,242 190,242 Q235,242 263,214.5 Q291,187 291,133 Q291,65 252,18 Q213,-29 147,-29 Q98,-29 70.5,-1 Q43,27 43,78"/> 
            <glyph glyph-name="!" unicode="&#x21;" horiz-adv-x="834" d=" M485,1462 L332,934 L225,934 L297,1462 M834,1462 L680,934 L573,934 L645,1462"/> 
            <glyph glyph-name="&quot;" unicode="&#x22;" horiz-adv-x="1339" d=" M1036,899 L938,559 L1223,559 L1210,430 L901,430 L776,0 L637,0 L766,430 L463,430 L336,0 L203,0 L324,430 L63,430 L76,559 L360,559 L461,899 L184,899 L197,1026 L498,1026 L621,1462 L760,1462 L635,1026 L940,1026 L1067,1462 L1200,1462 L1075,1026 L1339,1026 L1327,899 M500,559 L803,559 L899,899 L596,899"/> 
            <glyph glyph-name="#" unicode="&#x23;" horiz-adv-x="1071" d=" M942,492 Q942,330 829.5,229 Q717,128 520,106 L471,-119 L338,-119 L387,104 Q192,118 72,176 L72,330 Q154,289 247.5,266.5 Q341,244 414,244 L512,696 Q373,745 310.5,819.5 Q248,894 248,1008 Q248,1167 356,1263 Q464,1359 655,1376 L694,1552 L827,1552 L788,1374 Q947,1362 1071,1298 L1008,1163 Q887,1226 760,1235 L666,795 Q815,740 878.5,670 Q942,600 942,492 M549,250 Q656,263 719,325 Q782,387 782,479 Q782,533 749,575 Q716,617 635,649 M627,1235 Q519,1224 460,1166 Q401,1108 401,1010 Q401,957 435.5,912.5 Q470,868 543,842"/> 
            <glyph glyph-name="$" unicode="&#x24;" horiz-adv-x="1532" d=" M1468,1462 L383,0 L231,0 L1317,1462 M1284,772 Q1217,772 1164.5,707.5 Q1112,643 1080.5,519 Q1049,395 1049,279 Q1049,106 1155,106 Q1220,106 1272,171 Q1324,236 1358.5,369.5 Q1393,503 1393,606 Q1393,772 1284,772 M1532,621 Q1532,514 1500.5,385 Q1469,256 1418.5,167.5 Q1368,79 1297.5,29.5 Q1227,-20 1141,-20 Q1031,-20 970,54.5 Q909,129 909,274 Q909,440 959.5,592.5 Q1010,745 1096,821 Q1182,897 1296,897 Q1412,897 1472,825.5 Q1532,754 1532,621 M543,1358 Q477,1358 424,1295 Q371,1232 339,1107.5 Q307,983 307,864 Q307,692 414,692 Q466,692 508,731.5 Q550,771 581.5,845.5 Q613,920 632,1020.5 Q651,1121 651,1192 Q651,1358 543,1358 M791,1206 Q791,1098 759,968.5 Q727,839 676.5,751 Q626,663 556,614 Q486,565 399,565 Q290,565 229,640 Q168,715 168,860 Q168,1026 218.5,1178.5 Q269,1331 355,1407 Q441,1483 555,1483 Q671,1483 731,1411 Q791,1339 791,1206"/> 
            <glyph glyph-name="%" unicode="&#x25;" horiz-adv-x="1311" d=" M737,1348 Q632,1348 574,1288 Q516,1228 516,1118 Q516,998 598,883 Q737,954 789,993 Q841,1032 872,1078 Q903,1124 903,1182 Q903,1259 860.5,1303.5 Q818,1348 737,1348 M471,119 Q558,119 639,152 Q720,185 834,276 L528,709 Q400,642 344,593 Q288,544 258.5,485.5 Q229,427 229,354 Q229,248 295.5,183.5 Q362,119 471,119 M66,342 Q66,490 156,599.5 Q246,709 459,811 Q356,976 356,1120 Q356,1284 462,1384.5 Q568,1485 743,1485 Q892,1485 979.5,1406 Q1067,1327 1067,1194 Q1067,1116 1034.5,1057 Q1002,998 947,949 Q892,900 819.5,859 Q747,818 666,776 L944,387 Q1071,497 1143,682 L1311,682 Q1210,446 1028,270 L1231,0 L1030,0 L913,166 Q793,66 683,23 Q573,-20 436,-20 Q268,-20 167,76 Q66,172 66,342"/> 
            <glyph glyph-name="&amp;" unicode="&#x26;" horiz-adv-x="485" d=" M485,1462 L332,934 L225,934 L297,1462"/> 
            <glyph glyph-name="'" unicode="&#x27;" horiz-adv-x="743" d=" M82,272 Q82,611 202,899 Q322,1187 586,1462 L743,1462 Q497,1192 371.5,892 Q246,592 246,274 Q246,-65 360,-324 L229,-324 Q82,-58 82,272"/> 
            <glyph glyph-name="(" unicode="&#x28;" horiz-adv-x="500" d=" M500,864 Q500,523 378.5,234.5 Q257,-54 -4,-324 L-160,-324 Q336,227 336,864 Q336,1205 223,1462 L354,1462 Q500,1193 500,864"/> 
            <glyph glyph-name=")" unicode="&#x29;" horiz-adv-x="1153" d=" M854,1528 L731,1145 L1153,1163 L1145,1006 L752,1053 L932,670 L766,618 L653,1024 L395,680 L279,801 L588,1085 L215,1194 L270,1348 L641,1163 L682,1563"/> 
            <glyph glyph-name="*" unicode="&#x2A;" horiz-adv-x="1047" d=" M516,651 L127,651 L127,793 L516,793 L516,1184 L657,1184 L657,793 L1047,793 L1047,651 L657,651 L657,264 L516,264"/> 
            <glyph glyph-name="+" unicode="&#x2B;" horiz-adv-x="299" d=" M291,238 L299,215 Q186,-20 29,-264 L-100,-264 Q26,22 104,238"/> 
            <glyph glyph-name="," unicode="&#x2C;" horiz-adv-x="569" d=" M55,469 L90,627 L569,627 L535,469"/> 
            <glyph glyph-name="-" unicode="&#x2D;" horiz-adv-x="291" d=" M43,74 Q43,151 83.5,196.5 Q124,242 195,242 Q238,242 264.5,216 Q291,190 291,137 Q291,66 251,18.5 Q211,-29 143,-29 Q97,-29 70,-3 Q43,23 43,74"/> 
            <glyph glyph-name="." unicode="&#x2E;" horiz-adv-x="893" d=" M893,1462 L80,0 L-94,0 L719,1462"/> 
            <glyph glyph-name="/" unicode="&#x2F;" horiz-adv-x="1092" d=" M1092,1014 Q1092,719 1013.5,475 Q935,231 799.5,105.5 Q664,-20 485,-20 Q309,-20 215,107.5 Q121,235 121,477 Q121,747 203,991.5 Q285,1236 419.5,1360.5 Q554,1485 727,1485 Q1092,1485 1092,1014 M717,1341 Q604,1341 508,1225.5 Q412,1110 352.5,902.5 Q293,695 293,479 Q293,307 343,215 Q393,123 504,123 Q619,123 713,237 Q807,351 863.5,565 Q920,779 920,1018 Q920,1341 717,1341"/> 
            <glyph glyph-name="0" unicode="&#x30;" horiz-adv-x="901" d=" M588,0 L416,0 L612,913 Q671,1174 700,1272 Q650,1219 561,1161 L383,1051 L303,1178 L752,1462 L901,1462"/> 
            <glyph glyph-name="1" unicode="&#x31;" horiz-adv-x="1079" d=" M911,0 L12,0 L43,147 L508,567 Q610,660 684.5,730.5 Q759,801 807.5,863.5 Q856,926 879.5,987.5 Q903,1049 903,1124 Q903,1223 843,1281 Q783,1339 680,1339 Q603,1339 529.5,1310.5 Q456,1282 367,1214 L285,1329 Q476,1483 698,1483 Q874,1483 976.5,1394.5 Q1079,1306 1079,1151 Q1079,1040 1039.5,947 Q1000,854 908.5,750 Q817,646 614,469 L262,162 L262,154 L940,154"/> 
            <glyph glyph-name="2" unicode="&#x32;" horiz-adv-x="1073" d=" M1073,1159 Q1073,1003 972,894.5 Q871,786 692,754 L692,745 Q816,722 887,638.5 Q958,555 958,430 Q958,297 896,195.5 Q834,94 715,37 Q596,-20 432,-20 Q222,-20 47,59 L47,223 Q141,174 246,147.5 Q351,121 436,121 Q598,121 688,200.5 Q778,280 778,418 Q778,549 699,616.5 Q620,684 479,684 L348,684 L379,827 L518,827 Q683,827 792,914 Q901,1001 901,1141 Q901,1233 843,1287 Q785,1341 686,1341 Q606,1341 529,1314 Q452,1287 354,1221 L274,1339 Q469,1483 698,1483 Q877,1483 975,1396 Q1073,1309 1073,1159"/> 
            <glyph glyph-name="3" unicode="&#x33;" horiz-adv-x="1100" d=" M1067,334 L834,334 L762,0 L598,0 L672,334 L16,334 L45,492 L879,1470 L1075,1470 L868,487 L1100,487 M705,487 Q751,707 783,860 Q815,1013 899,1305 L891,1305 Q874,1276 824.5,1208.5 Q775,1141 752,1112 L219,487"/> 
            <glyph glyph-name="4" unicode="&#x34;" horiz-adv-x="1096" d=" M598,893 Q780,893 887.5,788.5 Q995,684 995,506 Q995,345 922,223 Q849,101 718,40.5 Q587,-20 410,-20 Q217,-20 80,59 L80,223 Q244,121 414,121 Q605,121 712,217 Q819,313 819,485 Q819,611 745.5,684.5 Q672,758 541,758 Q493,758 444,751.5 Q395,745 305,721 L231,778 L428,1462 L1096,1462 L1063,1309 L541,1309 L414,870 Q501,893 598,893"/> 
            <glyph glyph-name="5" unicode="&#x35;" horiz-adv-x="1114" d=" M133,424 Q133,633 193.5,839 Q254,1045 357,1190.5 Q460,1336 603,1409.5 Q746,1483 930,1483 Q1041,1483 1114,1460 L1079,1315 Q1011,1337 909,1337 Q697,1337 552.5,1188 Q408,1039 340,745 L348,745 Q407,824 494.5,871 Q582,918 688,918 Q842,918 932,819.5 Q1022,721 1022,549 Q1022,388 955.5,254.5 Q889,121 775,50.5 Q661,-20 514,-20 Q332,-20 232.5,95 Q133,210 133,424 M532,121 Q626,121 699.5,175 Q773,229 813.5,324 Q854,419 854,532 Q854,780 633,780 Q567,780 505,751.5 Q443,723 395,675.5 Q347,628 323,571 Q299,514 299,416 Q299,279 359.5,200 Q420,121 532,121"/> 
            <glyph glyph-name="6" unicode="&#x36;" horiz-adv-x="1145" d=" M174,0 L942,1313 L223,1313 L254,1462 L1145,1462 L1118,1323 L354,0"/> 
            <glyph glyph-name="7" unicode="&#x37;" horiz-adv-x="1110" d=" M741,1485 Q915,1485 1012.5,1398.5 Q1110,1312 1110,1163 Q1110,1034 1032,938 Q954,842 766,762 Q893,684 946,597 Q999,510 999,395 Q999,273 939,177.5 Q879,82 766.5,31 Q654,-20 502,-20 Q312,-20 204,78.5 Q96,177 96,346 Q96,494 191,602 Q286,710 487,786 Q392,855 351.5,930.5 Q311,1006 311,1102 Q311,1213 365.5,1300.5 Q420,1388 519,1436.5 Q618,1485 741,1485 M608,700 Q423,640 346.5,556.5 Q270,473 270,354 Q270,247 339,184 Q408,121 520,121 Q659,121 742,195 Q825,269 825,391 Q825,490 773,565 Q721,640 608,700 M729,1341 Q615,1341 547,1275.5 Q479,1210 479,1100 Q479,1018 518,956 Q557,894 645,840 Q806,900 873,971.5 Q940,1043 940,1145 Q940,1235 882.5,1288 Q825,1341 729,1341"/> 
            <glyph glyph-name="8" unicode="&#x38;" horiz-adv-x="1067" d=" M1067,1034 Q1067,840 1011,627.5 Q955,415 863.5,267.5 Q772,120 642,50 Q512,-20 340,-20 Q204,-20 98,14 L98,172 Q232,125 344,125 Q546,125 671,266 Q796,407 860,707 L850,707 Q799,632 717.5,588.5 Q636,545 537,545 Q368,545 276,643.5 Q184,742 184,932 Q184,1085 248.5,1212.5 Q313,1340 428.5,1411.5 Q544,1483 688,1483 Q868,1483 967.5,1368.5 Q1067,1254 1067,1034 M682,1341 Q532,1341 441,1228 Q350,1115 350,938 Q350,814 404.5,748 Q459,682 567,682 Q643,682 707,710.5 Q771,739 815.5,792 Q860,845 880.5,906 Q901,967 901,1057 Q901,1188 842,1264.5 Q783,1341 682,1341"/> 
            <glyph glyph-name="9" unicode="&#x39;" horiz-adv-x="451" d=" M43,74 Q43,151 83.5,196.5 Q124,242 195,242 Q238,242 264.5,216 Q291,190 291,137 Q291,66 251,18.5 Q211,-29 143,-29 Q97,-29 70,-3 Q43,23 43,74 M203,956 Q203,1033 243,1078.5 Q283,1124 354,1124 Q451,1124 451,1020 Q451,947 409.5,900.5 Q368,854 303,854 Q257,854 230,880.5 Q203,907 203,956"/> 
            <glyph glyph-name=":" unicode="&#x3A;" horiz-adv-x="451" d=" M291,238 L299,215 Q186,-20 29,-264 L-100,-264 Q26,22 104,238 M203,956 Q203,1033 243,1078.5 Q283,1124 354,1124 Q451,1124 451,1020 Q451,947 409.5,900.5 Q368,854 303,854 Q257,854 230,880.5 Q203,907 203,956"/> 
            <glyph glyph-name=";" unicode="&#x3B;" horiz-adv-x="1040" d=" M1040,242 L121,664 L121,762 L1040,1241 L1040,1092 L293,721 L1040,393"/> 
            <glyph glyph-name="&lt;" unicode="&#x3C;" horiz-adv-x="1047" d=" M127,858 L127,997 L1047,997 L1047,858 M127,444 L127,586 L1047,586 L1047,444"/> 
            <glyph glyph-name="=" unicode="&#x3D;" horiz-adv-x="1040" d=" M121,393 L866,721 L121,1092 L121,1241 L1040,762 L1040,664 L121,242"/> 
            <glyph glyph-name="&gt;" unicode="&#x3E;" horiz-adv-x="922" d=" M260,403 Q282,533 332.5,616.5 Q383,700 498,791 Q626,891 666,935 Q706,979 729,1029 Q752,1079 752,1141 Q752,1234 700.5,1284.5 Q649,1335 553,1335 Q472,1335 398,1309.5 Q324,1284 258,1253 L197,1382 Q289,1433 389,1458 Q489,1483 571,1483 Q738,1483 830,1399 Q922,1315 922,1161 Q922,1038 856.5,934.5 Q791,831 631,711 Q506,620 462,563.5 Q418,507 395,403 M158,74 Q158,151 198,196.5 Q238,242 309,242 Q353,242 379.5,216 Q406,190 406,137 Q406,64 364.5,17.5 Q323,-29 258,-29 Q212,-29 185,-3 Q158,23 158,74"/> 
            <glyph glyph-name="?" unicode="&#x3F;" horiz-adv-x="1679" d=" M1679,852 Q1679,673 1624,528 Q1569,383 1469,301 Q1369,219 1247,219 Q1050,219 1034,403 L1026,403 Q915,219 735,219 Q620,219 554.5,294.5 Q489,370 489,504 Q489,661 557,788 Q625,915 745.5,987 Q866,1059 1006,1059 Q1071,1059 1133.5,1047 Q1196,1035 1284,999 Q1220,757 1186,631 Q1152,505 1155,459 Q1155,342 1257,342 Q1335,342 1398.5,409 Q1462,476 1499,592.5 Q1536,709 1536,836 Q1536,1075 1408,1203 Q1280,1331 1038,1331 Q810,1331 631.5,1224 Q453,1117 354.5,928.5 Q256,740 256,512 Q256,242 399.5,93.5 Q543,-55 809,-55 Q1006,-55 1229,31 L1229,-96 Q1010,-186 786,-186 Q472,-186 291.5,-1.5 Q111,183 111,504 Q111,765 237.5,989.5 Q364,1214 581,1337 Q798,1460 1067,1460 Q1258,1460 1396,1384.5 Q1534,1309 1606.5,1171 Q1679,1033 1679,852 M985,938 Q891,938 811,883 Q731,828 685,730 Q639,632 639,518 Q639,425 672,383.5 Q705,342 770,342 Q957,342 1042,657 L1112,915 Q1049,938 985,938"/> 
            <glyph glyph-name="@" unicode="&#x40;" horiz-adv-x="1040" d=" M813,465 L317,465 L72,0 L-117,0 L682,1462 L856,1462 L1040,0 L870,0 M795,621 L760,920 Q736,1099 731,1270 Q694,1182 650.5,1095 Q607,1008 401,621"/> 
            <glyph glyph-name="A" unicode="&#x41;" horiz-adv-x="1202" d=" M770,1462 Q1202,1462 1202,1126 Q1202,985 1115,888 Q1028,791 870,762 L870,752 Q985,720 1046.5,641.5 Q1108,563 1108,453 Q1108,241 956,120.5 Q804,0 549,0 L86,0 L395,1462 M434,836 L682,836 Q838,836 931,909 Q1024,982 1024,1108 Q1024,1212 957.5,1263.5 Q891,1315 748,1315 L537,1315 M287,145 L553,145 Q734,145 831,225.5 Q928,306 928,453 Q928,569 853.5,630.5 Q779,692 639,692 L403,692"/> 
            <glyph glyph-name="B" unicode="&#x42;" horiz-adv-x="1290" d=" M942,1331 Q768,1331 630.5,1234 Q493,1137 412.5,949.5 Q332,762 332,541 Q332,354 429.5,242.5 Q527,131 698,131 Q837,131 1020,188 L1020,39 Q934,8 856,-6 Q778,-20 668,-20 Q426,-20 288,129.5 Q150,279 150,537 Q150,798 255.5,1022.5 Q361,1247 539,1365 Q717,1483 942,1483 Q1139,1483 1290,1403 L1221,1262 Q1083,1331 942,1331"/> 
            <glyph glyph-name="C" unicode="&#x43;" horiz-adv-x="1300" d=" M1300,877 Q1300,616 1195,416 Q1090,216 895,108 Q700,0 438,0 L86,0 L395,1462 L737,1462 Q1013,1462 1156.5,1312.5 Q1300,1163 1300,877 M449,147 Q651,147 804,238.5 Q957,330 1038.5,497 Q1120,664 1120,879 Q1120,1094 1017,1204.5 Q914,1315 715,1315 L537,1315 L287,147"/> 
            <glyph glyph-name="D" unicode="&#x44;" horiz-adv-x="1130" d=" M821,0 L86,0 L395,1462 L1130,1462 L1098,1309 L532,1309 L434,840 L961,840 L932,688 L403,688 L289,152 L854,152"/> 
            <glyph glyph-name="E" unicode="&#x45;" horiz-adv-x="1130" d=" M258,0 L86,0 L395,1462 L1130,1462 L1100,1309 L532,1309 L422,776 L950,776 L918,623 L389,623"/> 
            <glyph glyph-name="F" unicode="&#x46;" horiz-adv-x="1358" d=" M821,766 L1280,766 L1126,55 Q910,-20 707,-20 Q443,-20 296.5,124.5 Q150,269 150,528 Q150,797 251.5,1017.5 Q353,1238 533,1360.5 Q713,1483 932,1483 Q1049,1483 1151.5,1463 Q1254,1443 1358,1399 L1292,1247 Q1215,1281 1126.5,1306 Q1038,1331 932,1331 Q763,1331 624.5,1229.5 Q486,1128 409,946 Q332,764 332,539 Q332,349 434.5,240 Q537,131 721,131 Q875,131 981,170 L1077,614 L788,614"/> 
            <glyph glyph-name="G" unicode="&#x47;" horiz-adv-x="1395" d=" M1085,0 L918,0 L1061,688 L401,688 L256,0 L86,0 L395,1462 L565,1462 L434,840 L1094,840 L1227,1462 L1395,1462"/> 
            <glyph glyph-name="H" unicode="&#x48;" horiz-adv-x="565" d=" M86,0 L397,1462 L565,1462 L254,0"/> 
            <glyph glyph-name="I" unicode="&#x49;" horiz-adv-x="565" d=" M-166,-385 Q-271,-385 -319,-360 L-313,-213 Q-244,-233 -168,-233 Q-68,-233 -2.5,-170.5 Q63,-108 88,12 L395,1462 L565,1462 L256,-6 Q177,-385 -166,-385"/> 
            <glyph glyph-name="J" unicode="&#x4A;" horiz-adv-x="1323" d=" M1034,0 L848,0 Q776,181 701.5,359.5 Q627,538 555,721 L381,590 L256,0 L86,0 L395,1462 L565,1462 L414,752 L1114,1462 L1323,1462 L684,825"/> 
            <glyph glyph-name="K" unicode="&#x4B;" horiz-adv-x="854" d=" M86,0 L395,1462 L565,1462 L289,154 L854,154 L821,0"/> 
            <glyph glyph-name="L" unicode="&#x4C;" horiz-adv-x="1720" d=" M676,0 L510,1296 L502,1296 Q495,1224 473.5,1098.5 Q452,973 436,899 L246,0 L84,0 L393,1462 L637,1462 L786,258 L795,258 L1454,1462 L1720,1462 L1417,0 L1243,0 Q1369,590 1436,905.5 Q1503,1221 1530,1298 L1524,1298 L807,0"/> 
            <glyph glyph-name="M" unicode="&#x4D;" horiz-adv-x="1448" d=" M1139,0 L958,0 L498,1223 L492,1223 Q460,1002 418,805 L246,0 L84,0 L393,1462 L573,1462 L1032,242 L1038,242 Q1068,466 1110,647 L1284,1462 L1448,1462"/> 
            <glyph glyph-name="N" unicode="&#x4E;" horiz-adv-x="1411" d=" M1411,907 Q1411,638 1323,425.5 Q1235,213 1071,96.5 Q907,-20 692,-20 Q436,-20 293,129.5 Q150,279 150,549 Q150,813 246,1031 Q342,1249 509.5,1367 Q677,1485 887,1485 Q1131,1485 1271,1331 Q1411,1177 1411,907 M874,1333 Q717,1333 593,1232 Q469,1131 400.5,951 Q332,771 332,553 Q332,354 430,242.5 Q528,131 696,131 Q848,131 968.5,228.5 Q1089,326 1159,508 Q1229,690 1229,911 Q1229,1110 1135,1221.5 Q1041,1333 874,1333"/> 
            <glyph glyph-name="O" unicode="&#x4F;" horiz-adv-x="1159" d=" M1159,1085 Q1159,837 995,706 Q831,575 514,575 L379,575 L256,0 L86,0 L395,1462 L725,1462 Q939,1462 1049,1367.5 Q1159,1273 1159,1085 M410,721 L543,721 Q759,721 871,812 Q983,903 983,1079 Q983,1204 913.5,1259.5 Q844,1315 700,1315 L537,1315"/> 
            </font>
</defs>
</svg>
