<svg viewBox="0 0 64 64" xmlns="http://www.w3.org/2000/svg" fill-rule="evenodd" clip-rule="evenodd" stroke-linejoin="round" stroke-miterlimit="1.414"><path d="M64 32.752c0 6.972-2.035 13.243-6.104 18.813-4.07 5.57-9.327 9.423-15.77 11.562-.75.14-1.3.042-1.647-.29-.348-.335-.522-.75-.522-1.25v-8.793c0-2.695-.722-4.667-2.166-5.917 1.583-.166 3.007-.416 4.27-.75 1.264-.333 2.57-.875 3.917-1.625 1.346-.75 2.47-1.673 3.374-2.77.903-1.098 1.64-2.556 2.21-4.376.568-1.82.853-3.91.853-6.27 0-3.362-1.098-6.223-3.292-8.584 1.028-2.528.917-5.36-.333-8.5-.778-.25-1.903-.097-3.375.46-1.473.554-2.75 1.165-3.834 1.832l-1.583 1c-2.583-.722-5.25-1.083-8-1.083s-5.417.362-8 1.084c-.444-.306-1.035-.68-1.77-1.125-.737-.446-1.897-.98-3.48-1.605s-2.778-.813-3.583-.563c-1.223 3.14-1.32 5.972-.292 8.5-2.194 2.36-3.292 5.222-3.292 8.584 0 2.36.285 4.444.855 6.25.57 1.805 1.298 3.263 2.187 4.375.89 1.112 2.007 2.042 3.354 2.792 1.346.75 2.652 1.292 3.916 1.625 1.264.334 2.687.584 4.27.75-1.11 1-1.79 2.43-2.04 4.292-.584.277-1.21.485-1.876.624-.667.14-1.458.208-2.375.208s-1.826-.298-2.73-.896c-.902-.597-1.673-1.465-2.312-2.604-.527-.89-1.2-1.61-2.02-2.166-.82-.556-1.507-.89-2.063-1l-.833-.125c-.584 0-.986.063-1.21.188-.22.125-.29.285-.207.48.083.194.208.388.375.583.167.195.347.362.542.5l.29.21c.612.277 1.217.804 1.814 1.582.598.778 1.036 1.486 1.313 2.125l.417.96c.36 1.054.972 1.908 1.833 2.56.86.654 1.792 1.07 2.792 1.25 1 .182 1.965.28 2.896.293.93.014 1.702-.035 2.313-.146l.96-.167c0 1.056.006 2.292.02 3.71l.02 2.25c0 .5-.18.915-.54 1.25-.362.332-.918.43-1.668.29-6.444-2.14-11.7-5.993-15.77-11.562C2.034 45.995 0 39.725 0 32.752c0-5.805 1.43-11.16 4.292-16.062 2.86-4.903 6.743-8.785 11.646-11.646C20.84 2.184 26.194.752 32 .752c5.806 0 11.16 1.43 16.063 4.292 4.902 2.86 8.784 6.743 11.645 11.646C62.568 21.592 64 26.947 64 32.752z" fill-rule="nonzero"/></svg>
