<svg viewBox="0 0 64 65" xmlns="http://www.w3.org/2000/svg" fill-rule="evenodd" clip-rule="evenodd" stroke-linejoin="round" stroke-miterlimit="1.414"><clipPath id="a"><path d="M-192-31.248h2387v1436.25H-192z"/></clipPath><g clip-path="url(#a)"><path d="M32 48.752c-4.416 0-8 3.584-8 8 0 4.42 3.584 8 8 8 4.42 0 8-3.58 8-8 0-4.416-3.58-8-8-8zM32 24.752c-4.416 0-8 3.584-8 8 0 4.42 3.584 8 8 8 4.42 0 8-3.58 8-8 0-4.416-3.58-8-8-8zM32 16.752c4.42 0 8-3.58 8-8 0-4.416-3.58-8-8-8-4.416 0-8 3.584-8 8 0 4.42 3.584 8 8 8z"/></g></svg>
