<?xml version="1.0" encoding="UTF-8" standalone="no"?><!DOCTYPE svg PUBLIC "-//W3C//DTD SVG 1.1//EN" "http://www.w3.org/Graphics/SVG/1.1/DTD/svg11.dtd"><svg width="100%" height="100%" viewBox="0 0 63 65" version="1.1" xmlns="http://www.w3.org/2000/svg" xmlns:xlink="http://www.w3.org/1999/xlink" xml:space="preserve" style="fill-rule:evenodd;clip-rule:evenodd;stroke-linejoin:round;stroke-miterlimit:1.41421;"><path d="M13.817,53.105c0,-0.675 -0.241,-1.259 -0.723,-1.753c-0.482,-0.493 -1.053,-0.74 -1.713,-0.74c-0.66,0 -1.231,0.247 -1.713,0.74c-0.482,0.494 -0.723,1.078 -0.723,1.753c0,0.675 0.241,1.26 0.723,1.753c0.482,0.494 1.053,0.74 1.713,0.74c0.66,0 1.231,-0.246 1.713,-0.74c0.482,-0.493 0.723,-1.078 0.723,-1.753ZM38.33,36.745l-25.959,26.566c-0.939,0.961 -2.081,1.441 -3.426,1.441c-1.32,0 -2.474,-0.48 -3.464,-1.441l-4.035,-4.207c-0.964,-0.935 -1.446,-2.103 -1.446,-3.506c0,-1.376 0.482,-2.558 1.446,-3.545l25.921,-26.527c0.99,2.545 2.443,4.798 4.359,6.759c1.916,1.96 4.117,3.447 6.604,4.46ZM62.462,19.8c0,1.013 -0.292,2.389 -0.876,4.129c-1.192,3.48 -3.28,6.304 -6.261,8.473c-2.982,2.168 -6.262,3.252 -9.839,3.252c-4.695,0 -8.711,-1.707 -12.047,-5.122c-3.337,-3.415 -5.006,-7.525 -5.006,-12.329c0,-4.804 1.669,-8.914 5.006,-12.328c3.336,-3.415 7.352,-5.123 12.047,-5.123c1.471,0 3.013,0.214 4.624,0.643c1.612,0.428 2.975,1.032 4.092,1.811c0.406,0.286 0.609,0.649 0.609,1.091c0,0.441 -0.203,0.805 -0.609,1.091l-11.153,6.583l0,8.725l7.347,4.168c0.127,-0.078 1.129,-0.707 3.007,-1.889c1.877,-1.182 3.597,-2.233 5.157,-3.155c1.561,-0.922 2.455,-1.383 2.684,-1.383c0.38,0 0.678,0.13 0.894,0.389c0.216,0.26 0.324,0.585 0.324,0.974Z" style="fill-rule:nonzero;"/></svg>
