<?xml version="1.0" standalone="no"?>
<!DOCTYPE svg PUBLIC "-//W3C//DTD SVG 1.1//EN" "http://www.w3.org/Graphics/SVG/1.1/DTD/svg11.dtd" >
<svg xmlns="http://www.w3.org/2000/svg">
    <defs>
        <font id="OpenSans-Bold">
            <font-face font-family="OpenSans-Bold"
                       units-per-em="2048"
                       ascent="2189"
                       descent="-600"
                       bbox="-393 -492 2062 1907"
                    />
            <missing-glyph horiz-adv-x="0" />
            
            <glyph glyph-name="!" unicode="&#x21;" horiz-adv-x="467" d=" M416,485 L172,485 L121,1462 L467,1462 M117,143 Q117,227 162,270 Q207,313 293,313 Q376,313 421.5,269 Q467,225 467,143 Q467,64 421,18.5 Q375,-27 293,-27 Q209,-27 163,17.5 Q117,62 117,143"/> 
            <glyph glyph-name="&quot;" unicode="&#x22;" horiz-adv-x="834" d=" M412,1462 L371,934 L174,934 L133,1462 M834,1462 L793,934 L596,934 L555,1462"/> 
            <glyph glyph-name="#" unicode="&#x23;" horiz-adv-x="1278" d=" M999,844 L952,612 L1210,612 L1210,406 L913,406 L836,0 L616,0 L694,406 L500,406 L424,0 L209,0 L283,406 L45,406 L45,612 L322,612 L369,844 L117,844 L117,1053 L406,1053 L483,1460 L702,1460 L625,1053 L823,1053 L901,1460 L1116,1460 L1038,1053 L1278,1053 L1278,844 M539,612 L735,612 L782,844 L586,844"/> 
            <glyph glyph-name="$" unicode="&#x24;" horiz-adv-x="1092" d=" M1092,457 Q1092,298 977,201.5 Q862,105 655,86 L655,-119 L518,-119 L518,82 Q274,87 90,168 L90,432 Q177,389 299.5,356 Q422,323 518,317 L518,627 L451,653 Q253,731 170.5,822.5 Q88,914 88,1049 Q88,1194 201.5,1287.5 Q315,1381 518,1401 L518,1554 L655,1554 L655,1405 Q884,1395 1069,1313 L975,1079 Q819,1143 655,1157 L655,862 Q850,787 932.5,732 Q1015,677 1053.5,611 Q1092,545 1092,457 M791,442 Q791,484 757,513 Q723,542 655,573 L655,324 Q791,347 791,442 M389,1049 Q389,1005 419.5,976.5 Q450,948 518,918 L518,1153 Q389,1134 389,1049"/> 
            <glyph glyph-name="%" unicode="&#x25;" horiz-adv-x="1782" d=" M315,1024 Q315,897 337.5,834.5 Q360,772 410,772 Q506,772 506,1024 Q506,1274 410,1274 Q360,1274 337.5,1212.5 Q315,1151 315,1024 M758,1026 Q758,796 669,680.5 Q580,565 408,565 Q243,565 153,683.5 Q63,802 63,1026 Q63,1483 408,1483 Q577,1483 667.5,1364.5 Q758,1246 758,1026 M1446,1462 L635,0 L395,0 L1206,1462 M1339,440 Q1339,313 1361.5,250.5 Q1384,188 1434,188 Q1530,188 1530,440 Q1530,690 1434,690 Q1384,690 1361.5,628.5 Q1339,567 1339,440 M1782,442 Q1782,213 1693,97.5 Q1604,-18 1432,-18 Q1267,-18 1177,100.5 Q1087,219 1087,442 Q1087,899 1432,899 Q1601,899 1691.5,780.5 Q1782,662 1782,442"/> 
            <glyph glyph-name="&amp;" unicode="&#x26;" horiz-adv-x="1536" d=" M1536,0 L1159,0 L1044,113 Q853,-20 612,-20 Q368,-20 225,92 Q82,204 82,395 Q82,532 142.5,628.5 Q203,725 350,809 Q275,895 241,973.5 Q207,1052 207,1145 Q207,1297 323.5,1390 Q440,1483 635,1483 Q821,1483 932.5,1396.5 Q1044,1310 1044,1165 Q1044,1046 975,947.5 Q906,849 752,760 L1036,483 Q1107,600 1159,784 L1477,784 Q1441,649 1378,520.5 Q1315,392 1235,293 M403,424 Q403,338 467.5,287 Q532,236 633,236 Q759,236 860,297 L528,627 Q470,583 436.5,535 Q403,487 403,424 M762,1133 Q762,1186 726,1216.5 Q690,1247 633,1247 Q566,1247 527.5,1215 Q489,1183 489,1124 Q489,1036 584,930 Q670,978 716,1024.5 Q762,1071 762,1133"/> 
            <glyph glyph-name="'" unicode="&#x27;" horiz-adv-x="412" d=" M412,1462 L371,934 L174,934 L133,1462"/> 
            <glyph glyph-name="(" unicode="&#x28;" horiz-adv-x="633" d=" M82,561 Q82,826 159.5,1057 Q237,1288 383,1462 L633,1462 Q492,1269 420,1038 Q348,807 348,563 Q348,318 421.5,89.5 Q495,-139 631,-324 L383,-324 Q236,-154 159,73 Q82,300 82,561"/> 
            <glyph glyph-name=")" unicode="&#x29;" horiz-adv-x="612" d=" M612,561 Q612,298 534.5,71 Q457,-156 311,-324 L63,-324 Q198,-140 272,88.5 Q346,317 346,563 Q346,807 274,1038 Q202,1269 61,1462 L311,1462 Q458,1287 535,1055.5 Q612,824 612,561"/> 
            <glyph glyph-name="*" unicode="&#x2A;" horiz-adv-x="1053" d=" M688,1556 L647,1188 L1020,1292 L1053,1040 L713,1016 L936,719 L709,598 L553,911 L416,600 L180,719 L401,1016 L63,1042 L102,1292 L467,1188 L426,1556"/> 
            <glyph glyph-name="+" unicode="&#x2B;" horiz-adv-x="1081" d=" M475,612 L88,612 L88,831 L475,831 L475,1221 L694,1221 L694,831 L1081,831 L1081,612 L694,612 L694,227 L475,227"/> 
            <glyph glyph-name="," unicode="&#x2C;" horiz-adv-x="459" d=" M459,215 Q407,13 283,-264 L63,-264 Q128,2 164,238 L444,238"/> 
            <glyph glyph-name="-" unicode="&#x2D;" horiz-adv-x="598" d=" M61,424 L61,674 L598,674 L598,424"/> 
            <glyph glyph-name="." unicode="&#x2E;" horiz-adv-x="467" d=" M117,143 Q117,227 162,270 Q207,313 293,313 Q376,313 421.5,269 Q467,225 467,143 Q467,64 421,18.5 Q375,-27 293,-27 Q209,-27 163,17.5 Q117,62 117,143"/> 
            <glyph glyph-name="/" unicode="&#x2F;" horiz-adv-x="836" d=" M836,1462 L291,0 L14,0 L559,1462"/> 
            <glyph glyph-name="0" unicode="&#x30;" horiz-adv-x="1096" d=" M1096,731 Q1096,348 970.5,164 Q845,-20 584,-20 Q331,-20 202.5,170 Q74,360 74,731 Q74,1118 199,1301.5 Q324,1485 584,1485 Q837,1485 966.5,1293 Q1096,1101 1096,731 M381,731 Q381,462 427.5,345.5 Q474,229 584,229 Q692,229 740,347 Q788,465 788,731 Q788,1000 739.5,1117.5 Q691,1235 584,1235 Q475,1235 428,1117.5 Q381,1000 381,731"/> 
            <glyph glyph-name="1" unicode="&#x31;" horiz-adv-x="846" d=" M846,0 L537,0 L537,846 L540,985 L545,1137 Q468,1060 438,1036 L270,901 L121,1087 L592,1462 L846,1462"/> 
            <glyph glyph-name="2" unicode="&#x32;" horiz-adv-x="1104" d=" M1104,0 L82,0 L82,215 L449,586 Q612,753 662,817.5 Q712,882 734,937 Q756,992 756,1051 Q756,1139 707.5,1182 Q659,1225 578,1225 Q493,1225 413,1186 Q333,1147 246,1075 L78,1274 Q186,1366 257,1404 Q328,1442 412,1462.5 Q496,1483 600,1483 Q737,1483 842,1433 Q947,1383 1005,1293 Q1063,1203 1063,1087 Q1063,986 1027.5,897.5 Q992,809 917.5,716 Q843,623 655,451 L467,274 L467,260 L1104,260"/> 
            <glyph glyph-name="3" unicode="&#x33;" horiz-adv-x="1090" d=" M1047,1135 Q1047,998 964,902 Q881,806 731,770 L731,764 Q908,742 999,656.5 Q1090,571 1090,426 Q1090,215 937,97.5 Q784,-20 500,-20 Q262,-20 78,59 L78,322 Q163,279 265,252 Q367,225 467,225 Q620,225 693,277 Q766,329 766,444 Q766,547 682,590 Q598,633 414,633 L303,633 L303,870 L416,870 Q586,870 664.5,914.5 Q743,959 743,1067 Q743,1233 535,1233 Q463,1233 388.5,1209 Q314,1185 223,1126 L80,1339 Q280,1483 557,1483 Q784,1483 915.5,1391 Q1047,1299 1047,1135"/> 
            <glyph glyph-name="4" unicode="&#x34;" horiz-adv-x="1137" d=" M1137,303 L961,303 L961,0 L659,0 L659,303 L35,303 L35,518 L676,1462 L961,1462 L961,543 L1137,543 M659,543 L659,791 Q659,853 664,971 Q669,1089 672,1108 L664,1108 Q627,1026 575,948 L307,543"/> 
            <glyph glyph-name="5" unicode="&#x35;" horiz-adv-x="1077" d=" M614,934 Q826,934 951.5,815 Q1077,696 1077,489 Q1077,244 926,112 Q775,-20 494,-20 Q250,-20 100,59 L100,326 Q179,284 284,257.5 Q389,231 483,231 Q766,231 766,463 Q766,684 473,684 Q420,684 356,673.5 Q292,663 252,651 L129,717 L184,1462 L977,1462 L977,1200 L455,1200 L428,913 L463,920 Q524,934 614,934"/> 
            <glyph glyph-name="6" unicode="&#x36;" horiz-adv-x="1104" d=" M72,621 Q72,1055 255.5,1267 Q439,1479 805,1479 Q930,1479 1001,1464 L1001,1217 Q912,1237 825,1237 Q666,1237 565.5,1189 Q465,1141 415,1047 Q365,953 356,780 L369,780 Q468,950 686,950 Q882,950 993,827 Q1104,704 1104,487 Q1104,253 972,116.5 Q840,-20 606,-20 Q444,-20 323.5,55 Q203,130 137.5,274 Q72,418 72,621 M600,227 Q699,227 752,293.5 Q805,360 805,483 Q805,590 755.5,651.5 Q706,713 606,713 Q512,713 445.5,652 Q379,591 379,510 Q379,391 441.5,309 Q504,227 600,227"/> 
            <glyph glyph-name="7" unicode="&#x37;" horiz-adv-x="1104" d=" M227,0 L776,1200 L55,1200 L55,1460 L1104,1460 L1104,1266 L551,0"/> 
            <glyph glyph-name="8" unicode="&#x38;" horiz-adv-x="1098" d=" M586,1481 Q796,1481 924.5,1385.5 Q1053,1290 1053,1128 Q1053,1016 991,928.5 Q929,841 791,772 Q955,684 1026.5,588.5 Q1098,493 1098,379 Q1098,199 957,89.5 Q816,-20 586,-20 Q346,-20 209,82 Q72,184 72,371 Q72,496 138.5,593 Q205,690 352,764 Q227,843 172,933 Q117,1023 117,1130 Q117,1287 247,1384 Q377,1481 586,1481 M358,389 Q358,303 418,255 Q478,207 582,207 Q697,207 754,256.5 Q811,306 811,387 Q811,454 754.5,512.5 Q698,571 571,637 Q358,539 358,389 M584,1255 Q505,1255 456.5,1214.5 Q408,1174 408,1106 Q408,1046 446.5,998.5 Q485,951 586,901 Q684,947 723,995 Q762,1043 762,1106 Q762,1175 712,1215 Q662,1255 584,1255"/> 
            <glyph glyph-name="9" unicode="&#x39;" horiz-adv-x="1098" d=" M1098,838 Q1098,406 916,193 Q734,-20 365,-20 Q235,-20 168,-6 L168,242 Q252,221 344,221 Q499,221 599,266.5 Q699,312 752,409.5 Q805,507 813,678 L801,678 Q743,584 667,546 Q591,508 477,508 Q286,508 176,630.5 Q66,753 66,971 Q66,1206 199.5,1342.5 Q333,1479 563,1479 Q725,1479 846.5,1403 Q968,1327 1033,1182.5 Q1098,1038 1098,838 M569,1231 Q473,1231 419,1165 Q365,1099 365,975 Q365,869 414,807 Q463,745 563,745 Q657,745 724,806.5 Q791,868 791,948 Q791,1067 728.5,1149 Q666,1231 569,1231"/> 
            <glyph glyph-name=":" unicode="&#x3A;" horiz-adv-x="467" d=" M117,143 Q117,227 162,270 Q207,313 293,313 Q376,313 421.5,269 Q467,225 467,143 Q467,64 421,18.5 Q375,-27 293,-27 Q209,-27 163,17.5 Q117,62 117,143 M117,969 Q117,1053 162,1096 Q207,1139 293,1139 Q376,1139 421.5,1095 Q467,1051 467,969 Q467,888 420.5,843.5 Q374,799 293,799 Q209,799 163,843 Q117,887 117,969"/> 
            <glyph glyph-name=";" unicode="&#x3B;" horiz-adv-x="467" d=" M444,238 L459,215 Q407,13 283,-264 L63,-264 Q128,2 164,238 M117,969 Q117,1053 162,1096 Q207,1139 293,1139 Q376,1139 421.5,1095 Q467,1051 467,969 Q467,888 420.5,843.5 Q374,799 293,799 Q209,799 163,843 Q117,887 117,969"/> 
            <glyph glyph-name="&lt;" unicode="&#x3C;" horiz-adv-x="1081" d=" M1081,203 L88,641 L88,784 L1081,1280 L1081,1040 L397,723 L1081,442"/> 
            <glyph glyph-name="=" unicode="&#x3D;" horiz-adv-x="1081" d=" M88,805 L88,1024 L1081,1024 L1081,805 M88,418 L88,637 L1081,637 L1081,418"/> 
            <glyph glyph-name="&gt;" unicode="&#x3E;" horiz-adv-x="1081" d=" M88,442 L772,723 L88,1040 L88,1280 L1081,784 L1081,641 L88,203"/> 
            <glyph glyph-name="?" unicode="&#x3F;" horiz-adv-x="928" d=" M276,485 L276,559 Q276,655 317,726 Q358,797 467,877 Q572,952 605.5,999 Q639,1046 639,1104 Q639,1169 591,1203 Q543,1237 457,1237 Q307,1237 115,1139 L6,1358 Q229,1483 479,1483 Q685,1483 806.5,1384 Q928,1285 928,1120 Q928,1010 878,930 Q828,850 688,750 Q592,679 566.5,642 Q541,605 541,545 L541,485 M244,143 Q244,227 289,270 Q334,313 420,313 Q503,313 548.5,269 Q594,225 594,143 Q594,64 548,18.5 Q502,-27 420,-27 Q336,-27 290,17.5 Q244,62 244,143"/> 
            <glyph glyph-name="@" unicode="&#x40;" horiz-adv-x="1735" d=" M1735,752 Q1735,608 1689,488.5 Q1643,369 1559,301 Q1475,233 1364,233 Q1290,233 1233,268.5 Q1176,304 1151,362 L1135,362 Q1027,233 860,233 Q683,233 581,339.5 Q479,446 479,631 Q479,842 613,971 Q747,1100 963,1100 Q1049,1100 1152.5,1083.5 Q1256,1067 1323,1044 L1300,555 Q1300,416 1376,416 Q1440,416 1478,509.5 Q1516,603 1516,754 Q1516,915 1449,1038.5 Q1382,1162 1260.5,1227 Q1139,1292 983,1292 Q781,1292 632,1209 Q483,1126 403.5,969.5 Q324,813 324,608 Q324,332 471.5,184.5 Q619,37 899,37 Q1005,37 1132,60.5 Q1259,84 1382,129 L1382,-63 Q1168,-154 907,-154 Q527,-154 314.5,46 Q102,246 102,602 Q102,849 210.5,1050.5 Q319,1252 519.5,1366.5 Q720,1481 981,1481 Q1201,1481 1374,1391 Q1547,1301 1641,1135 Q1735,969 1735,752 M711,627 Q711,416 883,416 Q973,416 1020,479.5 Q1067,543 1077,686 L1090,907 Q1039,918 975,918 Q850,918 780.5,840 Q711,762 711,627"/> 
            <glyph glyph-name="A" unicode="&#x41;" horiz-adv-x="1413" d=" M1079,0 L973,348 L440,348 L334,0 L0,0 L516,1468 L895,1468 L1413,0 M899,608 Q752,1081 733.5,1143 Q715,1205 707,1241 Q674,1113 518,608"/> 
            <glyph glyph-name="B" unicode="&#x42;" horiz-adv-x="1268" d=" M184,1462 L639,1462 Q950,1462 1090.5,1373.5 Q1231,1285 1231,1092 Q1231,961 1169.5,877 Q1108,793 1006,776 L1006,766 Q1145,735 1206.5,650 Q1268,565 1268,424 Q1268,224 1123.5,112 Q979,0 731,0 L184,0 M494,883 L674,883 Q800,883 856.5,922 Q913,961 913,1051 Q913,1135 851.5,1171.5 Q790,1208 657,1208 L494,1208 M494,637 L494,256 L696,256 Q824,256 885,305 Q946,354 946,455 Q946,637 686,637"/> 
            <glyph glyph-name="C" unicode="&#x43;" horiz-adv-x="1233" d=" M805,1225 Q630,1225 534,1093.5 Q438,962 438,727 Q438,238 805,238 Q959,238 1178,315 L1178,55 Q998,-20 776,-20 Q457,-20 288,173.5 Q119,367 119,729 Q119,957 202,1128.5 Q285,1300 440.5,1391.5 Q596,1483 805,1483 Q1018,1483 1233,1380 L1133,1128 Q1051,1167 968,1196 Q885,1225 805,1225"/> 
            <glyph glyph-name="D" unicode="&#x44;" horiz-adv-x="1397" d=" M1397,745 Q1397,384 1191.5,192 Q986,0 598,0 L184,0 L184,1462 L643,1462 Q1001,1462 1199,1273 Q1397,1084 1397,745 M1075,737 Q1075,1208 659,1208 L494,1208 L494,256 L627,256 Q1075,256 1075,737"/> 
            <glyph glyph-name="E" unicode="&#x45;" horiz-adv-x="1026" d=" M1026,0 L184,0 L184,1462 L1026,1462 L1026,1208 L494,1208 L494,887 L989,887 L989,633 L494,633 L494,256 L1026,256"/> 
            <glyph glyph-name="F" unicode="&#x46;" horiz-adv-x="1022" d=" M489,0 L184,0 L184,1462 L1022,1462 L1022,1208 L489,1208 L489,831 L985,831 L985,578 L489,578"/> 
            <glyph glyph-name="G" unicode="&#x47;" horiz-adv-x="1319" d=" M739,821 L1319,821 L1319,63 Q1178,17 1053.5,-1.5 Q929,-20 799,-20 Q468,-20 293.5,174.5 Q119,369 119,733 Q119,1087 321.5,1285 Q524,1483 883,1483 Q1108,1483 1317,1393 L1214,1145 Q1054,1225 881,1225 Q680,1225 559,1090 Q438,955 438,727 Q438,489 535.5,363.5 Q633,238 819,238 Q916,238 1016,258 L1016,563 L739,563"/> 
            <glyph glyph-name="H" unicode="&#x48;" horiz-adv-x="1382" d=" M1382,0 L1073,0 L1073,631 L494,631 L494,0 L184,0 L184,1462 L494,1462 L494,889 L1073,889 L1073,1462 L1382,1462"/> 
            <glyph glyph-name="I" unicode="&#x49;" horiz-adv-x="494" d=" M184,0 L184,1462 L494,1462 L494,0"/> 
            <glyph glyph-name="J" unicode="&#x4A;" horiz-adv-x="494" d=" M31,-430 Q-74,-430 -152,-408 L-152,-150 Q-72,-170 -6,-170 Q96,-170 140,-106.5 Q184,-43 184,92 L184,1462 L494,1462 L494,94 Q494,-162 377,-296 Q260,-430 31,-430"/> 
            <glyph glyph-name="K" unicode="&#x4B;" horiz-adv-x="1360" d=" M1360,0 L1008,0 L625,616 L494,522 L494,0 L184,0 L184,1462 L494,1462 L494,793 L616,965 L1012,1462 L1356,1462 L846,815"/> 
            <glyph glyph-name="L" unicode="&#x4C;" horiz-adv-x="1087" d=" M184,0 L184,1462 L494,1462 L494,256 L1087,256 L1087,0"/> 
            <glyph glyph-name="M" unicode="&#x4D;" horiz-adv-x="1747" d=" M803,0 L451,1147 L442,1147 Q461,797 461,680 L461,0 L184,0 L184,1462 L606,1462 L952,344 L958,344 L1325,1462 L1747,1462 L1747,0 L1458,0 L1458,692 Q1458,741 1459.5,805 Q1461,869 1473,1145 L1464,1145 L1087,0"/> 
            <glyph glyph-name="N" unicode="&#x4E;" horiz-adv-x="1481" d=" M1481,0 L1087,0 L451,1106 L442,1106 Q461,813 461,688 L461,0 L184,0 L184,1462 L575,1462 L1210,367 L1217,367 Q1202,652 1202,770 L1202,1462 L1481,1462"/> 
            <glyph glyph-name="O" unicode="&#x4F;" horiz-adv-x="1511" d=" M1511,733 Q1511,370 1331,175 Q1151,-20 815,-20 Q479,-20 299,175 Q119,370 119,735 Q119,1100 299.5,1292.5 Q480,1485 817,1485 Q1154,1485 1332.5,1291 Q1511,1097 1511,733 M444,733 Q444,488 537,364 Q630,240 815,240 Q1186,240 1186,733 Q1186,1227 817,1227 Q632,1227 538,1102.5 Q444,978 444,733"/> 
            <glyph glyph-name="P" unicode="&#x50;" horiz-adv-x="1194" d=" M494,774 L596,774 Q739,774 810,830.5 Q881,887 881,995 Q881,1104 821.5,1156 Q762,1208 635,1208 L494,1208 M1194,1006 Q1194,770 1046.5,645 Q899,520 627,520 L494,520 L494,0 L184,0 L184,1462 L651,1462 Q917,1462 1055.5,1347.5 Q1194,1233 1194,1006"/> 
            <glyph glyph-name="Q" unicode="&#x51;" horiz-adv-x="1511" d=" M1511,733 Q1511,475 1419.5,300.5 Q1328,126 1151,45 L1503,-348 L1106,-348 L838,-20 L815,-20 Q479,-20 299,175 Q119,370 119,735 Q119,1100 299.5,1292.5 Q480,1485 817,1485 Q1154,1485 1332.5,1291 Q1511,1097 1511,733 M444,733 Q444,488 537,364 Q630,240 815,240 Q1186,240 1186,733 Q1186,1227 817,1227 Q632,1227 538,1102.5 Q444,978 444,733"/> 
            <glyph glyph-name="R" unicode="&#x52;" horiz-adv-x="1352" d=" M494,813 L594,813 Q741,813 811,862 Q881,911 881,1016 Q881,1120 809.5,1164 Q738,1208 588,1208 L494,1208 M494,561 L494,0 L184,0 L184,1462 L610,1462 Q908,1462 1051,1353.5 Q1194,1245 1194,1024 Q1194,895 1123,794.5 Q1052,694 922,637 Q1252,144 1352,0 L1008,0 L659,561"/> 
            <glyph glyph-name="S" unicode="&#x53;" horiz-adv-x="1047" d=" M1047,406 Q1047,208 904.5,94 Q762,-20 508,-20 Q274,-20 94,68 L94,356 Q242,290 344.5,263 Q447,236 532,236 Q634,236 688.5,275 Q743,314 743,391 Q743,434 719,467.5 Q695,501 648.5,532 Q602,563 459,631 Q325,694 258,752 Q191,810 151,887 Q111,964 111,1067 Q111,1261 242.5,1372 Q374,1483 606,1483 Q720,1483 823.5,1456 Q927,1429 1040,1380 L940,1139 Q823,1187 746.5,1206 Q670,1225 596,1225 Q508,1225 461,1184 Q414,1143 414,1077 Q414,1036 433,1005.5 Q452,975 493.5,946.5 Q535,918 690,844 Q895,746 971,647.5 Q1047,549 1047,406"/> 
            <glyph glyph-name="T" unicode="&#x54;" horiz-adv-x="1145" d=" M748,0 L438,0 L438,1204 L41,1204 L41,1462 L1145,1462 L1145,1204 L748,1204"/> 
            <glyph glyph-name="U" unicode="&#x55;" horiz-adv-x="1374" d=" M1374,1462 L1374,516 Q1374,354 1301.5,232 Q1229,110 1092,45 Q955,-20 768,-20 Q486,-20 330,124.5 Q174,269 174,520 L174,1462 L483,1462 L483,567 Q483,398 551,319 Q619,240 776,240 Q928,240 996.5,319.5 Q1065,399 1065,569 L1065,1462"/> 
            <glyph glyph-name="V" unicode="&#x56;" horiz-adv-x="1331" d=" M1018,1462 L1331,1462 L834,0 L496,0 L0,1462 L313,1462 L588,592 Q611,515 635.5,412.5 Q660,310 666,270 Q677,362 741,592"/> 
            <glyph glyph-name="W" unicode="&#x57;" horiz-adv-x="1980" d=" M1608,0 L1255,0 L1057,768 Q1046,809 1019.5,937.5 Q993,1066 989,1110 Q983,1056 959,936.5 Q935,817 922,766 L725,0 L373,0 L0,1462 L305,1462 L492,664 Q541,443 563,281 Q569,338 590.5,457.5 Q612,577 631,643 L844,1462 L1137,1462 L1350,643 Q1364,588 1385,475 Q1406,362 1417,281 Q1427,359 1449,475.5 Q1471,592 1489,664 L1675,1462 L1980,1462"/> 
            <glyph glyph-name="X" unicode="&#x58;" horiz-adv-x="1366" d=" M1366,0 L1012,0 L672,553 L332,0 L0,0 L485,754 L31,1462 L373,1462 L688,936 L997,1462 L1331,1462 L872,737"/> 
            <glyph glyph-name="Y" unicode="&#x59;" horiz-adv-x="1278" d=" M639,860 L944,1462 L1278,1462 L793,569 L793,0 L485,0 L485,559 L0,1462 L336,1462"/> 
            <glyph glyph-name="Z" unicode="&#x5A;" horiz-adv-x="1137" d=" M1137,0 L49,0 L49,201 L750,1206 L68,1206 L68,1462 L1118,1462 L1118,1262 L418,256 L1137,256"/> 
            <glyph glyph-name="[" unicode="&#x5B;" horiz-adv-x="627" d=" M627,-324 L143,-324 L143,1462 L627,1462 L627,1251 L403,1251 L403,-113 L627,-113"/> 
            <glyph glyph-name="\" unicode="&#x5C;" horiz-adv-x="834" d=" M289,1462 L834,0 L557,0 L12,1462"/> 
            <glyph glyph-name="]" unicode="&#x5D;" horiz-adv-x="535" d=" M51,-113 L274,-113 L274,1251 L51,1251 L51,1462 L535,1462 L535,-324 L51,-324"/> 
            <glyph glyph-name="^" unicode="&#x5E;" horiz-adv-x="1085" d=" M8,520 L446,1470 L590,1470 L1085,520 L846,520 L524,1163 L244,520"/> 
            <glyph glyph-name="_" unicode="&#x5F;" horiz-adv-x="846" d=" M846,-324 L-4,-324 L-4,-184 L846,-184"/> 
            <glyph glyph-name="`" unicode="&#x60;" horiz-adv-x="909" d=" M707,1241 Q644,1285 522,1383.5 Q400,1482 332,1548 L332,1569 L674,1569 Q737,1468 909,1268 L909,1241"/> 
            <glyph glyph-name="a" unicode="&#x61;" horiz-adv-x="1083" d=" M870,0 L811,152 L803,152 Q726,55 644.5,17.5 Q563,-20 432,-20 Q271,-20 178.5,72 Q86,164 86,334 Q86,512 210.5,596.5 Q335,681 586,690 L780,696 L780,745 Q780,915 606,915 Q472,915 291,834 L190,1040 Q383,1141 618,1141 Q843,1141 963,1043 Q1083,945 1083,745 L1083,0 M780,518 L662,514 Q529,510 464,466 Q399,422 399,332 Q399,203 547,203 Q653,203 716.5,264 Q780,325 780,426"/> 
            <glyph glyph-name="b" unicode="&#x62;" horiz-adv-x="1204" d=" M782,1139 Q980,1139 1092,984.5 Q1204,830 1204,561 Q1204,284 1088.5,132 Q973,-20 774,-20 Q577,-20 465,123 L444,123 L393,0 L160,0 L160,1556 L465,1556 L465,1194 Q465,1125 453,973 L465,973 Q572,1139 782,1139 M684,895 Q571,895 519,825.5 Q467,756 465,596 L465,563 Q465,383 518.5,305 Q572,227 688,227 Q782,227 837.5,313.5 Q893,400 893,565 Q893,730 837,812.5 Q781,895 684,895"/> 
            <glyph glyph-name="c" unicode="&#x63;" horiz-adv-x="989" d=" M614,-20 Q92,-20 92,553 Q92,838 234,988.5 Q376,1139 641,1139 Q835,1139 989,1063 L899,827 Q827,856 765,874.5 Q703,893 641,893 Q403,893 403,555 Q403,227 641,227 Q729,227 804,250.5 Q879,274 954,324 L954,63 Q880,16 804.5,-2 Q729,-20 614,-20"/> 
            <glyph glyph-name="d" unicode="&#x64;" horiz-adv-x="1137" d=" M514,-20 Q317,-20 204.5,133 Q92,286 92,557 Q92,832 206.5,985.5 Q321,1139 522,1139 Q733,1139 844,975 L854,975 Q831,1100 831,1198 L831,1556 L1137,1556 L1137,0 L903,0 L844,145 L831,145 Q727,-20 514,-20 M621,223 Q738,223 792.5,291 Q847,359 852,522 L852,555 Q852,735 796.5,813 Q741,891 616,891 Q514,891 457.5,804.5 Q401,718 401,553 Q401,388 458,305.5 Q515,223 621,223"/> 
            <glyph glyph-name="e" unicode="&#x65;" horiz-adv-x="1122" d=" M623,922 Q526,922 471,860.5 Q416,799 408,686 L836,686 Q834,799 777,860.5 Q720,922 623,922 M666,-20 Q396,-20 244,129 Q92,278 92,551 Q92,832 232.5,985.5 Q373,1139 621,1139 Q858,1139 990,1004 Q1122,869 1122,631 L1122,483 L401,483 Q406,353 478,280 Q550,207 680,207 Q781,207 871,228 Q961,249 1059,295 L1059,59 Q979,19 888,-0.5 Q797,-20 666,-20"/> 
            <glyph glyph-name="f" unicode="&#x66;" horiz-adv-x="885" d=" M778,889 L514,889 L514,0 L209,0 L209,889 L41,889 L41,1036 L209,1118 L209,1200 Q209,1391 303,1479 Q397,1567 604,1567 Q762,1567 885,1520 L807,1296 Q715,1325 637,1325 Q572,1325 543,1286.5 Q514,1248 514,1188 L514,1118 L778,1118"/> 
            <glyph glyph-name="g" unicode="&#x67;" horiz-adv-x="1133" d=" M1133,1118 L1133,963 L958,918 Q1006,843 1006,750 Q1006,570 880.5,469.5 Q755,369 532,369 L477,372 L432,377 Q385,341 385,297 Q385,231 553,231 L743,231 Q927,231 1023.5,152 Q1120,73 1120,-80 Q1120,-276 956.5,-384 Q793,-492 487,-492 Q253,-492 129.5,-410.5 Q6,-329 6,-182 Q6,-81 69,-13 Q132,55 254,84 Q207,104 172,149.5 Q137,195 137,246 Q137,310 174,352.5 Q211,395 281,436 Q193,474 141.5,558 Q90,642 90,756 Q90,939 209,1039 Q328,1139 549,1139 Q596,1139 660.5,1130.5 Q725,1122 743,1118 M270,-158 Q270,-221 330.5,-257 Q391,-293 500,-293 Q664,-293 757,-248 Q850,-203 850,-125 Q850,-62 795,-38 Q740,-14 625,-14 L467,-14 Q383,-14 326.5,-53.5 Q270,-93 270,-158 M381,752 Q381,661 422.5,608 Q464,555 549,555 Q635,555 675,608 Q715,661 715,752 Q715,954 549,954 Q381,954 381,752"/> 
            <glyph glyph-name="h" unicode="&#x68;" horiz-adv-x="1192" d=" M1192,0 L887,0 L887,653 Q887,895 707,895 Q579,895 522,808 Q465,721 465,526 L465,0 L160,0 L160,1556 L465,1556 L465,1239 Q465,1202 458,1065 L451,975 L467,975 Q569,1139 791,1139 Q988,1139 1090,1033 Q1192,927 1192,729"/> 
            <glyph glyph-name="i" unicode="&#x69;" horiz-adv-x="479" d=" M147,1407 Q147,1556 313,1556 Q479,1556 479,1407 Q479,1336 437.5,1296.5 Q396,1257 313,1257 Q147,1257 147,1407 M465,0 L160,0 L160,1118 L465,1118"/> 
            <glyph glyph-name="j" unicode="&#x6A;" horiz-adv-x="479" d=" M70,-492 Q-47,-492 -131,-467 L-131,-227 Q-61,-246 12,-246 Q89,-246 124.5,-203 Q160,-160 160,-76 L160,1118 L465,1118 L465,-121 Q465,-299 362,-395.5 Q259,-492 70,-492 M147,1407 Q147,1556 313,1556 Q479,1556 479,1407 Q479,1336 437.5,1296.5 Q396,1257 313,1257 Q147,1257 147,1407"/> 
            <glyph glyph-name="k" unicode="&#x6B;" horiz-adv-x="1270" d=" M453,608 L586,778 L899,1118 L1243,1118 L799,633 L1270,0 L918,0 L596,453 L465,348 L465,0 L160,0 L160,1556 L465,1556 L465,862 L449,608"/> 
            <glyph glyph-name="l" unicode="&#x6C;" horiz-adv-x="465" d=" M465,0 L160,0 L160,1556 L465,1556"/> 
            <glyph glyph-name="m" unicode="&#x6D;" horiz-adv-x="1858" d=" M1161,0 L856,0 L856,653 Q856,774 815.5,834.5 Q775,895 688,895 Q571,895 518,809 Q465,723 465,526 L465,0 L160,0 L160,1118 L393,1118 L434,975 L451,975 Q496,1052 581,1095.5 Q666,1139 776,1139 Q1027,1139 1116,975 L1143,975 Q1188,1053 1275.5,1096 Q1363,1139 1473,1139 Q1663,1139 1760.5,1041.5 Q1858,944 1858,729 L1858,0 L1552,0 L1552,653 Q1552,774 1511.5,834.5 Q1471,895 1384,895 Q1272,895 1216.5,815 Q1161,735 1161,561"/> 
            <glyph glyph-name="n" unicode="&#x6E;" horiz-adv-x="1192" d=" M1192,0 L887,0 L887,653 Q887,774 844,834.5 Q801,895 707,895 Q579,895 522,809.5 Q465,724 465,526 L465,0 L160,0 L160,1118 L393,1118 L434,975 L451,975 Q502,1056 591.5,1097.5 Q681,1139 795,1139 Q990,1139 1091,1033.5 Q1192,928 1192,729"/> 
            <glyph glyph-name="o" unicode="&#x6F;" horiz-adv-x="1176" d=" M403,561 Q403,395 457.5,310 Q512,225 635,225 Q757,225 810.5,309.5 Q864,394 864,561 Q864,727 810,810 Q756,893 633,893 Q511,893 457,810.5 Q403,728 403,561 M1176,561 Q1176,288 1032,134 Q888,-20 631,-20 Q470,-20 347,50.5 Q224,121 158,253 Q92,385 92,561 Q92,835 235,987 Q378,1139 637,1139 Q798,1139 921,1069 Q1044,999 1110,868 Q1176,737 1176,561"/> 
            <glyph glyph-name="p" unicode="&#x70;" horiz-adv-x="1204" d=" M774,-20 Q577,-20 465,123 L449,123 Q465,-17 465,-39 L465,-492 L160,-492 L160,1118 L408,1118 L451,973 L465,973 Q572,1139 782,1139 Q980,1139 1092,986 Q1204,833 1204,561 Q1204,382 1151.5,250 Q1099,118 1002,49 Q905,-20 774,-20 M684,895 Q571,895 519,825.5 Q467,756 465,596 L465,563 Q465,383 518.5,305 Q572,227 688,227 Q893,227 893,565 Q893,730 842.5,812.5 Q792,895 684,895"/> 
            <glyph glyph-name="q" unicode="&#x71;" horiz-adv-x="1137" d=" M623,219 Q739,219 793,285.5 Q847,352 852,518 L852,555 Q852,735 796.5,813 Q741,891 618,891 Q403,891 403,553 Q403,385 456.5,302 Q510,219 623,219 M514,-20 Q316,-20 204,132.5 Q92,285 92,557 Q92,831 206.5,985 Q321,1139 520,1139 Q626,1139 705,1099 Q784,1059 844,975 L852,975 L879,1118 L1137,1118 L1137,-492 L831,-492 L831,-23 Q831,38 844,145 L831,145 Q782,64 701,22 Q620,-20 514,-20"/> 
            <glyph glyph-name="r" unicode="&#x72;" horiz-adv-x="887" d=" M784,1139 Q846,1139 887,1130 L864,844 Q827,854 774,854 Q628,854 546.5,779 Q465,704 465,569 L465,0 L160,0 L160,1118 L391,1118 L436,930 L451,930 Q503,1024 591.5,1081.5 Q680,1139 784,1139"/> 
            <glyph glyph-name="s" unicode="&#x73;" horiz-adv-x="940" d=" M940,332 Q940,160 820.5,70 Q701,-20 463,-20 Q341,-20 255,-3.5 Q169,13 94,45 L94,297 Q179,257 285.5,230 Q392,203 473,203 Q639,203 639,299 Q639,335 617,357.5 Q595,380 541,408.5 Q487,437 397,475 Q268,529 207.5,575 Q147,621 119.5,680.5 Q92,740 92,827 Q92,976 207.5,1057.5 Q323,1139 535,1139 Q737,1139 928,1051 L836,831 Q752,867 679,890 Q606,913 530,913 Q395,913 395,840 Q395,799 438.5,769 Q482,739 629,680 Q760,627 821,581 Q882,535 911,475 Q940,415 940,332"/> 
            <glyph glyph-name="t" unicode="&#x74;" horiz-adv-x="823" d=" M631,223 Q711,223 823,258 L823,31 Q709,-20 543,-20 Q360,-20 276.5,72.5 Q193,165 193,350 L193,889 L47,889 L47,1018 L215,1120 L303,1356 L498,1356 L498,1118 L811,1118 L811,889 L498,889 L498,350 Q498,285 534.5,254 Q571,223 631,223"/> 
            <glyph glyph-name="u" unicode="&#x75;" horiz-adv-x="1186" d=" M952,0 L911,143 L895,143 Q846,65 756,22.5 Q666,-20 551,-20 Q354,-20 254,85.5 Q154,191 154,389 L154,1118 L459,1118 L459,465 Q459,344 502,283.5 Q545,223 639,223 Q767,223 824,308.5 Q881,394 881,592 L881,1118 L1186,1118 L1186,0"/> 
            <glyph glyph-name="v" unicode="&#x76;" horiz-adv-x="1165" d=" M426,0 L0,1118 L319,1118 L535,481 Q571,360 580,252 L586,252 Q591,348 631,481 L846,1118 L1165,1118 L739,0"/> 
            <glyph glyph-name="w" unicode="&#x77;" horiz-adv-x="1733" d=" M1079,0 L993,391 L877,885 L870,885 L666,0 L338,0 L20,1118 L324,1118 L453,623 Q484,490 516,256 L522,256 Q526,332 557,497 L573,582 L711,1118 L1047,1118 L1178,582 Q1182,560 1190.5,517 Q1199,474 1207,425.5 Q1215,377 1221.5,330.5 Q1228,284 1229,256 L1235,256 Q1244,328 1267,453.5 Q1290,579 1300,623 L1434,1118 L1733,1118 L1411,0"/> 
            <glyph glyph-name="x" unicode="&#x78;" horiz-adv-x="1174" d=" M389,571 L29,1118 L375,1118 L592,762 L811,1118 L1157,1118 L793,571 L1174,0 L827,0 L592,383 L356,0 L10,0"/> 
            <glyph glyph-name="y" unicode="&#x79;" horiz-adv-x="1165" d=" M0,1118 L334,1118 L545,489 Q572,407 582,295 L588,295 Q599,398 631,489 L838,1118 L1165,1118 L692,-143 Q627,-318 506.5,-405 Q386,-492 225,-492 Q146,-492 70,-475 L70,-233 Q125,-246 190,-246 Q271,-246 331.5,-196.5 Q392,-147 426,-47 L444,8"/> 
            <glyph glyph-name="z" unicode="&#x7A;" horiz-adv-x="938" d=" M938,0 L55,0 L55,180 L573,885 L86,885 L86,1118 L920,1118 L920,920 L416,233 L938,233"/> 
            <glyph glyph-name="{" unicode="&#x7B;" horiz-adv-x="725" d=" M287,270 Q287,357 221.5,403 Q156,449 31,449 L31,688 Q157,688 222,732 Q287,776 287,858 L287,866 L287,1184 Q287,1337 384,1399.5 Q481,1462 725,1462 L725,1237 Q626,1234 588.5,1199 Q551,1164 551,1096 L551,797 Q545,609 317,575 L317,563 Q551,528 551,351 L551,342 L551,43 Q551,-25 588,-60 Q625,-95 725,-98 L725,-324 Q481,-324 384,-261.5 Q287,-199 287,-45"/> 
            <glyph glyph-name="|" unicode="&#x7C;" horiz-adv-x="674" d=" M455,1550 L674,1550 L674,-465 L455,-465"/> 
            <glyph glyph-name="}" unicode="&#x7D;" horiz-adv-x="776" d=" M520,-45 Q520,-157 479,-214 Q438,-271 343.5,-297.5 Q249,-324 82,-324 L82,-98 Q181,-96 218.5,-62 Q256,-28 256,43 L256,342 L256,353 Q256,439 315,492.5 Q374,546 489,563 L489,575 Q262,609 256,797 L256,1096 Q256,1166 219,1200 Q182,1234 82,1237 L82,1462 Q249,1462 344,1435.5 Q439,1409 479.5,1351.5 Q520,1294 520,1184 L520,866 L520,856 Q520,772 581.5,730 Q643,688 776,688 L776,449 Q651,449 585.5,408 Q520,367 520,270"/> 
            <glyph glyph-name="~" unicode="&#x7E;" horiz-adv-x="1081" d=" M322,672 Q267,672 204.5,638.5 Q142,605 88,551 L88,782 Q191,891 344,891 Q417,891 481.5,875 Q546,859 621,827 Q750,772 848,772 Q901,772 964,804 Q1027,836 1081,893 L1081,662 Q980,553 825,553 Q759,553 699,566 Q639,579 549,616 Q418,672 322,672"/> 
            <glyph glyph-name="¡" unicode="&#xA1;" horiz-adv-x="467" d=" M168,606 L412,606 L463,-369 L117,-369 M467,948 Q467,864 422,821 Q377,778 291,778 Q208,778 162.5,822 Q117,866 117,948 Q117,1029 163.5,1073.5 Q210,1118 291,1118 Q375,1118 421,1074 Q467,1030 467,948"/> 
            <glyph glyph-name="¢" unicode="&#xA2;" horiz-adv-x="1040" d=" M563,176 Q143,235 143,741 Q143,1002 247.5,1144 Q352,1286 563,1317 L563,1483 L741,1483 L741,1325 Q907,1316 1040,1251 L950,1016 Q878,1045 816,1063 Q754,1081 692,1081 Q571,1081 513,997.5 Q455,914 455,743 Q455,416 692,416 Q774,416 840,431.5 Q906,447 1006,492 L1006,238 Q879,177 741,168 L741,-20 L563,-20"/> 
            <glyph glyph-name="£" unicode="&#xA3;" horiz-adv-x="1130" d=" M700,1483 Q895,1483 1090,1401 L997,1171 Q840,1235 725,1235 Q647,1235 605,1190.5 Q563,1146 563,1063 L563,870 L938,870 L938,651 L563,651 L563,508 Q563,338 412,260 L1130,260 L1130,0 L82,0 L82,248 Q185,292 223.5,349 Q262,406 262,506 L262,651 L84,651 L84,870 L262,870 L262,1065 Q262,1266 376.5,1374.5 Q491,1483 700,1483"/> 
            <glyph glyph-name="¤" unicode="&#xA4;" horiz-adv-x="1057" d=" M188,723 Q188,825 242,920 L113,1047 L260,1194 L387,1067 Q478,1120 584,1120 Q689,1120 780,1065 L907,1194 L1057,1051 L928,922 Q981,833 981,723 Q981,616 928,524 L1053,399 L907,254 L780,379 Q685,328 584,328 Q469,328 385,379 L260,256 L115,401 L242,526 Q188,619 188,723 M395,723 Q395,646 449.5,590.5 Q504,535 584,535 Q665,535 720.5,590 Q776,645 776,723 Q776,803 719.5,858 Q663,913 584,913 Q506,913 450.5,857 Q395,801 395,723"/> 
            <glyph glyph-name="¥" unicode="&#xA5;" horiz-adv-x="1161" d=" M584,860 L848,1462 L1161,1462 L778,715 L973,715 L973,537 L727,537 L727,399 L973,399 L973,221 L727,221 L727,0 L440,0 L440,221 L193,221 L193,399 L440,399 L440,537 L193,537 L193,715 L383,715 L6,1462 L322,1462"/> 
            <glyph glyph-name="¦" unicode="&#xA6;" horiz-adv-x="674" d=" M455,1550 L674,1550 L674,735 L455,735 M455,350 L674,350 L674,-465 L455,-465"/> 
            <glyph glyph-name="§" unicode="&#xA7;" horiz-adv-x="895" d=" M121,805 Q121,884 157,949.5 Q193,1015 254,1055 Q121,1139 121,1288 Q121,1419 232.5,1498 Q344,1577 526,1577 Q696,1577 889,1493 L807,1303 Q739,1335 668.5,1360.5 Q598,1386 520,1386 Q439,1386 402,1363 Q365,1340 365,1292 Q365,1243 414.5,1206 Q464,1169 578,1124 Q741,1060 818,975.5 Q895,891 895,782 Q895,605 770,522 Q832,482 863.5,429.5 Q895,377 895,303 Q895,155 775.5,67.5 Q656,-20 455,-20 Q252,-20 106,59 L106,266 Q187,225 286,196.5 Q385,168 455,168 Q649,168 649,285 Q649,324 630.5,348 Q612,372 567,397.5 Q522,423 442,457 Q259,531 190,609.5 Q121,688 121,805 M344,827 Q344,760 409,708 Q474,656 590,610 Q668,667 668,756 Q668,824 617.5,871 Q567,918 434,967 Q397,953 370.5,913.5 Q344,874 344,827"/> 
            <glyph glyph-name="¨" unicode="&#xA8;" horiz-adv-x="965" d=" M279,1405 Q279,1470 316.5,1505 Q354,1540 418,1540 Q484,1540 521.5,1503 Q559,1466 559,1405 Q559,1345 521,1308.5 Q483,1272 418,1272 Q354,1272 316.5,1307 Q279,1342 279,1405 M682,1405 Q682,1475 722.5,1507.5 Q763,1540 823,1540 Q888,1540 926.5,1504 Q965,1468 965,1405 Q965,1344 926,1308 Q887,1272 823,1272 Q763,1272 722.5,1304.5 Q682,1337 682,1405"/> 
            <glyph glyph-name="©" unicode="&#xA9;" horiz-adv-x="1604" d=" M895,1010 Q798,1010 745,936 Q692,862 692,731 Q692,451 895,451 Q952,451 1018,466 Q1084,481 1141,510 L1141,319 Q1021,262 889,262 Q685,262 573,387 Q461,512 461,733 Q461,953 571.5,1075.5 Q682,1198 881,1198 Q1030,1198 1186,1120 L1112,952 Q999,1010 895,1010 M100,731 Q100,931 200,1106 Q300,1281 475,1382 Q650,1483 852,1483 Q1052,1483 1227,1383 Q1402,1283 1503,1108 Q1604,933 1604,731 Q1604,534 1507,361 Q1410,188 1235,84 Q1060,-20 852,-20 Q645,-20 470,83.5 Q295,187 197.5,360 Q100,533 100,731 M242,731 Q242,567 324,425.5 Q406,284 548,202.5 Q690,121 852,121 Q1016,121 1157.5,203 Q1299,285 1380.5,427 Q1462,569 1462,731 Q1462,895 1380,1036.5 Q1298,1178 1156,1259.5 Q1014,1341 852,1341 Q688,1341 546.5,1259 Q405,1177 323.5,1035 Q242,893 242,731"/> 
            <glyph glyph-name="ª" unicode="&#xAA;" horiz-adv-x="696" d=" M561,764 L530,874 Q487,816 425,784 Q363,752 289,752 Q172,752 109.5,810.5 Q47,869 47,975 Q47,1084 129.5,1138.5 Q212,1193 397,1202 L496,1206 Q496,1323 369,1323 Q288,1323 152,1262 L86,1397 Q152,1429 231.5,1454 Q311,1479 410,1479 Q547,1479 621.5,1408 Q696,1337 696,1206 L696,764 M252,977 Q252,939 275,921 Q298,903 330,903 Q407,903 451.5,944.5 Q496,986 496,1051 L496,1087 L397,1081 Q252,1071 252,977"/> 
            <glyph glyph-name="«" unicode="&#xAB;" horiz-adv-x="1178" d=" M82,573 L453,1028 L672,909 L393,561 L672,213 L453,94 L82,547 M588,573 L958,1028 L1178,909 L899,561 L1178,213 L958,94 L588,547"/> 
            <glyph glyph-name="¬" unicode="&#xAC;" horiz-adv-x="1081" d=" M1081,248 L862,248 L862,612 L88,612 L88,831 L1081,831"/> 
            <glyph glyph-name="­" unicode="&#xAD;" horiz-adv-x="598" d=" M61,424 L61,674 L598,674 L598,424"/> 
            <glyph glyph-name="®" unicode="&#xAE;" horiz-adv-x="1604" d=" M1157,905 Q1157,735 1014,672 L1251,272 L997,272 L819,610 L772,610 L772,272 L543,272 L543,1188 L807,1188 Q988,1188 1072.5,1118 Q1157,1048 1157,905 M772,778 L803,778 Q869,778 897.5,806.5 Q926,835 926,901 Q926,966 898,993 Q870,1020 801,1020 L772,1020 M100,731 Q100,931 200,1106 Q300,1281 475,1382 Q650,1483 852,1483 Q1052,1483 1227,1383 Q1402,1283 1503,1108 Q1604,933 1604,731 Q1604,534 1507,361 Q1410,188 1235,84 Q1060,-20 852,-20 Q645,-20 470,83.5 Q295,187 197.5,360 Q100,533 100,731 M242,731 Q242,567 324,425.5 Q406,284 548,202.5 Q690,121 852,121 Q1016,121 1157.5,203 Q1299,285 1380.5,427 Q1462,569 1462,731 Q1462,895 1380,1036.5 Q1298,1178 1156,1259.5 Q1014,1341 852,1341 Q688,1341 546.5,1259 Q405,1177 323.5,1035 Q242,893 242,731"/> 
            <glyph glyph-name="¯" unicode="&#xAF;" horiz-adv-x="1030" d=" M1030,1556 L-6,1556 L-6,1757 L1030,1757"/> 
            <glyph glyph-name="°" unicode="&#xB0;" horiz-adv-x="784" d=" M92,1137 Q92,1229 138,1309 Q184,1389 264,1436 Q344,1483 438,1483 Q530,1483 610.5,1437 Q691,1391 737.5,1310 Q784,1229 784,1137 Q784,1044 737.5,963.5 Q691,883 611,838 Q531,793 438,793 Q293,793 192.5,892.5 Q92,992 92,1137 M283,1137 Q283,1073 327.5,1028 Q372,983 438,983 Q504,983 549,1029 Q594,1075 594,1137 Q594,1200 548.5,1247 Q503,1294 438,1294 Q374,1294 328.5,1248 Q283,1202 283,1137"/> 
            <glyph glyph-name="±" unicode="&#xB1;" horiz-adv-x="1081" d=" M475,674 L88,674 L88,893 L475,893 L475,1282 L694,1282 L694,893 L1081,893 L1081,674 L694,674 L694,289 L475,289 M88,0 L88,219 L1081,219 L1081,0"/> 
            <glyph glyph-name="²" unicode="&#xB2;" horiz-adv-x="702" d=" M702,586 L55,586 L55,754 L279,973 Q381,1073 409.5,1117.5 Q438,1162 438,1212 Q438,1250 414,1270 Q390,1290 350,1290 Q269,1290 170,1202 L47,1354 Q194,1483 383,1483 Q520,1483 599,1416.5 Q678,1350 678,1233 Q678,1148 631,1073 Q584,998 455,881 L350,786 L702,786"/> 
            <glyph glyph-name="³" unicode="&#xB3;" horiz-adv-x="694" d=" M666,1249 Q666,1106 496,1051 L496,1038 Q590,1018 642,963 Q694,908 694,829 Q694,708 606,638.5 Q518,569 332,569 Q189,569 59,639 L59,829 Q207,739 330,739 Q473,739 473,846 Q473,899 429,925.5 Q385,952 307,952 L195,952 L195,1112 L287,1112 Q370,1112 410.5,1138 Q451,1164 451,1221 Q451,1259 426,1284 Q401,1309 350,1309 Q303,1309 261,1290 Q219,1271 162,1231 L61,1372 Q123,1419 198.5,1450 Q274,1481 377,1481 Q504,1481 585,1417 Q666,1353 666,1249"/> 
            <glyph glyph-name="´" unicode="&#xB4;" horiz-adv-x="909" d=" M332,1241 L332,1268 Q504,1468 567,1569 L909,1569 L909,1548 Q857,1496 731.5,1393.5 Q606,1291 535,1241"/> 
            <glyph glyph-name="µ" unicode="&#xB5;" horiz-adv-x="1192" d=" M465,465 Q465,344 509,283.5 Q553,223 647,223 Q773,223 830,309.5 Q887,396 887,592 L887,1118 L1192,1118 L1192,0 L961,0 L918,150 L903,150 Q861,65 801,22.5 Q741,-20 653,-20 Q591,-20 539,3 Q487,26 455,70 L460,-15 L465,-172 L465,-492 L160,-492 L160,1118 L465,1118"/> 
            <glyph glyph-name="¶" unicode="&#xB6;" horiz-adv-x="1167" d=" M1167,-260 L1006,-260 L1006,1356 L840,1356 L840,-260 L678,-260 L678,559 Q616,541 532,541 Q316,541 214.5,666 Q113,791 113,1042 Q113,1302 222,1429 Q331,1556 563,1556 L1167,1556"/> 
            <glyph glyph-name="·" unicode="&#xB7;" horiz-adv-x="467" d=" M117,723 Q117,807 162,850 Q207,893 293,893 Q376,893 421.5,849 Q467,805 467,723 Q467,642 420.5,597.5 Q374,553 293,553 Q209,553 163,597 Q117,641 117,723"/> 
            <glyph glyph-name="¸" unicode="&#xB8;" horiz-adv-x="418" d=" M418,-250 Q418,-378 342.5,-435 Q267,-492 109,-492 Q31,-492 -37,-471 L-37,-303 Q-10,-310 35.5,-317 Q81,-324 106,-324 Q178,-324 178,-262 Q178,-179 12,-154 L90,0 L283,0 L256,-61 Q330,-85 374,-135.5 Q418,-186 418,-250"/> 
            <glyph glyph-name="¹" unicode="&#xB9;" horiz-adv-x="584" d=" M584,586 L346,586 L346,1032 L349,1144 L354,1239 Q327,1203 279,1161 L201,1100 L92,1227 L393,1462 L584,1462"/> 
            <glyph glyph-name="º" unicode="&#xBA;" horiz-adv-x="737" d=" M737,1116 Q737,945 645.5,848.5 Q554,752 395,752 Q242,752 149.5,850.5 Q57,949 57,1116 Q57,1285 146.5,1382 Q236,1479 399,1479 Q551,1479 644,1380.5 Q737,1282 737,1116 M260,1116 Q260,1016 292.5,965.5 Q325,915 397,915 Q469,915 500.5,965.5 Q532,1016 532,1116 Q532,1216 500.5,1265.5 Q469,1315 397,1315 Q325,1315 292.5,1265.5 Q260,1216 260,1116"/> 
            <glyph glyph-name="»" unicode="&#xBB;" horiz-adv-x="1178" d=" M1178,547 L807,94 L588,213 L866,561 L588,909 L807,1028 L1178,573 M672,547 L301,94 L82,213 L360,561 L82,909 L301,1028 L672,573"/> 
            <glyph glyph-name="¼" unicode="&#xBC;" horiz-adv-x="1682" d=" M794,586 L556,586 L556,1032 L559,1144 L564,1239 Q537,1203 489,1161 L411,1100 L302,1227 L603,1462 L794,1462 M1370,1462 L559,0 L320,0 L1131,1462 M1682,65688 L1557,65688 L1557,65537 L1319,65537 L1319,65688 L936,65688 L936,65842 L1321,66419 L1557,66419 L1557,65856 L1682,65856 M1319,65856 L1319,66020 Q1319,66106 1325,66204 Q1316,66178 1289.5,66124 Q1263,66070 1248,66047 L1121,65856"/> 
            <glyph glyph-name="½" unicode="&#xBD;" horiz-adv-x="1716" d=" M794,586 L556,586 L556,1032 L559,1144 L564,1239 Q537,1203 489,1161 L411,1100 L302,1227 L603,1462 L794,1462 M1370,1462 L559,0 L320,0 L1131,1462 M1716,65537 L1069,65537 L1069,65705 L1293,65924 Q1395,66024 1423.5,66068.5 Q1452,66113 1452,66163 Q1452,66201 1428,66221 Q1404,66241 1364,66241 Q1283,66241 1184,66153 L1061,66305 Q1208,66434 1397,66434 Q1534,66434 1613,66367.5 Q1692,66301 1692,66184 Q1692,66099 1645,66024 Q1598,65949 1469,65832 L1364,65737 L1716,65737"/> 
            <glyph glyph-name="¾" unicode="&#xBE;" horiz-adv-x="1712" d=" M697,1249 Q697,1106 527,1051 L527,1038 Q621,1018 673,963 Q725,908 725,829 Q725,708 637,638.5 Q549,569 363,569 Q220,569 90,639 L90,829 Q238,739 361,739 Q504,739 504,846 Q504,899 460,925.5 Q416,952 338,952 L226,952 L226,1112 L318,1112 Q401,1112 441.5,1138 Q482,1164 482,1221 Q482,1259 457,1284 Q432,1309 381,1309 Q334,1309 292,1290 Q250,1271 193,1231 L92,1372 Q154,1419 229.5,1450 Q305,1481 408,1481 Q535,1481 616,1417 Q697,1353 697,1249 M1441,1462 L630,0 L391,0 L1202,1462 M1712,65688 L1587,65688 L1587,65537 L1349,65537 L1349,65688 L966,65688 L966,65842 L1351,66419 L1587,66419 L1587,65856 L1712,65856 M1349,65856 L1349,66020 Q1349,66106 1355,66204 Q1346,66178 1319.5,66124 Q1293,66070 1278,66047 L1151,65856"/> 
            <glyph glyph-name="¿" unicode="&#xBF;" horiz-adv-x="983" d=" M713,606 L713,532 Q713,434 668.5,363 Q624,292 516,215 Q407,137 378.5,93 Q350,49 350,-14 Q350,-71 393.5,-108 Q437,-145 526,-145 Q605,-145 695,-116 Q785,-87 881,-45 L983,-266 Q885,-322 761.5,-356.5 Q638,-391 532,-391 Q312,-391 186.5,-294.5 Q61,-198 61,-29 Q61,79 109.5,158 Q158,237 301,342 Q396,412 422.5,449 Q449,486 449,547 L449,606 M745,948 Q745,864 700,821 Q655,778 569,778 Q486,778 440.5,822 Q395,866 395,948 Q395,1029 441.5,1073.5 Q488,1118 569,1118 Q653,1118 699,1074 Q745,1030 745,948"/> 
            <glyph glyph-name="À" unicode="&#xC0;" horiz-adv-x="1413" d=" M1079,0 L973,348 L440,348 L334,0 L0,0 L516,1468 L895,1468 L1413,0 M899,608 Q752,1081 733.5,1143 Q715,1205 707,1241 Q674,1113 518,608 M713,1579 Q650,1623 528,1721.5 Q406,1820 338,1886 L338,1907 L680,1907 Q743,1806 915,1606 L915,1579"/> 
            <glyph glyph-name="Á" unicode="&#xC1;" horiz-adv-x="1413" d=" M1079,0 L973,348 L440,348 L334,0 L0,0 L516,1468 L895,1468 L1413,0 M899,608 Q752,1081 733.5,1143 Q715,1205 707,1241 Q674,1113 518,608 M541,1579 L541,1606 Q713,1806 776,1907 L1118,1907 L1118,1886 Q1066,1834 940.5,1731.5 Q815,1629 744,1579"/> 
            <glyph glyph-name="Â" unicode="&#xC2;" horiz-adv-x="1413" d=" M1079,0 L973,348 L440,348 L334,0 L0,0 L516,1468 L895,1468 L1413,0 M899,608 Q752,1081 733.5,1143 Q715,1205 707,1241 Q674,1113 518,608 M938,1579 Q781,1672 704,1755 Q626,1674 475,1579 L272,1579 L272,1606 Q461,1795 528,1907 L885,1907 Q916,1855 992.5,1765.5 Q1069,1676 1141,1606 L1141,1579"/> 
            <glyph glyph-name="Ã" unicode="&#xC3;" horiz-adv-x="1413" d=" M1079,0 L973,348 L440,348 L334,0 L0,0 L516,1468 L895,1468 L1413,0 M899,608 Q752,1081 733.5,1143 Q715,1205 707,1241 Q674,1113 518,608 M543,1684 Q512,1684 483.5,1657.5 Q455,1631 442,1577 L293,1577 Q304,1722 375.5,1804 Q447,1886 565,1886 Q606,1886 645.5,1869.5 Q685,1853 723.5,1833.5 Q762,1814 799,1798 Q836,1782 872,1782 Q903,1782 931.5,1808 Q960,1834 973,1888 L1122,1888 Q1111,1743 1038.5,1661 Q966,1579 850,1579 Q809,1579 769.5,1595.5 Q730,1612 691.5,1631.5 Q653,1651 616,1667.5 Q579,1684 543,1684"/> 
            <glyph glyph-name="Ä" unicode="&#xC4;" horiz-adv-x="1413" d=" M1079,0 L973,348 L440,348 L334,0 L0,0 L516,1468 L895,1468 L1413,0 M899,608 Q752,1081 733.5,1143 Q715,1205 707,1241 Q674,1113 518,608 M365,1743 Q365,1808 402.5,1843 Q440,1878 504,1878 Q570,1878 607.5,1841 Q645,1804 645,1743 Q645,1683 607,1646.5 Q569,1610 504,1610 Q440,1610 402.5,1645 Q365,1680 365,1743 M768,1743 Q768,1813 808.5,1845.5 Q849,1878 909,1878 Q974,1878 1012.5,1842 Q1051,1806 1051,1743 Q1051,1682 1012,1646 Q973,1610 909,1610 Q849,1610 808.5,1642.5 Q768,1675 768,1743"/> 
            <glyph glyph-name="Å" unicode="&#xC5;" horiz-adv-x="1413" d=" M1079,0 L973,348 L440,348 L334,0 L0,0 L516,1468 L895,1468 L1413,0 M899,608 Q752,1081 733.5,1143 Q715,1205 707,1241 Q674,1113 518,608 M959,1567 Q959,1459 888,1393 Q817,1327 705,1327 Q593,1327 525,1391 Q457,1455 457,1565 Q457,1673 524.5,1737.5 Q592,1802 705,1802 Q815,1802 887,1736 Q959,1670 959,1567 M801,1565 Q801,1610 774,1635.5 Q747,1661 705,1661 Q663,1661 636,1635.5 Q609,1610 609,1565 Q609,1520 633,1494 Q657,1468 705,1468 Q747,1468 774,1494 Q801,1520 801,1565"/> 
            <glyph glyph-name="Æ" unicode="&#xC6;" horiz-adv-x="1829" d=" M1829,0 L956,0 L956,348 L465,348 L315,0 L0,0 L655,1462 L1829,1462 L1829,1208 L1266,1208 L1266,887 L1792,887 L1792,633 L1266,633 L1266,256 L1829,256 M578,608 L956,608 L956,1198 L829,1198"/> 
            <glyph glyph-name="Ç" unicode="&#xC7;" horiz-adv-x="1233" d=" M805,1225 Q630,1225 534,1093.5 Q438,962 438,727 Q438,238 805,238 Q959,238 1178,315 L1178,55 Q998,-20 776,-20 Q457,-20 288,173.5 Q119,367 119,729 Q119,957 202,1128.5 Q285,1300 440.5,1391.5 Q596,1483 805,1483 Q1018,1483 1233,1380 L1133,1128 Q1051,1167 968,1196 Q885,1225 805,1225 M959,-250 Q959,-378 883.5,-435 Q808,-492 650,-492 Q572,-492 504,-471 L504,-303 Q531,-310 576.5,-317 Q622,-324 647,-324 Q719,-324 719,-262 Q719,-179 553,-154 L631,0 L824,0 L797,-61 Q871,-85 915,-135.5 Q959,-186 959,-250"/> 
            <glyph glyph-name="È" unicode="&#xC8;" horiz-adv-x="1026" d=" M1026,0 L184,0 L184,1462 L1026,1462 L1026,1208 L494,1208 L494,887 L989,887 L989,633 L494,633 L494,256 L1026,256 M66170,1579 Q66107,1623 65985,1721.5 Q65863,1820 65795,1886 L65795,1907 L66137,1907 Q66200,1806 66372,1606 L66372,1579"/> 
            <glyph glyph-name="É" unicode="&#xC9;" horiz-adv-x="1026" d=" M1026,0 L184,0 L184,1462 L1026,1462 L1026,1208 L494,1208 L494,887 L989,887 L989,633 L494,633 L494,256 L1026,256 M424,1579 L424,1606 Q596,1806 659,1907 L1001,1907 L1001,1886 Q949,1834 823.5,1731.5 Q698,1629 627,1579"/> 
            <glyph glyph-name="Ê" unicode="&#xCA;" horiz-adv-x="1044" d=" M1026,0 L184,0 L184,1462 L1026,1462 L1026,1208 L494,1208 L494,887 L989,887 L989,633 L494,633 L494,256 L1026,256 M66377,1579 Q66220,1672 66143,1755 Q66065,1674 65914,1579 L65711,1579 L65711,1606 Q65900,1795 65967,1907 L66324,1907 Q66355,1855 66431.5,1765.5 Q66508,1676 66580,1606 L66580,1579"/> 
            <glyph glyph-name="Ë" unicode="&#xCB;" horiz-adv-x="1026" d=" M1026,0 L184,0 L184,1462 L1026,1462 L1026,1208 L494,1208 L494,887 L989,887 L989,633 L494,633 L494,256 L1026,256 M65808,1743 Q65808,1808 65845.5,1843 Q65883,1878 65947,1878 Q66013,1878 66050.5,1841 Q66088,1804 66088,1743 Q66088,1683 66050,1646.5 Q66012,1610 65947,1610 Q65883,1610 65845.5,1645 Q65808,1680 65808,1743 M66211,1743 Q66211,1813 66251.5,1845.5 Q66292,1878 66352,1878 Q66417,1878 66455.5,1842 Q66494,1806 66494,1743 Q66494,1682 66455,1646 Q66416,1610 66352,1610 Q66292,1610 66251.5,1642.5 Q66211,1675 66211,1743"/> 
            <glyph glyph-name="Ì" unicode="&#xCC;" horiz-adv-x="519" d=" M184,0 L184,1462 L494,1462 L494,0 M65853,1579 Q65790,1623 65668,1721.5 Q65546,1820 65478,1886 L65478,1907 L65820,1907 Q65883,1806 66055,1606 L66055,1579"/> 
            <glyph glyph-name="Í" unicode="&#xCD;" horiz-adv-x="744" d=" M184,0 L184,1462 L494,1462 L494,0 M65703,1579 L65703,1606 Q65875,1806 65938,1907 L66280,1907 L66280,1886 Q66228,1834 66102.5,1731.5 Q65977,1629 65906,1579"/> 
            <glyph glyph-name="Î" unicode="&#xCE;" horiz-adv-x="773" d=" M184,0 L184,1462 L494,1462 L494,0 M66106,1579 Q65949,1672 65872,1755 Q65794,1674 65643,1579 L65440,1579 L65440,1606 Q65629,1795 65696,1907 L66053,1907 Q66084,1855 66160.5,1765.5 Q66237,1676 66309,1606 L66309,1579"/> 
            <glyph glyph-name="Ï" unicode="&#xCF;" horiz-adv-x="683" d=" M184,0 L184,1462 L494,1462 L494,0 M65533,1743 Q65533,1808 65570.5,1843 Q65608,1878 65672,1878 Q65738,1878 65775.5,1841 Q65813,1804 65813,1743 Q65813,1683 65775,1646.5 Q65737,1610 65672,1610 Q65608,1610 65570.5,1645 Q65533,1680 65533,1743 M65936,1743 Q65936,1813 65976.5,1845.5 Q66017,1878 66077,1878 Q66142,1878 66180.5,1842 Q66219,1806 66219,1743 Q66219,1682 66180,1646 Q66141,1610 66077,1610 Q66017,1610 65976.5,1642.5 Q65936,1675 65936,1743"/> 
            <glyph glyph-name="Ð" unicode="&#xD0;" horiz-adv-x="1397" d=" M47,850 L184,850 L184,1462 L643,1462 Q1001,1462 1199,1273 Q1397,1084 1397,745 Q1397,384 1191.5,192 Q986,0 598,0 L184,0 L184,596 L47,596 M1075,737 Q1075,969 971,1088.5 Q867,1208 657,1208 L494,1208 L494,850 L731,850 L731,596 L494,596 L494,256 L625,256 Q1075,256 1075,737"/> 
            <glyph glyph-name="Ñ" unicode="&#xD1;" horiz-adv-x="1481" d=" M1481,0 L1087,0 L451,1106 L442,1106 Q461,813 461,688 L461,0 L184,0 L184,1462 L575,1462 L1210,367 L1217,367 Q1202,652 1202,770 L1202,1462 L1481,1462 M668,1684 Q637,1684 608.5,1657.5 Q580,1631 567,1577 L418,1577 Q429,1722 500.5,1804 Q572,1886 690,1886 Q731,1886 770.5,1869.5 Q810,1853 848.5,1833.5 Q887,1814 924,1798 Q961,1782 997,1782 Q1028,1782 1056.5,1808 Q1085,1834 1098,1888 L1247,1888 Q1236,1743 1163.5,1661 Q1091,1579 975,1579 Q934,1579 894.5,1595.5 Q855,1612 816.5,1631.5 Q778,1651 741,1667.5 Q704,1684 668,1684"/> 
            <glyph glyph-name="Ò" unicode="&#xD2;" horiz-adv-x="1511" d=" M1511,733 Q1511,370 1331,175 Q1151,-20 815,-20 Q479,-20 299,175 Q119,370 119,735 Q119,1100 299.5,1292.5 Q480,1485 817,1485 Q1154,1485 1332.5,1291 Q1511,1097 1511,733 M444,733 Q444,488 537,364 Q630,240 815,240 Q1186,240 1186,733 Q1186,1227 817,1227 Q632,1227 538,1102.5 Q444,978 444,733 M824,1579 Q761,1623 639,1721.5 Q517,1820 449,1886 L449,1907 L791,1907 Q854,1806 1026,1606 L1026,1579"/> 
            <glyph glyph-name="Ó" unicode="&#xD3;" horiz-adv-x="1511" d=" M1511,733 Q1511,370 1331,175 Q1151,-20 815,-20 Q479,-20 299,175 Q119,370 119,735 Q119,1100 299.5,1292.5 Q480,1485 817,1485 Q1154,1485 1332.5,1291 Q1511,1097 1511,733 M444,733 Q444,488 537,364 Q630,240 815,240 Q1186,240 1186,733 Q1186,1227 817,1227 Q632,1227 538,1102.5 Q444,978 444,733 M658,1579 L658,1606 Q830,1806 893,1907 L1235,1907 L1235,1886 Q1183,1834 1057.5,1731.5 Q932,1629 861,1579"/> 
            <glyph glyph-name="Ô" unicode="&#xD4;" horiz-adv-x="1511" d=" M1511,733 Q1511,370 1331,175 Q1151,-20 815,-20 Q479,-20 299,175 Q119,370 119,735 Q119,1100 299.5,1292.5 Q480,1485 817,1485 Q1154,1485 1332.5,1291 Q1511,1097 1511,733 M444,733 Q444,488 537,364 Q630,240 815,240 Q1186,240 1186,733 Q1186,1227 817,1227 Q632,1227 538,1102.5 Q444,978 444,733 M1047,1579 Q890,1672 813,1755 Q735,1674 584,1579 L381,1579 L381,1606 Q570,1795 637,1907 L994,1907 Q1025,1855 1101.5,1765.5 Q1178,1676 1250,1606 L1250,1579"/> 
            <glyph glyph-name="Õ" unicode="&#xD5;" horiz-adv-x="1511" d=" M1511,733 Q1511,370 1331,175 Q1151,-20 815,-20 Q479,-20 299,175 Q119,370 119,735 Q119,1100 299.5,1292.5 Q480,1485 817,1485 Q1154,1485 1332.5,1291 Q1511,1097 1511,733 M444,733 Q444,488 537,364 Q630,240 815,240 Q1186,240 1186,733 Q1186,1227 817,1227 Q632,1227 538,1102.5 Q444,978 444,733 M652,1684 Q621,1684 592.5,1657.5 Q564,1631 551,1577 L402,1577 Q413,1722 484.5,1804 Q556,1886 674,1886 Q715,1886 754.5,1869.5 Q794,1853 832.5,1833.5 Q871,1814 908,1798 Q945,1782 981,1782 Q1012,1782 1040.5,1808 Q1069,1834 1082,1888 L1231,1888 Q1220,1743 1147.5,1661 Q1075,1579 959,1579 Q918,1579 878.5,1595.5 Q839,1612 800.5,1631.5 Q762,1651 725,1667.5 Q688,1684 652,1684"/> 
            <glyph glyph-name="Ö" unicode="&#xD6;" horiz-adv-x="1511" d=" M1511,733 Q1511,370 1331,175 Q1151,-20 815,-20 Q479,-20 299,175 Q119,370 119,735 Q119,1100 299.5,1292.5 Q480,1485 817,1485 Q1154,1485 1332.5,1291 Q1511,1097 1511,733 M444,733 Q444,488 537,364 Q630,240 815,240 Q1186,240 1186,733 Q1186,1227 817,1227 Q632,1227 538,1102.5 Q444,978 444,733 M474,1743 Q474,1808 511.5,1843 Q549,1878 613,1878 Q679,1878 716.5,1841 Q754,1804 754,1743 Q754,1683 716,1646.5 Q678,1610 613,1610 Q549,1610 511.5,1645 Q474,1680 474,1743 M877,1743 Q877,1813 917.5,1845.5 Q958,1878 1018,1878 Q1083,1878 1121.5,1842 Q1160,1806 1160,1743 Q1160,1682 1121,1646 Q1082,1610 1018,1610 Q958,1610 917.5,1642.5 Q877,1675 877,1743"/> 
            <glyph glyph-name="×" unicode="&#xD7;" horiz-adv-x="1040" d=" M428,723 L129,1024 L281,1178 L582,879 L887,1178 L1040,1028 L735,723 L1036,420 L887,268 L582,569 L281,270 L131,422"/> 
            <glyph glyph-name="Ø" unicode="&#xD8;" horiz-adv-x="1511" d=" M1511,733 Q1511,370 1331,175 Q1151,-20 815,-20 Q618,-20 479,45 L389,-90 L227,18 L317,154 Q119,348 119,735 Q119,1100 299.5,1292.5 Q480,1485 817,1485 Q1015,1485 1161,1415 L1245,1540 L1405,1436 L1317,1305 Q1511,1111 1511,733 M444,733 Q444,542 500,426 L1006,1182 Q922,1227 817,1227 Q632,1227 538,1102.5 Q444,978 444,733 M1186,733 Q1186,913 1135,1030 L635,279 Q711,240 815,240 Q1186,240 1186,733"/> 
            <glyph glyph-name="Ù" unicode="&#xD9;" horiz-adv-x="1374" d=" M1374,1462 L1374,516 Q1374,354 1301.5,232 Q1229,110 1092,45 Q955,-20 768,-20 Q486,-20 330,124.5 Q174,269 174,520 L174,1462 L483,1462 L483,567 Q483,398 551,319 Q619,240 776,240 Q928,240 996.5,319.5 Q1065,399 1065,569 L1065,1462 M750,1579 Q687,1623 565,1721.5 Q443,1820 375,1886 L375,1907 L717,1907 Q780,1806 952,1606 L952,1579"/> 
            <glyph glyph-name="Ú" unicode="&#xDA;" horiz-adv-x="1374" d=" M1374,1462 L1374,516 Q1374,354 1301.5,232 Q1229,110 1092,45 Q955,-20 768,-20 Q486,-20 330,124.5 Q174,269 174,520 L174,1462 L483,1462 L483,567 Q483,398 551,319 Q619,240 776,240 Q928,240 996.5,319.5 Q1065,399 1065,569 L1065,1462 M602,1579 L602,1606 Q774,1806 837,1907 L1179,1907 L1179,1886 Q1127,1834 1001.5,1731.5 Q876,1629 805,1579"/> 
            <glyph glyph-name="Û" unicode="&#xDB;" horiz-adv-x="1374" d=" M1374,1462 L1374,516 Q1374,354 1301.5,232 Q1229,110 1092,45 Q955,-20 768,-20 Q486,-20 330,124.5 Q174,269 174,520 L174,1462 L483,1462 L483,567 Q483,398 551,319 Q619,240 776,240 Q928,240 996.5,319.5 Q1065,399 1065,569 L1065,1462 M1006,1579 Q849,1672 772,1755 Q694,1674 543,1579 L340,1579 L340,1606 Q529,1795 596,1907 L953,1907 Q984,1855 1060.5,1765.5 Q1137,1676 1209,1606 L1209,1579"/> 
            <glyph glyph-name="Ü" unicode="&#xDC;" horiz-adv-x="1374" d=" M1374,1462 L1374,516 Q1374,354 1301.5,232 Q1229,110 1092,45 Q955,-20 768,-20 Q486,-20 330,124.5 Q174,269 174,520 L174,1462 L483,1462 L483,567 Q483,398 551,319 Q619,240 776,240 Q928,240 996.5,319.5 Q1065,399 1065,569 L1065,1462 M433,1743 Q433,1808 470.5,1843 Q508,1878 572,1878 Q638,1878 675.5,1841 Q713,1804 713,1743 Q713,1683 675,1646.5 Q637,1610 572,1610 Q508,1610 470.5,1645 Q433,1680 433,1743 M836,1743 Q836,1813 876.5,1845.5 Q917,1878 977,1878 Q1042,1878 1080.5,1842 Q1119,1806 1119,1743 Q1119,1682 1080,1646 Q1041,1610 977,1610 Q917,1610 876.5,1642.5 Q836,1675 836,1743"/> 
            <glyph glyph-name="Ý" unicode="&#xDD;" horiz-adv-x="1278" d=" M639,860 L944,1462 L1278,1462 L793,569 L793,0 L485,0 L485,559 L0,1462 L336,1462 M461,1579 L461,1606 Q633,1806 696,1907 L1038,1907 L1038,1886 Q986,1834 860.5,1731.5 Q735,1629 664,1579"/> 
            <glyph glyph-name="Þ" unicode="&#xDE;" horiz-adv-x="1194" d=" M1194,770 Q1194,541 1051.5,417 Q909,293 647,293 L494,293 L494,0 L184,0 L184,1462 L494,1462 L494,1233 L672,1233 Q926,1233 1060,1114 Q1194,995 1194,770 M494,543 L594,543 Q739,543 810,595.5 Q881,648 881,770 Q881,877 817.5,929 Q754,981 618,981 L494,981"/> 
            <glyph glyph-name="ß" unicode="&#xDF;" horiz-adv-x="1384" d=" M1249,1241 Q1249,1177 1228,1128.5 Q1207,1080 1175,1042 Q1143,1004 1106,975 Q1069,946 1037,922 Q1005,898 984,877 Q963,856 963,834 Q963,807 989.5,781 Q1016,755 1082,715 Q1228,624 1280.5,575 Q1333,526 1358.5,465 Q1384,404 1384,326 Q1384,154 1267.5,67 Q1151,-20 924,-20 Q825,-20 753,-5.5 Q681,9 621,43 L621,285 Q674,249 756.5,224 Q839,199 903,199 Q1071,199 1071,322 Q1071,363 1055,388.5 Q1039,414 998,444 Q957,474 883,516 Q757,588 708,647.5 Q659,707 659,788 Q659,852 694,905 Q729,958 799,1007 Q876,1062 907,1102 Q938,1142 938,1188 Q938,1248 874.5,1288.5 Q811,1329 711,1329 Q595,1329 530,1276.5 Q465,1224 465,1128 L465,0 L160,0 L160,1139 Q160,1340 306.5,1453.5 Q453,1567 711,1567 Q955,1567 1102,1478.5 Q1249,1390 1249,1241"/> 
            <glyph glyph-name="à" unicode="&#xE0;" horiz-adv-x="1083" d=" M870,0 L811,152 L803,152 Q726,55 644.5,17.5 Q563,-20 432,-20 Q271,-20 178.5,72 Q86,164 86,334 Q86,512 210.5,596.5 Q335,681 586,690 L780,696 L780,745 Q780,915 606,915 Q472,915 291,834 L190,1040 Q383,1141 618,1141 Q843,1141 963,1043 Q1083,945 1083,745 L1083,0 M780,518 L662,514 Q529,510 464,466 Q399,422 399,332 Q399,203 547,203 Q653,203 716.5,264 Q780,325 780,426 M870,1241 Q807,1285 685,1383.5 Q563,1482 495,1548 L495,1569 L837,1569 Q900,1468 1072,1268 L1072,1241"/> 
            <glyph glyph-name="á" unicode="&#xE1;" horiz-adv-x="1083" d=" M870,0 L811,152 L803,152 Q726,55 644.5,17.5 Q563,-20 432,-20 Q271,-20 178.5,72 Q86,164 86,334 Q86,512 210.5,596.5 Q335,681 586,690 L780,696 L780,745 Q780,915 606,915 Q472,915 291,834 L190,1040 Q383,1141 618,1141 Q843,1141 963,1043 Q1083,945 1083,745 L1083,0 M780,518 L662,514 Q529,510 464,466 Q399,422 399,332 Q399,203 547,203 Q653,203 716.5,264 Q780,325 780,426 M441,1241 L441,1268 Q613,1468 676,1569 L1018,1569 L1018,1548 Q966,1496 840.5,1393.5 Q715,1291 644,1241"/> 
            <glyph glyph-name="â" unicode="&#xE2;" horiz-adv-x="1083" d=" M870,0 L811,152 L803,152 Q726,55 644.5,17.5 Q563,-20 432,-20 Q271,-20 178.5,72 Q86,164 86,334 Q86,512 210.5,596.5 Q335,681 586,690 L780,696 L780,745 Q780,915 606,915 Q472,915 291,834 L190,1040 Q383,1141 618,1141 Q843,1141 963,1043 Q1083,945 1083,745 L1083,0 M780,518 L662,514 Q529,510 464,466 Q399,422 399,332 Q399,203 547,203 Q653,203 716.5,264 Q780,325 780,426 M1099,1496 Q942,1589 865,1672 Q787,1591 636,1496 L433,1496 L433,1523 Q622,1712 689,1824 L1046,1824 Q1077,1772 1153.5,1682.5 Q1230,1593 1302,1523 L1302,1496"/> 
            <glyph glyph-name="ã" unicode="&#xE3;" horiz-adv-x="1083" d=" M870,0 L811,152 L803,152 Q726,55 644.5,17.5 Q563,-20 432,-20 Q271,-20 178.5,72 Q86,164 86,334 Q86,512 210.5,596.5 Q335,681 586,690 L780,696 L780,745 Q780,915 606,915 Q472,915 291,834 L190,1040 Q383,1141 618,1141 Q843,1141 963,1043 Q1083,945 1083,745 L1083,0 M780,518 L662,514 Q529,510 464,466 Q399,422 399,332 Q399,203 547,203 Q653,203 716.5,264 Q780,325 780,426 M467,1346 Q436,1346 407.5,1319.5 Q379,1293 366,1239 L217,1239 Q228,1384 299.5,1466 Q371,1548 489,1548 Q530,1548 569.5,1531.5 Q609,1515 647.5,1495.5 Q686,1476 723,1460 Q760,1444 796,1444 Q827,1444 855.5,1470 Q884,1496 897,1550 L1046,1550 Q1035,1405 962.5,1323 Q890,1241 774,1241 Q733,1241 693.5,1257.5 Q654,1274 615.5,1293.5 Q577,1313 540,1329.5 Q503,1346 467,1346"/> 
            <glyph glyph-name="ä" unicode="&#xE4;" horiz-adv-x="1083" d=" M870,0 L811,152 L803,152 Q726,55 644.5,17.5 Q563,-20 432,-20 Q271,-20 178.5,72 Q86,164 86,334 Q86,512 210.5,596.5 Q335,681 586,690 L780,696 L780,745 Q780,915 606,915 Q472,915 291,834 L190,1040 Q383,1141 618,1141 Q843,1141 963,1043 Q1083,945 1083,745 L1083,0 M780,518 L662,514 Q529,510 464,466 Q399,422 399,332 Q399,203 547,203 Q653,203 716.5,264 Q780,325 780,426 M285,1405 Q285,1470 322.5,1505 Q360,1540 424,1540 Q490,1540 527.5,1503 Q565,1466 565,1405 Q565,1345 527,1308.5 Q489,1272 424,1272 Q360,1272 322.5,1307 Q285,1342 285,1405 M688,1405 Q688,1475 728.5,1507.5 Q769,1540 829,1540 Q894,1540 932.5,1504 Q971,1468 971,1405 Q971,1344 932,1308 Q893,1272 829,1272 Q769,1272 728.5,1304.5 Q688,1337 688,1405"/> 
            <glyph glyph-name="å" unicode="&#xE5;" horiz-adv-x="1083" d=" M870,0 L811,152 L803,152 Q726,55 644.5,17.5 Q563,-20 432,-20 Q271,-20 178.5,72 Q86,164 86,334 Q86,512 210.5,596.5 Q335,681 586,690 L780,696 L780,745 Q780,915 606,915 Q472,915 291,834 L190,1040 Q383,1141 618,1141 Q843,1141 963,1043 Q1083,945 1083,745 L1083,0 M780,518 L662,514 Q529,510 464,466 Q399,422 399,332 Q399,203 547,203 Q653,203 716.5,264 Q780,325 780,426 M883,1479 Q883,1371 812,1305 Q741,1239 629,1239 Q517,1239 449,1303 Q381,1367 381,1477 Q381,1585 448.5,1649.5 Q516,1714 629,1714 Q739,1714 811,1648 Q883,1582 883,1479 M725,1477 Q725,1522 698,1547.5 Q671,1573 629,1573 Q587,1573 560,1547.5 Q533,1522 533,1477 Q533,1432 557,1406 Q581,1380 629,1380 Q671,1380 698,1406 Q725,1432 725,1477"/> 
            <glyph glyph-name="æ" unicode="&#xE6;" horiz-adv-x="1790" d=" M1329,-20 Q1192,-20 1079.5,30.5 Q967,81 895,186 Q797,69 698.5,24.5 Q600,-20 442,-20 Q281,-20 183.5,74.5 Q86,169 86,334 Q86,512 207,596.5 Q328,681 569,690 L760,696 L760,780 Q760,849 715.5,882 Q671,915 594,915 Q454,915 289,838 L190,1040 Q379,1141 612,1141 Q839,1141 954,1010 Q1020,1074 1106.5,1106.5 Q1193,1139 1313,1139 Q1534,1139 1662,1001.5 Q1790,864 1790,631 L1790,483 L1067,483 Q1072,353 1144,280 Q1216,207 1346,207 Q1542,207 1726,295 L1726,59 Q1647,20 1555,0 Q1463,-20 1329,-20 M760,518 L647,514 Q523,510 461,466.5 Q399,423 399,332 Q399,203 539,203 Q640,203 700,264 Q760,325 760,426 M1307,922 Q1090,922 1073,686 L1503,686 Q1501,798 1448,860 Q1395,922 1307,922"/> 
            <glyph glyph-name="ç" unicode="&#xE7;" horiz-adv-x="989" d=" M614,-20 Q92,-20 92,553 Q92,838 234,988.5 Q376,1139 641,1139 Q835,1139 989,1063 L899,827 Q827,856 765,874.5 Q703,893 641,893 Q403,893 403,555 Q403,227 641,227 Q729,227 804,250.5 Q879,274 954,324 L954,63 Q880,16 804.5,-2 Q729,-20 614,-20 M805,-250 Q805,-378 729.5,-435 Q654,-492 496,-492 Q418,-492 350,-471 L350,-303 Q377,-310 422.5,-317 Q468,-324 493,-324 Q565,-324 565,-262 Q565,-179 399,-154 L477,0 L670,0 L643,-61 Q717,-85 761,-135.5 Q805,-186 805,-250"/> 
            <glyph glyph-name="è" unicode="&#xE8;" horiz-adv-x="1122" d=" M623,922 Q526,922 471,860.5 Q416,799 408,686 L836,686 Q834,799 777,860.5 Q720,922 623,922 M666,-20 Q396,-20 244,129 Q92,278 92,551 Q92,832 232.5,985.5 Q373,1139 621,1139 Q858,1139 990,1004 Q1122,869 1122,631 L1122,483 L401,483 Q406,353 478,280 Q550,207 680,207 Q781,207 871,228 Q961,249 1059,295 L1059,59 Q979,19 888,-0.5 Q797,-20 666,-20 M876,1241 Q813,1285 691,1383.5 Q569,1482 501,1548 L501,1569 L843,1569 Q906,1468 1078,1268 L1078,1241"/> 
            <glyph glyph-name="é" unicode="&#xE9;" horiz-adv-x="1122" d=" M623,922 Q526,922 471,860.5 Q416,799 408,686 L836,686 Q834,799 777,860.5 Q720,922 623,922 M666,-20 Q396,-20 244,129 Q92,278 92,551 Q92,832 232.5,985.5 Q373,1139 621,1139 Q858,1139 990,1004 Q1122,869 1122,631 L1122,483 L401,483 Q406,353 478,280 Q550,207 680,207 Q781,207 871,228 Q961,249 1059,295 L1059,59 Q979,19 888,-0.5 Q797,-20 666,-20 M447,1241 L447,1268 Q619,1468 682,1569 L1024,1569 L1024,1548 Q972,1496 846.5,1393.5 Q721,1291 650,1241"/> 
            <glyph glyph-name="ê" unicode="&#xEA;" horiz-adv-x="1122" d=" M623,922 Q526,922 471,860.5 Q416,799 408,686 L836,686 Q834,799 777,860.5 Q720,922 623,922 M666,-20 Q396,-20 244,129 Q92,278 92,551 Q92,832 232.5,985.5 Q373,1139 621,1139 Q858,1139 990,1004 Q1122,869 1122,631 L1122,483 L401,483 Q406,353 478,280 Q550,207 680,207 Q781,207 871,228 Q961,249 1059,295 L1059,59 Q979,19 888,-0.5 Q797,-20 666,-20 M860,1241 Q703,1334 626,1417 Q548,1336 397,1241 L194,1241 L194,1268 Q383,1457 450,1569 L807,1569 Q838,1517 914.5,1427.5 Q991,1338 1063,1268 L1063,1241"/> 
            <glyph glyph-name="ë" unicode="&#xEB;" horiz-adv-x="1122" d=" M623,922 Q526,922 471,860.5 Q416,799 408,686 L836,686 Q834,799 777,860.5 Q720,922 623,922 M666,-20 Q396,-20 244,129 Q92,278 92,551 Q92,832 232.5,985.5 Q373,1139 621,1139 Q858,1139 990,1004 Q1122,869 1122,631 L1122,483 L401,483 Q406,353 478,280 Q550,207 680,207 Q781,207 871,228 Q961,249 1059,295 L1059,59 Q979,19 888,-0.5 Q797,-20 666,-20 M297,1405 Q297,1470 334.5,1505 Q372,1540 436,1540 Q502,1540 539.5,1503 Q577,1466 577,1405 Q577,1345 539,1308.5 Q501,1272 436,1272 Q372,1272 334.5,1307 Q297,1342 297,1405 M700,1405 Q700,1475 740.5,1507.5 Q781,1540 841,1540 Q906,1540 944.5,1504 Q983,1468 983,1405 Q983,1344 944,1308 Q905,1272 841,1272 Q781,1272 740.5,1304.5 Q700,1337 700,1405"/> 
            <glyph glyph-name="ì" unicode="&#xEC;" horiz-adv-x="476" d=" M465,0 L160,0 L160,1118 L465,1118 M65810,1241 Q65747,1285 65625,1383.5 Q65503,1482 65435,1548 L65435,1569 L65777,1569 Q65840,1468 66012,1268 L66012,1241"/> 
            <glyph glyph-name="í" unicode="&#xED;" horiz-adv-x="722" d=" M465,0 L160,0 L160,1118 L465,1118 M65681,1241 L65681,1268 Q65853,1468 65916,1569 L66258,1569 L66258,1548 Q66206,1496 66080.5,1393.5 Q65955,1291 65884,1241"/> 
            <glyph glyph-name="î" unicode="&#xEE;" horiz-adv-x="747" d=" M465,0 L160,0 L160,1118 L465,1118 M66080,1241 Q65923,1334 65846,1417 Q65768,1336 65617,1241 L65414,1241 L65414,1268 Q65603,1457 65670,1569 L66027,1569 Q66058,1517 66134.5,1427.5 Q66211,1338 66283,1268 L66283,1241"/> 
            <glyph glyph-name="ï" unicode="&#xEF;" horiz-adv-x="657" d=" M465,0 L160,0 L160,1118 L465,1118 M65507,1405 Q65507,1470 65544.5,1505 Q65582,1540 65646,1540 Q65712,1540 65749.5,1503 Q65787,1466 65787,1405 Q65787,1345 65749,1308.5 Q65711,1272 65646,1272 Q65582,1272 65544.5,1307 Q65507,1342 65507,1405 M65910,1405 Q65910,1475 65950.5,1507.5 Q65991,1540 66051,1540 Q66116,1540 66154.5,1504 Q66193,1468 66193,1405 Q66193,1344 66154,1308 Q66115,1272 66051,1272 Q65991,1272 65950.5,1304.5 Q65910,1337 65910,1405"/> 
            <glyph glyph-name="ð" unicode="&#xF0;" horiz-adv-x="1176" d=" M510,1303 Q430,1356 358,1395 L459,1571 Q603,1506 717,1430 L942,1569 L1042,1415 L872,1311 Q1028,1168 1102,986.5 Q1176,805 1176,573 Q1176,293 1031,136.5 Q886,-20 631,-20 Q386,-20 239,117 Q92,254 92,489 Q92,722 222,858.5 Q352,995 573,995 Q778,995 848,897 L856,901 Q789,1063 664,1182 L434,1040 L334,1196 M864,532 Q864,640 803,705 Q742,770 635,770 Q514,770 458.5,701.5 Q403,633 403,487 Q403,347 463,276 Q523,205 635,205 Q758,205 811,287 Q864,369 864,532"/> 
            <glyph glyph-name="ñ" unicode="&#xF1;" horiz-adv-x="1192" d=" M1192,0 L887,0 L887,653 Q887,774 844,834.5 Q801,895 707,895 Q579,895 522,809.5 Q465,724 465,526 L465,0 L160,0 L160,1118 L393,1118 L434,975 L451,975 Q502,1056 591.5,1097.5 Q681,1139 795,1139 Q990,1139 1091,1033.5 Q1192,928 1192,729 M508,1346 Q477,1346 448.5,1319.5 Q420,1293 407,1239 L258,1239 Q269,1384 340.5,1466 Q412,1548 530,1548 Q571,1548 610.5,1531.5 Q650,1515 688.5,1495.5 Q727,1476 764,1460 Q801,1444 837,1444 Q868,1444 896.5,1470 Q925,1496 938,1550 L1087,1550 Q1076,1405 1003.5,1323 Q931,1241 815,1241 Q774,1241 734.5,1257.5 Q695,1274 656.5,1293.5 Q618,1313 581,1329.5 Q544,1346 508,1346"/> 
            <glyph glyph-name="ò" unicode="&#xF2;" horiz-adv-x="1176" d=" M403,561 Q403,395 457.5,310 Q512,225 635,225 Q757,225 810.5,309.5 Q864,394 864,561 Q864,727 810,810 Q756,893 633,893 Q511,893 457,810.5 Q403,728 403,561 M1176,561 Q1176,288 1032,134 Q888,-20 631,-20 Q470,-20 347,50.5 Q224,121 158,253 Q92,385 92,561 Q92,835 235,987 Q378,1139 637,1139 Q798,1139 921,1069 Q1044,999 1110,868 Q1176,737 1176,561 M868,1241 Q805,1285 683,1383.5 Q561,1482 493,1548 L493,1569 L835,1569 Q898,1468 1070,1268 L1070,1241"/> 
            <glyph glyph-name="ó" unicode="&#xF3;" horiz-adv-x="1176" d=" M403,561 Q403,395 457.5,310 Q512,225 635,225 Q757,225 810.5,309.5 Q864,394 864,561 Q864,727 810,810 Q756,893 633,893 Q511,893 457,810.5 Q403,728 403,561 M1176,561 Q1176,288 1032,134 Q888,-20 631,-20 Q470,-20 347,50.5 Q224,121 158,253 Q92,385 92,561 Q92,835 235,987 Q378,1139 637,1139 Q798,1139 921,1069 Q1044,999 1110,868 Q1176,737 1176,561 M467,1241 L467,1268 Q639,1468 702,1569 L1044,1569 L1044,1548 Q992,1496 866.5,1393.5 Q741,1291 670,1241"/> 
            <glyph glyph-name="ô" unicode="&#xF4;" horiz-adv-x="1176" d=" M403,561 Q403,395 457.5,310 Q512,225 635,225 Q757,225 810.5,309.5 Q864,394 864,561 Q864,727 810,810 Q756,893 633,893 Q511,893 457,810.5 Q403,728 403,561 M1176,561 Q1176,288 1032,134 Q888,-20 631,-20 Q470,-20 347,50.5 Q224,121 158,253 Q92,385 92,561 Q92,835 235,987 Q378,1139 637,1139 Q798,1139 921,1069 Q1044,999 1110,868 Q1176,737 1176,561 M864,1241 Q707,1334 630,1417 Q552,1336 401,1241 L198,1241 L198,1268 Q387,1457 454,1569 L811,1569 Q842,1517 918.5,1427.5 Q995,1338 1067,1268 L1067,1241"/> 
            <glyph glyph-name="õ" unicode="&#xF5;" horiz-adv-x="1176" d=" M403,561 Q403,395 457.5,310 Q512,225 635,225 Q757,225 810.5,309.5 Q864,394 864,561 Q864,727 810,810 Q756,893 633,893 Q511,893 457,810.5 Q403,728 403,561 M1176,561 Q1176,288 1032,134 Q888,-20 631,-20 Q470,-20 347,50.5 Q224,121 158,253 Q92,385 92,561 Q92,835 235,987 Q378,1139 637,1139 Q798,1139 921,1069 Q1044,999 1110,868 Q1176,737 1176,561 M469,1346 Q438,1346 409.5,1319.5 Q381,1293 368,1239 L219,1239 Q230,1384 301.5,1466 Q373,1548 491,1548 Q532,1548 571.5,1531.5 Q611,1515 649.5,1495.5 Q688,1476 725,1460 Q762,1444 798,1444 Q829,1444 857.5,1470 Q886,1496 899,1550 L1048,1550 Q1037,1405 964.5,1323 Q892,1241 776,1241 Q735,1241 695.5,1257.5 Q656,1274 617.5,1293.5 Q579,1313 542,1329.5 Q505,1346 469,1346"/> 
            <glyph glyph-name="ö" unicode="&#xF6;" horiz-adv-x="1176" d=" M403,561 Q403,395 457.5,310 Q512,225 635,225 Q757,225 810.5,309.5 Q864,394 864,561 Q864,727 810,810 Q756,893 633,893 Q511,893 457,810.5 Q403,728 403,561 M1176,561 Q1176,288 1032,134 Q888,-20 631,-20 Q470,-20 347,50.5 Q224,121 158,253 Q92,385 92,561 Q92,835 235,987 Q378,1139 637,1139 Q798,1139 921,1069 Q1044,999 1110,868 Q1176,737 1176,561 M291,1405 Q291,1470 328.5,1505 Q366,1540 430,1540 Q496,1540 533.5,1503 Q571,1466 571,1405 Q571,1345 533,1308.5 Q495,1272 430,1272 Q366,1272 328.5,1307 Q291,1342 291,1405 M694,1405 Q694,1475 734.5,1507.5 Q775,1540 835,1540 Q900,1540 938.5,1504 Q977,1468 977,1405 Q977,1344 938,1308 Q899,1272 835,1272 Q775,1272 734.5,1304.5 Q694,1337 694,1405"/> 
            <glyph glyph-name="÷" unicode="&#xF7;" horiz-adv-x="1081" d=" M88,612 L88,831 L1081,831 L1081,612 M444,373 Q444,449 481,486.5 Q518,524 584,524 Q650,524 686.5,485 Q723,446 723,373 Q723,303 686,262 Q649,221 584,221 Q519,221 481.5,260 Q444,299 444,373 M444,1071 Q444,1146 481,1184.5 Q518,1223 584,1223 Q651,1223 687,1182.5 Q723,1142 723,1071 Q723,1001 686,960.5 Q649,920 584,920 Q519,920 481.5,959 Q444,998 444,1071"/> 
            <glyph glyph-name="ø" unicode="&#xF8;" horiz-adv-x="1176" d=" M1176,561 Q1176,288 1032,134 Q888,-20 631,-20 Q505,-20 397,25 L330,-76 L176,29 L244,129 Q92,285 92,561 Q92,835 235,987 Q378,1139 637,1139 Q769,1139 885,1087 L940,1169 L1092,1061 L1034,977 Q1176,822 1176,561 M403,561 Q403,467 422,395 L739,870 Q696,893 633,893 Q511,893 457,810.5 Q403,728 403,561 M864,561 Q864,642 852,702 L543,240 Q581,225 635,225 Q757,225 810.5,309.5 Q864,394 864,561"/> 
            <glyph glyph-name="ù" unicode="&#xF9;" horiz-adv-x="1186" d=" M952,0 L911,143 L895,143 Q846,65 756,22.5 Q666,-20 551,-20 Q354,-20 254,85.5 Q154,191 154,389 L154,1118 L459,1118 L459,465 Q459,344 502,283.5 Q545,223 639,223 Q767,223 824,308.5 Q881,394 881,592 L881,1118 L1186,1118 L1186,0 M876,1241 Q813,1285 691,1383.5 Q569,1482 501,1548 L501,1569 L843,1569 Q906,1468 1078,1268 L1078,1241"/> 
            <glyph glyph-name="ú" unicode="&#xFA;" horiz-adv-x="1186" d=" M952,0 L911,143 L895,143 Q846,65 756,22.5 Q666,-20 551,-20 Q354,-20 254,85.5 Q154,191 154,389 L154,1118 L459,1118 L459,465 Q459,344 502,283.5 Q545,223 639,223 Q767,223 824,308.5 Q881,394 881,592 L881,1118 L1186,1118 L1186,0 M498,1241 L498,1268 Q670,1468 733,1569 L1075,1569 L1075,1548 Q1023,1496 897.5,1393.5 Q772,1291 701,1241"/> 
            <glyph glyph-name="û" unicode="&#xFB;" horiz-adv-x="1186" d=" M952,0 L911,143 L895,143 Q846,65 756,22.5 Q666,-20 551,-20 Q354,-20 254,85.5 Q154,191 154,389 L154,1118 L459,1118 L459,465 Q459,344 502,283.5 Q545,223 639,223 Q767,223 824,308.5 Q881,394 881,592 L881,1118 L1186,1118 L1186,0 M901,1241 Q744,1334 667,1417 Q589,1336 438,1241 L235,1241 L235,1268 Q424,1457 491,1569 L848,1569 Q879,1517 955.5,1427.5 Q1032,1338 1104,1268 L1104,1241"/> 
            <glyph glyph-name="ü" unicode="&#xFC;" horiz-adv-x="1186" d=" M952,0 L911,143 L895,143 Q846,65 756,22.5 Q666,-20 551,-20 Q354,-20 254,85.5 Q154,191 154,389 L154,1118 L459,1118 L459,465 Q459,344 502,283.5 Q545,223 639,223 Q767,223 824,308.5 Q881,394 881,592 L881,1118 L1186,1118 L1186,0 M326,1405 Q326,1470 363.5,1505 Q401,1540 465,1540 Q531,1540 568.5,1503 Q606,1466 606,1405 Q606,1345 568,1308.5 Q530,1272 465,1272 Q401,1272 363.5,1307 Q326,1342 326,1405 M729,1405 Q729,1475 769.5,1507.5 Q810,1540 870,1540 Q935,1540 973.5,1504 Q1012,1468 1012,1405 Q1012,1344 973,1308 Q934,1272 870,1272 Q810,1272 769.5,1304.5 Q729,1337 729,1405"/> 
            <glyph glyph-name="ý" unicode="&#xFD;" horiz-adv-x="1165" d=" M0,1118 L334,1118 L545,489 Q572,407 582,295 L588,295 Q599,398 631,489 L838,1118 L1165,1118 L692,-143 Q627,-318 506.5,-405 Q386,-492 225,-492 Q146,-492 70,-475 L70,-233 Q125,-246 190,-246 Q271,-246 331.5,-196.5 Q392,-147 426,-47 L444,8 M393,1241 L393,1268 Q565,1468 628,1569 L970,1569 L970,1548 Q918,1496 792.5,1393.5 Q667,1291 596,1241"/> 
            <glyph glyph-name="þ" unicode="&#xFE;" horiz-adv-x="1204" d=" M465,973 Q515,1054 596,1096.5 Q677,1139 782,1139 Q980,1139 1092,984.5 Q1204,830 1204,561 Q1204,288 1092.5,134 Q981,-20 782,-20 Q569,-20 465,117 L451,117 L458,55 L465,-39 L465,-492 L160,-492 L160,1556 L465,1556 L465,1165 L458,1045 L451,973 M684,895 Q571,895 519,825.5 Q467,756 465,596 L465,563 Q465,383 518.5,305 Q572,227 688,227 Q893,227 893,565 Q893,730 842.5,812.5 Q792,895 684,895"/> 
            <glyph glyph-name="ÿ" unicode="&#xFF;" horiz-adv-x="1165" d=" M0,1118 L334,1118 L545,489 Q572,407 582,295 L588,295 Q599,398 631,489 L838,1118 L1165,1118 L692,-143 Q627,-318 506.5,-405 Q386,-492 225,-492 Q146,-492 70,-475 L70,-233 Q125,-246 190,-246 Q271,-246 331.5,-196.5 Q392,-147 426,-47 L444,8 M499,1405 Q499,1470 536.5,1505 Q574,1540 638,1540 Q704,1540 741.5,1503 Q779,1466 779,1405 Q779,1345 741,1308.5 Q703,1272 638,1272 Q574,1272 536.5,1307 Q499,1342 499,1405 M902,1405 Q902,1475 942.5,1507.5 Q983,1540 1043,1540 Q1108,1540 1146.5,1504 Q1185,1468 1185,1405 Q1185,1344 1146,1308 Q1107,1272 1043,1272 Q983,1272 942.5,1304.5 Q902,1337 902,1405"/> 
            <glyph glyph-name="ı" unicode="&#x131;" horiz-adv-x="465" d=" M465,0 L160,0 L160,1118 L465,1118"/> 
            <glyph glyph-name="Œ" unicode="&#x152;" horiz-adv-x="1872" d=" M1872,0 L999,0 Q961,-9 890,-14.5 Q819,-20 774,-20 Q455,-20 287,177 Q119,374 119,735 Q119,1098 288.5,1291.5 Q458,1485 776,1485 Q837,1485 903,1478 Q969,1471 1004,1462 L1872,1462 L1872,1208 L1309,1208 L1309,887 L1835,887 L1835,633 L1309,633 L1309,256 L1872,256 M776,1227 Q610,1227 524,1101.5 Q438,976 438,733 Q438,489 524,364.5 Q610,240 774,240 Q839,240 900,250.5 Q961,261 999,279 L999,1186 Q964,1205 897.5,1216 Q831,1227 776,1227"/> 
            <glyph glyph-name="œ" unicode="&#x153;" horiz-adv-x="1915" d=" M1446,-20 Q1175,-20 1026,135 Q885,-20 635,-20 Q473,-20 349,50 Q225,120 158.5,252 Q92,384 92,561 Q92,838 233.5,988.5 Q375,1139 633,1139 Q745,1139 845,1099.5 Q945,1060 1016,983 Q1160,1139 1399,1139 Q1643,1139 1779,1004 Q1915,869 1915,631 L1915,483 L1169,483 L1169,475 Q1176,348 1250.5,277.5 Q1325,207 1458,207 Q1565,207 1658,228 Q1751,249 1851,295 L1851,59 Q1770,20 1675.5,0 Q1581,-20 1446,-20 M403,561 Q403,395 457.5,310 Q512,225 635,225 Q757,225 810.5,309.5 Q864,394 864,561 Q864,727 810,810 Q756,893 633,893 Q511,893 457,810.5 Q403,728 403,561 M1405,922 Q1311,922 1249,864.5 Q1187,807 1178,686 L1628,686 Q1626,797 1567.5,859.5 Q1509,922 1405,922"/> 
            <glyph glyph-name="ˆ" unicode="&#x2C6;" horiz-adv-x="1055" d=" M852,1241 Q695,1334 618,1417 Q540,1336 389,1241 L186,1241 L186,1268 Q375,1457 442,1569 L799,1569 Q830,1517 906.5,1427.5 Q983,1338 1055,1268 L1055,1241"/> 
            <glyph glyph-name="˚" unicode="&#x2DA;" horiz-adv-x="842" d=" M842,1479 Q842,1371 771,1305 Q700,1239 588,1239 Q476,1239 408,1303 Q340,1367 340,1477 Q340,1585 407.5,1649.5 Q475,1714 588,1714 Q698,1714 770,1648 Q842,1582 842,1479 M684,1477 Q684,1522 657,1547.5 Q630,1573 588,1573 Q546,1573 519,1547.5 Q492,1522 492,1477 Q492,1432 516,1406 Q540,1380 588,1380 Q630,1380 657,1406 Q684,1432 684,1477"/> 
            <glyph glyph-name="˜" unicode="&#x2DC;" horiz-adv-x="1036" d=" M457,1346 Q426,1346 397.5,1319.5 Q369,1293 356,1239 L207,1239 Q218,1384 289.5,1466 Q361,1548 479,1548 Q520,1548 559.5,1531.5 Q599,1515 637.5,1495.5 Q676,1476 713,1460 Q750,1444 786,1444 Q817,1444 845.5,1470 Q874,1496 887,1550 L1036,1550 Q1025,1405 952.5,1323 Q880,1241 764,1241 Q723,1241 683.5,1257.5 Q644,1274 605.5,1293.5 Q567,1313 530,1329.5 Q493,1346 457,1346"/> 
            <glyph glyph-name="–" unicode="&#x2013;" horiz-adv-x="942" d=" M82,436 L82,666 L942,666 L942,436"/> 
            <glyph glyph-name="—" unicode="&#x2014;" horiz-adv-x="1966" d=" M82,436 L82,666 L1966,666 L1966,436"/> 
            <glyph glyph-name="‘" unicode="&#x2018;" horiz-adv-x="420" d=" M39,961 L25,983 Q47,1074 97.5,1211.5 Q148,1349 201,1462 L420,1462 Q354,1195 319,961"/> 
            <glyph glyph-name="’" unicode="&#x2019;" horiz-adv-x="420" d=" M406,1462 L420,1440 Q370,1243 244,961 L25,961 Q94,1257 125,1462"/> 
            <glyph glyph-name="‚" unicode="&#x201A;" horiz-adv-x="459" d=" M459,215 Q407,13 283,-264 L63,-264 Q128,2 164,238 L444,238"/> 
            <glyph glyph-name="“" unicode="&#x201C;" horiz-adv-x="887" d=" M492,983 Q514,1074 564.5,1211.5 Q615,1349 668,1462 L887,1462 Q821,1195 786,961 L506,961 M25,983 Q47,1074 97.5,1211.5 Q148,1349 201,1462 L420,1462 Q354,1195 319,961 L39,961"/> 
            <glyph glyph-name="”" unicode="&#x201D;" horiz-adv-x="887" d=" M420,1440 Q370,1243 244,961 L25,961 Q94,1257 125,1462 L406,1462 M887,1440 Q837,1243 711,961 L492,961 Q561,1257 592,1462 L872,1462"/> 
            <glyph glyph-name="„" unicode="&#x201E;" horiz-adv-x="926" d=" M459,215 Q407,13 283,-264 L63,-264 Q128,2 164,238 L444,238 M926,215 Q874,13 750,-264 L530,-264 Q595,2 631,238 L911,238"/> 
            <glyph glyph-name="•" unicode="&#x2022;" horiz-adv-x="672" d=" M98,748 Q98,902 172,983.5 Q246,1065 385,1065 Q522,1065 597,983 Q672,901 672,748 Q672,596 596.5,513 Q521,430 385,430 Q247,430 172.5,513 Q98,596 98,748"/> 
            <glyph glyph-name="…" unicode="&#x2026;" horiz-adv-x="1634" d=" M117,143 Q117,227 162,270 Q207,313 293,313 Q376,313 421.5,269 Q467,225 467,143 Q467,64 421,18.5 Q375,-27 293,-27 Q209,-27 163,17.5 Q117,62 117,143 M700,143 Q700,227 745,270 Q790,313 877,313 Q960,313 1005.5,269 Q1051,225 1051,143 Q1051,64 1005,18.5 Q959,-27 877,-27 Q792,-27 746,17.5 Q700,62 700,143 M1284,143 Q1284,227 1329,270 Q1374,313 1460,313 Q1543,313 1588.5,269 Q1634,225 1634,143 Q1634,64 1588,18.5 Q1542,-27 1460,-27 Q1376,-27 1330,17.5 Q1284,62 1284,143"/> 
            <glyph glyph-name="‹" unicode="&#x2039;" horiz-adv-x="672" d=" M82,573 L453,1028 L672,909 L393,561 L672,213 L453,94 L82,547"/> 
            <glyph glyph-name="›" unicode="&#x203A;" horiz-adv-x="672" d=" M672,547 L301,94 L82,213 L360,561 L82,909 L301,1028 L672,573"/> 
            <glyph glyph-name="⁄" unicode="&#x2044;" horiz-adv-x="657" d=" M657,1462 L-154,0 L-393,0 L418,1462"/> 
            <glyph glyph-name="⁴" unicode="&#x2074;" horiz-adv-x="758" d=" M758,737 L633,737 L633,586 L395,586 L395,737 L12,737 L12,891 L397,1468 L633,1468 L633,905 L758,905 M395,905 L395,1069 Q395,1155 401,1253 Q392,1227 365.5,1173 Q339,1119 324,1096 L197,905"/> 
            <glyph glyph-name="€" unicode="&#x20AC;" horiz-adv-x="1155" d=" M803,1225 Q681,1225 602,1154.5 Q523,1084 500,950 L903,950 L903,774 L485,774 L483,739 L483,692 L485,659 L840,659 L840,481 L502,481 Q553,238 823,238 Q966,238 1098,295 L1098,39 Q982,-20 805,-20 Q560,-20 402,113 Q244,246 203,481 L66,481 L66,659 L184,659 Q180,682 180,721 L182,774 L66,774 L66,950 L199,950 Q236,1192 398,1332.5 Q560,1473 803,1473 Q991,1473 1155,1391 L1057,1159 Q988,1190 928,1207.5 Q868,1225 803,1225"/> 
            <glyph glyph-name="−" unicode="&#x2212;" horiz-adv-x="1081" d=" M88,612 L88,831 L1081,831 L1081,612"/> 
            <glyph glyph-name=" " unicode="&#x20;" horiz-adv-x="467" d=" M416,485 L172,485 L121,1462 L467,1462 M117,143 Q117,227 162,270 Q207,313 293,313 Q376,313 421.5,269 Q467,225 467,143 Q467,64 421,18.5 Q375,-27 293,-27 Q209,-27 163,17.5 Q117,62 117,143"/> 
            <glyph glyph-name="!" unicode="&#x21;" horiz-adv-x="834" d=" M412,1462 L371,934 L174,934 L133,1462 M834,1462 L793,934 L596,934 L555,1462"/> 
            <glyph glyph-name="&quot;" unicode="&#x22;" horiz-adv-x="1278" d=" M999,844 L952,612 L1210,612 L1210,406 L913,406 L836,0 L616,0 L694,406 L500,406 L424,0 L209,0 L283,406 L45,406 L45,612 L322,612 L369,844 L117,844 L117,1053 L406,1053 L483,1460 L702,1460 L625,1053 L823,1053 L901,1460 L1116,1460 L1038,1053 L1278,1053 L1278,844 M539,612 L735,612 L782,844 L586,844"/> 
            <glyph glyph-name="#" unicode="&#x23;" horiz-adv-x="1092" d=" M1092,457 Q1092,298 977,201.5 Q862,105 655,86 L655,-119 L518,-119 L518,82 Q274,87 90,168 L90,432 Q177,389 299.5,356 Q422,323 518,317 L518,627 L451,653 Q253,731 170.5,822.5 Q88,914 88,1049 Q88,1194 201.5,1287.5 Q315,1381 518,1401 L518,1554 L655,1554 L655,1405 Q884,1395 1069,1313 L975,1079 Q819,1143 655,1157 L655,862 Q850,787 932.5,732 Q1015,677 1053.5,611 Q1092,545 1092,457 M791,442 Q791,484 757,513 Q723,542 655,573 L655,324 Q791,347 791,442 M389,1049 Q389,1005 419.5,976.5 Q450,948 518,918 L518,1153 Q389,1134 389,1049"/> 
            <glyph glyph-name="$" unicode="&#x24;" horiz-adv-x="1782" d=" M315,1024 Q315,897 337.5,834.5 Q360,772 410,772 Q506,772 506,1024 Q506,1274 410,1274 Q360,1274 337.5,1212.5 Q315,1151 315,1024 M758,1026 Q758,796 669,680.5 Q580,565 408,565 Q243,565 153,683.5 Q63,802 63,1026 Q63,1483 408,1483 Q577,1483 667.5,1364.5 Q758,1246 758,1026 M1446,1462 L635,0 L395,0 L1206,1462 M1339,440 Q1339,313 1361.5,250.5 Q1384,188 1434,188 Q1530,188 1530,440 Q1530,690 1434,690 Q1384,690 1361.5,628.5 Q1339,567 1339,440 M1782,442 Q1782,213 1693,97.5 Q1604,-18 1432,-18 Q1267,-18 1177,100.5 Q1087,219 1087,442 Q1087,899 1432,899 Q1601,899 1691.5,780.5 Q1782,662 1782,442"/> 
            <glyph glyph-name="%" unicode="&#x25;" horiz-adv-x="1536" d=" M1536,0 L1159,0 L1044,113 Q853,-20 612,-20 Q368,-20 225,92 Q82,204 82,395 Q82,532 142.5,628.5 Q203,725 350,809 Q275,895 241,973.5 Q207,1052 207,1145 Q207,1297 323.5,1390 Q440,1483 635,1483 Q821,1483 932.5,1396.5 Q1044,1310 1044,1165 Q1044,1046 975,947.5 Q906,849 752,760 L1036,483 Q1107,600 1159,784 L1477,784 Q1441,649 1378,520.5 Q1315,392 1235,293 M403,424 Q403,338 467.5,287 Q532,236 633,236 Q759,236 860,297 L528,627 Q470,583 436.5,535 Q403,487 403,424 M762,1133 Q762,1186 726,1216.5 Q690,1247 633,1247 Q566,1247 527.5,1215 Q489,1183 489,1124 Q489,1036 584,930 Q670,978 716,1024.5 Q762,1071 762,1133"/> 
            <glyph glyph-name="&amp;" unicode="&#x26;" horiz-adv-x="412" d=" M412,1462 L371,934 L174,934 L133,1462"/> 
            <glyph glyph-name="'" unicode="&#x27;" horiz-adv-x="633" d=" M82,561 Q82,826 159.5,1057 Q237,1288 383,1462 L633,1462 Q492,1269 420,1038 Q348,807 348,563 Q348,318 421.5,89.5 Q495,-139 631,-324 L383,-324 Q236,-154 159,73 Q82,300 82,561"/> 
            <glyph glyph-name="(" unicode="&#x28;" horiz-adv-x="612" d=" M612,561 Q612,298 534.5,71 Q457,-156 311,-324 L63,-324 Q198,-140 272,88.5 Q346,317 346,563 Q346,807 274,1038 Q202,1269 61,1462 L311,1462 Q458,1287 535,1055.5 Q612,824 612,561"/> 
            <glyph glyph-name=")" unicode="&#x29;" horiz-adv-x="1053" d=" M688,1556 L647,1188 L1020,1292 L1053,1040 L713,1016 L936,719 L709,598 L553,911 L416,600 L180,719 L401,1016 L63,1042 L102,1292 L467,1188 L426,1556"/> 
            <glyph glyph-name="*" unicode="&#x2A;" horiz-adv-x="1081" d=" M475,612 L88,612 L88,831 L475,831 L475,1221 L694,1221 L694,831 L1081,831 L1081,612 L694,612 L694,227 L475,227"/> 
            <glyph glyph-name="+" unicode="&#x2B;" horiz-adv-x="459" d=" M459,215 Q407,13 283,-264 L63,-264 Q128,2 164,238 L444,238"/> 
            <glyph glyph-name="," unicode="&#x2C;" horiz-adv-x="598" d=" M61,424 L61,674 L598,674 L598,424"/> 
            <glyph glyph-name="-" unicode="&#x2D;" horiz-adv-x="467" d=" M117,143 Q117,227 162,270 Q207,313 293,313 Q376,313 421.5,269 Q467,225 467,143 Q467,64 421,18.5 Q375,-27 293,-27 Q209,-27 163,17.5 Q117,62 117,143"/> 
            <glyph glyph-name="." unicode="&#x2E;" horiz-adv-x="836" d=" M836,1462 L291,0 L14,0 L559,1462"/> 
            <glyph glyph-name="/" unicode="&#x2F;" horiz-adv-x="1096" d=" M1096,731 Q1096,348 970.5,164 Q845,-20 584,-20 Q331,-20 202.5,170 Q74,360 74,731 Q74,1118 199,1301.5 Q324,1485 584,1485 Q837,1485 966.5,1293 Q1096,1101 1096,731 M381,731 Q381,462 427.5,345.5 Q474,229 584,229 Q692,229 740,347 Q788,465 788,731 Q788,1000 739.5,1117.5 Q691,1235 584,1235 Q475,1235 428,1117.5 Q381,1000 381,731"/> 
            <glyph glyph-name="0" unicode="&#x30;" horiz-adv-x="846" d=" M846,0 L537,0 L537,846 L540,985 L545,1137 Q468,1060 438,1036 L270,901 L121,1087 L592,1462 L846,1462"/> 
            <glyph glyph-name="1" unicode="&#x31;" horiz-adv-x="1104" d=" M1104,0 L82,0 L82,215 L449,586 Q612,753 662,817.5 Q712,882 734,937 Q756,992 756,1051 Q756,1139 707.5,1182 Q659,1225 578,1225 Q493,1225 413,1186 Q333,1147 246,1075 L78,1274 Q186,1366 257,1404 Q328,1442 412,1462.5 Q496,1483 600,1483 Q737,1483 842,1433 Q947,1383 1005,1293 Q1063,1203 1063,1087 Q1063,986 1027.5,897.5 Q992,809 917.5,716 Q843,623 655,451 L467,274 L467,260 L1104,260"/> 
            <glyph glyph-name="2" unicode="&#x32;" horiz-adv-x="1090" d=" M1047,1135 Q1047,998 964,902 Q881,806 731,770 L731,764 Q908,742 999,656.5 Q1090,571 1090,426 Q1090,215 937,97.5 Q784,-20 500,-20 Q262,-20 78,59 L78,322 Q163,279 265,252 Q367,225 467,225 Q620,225 693,277 Q766,329 766,444 Q766,547 682,590 Q598,633 414,633 L303,633 L303,870 L416,870 Q586,870 664.5,914.5 Q743,959 743,1067 Q743,1233 535,1233 Q463,1233 388.5,1209 Q314,1185 223,1126 L80,1339 Q280,1483 557,1483 Q784,1483 915.5,1391 Q1047,1299 1047,1135"/> 
            <glyph glyph-name="3" unicode="&#x33;" horiz-adv-x="1137" d=" M1137,303 L961,303 L961,0 L659,0 L659,303 L35,303 L35,518 L676,1462 L961,1462 L961,543 L1137,543 M659,543 L659,791 Q659,853 664,971 Q669,1089 672,1108 L664,1108 Q627,1026 575,948 L307,543"/> 
            <glyph glyph-name="4" unicode="&#x34;" horiz-adv-x="1077" d=" M614,934 Q826,934 951.5,815 Q1077,696 1077,489 Q1077,244 926,112 Q775,-20 494,-20 Q250,-20 100,59 L100,326 Q179,284 284,257.5 Q389,231 483,231 Q766,231 766,463 Q766,684 473,684 Q420,684 356,673.5 Q292,663 252,651 L129,717 L184,1462 L977,1462 L977,1200 L455,1200 L428,913 L463,920 Q524,934 614,934"/> 
            <glyph glyph-name="5" unicode="&#x35;" horiz-adv-x="1104" d=" M72,621 Q72,1055 255.5,1267 Q439,1479 805,1479 Q930,1479 1001,1464 L1001,1217 Q912,1237 825,1237 Q666,1237 565.5,1189 Q465,1141 415,1047 Q365,953 356,780 L369,780 Q468,950 686,950 Q882,950 993,827 Q1104,704 1104,487 Q1104,253 972,116.5 Q840,-20 606,-20 Q444,-20 323.5,55 Q203,130 137.5,274 Q72,418 72,621 M600,227 Q699,227 752,293.5 Q805,360 805,483 Q805,590 755.5,651.5 Q706,713 606,713 Q512,713 445.5,652 Q379,591 379,510 Q379,391 441.5,309 Q504,227 600,227"/> 
            <glyph glyph-name="6" unicode="&#x36;" horiz-adv-x="1104" d=" M227,0 L776,1200 L55,1200 L55,1460 L1104,1460 L1104,1266 L551,0"/> 
            <glyph glyph-name="7" unicode="&#x37;" horiz-adv-x="1098" d=" M586,1481 Q796,1481 924.5,1385.5 Q1053,1290 1053,1128 Q1053,1016 991,928.5 Q929,841 791,772 Q955,684 1026.5,588.5 Q1098,493 1098,379 Q1098,199 957,89.5 Q816,-20 586,-20 Q346,-20 209,82 Q72,184 72,371 Q72,496 138.5,593 Q205,690 352,764 Q227,843 172,933 Q117,1023 117,1130 Q117,1287 247,1384 Q377,1481 586,1481 M358,389 Q358,303 418,255 Q478,207 582,207 Q697,207 754,256.5 Q811,306 811,387 Q811,454 754.5,512.5 Q698,571 571,637 Q358,539 358,389 M584,1255 Q505,1255 456.5,1214.5 Q408,1174 408,1106 Q408,1046 446.5,998.5 Q485,951 586,901 Q684,947 723,995 Q762,1043 762,1106 Q762,1175 712,1215 Q662,1255 584,1255"/> 
            <glyph glyph-name="8" unicode="&#x38;" horiz-adv-x="1098" d=" M1098,838 Q1098,406 916,193 Q734,-20 365,-20 Q235,-20 168,-6 L168,242 Q252,221 344,221 Q499,221 599,266.5 Q699,312 752,409.5 Q805,507 813,678 L801,678 Q743,584 667,546 Q591,508 477,508 Q286,508 176,630.5 Q66,753 66,971 Q66,1206 199.5,1342.5 Q333,1479 563,1479 Q725,1479 846.5,1403 Q968,1327 1033,1182.5 Q1098,1038 1098,838 M569,1231 Q473,1231 419,1165 Q365,1099 365,975 Q365,869 414,807 Q463,745 563,745 Q657,745 724,806.5 Q791,868 791,948 Q791,1067 728.5,1149 Q666,1231 569,1231"/> 
            <glyph glyph-name="9" unicode="&#x39;" horiz-adv-x="467" d=" M117,143 Q117,227 162,270 Q207,313 293,313 Q376,313 421.5,269 Q467,225 467,143 Q467,64 421,18.5 Q375,-27 293,-27 Q209,-27 163,17.5 Q117,62 117,143 M117,969 Q117,1053 162,1096 Q207,1139 293,1139 Q376,1139 421.5,1095 Q467,1051 467,969 Q467,888 420.5,843.5 Q374,799 293,799 Q209,799 163,843 Q117,887 117,969"/> 
            <glyph glyph-name=":" unicode="&#x3A;" horiz-adv-x="467" d=" M444,238 L459,215 Q407,13 283,-264 L63,-264 Q128,2 164,238 M117,969 Q117,1053 162,1096 Q207,1139 293,1139 Q376,1139 421.5,1095 Q467,1051 467,969 Q467,888 420.5,843.5 Q374,799 293,799 Q209,799 163,843 Q117,887 117,969"/> 
            <glyph glyph-name=";" unicode="&#x3B;" horiz-adv-x="1081" d=" M1081,203 L88,641 L88,784 L1081,1280 L1081,1040 L397,723 L1081,442"/> 
            <glyph glyph-name="&lt;" unicode="&#x3C;" horiz-adv-x="1081" d=" M88,805 L88,1024 L1081,1024 L1081,805 M88,418 L88,637 L1081,637 L1081,418"/> 
            <glyph glyph-name="=" unicode="&#x3D;" horiz-adv-x="1081" d=" M88,442 L772,723 L88,1040 L88,1280 L1081,784 L1081,641 L88,203"/> 
            <glyph glyph-name="&gt;" unicode="&#x3E;" horiz-adv-x="928" d=" M276,485 L276,559 Q276,655 317,726 Q358,797 467,877 Q572,952 605.5,999 Q639,1046 639,1104 Q639,1169 591,1203 Q543,1237 457,1237 Q307,1237 115,1139 L6,1358 Q229,1483 479,1483 Q685,1483 806.5,1384 Q928,1285 928,1120 Q928,1010 878,930 Q828,850 688,750 Q592,679 566.5,642 Q541,605 541,545 L541,485 M244,143 Q244,227 289,270 Q334,313 420,313 Q503,313 548.5,269 Q594,225 594,143 Q594,64 548,18.5 Q502,-27 420,-27 Q336,-27 290,17.5 Q244,62 244,143"/> 
            <glyph glyph-name="?" unicode="&#x3F;" horiz-adv-x="1735" d=" M1735,752 Q1735,608 1689,488.5 Q1643,369 1559,301 Q1475,233 1364,233 Q1290,233 1233,268.5 Q1176,304 1151,362 L1135,362 Q1027,233 860,233 Q683,233 581,339.5 Q479,446 479,631 Q479,842 613,971 Q747,1100 963,1100 Q1049,1100 1152.5,1083.5 Q1256,1067 1323,1044 L1300,555 Q1300,416 1376,416 Q1440,416 1478,509.5 Q1516,603 1516,754 Q1516,915 1449,1038.5 Q1382,1162 1260.5,1227 Q1139,1292 983,1292 Q781,1292 632,1209 Q483,1126 403.5,969.5 Q324,813 324,608 Q324,332 471.5,184.5 Q619,37 899,37 Q1005,37 1132,60.5 Q1259,84 1382,129 L1382,-63 Q1168,-154 907,-154 Q527,-154 314.5,46 Q102,246 102,602 Q102,849 210.5,1050.5 Q319,1252 519.5,1366.5 Q720,1481 981,1481 Q1201,1481 1374,1391 Q1547,1301 1641,1135 Q1735,969 1735,752 M711,627 Q711,416 883,416 Q973,416 1020,479.5 Q1067,543 1077,686 L1090,907 Q1039,918 975,918 Q850,918 780.5,840 Q711,762 711,627"/> 
            <glyph glyph-name="@" unicode="&#x40;" horiz-adv-x="1413" d=" M1079,0 L973,348 L440,348 L334,0 L0,0 L516,1468 L895,1468 L1413,0 M899,608 Q752,1081 733.5,1143 Q715,1205 707,1241 Q674,1113 518,608"/> 
            <glyph glyph-name="A" unicode="&#x41;" horiz-adv-x="1268" d=" M184,1462 L639,1462 Q950,1462 1090.5,1373.5 Q1231,1285 1231,1092 Q1231,961 1169.5,877 Q1108,793 1006,776 L1006,766 Q1145,735 1206.5,650 Q1268,565 1268,424 Q1268,224 1123.5,112 Q979,0 731,0 L184,0 M494,883 L674,883 Q800,883 856.5,922 Q913,961 913,1051 Q913,1135 851.5,1171.5 Q790,1208 657,1208 L494,1208 M494,637 L494,256 L696,256 Q824,256 885,305 Q946,354 946,455 Q946,637 686,637"/> 
            <glyph glyph-name="B" unicode="&#x42;" horiz-adv-x="1233" d=" M805,1225 Q630,1225 534,1093.5 Q438,962 438,727 Q438,238 805,238 Q959,238 1178,315 L1178,55 Q998,-20 776,-20 Q457,-20 288,173.5 Q119,367 119,729 Q119,957 202,1128.5 Q285,1300 440.5,1391.5 Q596,1483 805,1483 Q1018,1483 1233,1380 L1133,1128 Q1051,1167 968,1196 Q885,1225 805,1225"/> 
            <glyph glyph-name="C" unicode="&#x43;" horiz-adv-x="1397" d=" M1397,745 Q1397,384 1191.5,192 Q986,0 598,0 L184,0 L184,1462 L643,1462 Q1001,1462 1199,1273 Q1397,1084 1397,745 M1075,737 Q1075,1208 659,1208 L494,1208 L494,256 L627,256 Q1075,256 1075,737"/> 
            <glyph glyph-name="D" unicode="&#x44;" horiz-adv-x="1026" d=" M1026,0 L184,0 L184,1462 L1026,1462 L1026,1208 L494,1208 L494,887 L989,887 L989,633 L494,633 L494,256 L1026,256"/> 
            <glyph glyph-name="E" unicode="&#x45;" horiz-adv-x="1022" d=" M489,0 L184,0 L184,1462 L1022,1462 L1022,1208 L489,1208 L489,831 L985,831 L985,578 L489,578"/> 
            <glyph glyph-name="F" unicode="&#x46;" horiz-adv-x="1319" d=" M739,821 L1319,821 L1319,63 Q1178,17 1053.5,-1.5 Q929,-20 799,-20 Q468,-20 293.5,174.5 Q119,369 119,733 Q119,1087 321.5,1285 Q524,1483 883,1483 Q1108,1483 1317,1393 L1214,1145 Q1054,1225 881,1225 Q680,1225 559,1090 Q438,955 438,727 Q438,489 535.5,363.5 Q633,238 819,238 Q916,238 1016,258 L1016,563 L739,563"/> 
            <glyph glyph-name="G" unicode="&#x47;" horiz-adv-x="1382" d=" M1382,0 L1073,0 L1073,631 L494,631 L494,0 L184,0 L184,1462 L494,1462 L494,889 L1073,889 L1073,1462 L1382,1462"/> 
            <glyph glyph-name="H" unicode="&#x48;" horiz-adv-x="494" d=" M184,0 L184,1462 L494,1462 L494,0"/> 
            <glyph glyph-name="I" unicode="&#x49;" horiz-adv-x="494" d=" M31,-430 Q-74,-430 -152,-408 L-152,-150 Q-72,-170 -6,-170 Q96,-170 140,-106.5 Q184,-43 184,92 L184,1462 L494,1462 L494,94 Q494,-162 377,-296 Q260,-430 31,-430"/> 
            <glyph glyph-name="J" unicode="&#x4A;" horiz-adv-x="1360" d=" M1360,0 L1008,0 L625,616 L494,522 L494,0 L184,0 L184,1462 L494,1462 L494,793 L616,965 L1012,1462 L1356,1462 L846,815"/> 
            <glyph glyph-name="K" unicode="&#x4B;" horiz-adv-x="1087" d=" M184,0 L184,1462 L494,1462 L494,256 L1087,256 L1087,0"/> 
            <glyph glyph-name="L" unicode="&#x4C;" horiz-adv-x="1747" d=" M803,0 L451,1147 L442,1147 Q461,797 461,680 L461,0 L184,0 L184,1462 L606,1462 L952,344 L958,344 L1325,1462 L1747,1462 L1747,0 L1458,0 L1458,692 Q1458,741 1459.5,805 Q1461,869 1473,1145 L1464,1145 L1087,0"/> 
            <glyph glyph-name="M" unicode="&#x4D;" horiz-adv-x="1481" d=" M1481,0 L1087,0 L451,1106 L442,1106 Q461,813 461,688 L461,0 L184,0 L184,1462 L575,1462 L1210,367 L1217,367 Q1202,652 1202,770 L1202,1462 L1481,1462"/> 
            <glyph glyph-name="N" unicode="&#x4E;" horiz-adv-x="1511" d=" M1511,733 Q1511,370 1331,175 Q1151,-20 815,-20 Q479,-20 299,175 Q119,370 119,735 Q119,1100 299.5,1292.5 Q480,1485 817,1485 Q1154,1485 1332.5,1291 Q1511,1097 1511,733 M444,733 Q444,488 537,364 Q630,240 815,240 Q1186,240 1186,733 Q1186,1227 817,1227 Q632,1227 538,1102.5 Q444,978 444,733"/> 
            <glyph glyph-name="O" unicode="&#x4F;" horiz-adv-x="1194" d=" M494,774 L596,774 Q739,774 810,830.5 Q881,887 881,995 Q881,1104 821.5,1156 Q762,1208 635,1208 L494,1208 M1194,1006 Q1194,770 1046.5,645 Q899,520 627,520 L494,520 L494,0 L184,0 L184,1462 L651,1462 Q917,1462 1055.5,1347.5 Q1194,1233 1194,1006"/> 
            <glyph glyph-name="P" unicode="&#x50;" horiz-adv-x="1511" d=" M1511,733 Q1511,475 1419.5,300.5 Q1328,126 1151,45 L1503,-348 L1106,-348 L838,-20 L815,-20 Q479,-20 299,175 Q119,370 119,735 Q119,1100 299.5,1292.5 Q480,1485 817,1485 Q1154,1485 1332.5,1291 Q1511,1097 1511,733 M444,733 Q444,488 537,364 Q630,240 815,240 Q1186,240 1186,733 Q1186,1227 817,1227 Q632,1227 538,1102.5 Q444,978 444,733"/> 
            <glyph glyph-name="Q" unicode="&#x51;" horiz-adv-x="1352" d=" M494,813 L594,813 Q741,813 811,862 Q881,911 881,1016 Q881,1120 809.5,1164 Q738,1208 588,1208 L494,1208 M494,561 L494,0 L184,0 L184,1462 L610,1462 Q908,1462 1051,1353.5 Q1194,1245 1194,1024 Q1194,895 1123,794.5 Q1052,694 922,637 Q1252,144 1352,0 L1008,0 L659,561"/> 
            <glyph glyph-name="R" unicode="&#x52;" horiz-adv-x="1047" d=" M1047,406 Q1047,208 904.5,94 Q762,-20 508,-20 Q274,-20 94,68 L94,356 Q242,290 344.5,263 Q447,236 532,236 Q634,236 688.5,275 Q743,314 743,391 Q743,434 719,467.5 Q695,501 648.5,532 Q602,563 459,631 Q325,694 258,752 Q191,810 151,887 Q111,964 111,1067 Q111,1261 242.5,1372 Q374,1483 606,1483 Q720,1483 823.5,1456 Q927,1429 1040,1380 L940,1139 Q823,1187 746.5,1206 Q670,1225 596,1225 Q508,1225 461,1184 Q414,1143 414,1077 Q414,1036 433,1005.5 Q452,975 493.5,946.5 Q535,918 690,844 Q895,746 971,647.5 Q1047,549 1047,406"/> 
            <glyph glyph-name="S" unicode="&#x53;" horiz-adv-x="1145" d=" M748,0 L438,0 L438,1204 L41,1204 L41,1462 L1145,1462 L1145,1204 L748,1204"/> 
            <glyph glyph-name="T" unicode="&#x54;" horiz-adv-x="1374" d=" M1374,1462 L1374,516 Q1374,354 1301.5,232 Q1229,110 1092,45 Q955,-20 768,-20 Q486,-20 330,124.5 Q174,269 174,520 L174,1462 L483,1462 L483,567 Q483,398 551,319 Q619,240 776,240 Q928,240 996.5,319.5 Q1065,399 1065,569 L1065,1462"/> 
            <glyph glyph-name="U" unicode="&#x55;" horiz-adv-x="1331" d=" M1018,1462 L1331,1462 L834,0 L496,0 L0,1462 L313,1462 L588,592 Q611,515 635.5,412.5 Q660,310 666,270 Q677,362 741,592"/> 
            <glyph glyph-name="V" unicode="&#x56;" horiz-adv-x="1980" d=" M1608,0 L1255,0 L1057,768 Q1046,809 1019.5,937.5 Q993,1066 989,1110 Q983,1056 959,936.5 Q935,817 922,766 L725,0 L373,0 L0,1462 L305,1462 L492,664 Q541,443 563,281 Q569,338 590.5,457.5 Q612,577 631,643 L844,1462 L1137,1462 L1350,643 Q1364,588 1385,475 Q1406,362 1417,281 Q1427,359 1449,475.5 Q1471,592 1489,664 L1675,1462 L1980,1462"/> 
            <glyph glyph-name="W" unicode="&#x57;" horiz-adv-x="1366" d=" M1366,0 L1012,0 L672,553 L332,0 L0,0 L485,754 L31,1462 L373,1462 L688,936 L997,1462 L1331,1462 L872,737"/> 
            <glyph glyph-name="X" unicode="&#x58;" horiz-adv-x="1278" d=" M639,860 L944,1462 L1278,1462 L793,569 L793,0 L485,0 L485,559 L0,1462 L336,1462"/> 
            <glyph glyph-name="Y" unicode="&#x59;" horiz-adv-x="1137" d=" M1137,0 L49,0 L49,201 L750,1206 L68,1206 L68,1462 L1118,1462 L1118,1262 L418,256 L1137,256"/> 
            <glyph glyph-name="Z" unicode="&#x5A;" horiz-adv-x="627" d=" M627,-324 L143,-324 L143,1462 L627,1462 L627,1251 L403,1251 L403,-113 L627,-113"/> 
            <glyph glyph-name="[" unicode="&#x5B;" horiz-adv-x="834" d=" M289,1462 L834,0 L557,0 L12,1462"/> 
            <glyph glyph-name="\" unicode="&#x5C;" horiz-adv-x="535" d=" M51,-113 L274,-113 L274,1251 L51,1251 L51,1462 L535,1462 L535,-324 L51,-324"/> 
            <glyph glyph-name="]" unicode="&#x5D;" horiz-adv-x="1085" d=" M8,520 L446,1470 L590,1470 L1085,520 L846,520 L524,1163 L244,520"/> 
            <glyph glyph-name="^" unicode="&#x5E;" horiz-adv-x="846" d=" M846,-324 L-4,-324 L-4,-184 L846,-184"/> 
            <glyph glyph-name="_" unicode="&#x5F;" horiz-adv-x="909" d=" M707,1241 Q644,1285 522,1383.5 Q400,1482 332,1548 L332,1569 L674,1569 Q737,1468 909,1268 L909,1241"/> 
            <glyph glyph-name="`" unicode="&#x60;" horiz-adv-x="1083" d=" M870,0 L811,152 L803,152 Q726,55 644.5,17.5 Q563,-20 432,-20 Q271,-20 178.5,72 Q86,164 86,334 Q86,512 210.5,596.5 Q335,681 586,690 L780,696 L780,745 Q780,915 606,915 Q472,915 291,834 L190,1040 Q383,1141 618,1141 Q843,1141 963,1043 Q1083,945 1083,745 L1083,0 M780,518 L662,514 Q529,510 464,466 Q399,422 399,332 Q399,203 547,203 Q653,203 716.5,264 Q780,325 780,426"/> 
            <glyph glyph-name="a" unicode="&#x61;" horiz-adv-x="1204" d=" M782,1139 Q980,1139 1092,984.5 Q1204,830 1204,561 Q1204,284 1088.5,132 Q973,-20 774,-20 Q577,-20 465,123 L444,123 L393,0 L160,0 L160,1556 L465,1556 L465,1194 Q465,1125 453,973 L465,973 Q572,1139 782,1139 M684,895 Q571,895 519,825.5 Q467,756 465,596 L465,563 Q465,383 518.5,305 Q572,227 688,227 Q782,227 837.5,313.5 Q893,400 893,565 Q893,730 837,812.5 Q781,895 684,895"/> 
            <glyph glyph-name="b" unicode="&#x62;" horiz-adv-x="989" d=" M614,-20 Q92,-20 92,553 Q92,838 234,988.5 Q376,1139 641,1139 Q835,1139 989,1063 L899,827 Q827,856 765,874.5 Q703,893 641,893 Q403,893 403,555 Q403,227 641,227 Q729,227 804,250.5 Q879,274 954,324 L954,63 Q880,16 804.5,-2 Q729,-20 614,-20"/> 
            <glyph glyph-name="c" unicode="&#x63;" horiz-adv-x="1137" d=" M514,-20 Q317,-20 204.5,133 Q92,286 92,557 Q92,832 206.5,985.5 Q321,1139 522,1139 Q733,1139 844,975 L854,975 Q831,1100 831,1198 L831,1556 L1137,1556 L1137,0 L903,0 L844,145 L831,145 Q727,-20 514,-20 M621,223 Q738,223 792.5,291 Q847,359 852,522 L852,555 Q852,735 796.5,813 Q741,891 616,891 Q514,891 457.5,804.5 Q401,718 401,553 Q401,388 458,305.5 Q515,223 621,223"/> 
            </font>
</defs>
</svg>
