<?xml version="1.0" standalone="no"?>
<!DOCTYPE svg PUBLIC "-//W3C//DTD SVG 1.1//EN" "http://www.w3.org/Graphics/SVG/1.1/DTD/svg11.dtd" >
<svg xmlns="http://www.w3.org/2000/svg">
    <defs>
        <font id="OpenSans">
            <font-face font-family="OpenSans"
                       units-per-em="2048"
                       ascent="2189"
                       descent="-600"
                       bbox="-391 -496 1966 1907"
                    />
            <missing-glyph horiz-adv-x="0" />
            
            <glyph glyph-name="!" unicode="&#x21;" horiz-adv-x="393" d=" M326,403 L221,403 L170,1462 L377,1462 M152,106 Q152,242 272,242 Q330,242 361.5,207 Q393,172 393,106 Q393,42 361,6.5 Q329,-29 272,-29 Q220,-29 186,2.5 Q152,34 152,106"/> 
            <glyph glyph-name="&quot;" unicode="&#x22;" horiz-adv-x="688" d=" M319,1462 L279,934 L174,934 L133,1462 M688,1462 L647,934 L543,934 L502,1462"/> 
            <glyph glyph-name="#" unicode="&#x23;" horiz-adv-x="1270" d=" M981,899 L915,559 L1198,559 L1198,430 L891,430 L807,0 L670,0 L754,430 L451,430 L369,0 L233,0 L313,430 L51,430 L51,559 L338,559 L406,899 L129,899 L129,1026 L428,1026 L510,1462 L649,1462 L567,1026 L872,1026 L956,1462 L1090,1462 L1006,1026 L1270,1026 L1270,899 M475,559 L778,559 L844,899 L541,899"/> 
            <glyph glyph-name="$" unicode="&#x24;" horiz-adv-x="1036" d=" M1036,449 Q1036,313 934,224.5 Q832,136 649,113 L649,-119 L520,-119 L520,104 Q408,104 303,121.5 Q198,139 131,170 L131,326 Q214,289 322.5,265.5 Q431,242 520,242 L520,682 Q315,747 232.5,833 Q150,919 150,1055 Q150,1186 251.5,1270 Q353,1354 520,1372 L520,1554 L649,1554 L649,1374 Q833,1369 1004,1300 L952,1169 Q803,1228 649,1239 L649,805 Q806,755 884,707.5 Q962,660 999,598.5 Q1036,537 1036,449 M866,436 Q866,508 821.5,552.5 Q777,597 649,641 L649,252 Q866,282 866,436 M319,1057 Q319,981 364,935 Q409,889 520,848 L520,1235 Q421,1219 370,1172.5 Q319,1126 319,1057"/> 
            <glyph glyph-name="%" unicode="&#x25;" horiz-adv-x="1581" d=" M242,1026 Q242,856 279,771 Q316,686 399,686 Q563,686 563,1026 Q563,1364 399,1364 Q316,1364 279,1280 Q242,1196 242,1026 M700,1026 Q700,798 623.5,681.5 Q547,565 399,565 Q259,565 181.5,684 Q104,803 104,1026 Q104,1253 178.5,1368 Q253,1483 399,1483 Q544,1483 622,1364 Q700,1245 700,1026 M1122,440 Q1122,269 1159,184.5 Q1196,100 1280,100 Q1364,100 1404,183.5 Q1444,267 1444,440 Q1444,611 1404,693.5 Q1364,776 1280,776 Q1196,776 1159,693.5 Q1122,611 1122,440 M1581,440 Q1581,213 1504.5,96.5 Q1428,-20 1280,-20 Q1138,-20 1061.5,99 Q985,218 985,440 Q985,667 1059.5,782 Q1134,897 1280,897 Q1422,897 1501.5,779.5 Q1581,662 1581,440 M1323,1462 L512,0 L365,0 L1176,1462"/> 
            <glyph glyph-name="&amp;" unicode="&#x26;" horiz-adv-x="1491" d=" M414,1171 Q414,1102 450,1039.5 Q486,977 573,889 Q702,964 752.5,1027.5 Q803,1091 803,1174 Q803,1251 751.5,1299.5 Q700,1348 614,1348 Q525,1348 469.5,1300 Q414,1252 414,1171 M569,129 Q810,129 969,283 L532,707 Q421,639 375,594.5 Q329,550 307,499 Q285,448 285,383 Q285,266 362.5,197.5 Q440,129 569,129 M113,379 Q113,509 182.5,609 Q252,709 432,811 Q347,906 316.5,955 Q286,1004 268,1057 Q250,1110 250,1167 Q250,1317 348,1401 Q446,1485 621,1485 Q783,1485 876,1401.5 Q969,1318 969,1169 Q969,1062 901,971.5 Q833,881 676,788 L1083,397 Q1139,459 1172.5,542.5 Q1206,626 1229,725 L1397,725 Q1329,439 1192,291 L1491,0 L1262,0 L1077,178 Q959,72 837,26 Q715,-20 565,-20 Q350,-20 231.5,86 Q113,192 113,379"/> 
            <glyph glyph-name="'" unicode="&#x27;" horiz-adv-x="319" d=" M319,1462 L279,934 L174,934 L133,1462"/> 
            <glyph glyph-name="(" unicode="&#x28;" horiz-adv-x="545" d=" M82,561 Q82,826 159.5,1057 Q237,1288 383,1462 L545,1462 Q401,1269 328.5,1038 Q256,807 256,563 Q256,323 330,94 Q404,-135 543,-324 L383,-324 Q236,-154 159,73 Q82,300 82,561"/> 
            <glyph glyph-name=")" unicode="&#x29;" horiz-adv-x="524" d=" M524,561 Q524,298 446.5,71 Q369,-156 223,-324 L63,-324 Q202,-136 276,93.5 Q350,323 350,563 Q350,807 277.5,1038 Q205,1269 61,1462 L223,1462 Q370,1287 447,1055.5 Q524,824 524,561"/> 
            <glyph glyph-name="*" unicode="&#x2A;" horiz-adv-x="1038" d=" M657,1556 L614,1161 L1012,1272 L1038,1090 L657,1059 L905,733 L733,639 L557,1001 L397,639 L221,733 L463,1059 L86,1090 L115,1272 L506,1161 L463,1556"/> 
            <glyph glyph-name="+" unicode="&#x2B;" horiz-adv-x="1065" d=" M653,791 L1065,791 L1065,653 L653,653 L653,227 L514,227 L514,653 L104,653 L104,791 L514,791 L514,1219 L653,1219"/> 
            <glyph glyph-name="," unicode="&#x2C;" horiz-adv-x="365" d=" M350,238 L365,215 Q339,115 290,-17.5 Q241,-150 188,-264 L63,-264 Q90,-160 122.5,-7 Q155,146 168,238"/> 
            <glyph glyph-name="-" unicode="&#x2D;" horiz-adv-x="575" d=" M84,473 L84,625 L575,625 L575,473"/> 
            <glyph glyph-name="." unicode="&#x2E;" horiz-adv-x="393" d=" M152,106 Q152,173 182.5,207.5 Q213,242 270,242 Q328,242 360.5,207.5 Q393,173 393,106 Q393,41 360,6 Q327,-29 270,-29 Q219,-29 185.5,2.5 Q152,34 152,106"/> 
            <glyph glyph-name="/" unicode="&#x2F;" horiz-adv-x="731" d=" M731,1462 L186,0 L20,0 L565,1462"/> 
            <glyph glyph-name="0" unicode="&#x30;" horiz-adv-x="1069" d=" M1069,733 Q1069,354 949.5,167 Q830,-20 584,-20 Q348,-20 225,171.5 Q102,363 102,733 Q102,1115 221,1300 Q340,1485 584,1485 Q822,1485 945.5,1292 Q1069,1099 1069,733 M270,733 Q270,414 345,268.5 Q420,123 584,123 Q750,123 824.5,270.5 Q899,418 899,733 Q899,1048 824.5,1194.5 Q750,1341 584,1341 Q420,1341 345,1196.5 Q270,1052 270,733"/> 
            <glyph glyph-name="1" unicode="&#x31;" horiz-adv-x="715" d=" M715,0 L553,0 L553,1042 Q553,1172 561,1288 Q540,1267 514,1244 Q488,1221 276,1049 L188,1163 L575,1462 L715,1462"/> 
            <glyph glyph-name="2" unicode="&#x32;" horiz-adv-x="1061" d=" M1061,0 L100,0 L100,143 L485,530 Q661,708 717,784 Q773,860 801,932 Q829,1004 829,1087 Q829,1204 758,1272.5 Q687,1341 561,1341 Q470,1341 388.5,1311 Q307,1281 207,1202 L119,1315 Q321,1483 559,1483 Q765,1483 882,1377.5 Q999,1272 999,1094 Q999,955 921,819 Q843,683 629,475 L309,162 L309,154 L1061,154"/> 
            <glyph glyph-name="3" unicode="&#x33;" horiz-adv-x="1051" d=" M1006,1118 Q1006,978 927.5,889 Q849,800 705,770 L705,762 Q881,740 966,650 Q1051,560 1051,414 Q1051,205 906,92.5 Q761,-20 494,-20 Q378,-20 281.5,-2.5 Q185,15 94,59 L94,217 Q189,170 296.5,145.5 Q404,121 500,121 Q879,121 879,418 Q879,684 461,684 L317,684 L317,827 L463,827 Q634,827 734,902.5 Q834,978 834,1112 Q834,1219 760.5,1280 Q687,1341 561,1341 Q465,1341 380,1315 Q295,1289 186,1219 L102,1331 Q192,1402 309.5,1442.5 Q427,1483 557,1483 Q770,1483 888,1385.5 Q1006,1288 1006,1118"/> 
            <glyph glyph-name="4" unicode="&#x34;" horiz-adv-x="1130" d=" M1130,336 L913,336 L913,0 L754,0 L754,336 L43,336 L43,481 L737,1470 L913,1470 L913,487 L1130,487 M754,487 L754,973 Q754,1116 764,1296 L756,1296 Q708,1200 666,1137 L209,487"/> 
            <glyph glyph-name="5" unicode="&#x35;" horiz-adv-x="1053" d=" M557,893 Q788,893 920.5,778.5 Q1053,664 1053,465 Q1053,238 908.5,109 Q764,-20 510,-20 Q263,-20 133,59 L133,219 Q203,174 307,148.5 Q411,123 512,123 Q688,123 785.5,206 Q883,289 883,446 Q883,752 508,752 Q413,752 254,723 L168,778 L223,1462 L950,1462 L950,1309 L365,1309 L328,870 Q443,893 557,893"/> 
            <glyph glyph-name="6" unicode="&#x36;" horiz-adv-x="1071" d=" M117,625 Q117,1056 284.5,1269.5 Q452,1483 780,1483 Q893,1483 958,1464 L958,1321 Q881,1346 782,1346 Q547,1346 423,1199.5 Q299,1053 287,739 L299,739 Q409,911 647,911 Q844,911 957.5,792 Q1071,673 1071,469 Q1071,241 946.5,110.5 Q822,-20 610,-20 Q383,-20 250,150.5 Q117,321 117,625 M608,121 Q750,121 828.5,210.5 Q907,300 907,469 Q907,614 834,697 Q761,780 616,780 Q526,780 451,743 Q376,706 331.5,641 Q287,576 287,506 Q287,403 327,314 Q367,225 440.5,173 Q514,121 608,121"/> 
            <glyph glyph-name="7" unicode="&#x37;" horiz-adv-x="1067" d=" M285,0 L891,1309 L94,1309 L94,1462 L1067,1462 L1067,1329 L469,0"/> 
            <glyph glyph-name="8" unicode="&#x38;" horiz-adv-x="1065" d=" M584,1483 Q784,1483 901,1390 Q1018,1297 1018,1133 Q1018,1025 951,936 Q884,847 737,774 Q915,689 990,595.5 Q1065,502 1065,379 Q1065,197 938,88.5 Q811,-20 590,-20 Q356,-20 230,82.5 Q104,185 104,373 Q104,624 410,764 Q272,842 212,932.5 Q152,1023 152,1135 Q152,1294 269.5,1388.5 Q387,1483 584,1483 M268,369 Q268,249 351.5,182 Q435,115 586,115 Q735,115 818,185 Q901,255 901,377 Q901,474 823,549.5 Q745,625 551,696 Q402,632 335,554.5 Q268,477 268,369 M582,1348 Q457,1348 386,1288 Q315,1228 315,1128 Q315,1036 374,970 Q433,904 592,838 Q735,898 794.5,967 Q854,1036 854,1128 Q854,1229 781.5,1288.5 Q709,1348 582,1348"/> 
            <glyph glyph-name="9" unicode="&#x39;" horiz-adv-x="1061" d=" M1061,838 Q1061,-20 397,-20 Q281,-20 213,0 L213,143 Q293,117 395,117 Q635,117 757.5,265.5 Q880,414 891,721 L879,721 Q824,638 733,594.5 Q642,551 528,551 Q334,551 220,667 Q106,783 106,991 Q106,1219 233.5,1351 Q361,1483 569,1483 Q718,1483 829.5,1406.5 Q941,1330 1001,1183.5 Q1061,1037 1061,838 M569,1341 Q426,1341 348,1249 Q270,1157 270,993 Q270,849 342,766.5 Q414,684 561,684 Q652,684 728.5,721 Q805,758 849,822 Q893,886 893,956 Q893,1061 852,1150 Q811,1239 737.5,1290 Q664,1341 569,1341"/> 
            <glyph glyph-name=":" unicode="&#x3A;" horiz-adv-x="393" d=" M152,106 Q152,173 182.5,207.5 Q213,242 270,242 Q328,242 360.5,207.5 Q393,173 393,106 Q393,41 360,6 Q327,-29 270,-29 Q219,-29 185.5,2.5 Q152,34 152,106 M152,989 Q152,1124 270,1124 Q393,1124 393,989 Q393,924 360,889 Q327,854 270,854 Q219,854 185.5,885.5 Q152,917 152,989"/> 
            <glyph glyph-name=";" unicode="&#x3B;" horiz-adv-x="389" d=" M350,238 L365,215 Q339,115 290,-17.5 Q241,-150 188,-264 L63,-264 Q90,-160 122.5,-7 Q155,146 168,238 M147,989 Q147,1124 266,1124 Q389,1124 389,989 Q389,924 356,889 Q323,854 266,854 Q208,854 177.5,889 Q147,924 147,989"/> 
            <glyph glyph-name="&lt;" unicode="&#x3C;" horiz-adv-x="1065" d=" M1065,242 L104,664 L104,762 L1065,1241 L1065,1092 L283,721 L1065,393"/> 
            <glyph glyph-name="=" unicode="&#x3D;" horiz-adv-x="1049" d=" M119,858 L119,995 L1049,995 L1049,858 M119,449 L119,586 L1049,586 L1049,449"/> 
            <glyph glyph-name="&gt;" unicode="&#x3E;" horiz-adv-x="1065" d=" M104,393 L887,719 L104,1092 L104,1241 L1065,762 L1065,664 L104,242"/> 
            <glyph glyph-name="?" unicode="&#x3F;" horiz-adv-x="825" d=" M289,403 L289,457 Q289,574 325,649.5 Q361,725 459,809 Q595,924 630.5,982 Q666,1040 666,1122 Q666,1224 600.5,1279.5 Q535,1335 412,1335 Q333,1335 258,1316.5 Q183,1298 86,1249 L27,1384 Q216,1483 422,1483 Q613,1483 719,1389 Q825,1295 825,1124 Q825,1051 805.5,995.5 Q786,940 748,890.5 Q710,841 584,731 Q483,645 450.5,588 Q418,531 418,436 L418,403 M240,106 Q240,242 360,242 Q418,242 449.5,207 Q481,172 481,106 Q481,42 449,6.5 Q417,-29 360,-29 Q308,-29 274,2.5 Q240,34 240,106"/> 
            <glyph glyph-name="@" unicode="&#x40;" horiz-adv-x="1720" d=" M1720,729 Q1720,587 1676,469 Q1632,351 1552,286 Q1472,221 1368,221 Q1282,221 1223,273 Q1164,325 1153,406 L1145,406 Q1105,319 1030.5,270 Q956,221 854,221 Q704,221 619.5,323.5 Q535,426 535,602 Q535,806 653,933.5 Q771,1061 963,1061 Q1031,1061 1117,1048.5 Q1203,1036 1272,1014 L1247,544 L1247,522 Q1247,344 1380,344 Q1471,344 1528,451.5 Q1585,559 1585,731 Q1585,912 1511,1048 Q1437,1184 1300.5,1257.5 Q1164,1331 987,1331 Q764,1331 599,1238.5 Q434,1146 347,974.5 Q260,803 260,578 Q260,273 421,109 Q582,-55 885,-55 Q1095,-55 1321,31 L1321,-102 Q1129,-186 885,-186 Q522,-186 321.5,13.5 Q121,213 121,571 Q121,831 228,1034 Q335,1237 533,1348.5 Q731,1460 987,1460 Q1202,1460 1369.5,1369.5 Q1537,1279 1628.5,1112.5 Q1720,946 1720,729 M686,598 Q686,344 881,344 Q1088,344 1106,657 L1120,918 Q1048,938 963,938 Q833,938 759.5,848 Q686,758 686,598"/> 
            <glyph glyph-name="A" unicode="&#x41;" horiz-adv-x="1296" d=" M1120,0 L938,465 L352,465 L172,0 L0,0 L578,1468 L721,1468 L1296,0 M885,618 L715,1071 Q682,1157 647,1282 Q625,1186 584,1071 L412,618"/> 
            <glyph glyph-name="B" unicode="&#x42;" horiz-adv-x="1214" d=" M201,1462 L614,1462 Q905,1462 1035,1375 Q1165,1288 1165,1100 Q1165,970 1092.5,885.5 Q1020,801 881,776 L881,766 Q1214,709 1214,416 Q1214,220 1081.5,110 Q949,0 711,0 L201,0 M371,836 L651,836 Q831,836 910,892.5 Q989,949 989,1083 Q989,1206 901,1260.5 Q813,1315 621,1315 L371,1315 M371,692 L371,145 L676,145 Q853,145 942.5,213.5 Q1032,282 1032,428 Q1032,564 940.5,628 Q849,692 662,692"/> 
            <glyph glyph-name="C" unicode="&#x43;" horiz-adv-x="1231" d=" M827,1331 Q586,1331 446.5,1170.5 Q307,1010 307,731 Q307,444 441.5,287.5 Q576,131 825,131 Q978,131 1174,186 L1174,37 Q1022,-20 799,-20 Q476,-20 300.5,176 Q125,372 125,733 Q125,959 209.5,1129 Q294,1299 453.5,1391 Q613,1483 829,1483 Q1059,1483 1231,1399 L1159,1253 Q993,1331 827,1331"/> 
            <glyph glyph-name="D" unicode="&#x44;" horiz-adv-x="1368" d=" M1368,745 Q1368,383 1171.5,191.5 Q975,0 606,0 L201,0 L201,1462 L649,1462 Q990,1462 1179,1273 Q1368,1084 1368,745 M1188,739 Q1188,1025 1044.5,1170 Q901,1315 618,1315 L371,1315 L371,147 L578,147 Q882,147 1035,296.5 Q1188,446 1188,739"/> 
            <glyph glyph-name="E" unicode="&#x45;" horiz-adv-x="1016" d=" M1016,0 L201,0 L201,1462 L1016,1462 L1016,1311 L371,1311 L371,840 L977,840 L977,690 L371,690 L371,152 L1016,152"/> 
            <glyph glyph-name="F" unicode="&#x46;" horiz-adv-x="1016" d=" M371,0 L201,0 L201,1462 L1016,1462 L1016,1311 L371,1311 L371,776 L977,776 L977,625 L371,625"/> 
            <glyph glyph-name="G" unicode="&#x47;" horiz-adv-x="1341" d=" M844,766 L1341,766 L1341,55 Q1225,18 1105,-1 Q985,-20 827,-20 Q495,-20 310,177.5 Q125,375 125,731 Q125,959 216.5,1130.5 Q308,1302 480,1392.5 Q652,1483 883,1483 Q1117,1483 1319,1397 L1253,1247 Q1055,1331 872,1331 Q605,1331 455,1172 Q305,1013 305,731 Q305,435 449.5,282 Q594,129 874,129 Q1026,129 1171,164 L1171,614 L844,614"/> 
            <glyph glyph-name="H" unicode="&#x48;" horiz-adv-x="1311" d=" M1311,0 L1141,0 L1141,688 L371,688 L371,0 L201,0 L201,1462 L371,1462 L371,840 L1141,840 L1141,1462 L1311,1462"/> 
            <glyph glyph-name="I" unicode="&#x49;" horiz-adv-x="371" d=" M201,0 L201,1462 L371,1462 L371,0"/> 
            <glyph glyph-name="J" unicode="&#x4A;" horiz-adv-x="360" d=" M-12,-385 Q-106,-385 -160,-358 L-160,-213 Q-89,-233 -12,-233 Q87,-233 138.5,-173 Q190,-113 190,0 L190,1462 L360,1462 L360,14 Q360,-176 264,-280.5 Q168,-385 -12,-385"/> 
            <glyph glyph-name="K" unicode="&#x4B;" horiz-adv-x="1257" d=" M1257,0 L1057,0 L524,709 L371,573 L371,0 L201,0 L201,1462 L371,1462 L371,737 L1034,1462 L1235,1462 L647,827"/> 
            <glyph glyph-name="L" unicode="&#x4C;" horiz-adv-x="1016" d=" M201,0 L201,1462 L371,1462 L371,154 L1016,154 L1016,0"/> 
            <glyph glyph-name="M" unicode="&#x4D;" horiz-adv-x="1649" d=" M848,0 L352,1296 L344,1296 Q358,1142 358,930 L358,0 L201,0 L201,1462 L457,1462 L920,256 L928,256 L1395,1462 L1649,1462 L1649,0 L1479,0 L1479,942 Q1479,1104 1493,1294 L1485,1294 L985,0"/> 
            <glyph glyph-name="N" unicode="&#x4E;" horiz-adv-x="1343" d=" M1343,0 L1149,0 L350,1227 L342,1227 Q358,1011 358,831 L358,0 L201,0 L201,1462 L393,1462 L1190,240 L1198,240 Q1196,267 1189,413.5 Q1182,560 1184,623 L1184,1462 L1343,1462"/> 
            <glyph glyph-name="O" unicode="&#x4F;" horiz-adv-x="1470" d=" M1470,733 Q1470,382 1292.5,181 Q1115,-20 799,-20 Q476,-20 300.5,177.5 Q125,375 125,735 Q125,1092 301,1288.5 Q477,1485 801,1485 Q1116,1485 1293,1285 Q1470,1085 1470,733 M305,733 Q305,436 431.5,282.5 Q558,129 799,129 Q1042,129 1166,282 Q1290,435 1290,733 Q1290,1028 1166.5,1180.5 Q1043,1333 801,1333 Q558,1333 431.5,1179.5 Q305,1026 305,733"/> 
            <glyph glyph-name="P" unicode="&#x50;" horiz-adv-x="1128" d=" M1128,1036 Q1128,814 976.5,694.5 Q825,575 543,575 L371,575 L371,0 L201,0 L201,1462 L580,1462 Q1128,1462 1128,1036 M371,721 L524,721 Q750,721 851,794 Q952,867 952,1028 Q952,1173 857,1244 Q762,1315 561,1315 L371,1315"/> 
            <glyph glyph-name="Q" unicode="&#x51;" horiz-adv-x="1470" d=" M1470,733 Q1470,452 1357,266 Q1244,80 1038,14 L1386,-348 L1139,-348 L854,-18 L799,-20 Q476,-20 300.5,177.5 Q125,375 125,735 Q125,1092 301,1288.5 Q477,1485 801,1485 Q1116,1485 1293,1285 Q1470,1085 1470,733 M305,733 Q305,436 431.5,282.5 Q558,129 799,129 Q1042,129 1166,282 Q1290,435 1290,733 Q1290,1028 1166.5,1180.5 Q1043,1333 801,1333 Q558,1333 431.5,1179.5 Q305,1026 305,733"/> 
            <glyph glyph-name="R" unicode="&#x52;" horiz-adv-x="1231" d=" M371,608 L371,0 L201,0 L201,1462 L602,1462 Q871,1462 999.5,1359 Q1128,1256 1128,1049 Q1128,759 834,657 L1231,0 L1030,0 L676,608 M371,754 L604,754 Q784,754 868,825.5 Q952,897 952,1040 Q952,1185 866.5,1249 Q781,1313 592,1313 L371,1313"/> 
            <glyph glyph-name="S" unicode="&#x53;" horiz-adv-x="1026" d=" M1026,389 Q1026,196 886,88 Q746,-20 506,-20 Q246,-20 106,47 L106,211 Q196,173 302,151 Q408,129 512,129 Q682,129 768,193.5 Q854,258 854,373 Q854,449 823.5,497.5 Q793,546 721.5,587 Q650,628 504,680 Q300,753 212.5,853 Q125,953 125,1114 Q125,1283 252,1383 Q379,1483 588,1483 Q806,1483 989,1403 L936,1255 Q755,1331 584,1331 Q449,1331 373,1273 Q297,1215 297,1112 Q297,1036 325,987.5 Q353,939 419.5,898.5 Q486,858 623,809 Q853,727 939.5,633 Q1026,539 1026,389"/> 
            <glyph glyph-name="T" unicode="&#x54;" horiz-adv-x="1114" d=" M651,0 L481,0 L481,1311 L18,1311 L18,1462 L1114,1462 L1114,1311 L651,1311"/> 
            <glyph glyph-name="U" unicode="&#x55;" horiz-adv-x="1305" d=" M1305,1462 L1305,516 Q1305,266 1154,123 Q1003,-20 739,-20 Q475,-20 330.5,124 Q186,268 186,520 L186,1462 L356,1462 L356,508 Q356,325 456,227 Q556,129 750,129 Q935,129 1035,227.5 Q1135,326 1135,510 L1135,1462"/> 
            <glyph glyph-name="V" unicode="&#x56;" horiz-adv-x="1219" d=" M1036,1462 L1219,1462 L692,0 L524,0 L0,1462 L180,1462 L516,516 Q574,353 608,199 Q644,361 702,522"/> 
            <glyph glyph-name="W" unicode="&#x57;" horiz-adv-x="1868" d=" M1477,0 L1309,0 L1014,979 Q993,1044 967,1143 Q941,1242 940,1262 Q918,1130 870,973 L584,0 L416,0 L27,1462 L207,1462 L438,559 Q486,369 508,215 Q535,398 588,573 L850,1462 L1030,1462 L1305,565 Q1353,410 1386,215 Q1405,357 1458,561 L1688,1462 L1868,1462"/> 
            <glyph glyph-name="X" unicode="&#x58;" horiz-adv-x="1174" d=" M1174,0 L981,0 L588,643 L188,0 L8,0 L494,764 L41,1462 L229,1462 L592,883 L958,1462 L1139,1462 L686,770"/> 
            <glyph glyph-name="Y" unicode="&#x59;" horiz-adv-x="1147" d=" M573,731 L963,1462 L1147,1462 L659,567 L659,0 L487,0 L487,559 L0,1462 L186,1462"/> 
            <glyph glyph-name="Z" unicode="&#x5A;" horiz-adv-x="1087" d=" M1087,0 L82,0 L82,133 L858,1309 L106,1309 L106,1462 L1065,1462 L1065,1329 L289,154 L1087,154"/> 
            <glyph glyph-name="[" unicode="&#x5B;" horiz-adv-x="623" d=" M623,-324 L166,-324 L166,1462 L623,1462 L623,1321 L334,1321 L334,-182 L623,-182"/> 
            <glyph glyph-name="\" unicode="&#x5C;" horiz-adv-x="733" d=" M186,1462 L733,0 L567,0 L23,1462"/> 
            <glyph glyph-name="]" unicode="&#x5D;" horiz-adv-x="508" d=" M51,-182 L340,-182 L340,1321 L51,1321 L51,1462 L508,1462 L508,-324 L51,-324"/> 
            <glyph glyph-name="^" unicode="&#x5E;" horiz-adv-x="1059" d=" M49,551 L483,1473 L582,1473 L1059,551 L907,551 L535,1296 L201,551"/> 
            <glyph glyph-name="_" unicode="&#x5F;" horiz-adv-x="922" d=" M922,-315 L-4,-315 L-4,-184 L922,-184"/> 
            <glyph glyph-name="`" unicode="&#x60;" horiz-adv-x="786" d=" M786,1241 L676,1241 Q611,1293 522,1389 Q433,1485 393,1548 L393,1569 L596,1569 Q628,1500 685,1409.5 Q742,1319 786,1266"/> 
            <glyph glyph-name="a" unicode="&#x61;" horiz-adv-x="973" d=" M850,0 L817,156 L809,156 Q727,53 645.5,16.5 Q564,-20 442,-20 Q279,-20 186.5,64 Q94,148 94,303 Q94,635 625,651 L811,657 L811,725 Q811,854 755.5,915.5 Q700,977 578,977 Q441,977 268,893 L217,1020 Q298,1064 394.5,1089 Q491,1114 588,1114 Q784,1114 878.5,1027 Q973,940 973,748 L973,0 M475,117 Q630,117 718.5,202 Q807,287 807,440 L807,539 L641,532 Q443,525 355.5,470.5 Q268,416 268,301 Q268,211 322.5,164 Q377,117 475,117"/> 
            <glyph glyph-name="b" unicode="&#x62;" horiz-adv-x="1141" d=" M686,1114 Q902,1114 1021.5,966.5 Q1141,819 1141,549 Q1141,279 1020.5,129.5 Q900,-20 686,-20 Q579,-20 490.5,19.5 Q402,59 342,141 L330,141 L295,0 L176,0 L176,1556 L342,1556 L342,1178 Q342,1051 334,950 L342,950 Q458,1114 686,1114 M662,975 Q492,975 417,877.5 Q342,780 342,549 Q342,318 419,218.5 Q496,119 666,119 Q819,119 894,230.5 Q969,342 969,551 Q969,765 894,870 Q819,975 662,975"/> 
            <glyph glyph-name="c" unicode="&#x63;" horiz-adv-x="907" d=" M614,-20 Q376,-20 245.5,126.5 Q115,273 115,541 Q115,816 247.5,966 Q380,1116 625,1116 Q704,1116 783,1099 Q862,1082 907,1059 L856,918 Q801,940 736,954.5 Q671,969 621,969 Q287,969 287,543 Q287,341 368.5,233 Q450,125 610,125 Q747,125 891,184 L891,37 Q781,-20 614,-20"/> 
            <glyph glyph-name="d" unicode="&#x64;" horiz-adv-x="1079" d=" M922,147 L913,147 Q798,-20 569,-20 Q354,-20 234.5,127 Q115,274 115,545 Q115,816 235,966 Q355,1116 569,1116 Q792,1116 911,954 L924,954 L917,1033 L913,1110 L913,1556 L1079,1556 L1079,0 L944,0 M590,119 Q760,119 836.5,211.5 Q913,304 913,510 L913,545 Q913,778 835.5,877.5 Q758,977 588,977 Q442,977 364.5,863.5 Q287,750 287,543 Q287,333 364,226 Q441,119 590,119"/> 
            <glyph glyph-name="e" unicode="&#x65;" horiz-adv-x="1042" d=" M639,-20 Q396,-20 255.5,128 Q115,276 115,539 Q115,804 245.5,960 Q376,1116 596,1116 Q802,1116 922,980.5 Q1042,845 1042,623 L1042,518 L287,518 Q292,325 384.5,225 Q477,125 645,125 Q822,125 995,199 L995,51 Q907,13 828.5,-3.5 Q750,-20 639,-20 M594,977 Q462,977 383.5,891 Q305,805 291,653 L864,653 Q864,810 794,893.5 Q724,977 594,977"/> 
            <glyph glyph-name="f" unicode="&#x66;" horiz-adv-x="782" d=" M670,967 L391,967 L391,0 L225,0 L225,967 L29,967 L29,1042 L225,1102 L225,1163 Q225,1567 578,1567 Q665,1567 782,1532 L739,1399 Q643,1430 575,1430 Q481,1430 436,1367.5 Q391,1305 391,1167 L391,1096 L670,1096"/> 
            <glyph glyph-name="g" unicode="&#x67;" horiz-adv-x="1073" d=" M1073,1096 L1073,991 L870,967 Q898,932 920,875.5 Q942,819 942,748 Q942,587 832,491 Q722,395 530,395 Q481,395 438,403 Q332,347 332,262 Q332,217 369,195.5 Q406,174 496,174 L690,174 Q868,174 963.5,99 Q1059,24 1059,-119 Q1059,-301 913,-396.5 Q767,-492 487,-492 Q272,-492 155.5,-412 Q39,-332 39,-186 Q39,-86 103,-13 Q167,60 283,86 Q241,105 212.5,145 Q184,185 184,238 Q184,298 216,343 Q248,388 317,430 Q232,465 178.5,549 Q125,633 125,741 Q125,921 233,1018.5 Q341,1116 539,1116 Q625,1116 694,1096 M199,-184 Q199,-273 274,-319 Q349,-365 489,-365 Q698,-365 798.5,-302.5 Q899,-240 899,-133 Q899,-44 844,-9.5 Q789,25 637,25 L438,25 Q325,25 262,-29 Q199,-83 199,-184 M289,745 Q289,630 354,571 Q419,512 535,512 Q778,512 778,748 Q778,995 532,995 Q415,995 352,932 Q289,869 289,745"/> 
            <glyph glyph-name="h" unicode="&#x68;" horiz-adv-x="1092" d=" M926,0 L926,709 Q926,843 865,909 Q804,975 674,975 Q501,975 421.5,881 Q342,787 342,573 L342,0 L176,0 L176,1556 L342,1556 L342,1085 Q342,1000 334,944 L344,944 Q393,1023 483.5,1068.5 Q574,1114 690,1114 Q891,1114 991.5,1018.5 Q1092,923 1092,715 L1092,0"/> 
            <glyph glyph-name="i" unicode="&#x69;" horiz-adv-x="358" d=" M342,0 L176,0 L176,1096 L342,1096 M162,1393 Q162,1450 190,1476.5 Q218,1503 260,1503 Q300,1503 329,1476 Q358,1449 358,1393 Q358,1337 329,1309.5 Q300,1282 260,1282 Q218,1282 190,1309.5 Q162,1337 162,1393"/> 
            <glyph glyph-name="j" unicode="&#x6A;" horiz-adv-x="358" d=" M43,-492 Q-52,-492 -111,-467 L-111,-332 Q-42,-352 25,-352 Q103,-352 139.5,-309.5 Q176,-267 176,-180 L176,1096 L342,1096 L342,-168 Q342,-492 43,-492 M162,1393 Q162,1450 190,1476.5 Q218,1503 260,1503 Q300,1503 329,1476 Q358,1449 358,1393 Q358,1337 329,1309.5 Q300,1282 260,1282 Q218,1282 190,1309.5 Q162,1337 162,1393"/> 
            <glyph glyph-name="k" unicode="&#x6B;" horiz-adv-x="1053" d=" M340,561 Q383,622 471,721 L825,1096 L1022,1096 L578,629 L1053,0 L852,0 L465,518 L340,410 L340,0 L176,0 L176,1556 L340,1556 L340,731 Q340,676 332,561"/> 
            <glyph glyph-name="l" unicode="&#x6C;" horiz-adv-x="342" d=" M342,0 L176,0 L176,1556 L342,1556"/> 
            <glyph glyph-name="m" unicode="&#x6D;" horiz-adv-x="1739" d=" M1573,0 L1573,713 Q1573,844 1517,909.5 Q1461,975 1343,975 Q1188,975 1114,886 Q1040,797 1040,612 L1040,0 L874,0 L874,713 Q874,844 818,909.5 Q762,975 643,975 Q487,975 414.5,881.5 Q342,788 342,575 L342,0 L176,0 L176,1096 L311,1096 L338,946 L346,946 Q393,1026 478.5,1071 Q564,1116 670,1116 Q927,1116 1006,930 L1014,930 Q1063,1016 1156,1066 Q1249,1116 1368,1116 Q1554,1116 1646.5,1020.5 Q1739,925 1739,715 L1739,0"/> 
            <glyph glyph-name="n" unicode="&#x6E;" horiz-adv-x="1092" d=" M926,0 L926,709 Q926,843 865,909 Q804,975 674,975 Q502,975 422,882 Q342,789 342,575 L342,0 L176,0 L176,1096 L311,1096 L338,946 L346,946 Q397,1027 489,1071.5 Q581,1116 694,1116 Q892,1116 992,1020.5 Q1092,925 1092,715 L1092,0"/> 
            <glyph glyph-name="o" unicode="&#x6F;" horiz-adv-x="1122" d=" M1122,549 Q1122,281 987,130.5 Q852,-20 614,-20 Q467,-20 353,49 Q239,118 177,247 Q115,376 115,549 Q115,817 249,966.5 Q383,1116 621,1116 Q851,1116 986.5,963 Q1122,810 1122,549 M287,549 Q287,339 371,229 Q455,119 618,119 Q781,119 865.5,228.5 Q950,338 950,549 Q950,758 865.5,866.5 Q781,975 616,975 Q453,975 370,868 Q287,761 287,549"/> 
            <glyph glyph-name="p" unicode="&#x70;" horiz-adv-x="1141" d=" M686,-20 Q579,-20 490.5,19.5 Q402,59 342,141 L330,141 Q342,45 342,-41 L342,-492 L176,-492 L176,1096 L311,1096 L334,946 L342,946 Q406,1036 491,1076 Q576,1116 686,1116 Q904,1116 1022.5,967 Q1141,818 1141,549 Q1141,279 1020.5,129.5 Q900,-20 686,-20 M662,975 Q494,975 419,882 Q344,789 342,586 L342,549 Q342,318 419,218.5 Q496,119 666,119 Q808,119 888.5,234 Q969,349 969,551 Q969,756 888.5,865.5 Q808,975 662,975"/> 
            <glyph glyph-name="q" unicode="&#x71;" horiz-adv-x="1079" d=" M590,119 Q756,119 832,208 Q908,297 913,508 L913,545 Q913,775 835,876 Q757,977 588,977 Q442,977 364.5,863.5 Q287,750 287,543 Q287,336 363.5,227.5 Q440,119 590,119 M565,-20 Q353,-20 234,129 Q115,278 115,545 Q115,814 235,965 Q355,1116 569,1116 Q794,1116 915,946 L924,946 L948,1096 L1079,1096 L1079,-492 L913,-492 L913,-23 Q913,77 924,147 L911,147 Q796,-20 565,-20"/> 
            <glyph glyph-name="r" unicode="&#x72;" horiz-adv-x="807" d=" M676,1116 Q749,1116 807,1104 L784,950 Q716,965 664,965 Q531,965 436.5,857 Q342,749 342,588 L342,0 L176,0 L176,1096 L313,1096 L332,893 L340,893 Q401,1000 487,1058 Q573,1116 676,1116"/> 
            <glyph glyph-name="s" unicode="&#x73;" horiz-adv-x="883" d=" M883,299 Q883,146 769,63 Q655,-20 449,-20 Q231,-20 109,49 L109,203 Q188,163 278.5,140 Q369,117 453,117 Q583,117 653,158.5 Q723,200 723,285 Q723,349 667.5,394.5 Q612,440 451,502 Q298,559 233.5,601.5 Q169,644 137.5,698 Q106,752 106,827 Q106,961 215,1038.5 Q324,1116 514,1116 Q691,1116 860,1044 L801,909 Q636,977 502,977 Q384,977 324,940 Q264,903 264,838 Q264,794 286.5,763 Q309,732 359,704 Q409,676 551,623 Q746,552 814.5,480 Q883,408 883,299"/> 
            <glyph glyph-name="t" unicode="&#x74;" horiz-adv-x="680" d=" M530,117 Q574,117 615,123.5 Q656,130 680,137 L680,10 Q653,-3 600.5,-11.5 Q548,-20 506,-20 Q188,-20 188,315 L188,967 L31,967 L31,1047 L188,1116 L258,1350 L354,1350 L354,1096 L672,1096 L672,967 L354,967 L354,322 Q354,223 401,170 Q448,117 530,117"/> 
            <glyph glyph-name="u" unicode="&#x75;" horiz-adv-x="1081" d=" M332,1096 L332,385 Q332,251 393,185 Q454,119 584,119 Q756,119 835.5,213 Q915,307 915,520 L915,1096 L1081,1096 L1081,0 L944,0 L920,147 L911,147 Q860,66 769.5,23 Q679,-20 563,-20 Q363,-20 263.5,75 Q164,170 164,379 L164,1096"/> 
            <glyph glyph-name="v" unicode="&#x76;" horiz-adv-x="1026" d=" M416,0 L0,1096 L178,1096 L414,446 Q494,218 508,150 L516,150 Q527,203 585.5,369.5 Q644,536 848,1096 L1026,1096 L610,0"/> 
            <glyph glyph-name="w" unicode="&#x77;" horiz-adv-x="1571" d=" M1071,0 L870,643 Q851,702 799,911 L791,911 Q751,736 721,641 L514,0 L322,0 L23,1096 L197,1096 Q303,683 358.5,467 Q414,251 422,176 L430,176 Q441,233 465.5,323.5 Q490,414 508,467 L709,1096 L889,1096 L1085,467 Q1141,295 1161,178 L1169,178 Q1173,214 1190.5,289 Q1208,364 1399,1096 L1571,1096 L1268,0"/> 
            <glyph glyph-name="x" unicode="&#x78;" horiz-adv-x="1032" d=" M440,561 L59,1096 L248,1096 L537,676 L825,1096 L1012,1096 L631,561 L1032,0 L844,0 L537,444 L227,0 L39,0"/> 
            <glyph glyph-name="y" unicode="&#x79;" horiz-adv-x="1030" d=" M2,1096 L180,1096 L420,471 Q499,257 518,162 L526,162 Q539,213 580.5,336.5 Q622,460 852,1096 L1030,1096 L559,-152 Q489,-337 395.5,-414.5 Q302,-492 166,-492 Q90,-492 16,-475 L16,-342 Q71,-354 139,-354 Q310,-354 383,-162 L444,-6"/> 
            <glyph glyph-name="z" unicode="&#x7A;" horiz-adv-x="877" d=" M877,0 L82,0 L82,113 L680,967 L119,967 L119,1096 L862,1096 L862,967 L272,129 L877,129"/> 
            <glyph glyph-name="{" unicode="&#x7B;" horiz-adv-x="705" d=" M475,12 Q475,-90 533.5,-136 Q592,-182 705,-184 L705,-324 Q515,-322 411,-237 Q307,-152 307,2 L307,305 Q307,409 244,453.5 Q181,498 61,498 L61,639 Q191,641 249,687 Q307,733 307,829 L307,1135 Q307,1290 415,1376 Q523,1462 705,1462 L705,1323 Q475,1317 475,1124 L475,829 Q475,614 252,575 L252,563 Q475,524 475,309"/> 
            <glyph glyph-name="|" unicode="&#x7C;" horiz-adv-x="635" d=" M494,1556 L635,1556 L635,-496 L494,-496"/> 
            <glyph glyph-name="}" unicode="&#x7D;" horiz-adv-x="715" d=" M522,575 Q299,614 299,829 L299,1124 Q299,1317 72,1323 L72,1462 Q256,1462 361.5,1375 Q467,1288 467,1135 L467,829 Q467,732 526,686.5 Q585,641 715,639 L715,498 Q593,498 530,453.5 Q467,409 467,305 L467,2 Q467,-151 364.5,-236.5 Q262,-322 72,-324 L72,-184 Q183,-182 241,-136 Q299,-90 299,12 L299,309 Q299,423 354,483 Q409,543 522,563"/> 
            <glyph glyph-name="~" unicode="&#x7E;" horiz-adv-x="1065" d=" M338,713 Q285,713 221.5,679.5 Q158,646 104,592 L104,743 Q204,852 348,852 Q416,852 472.5,838 Q529,824 618,786 Q684,758 733,744.5 Q782,731 829,731 Q883,731 947,763 Q1011,795 1065,852 L1065,702 Q963,592 821,592 Q749,592 686,608.5 Q623,625 551,657 Q476,689 431,701 Q386,713 338,713"/> 
            <glyph glyph-name="¡" unicode="&#xA1;" horiz-adv-x="393" d=" M219,684 L324,684 L375,-373 L168,-373 M393,983 Q393,848 272,848 Q212,848 182,883.5 Q152,919 152,983 Q152,1046 183.5,1082 Q215,1118 272,1118 Q323,1118 358,1086 Q393,1054 393,983"/> 
            <glyph glyph-name="¢" unicode="&#xA2;" horiz-adv-x="987" d=" M971,240 Q866,186 719,180 L719,-20 L586,-20 L586,186 Q383,218 286.5,354.5 Q190,491 190,741 Q190,1249 586,1311 L586,1483 L721,1483 L721,1319 Q796,1316 867,1299.5 Q938,1283 987,1260 L938,1120 Q805,1171 696,1171 Q524,1171 443,1065.5 Q362,960 362,743 Q362,531 441.5,429.5 Q521,328 688,328 Q829,328 971,387"/> 
            <glyph glyph-name="£" unicode="&#xA3;" horiz-adv-x="1092" d=" M682,1481 Q872,1481 1042,1397 L981,1264 Q827,1341 684,1341 Q561,1341 498.5,1279 Q436,1217 436,1077 L436,782 L858,782 L858,655 L436,655 L436,434 Q436,334 403.5,266 Q371,198 297,154 L1092,154 L1092,0 L63,0 L63,141 Q268,188 268,432 L268,655 L70,655 L70,782 L268,782 L268,1098 Q268,1276 380,1378.5 Q492,1481 682,1481"/> 
            <glyph glyph-name="¤" unicode="&#xA4;" horiz-adv-x="1047" d=" M184,723 Q184,845 258,952 L123,1092 L217,1184 L352,1051 Q456,1124 586,1124 Q713,1124 815,1051 L952,1184 L1047,1092 L913,954 Q987,841 987,723 Q987,592 913,489 L1044,354 L952,262 L815,395 Q713,324 586,324 Q452,324 352,397 L217,264 L125,356 L258,492 Q184,599 184,723 M313,723 Q313,611 391.5,531 Q470,451 586,451 Q702,451 781,530.5 Q860,610 860,723 Q860,837 780,918 Q700,999 586,999 Q470,999 391.5,917 Q313,835 313,723"/> 
            <glyph glyph-name="¥" unicode="&#xA5;" horiz-adv-x="1137" d=" M584,735 L963,1462 L1137,1462 L721,692 L983,692 L983,565 L666,565 L666,395 L983,395 L983,268 L666,268 L666,0 L502,0 L502,268 L186,268 L186,395 L502,395 L502,565 L186,565 L186,692 L442,692 L31,1462 L209,1462"/> 
            <glyph glyph-name="¦" unicode="&#xA6;" horiz-adv-x="635" d=" M494,1556 L635,1556 L635,780 L494,780 M494,281 L635,281 L635,-496 L494,-496"/> 
            <glyph glyph-name="§" unicode="&#xA7;" horiz-adv-x="918" d=" M139,809 Q139,895 182,963.5 Q225,1032 303,1069 Q229,1109 187,1164.5 Q145,1220 145,1305 Q145,1426 248.5,1495.5 Q352,1565 549,1565 Q643,1565 722.5,1550.5 Q802,1536 899,1497 L846,1366 Q748,1405 680.5,1418.5 Q613,1432 537,1432 Q421,1432 363,1402.5 Q305,1373 305,1309 Q305,1249 366.5,1207 Q428,1165 582,1110 Q768,1042 843,966.5 Q918,891 918,784 Q918,694 877,623.5 Q836,553 762,512 Q915,431 915,285 Q915,145 798,68.5 Q681,-8 469,-8 Q251,-8 123,57 L123,205 Q201,168 298,145.5 Q395,123 477,123 Q611,123 681.5,161 Q752,199 752,270 Q752,316 728,345 Q704,374 650,403 Q596,432 481,475 Q339,527 272,572 Q205,617 172,674 Q139,731 139,809 M285,829 Q285,752 351,699.5 Q417,647 584,586 L633,567 Q770,647 770,758 Q770,841 696.5,897 Q623,953 438,1010 Q370,991 327.5,941 Q285,891 285,829"/> 
            <glyph glyph-name="¨" unicode="&#xA8;" horiz-adv-x="872" d=" M309,1393 Q309,1445 335.5,1468 Q362,1491 399,1491 Q437,1491 464.5,1468 Q492,1445 492,1393 Q492,1343 464.5,1318.5 Q437,1294 399,1294 Q362,1294 335.5,1318.5 Q309,1343 309,1393 M690,1393 Q690,1445 716.5,1468 Q743,1491 780,1491 Q817,1491 844.5,1468 Q872,1445 872,1393 Q872,1343 844.5,1318.5 Q817,1294 780,1294 Q743,1294 716.5,1318.5 Q690,1343 690,1393"/> 
            <glyph glyph-name="©" unicode="&#xA9;" horiz-adv-x="1604" d=" M893,1059 Q768,1059 700.5,972 Q633,885 633,731 Q633,563 696.5,482 Q760,401 891,401 Q977,401 1102,446 L1102,322 Q1054,302 1003.5,288 Q953,274 883,274 Q689,274 585,394.5 Q481,515 481,731 Q481,940 591.5,1063 Q702,1186 893,1186 Q1021,1186 1139,1126 L1081,1008 Q973,1059 893,1059 M100,731 Q100,931 200,1106 Q300,1281 475,1382 Q650,1483 852,1483 Q1052,1483 1227,1383 Q1402,1283 1503,1108 Q1604,933 1604,731 Q1604,534 1507,361 Q1410,188 1235,84 Q1060,-20 852,-20 Q645,-20 470,83.5 Q295,187 197.5,360 Q100,533 100,731 M205,731 Q205,558 292,407.5 Q379,257 529.5,170.5 Q680,84 852,84 Q1026,84 1175,171 Q1324,258 1411.5,406.5 Q1499,555 1499,731 Q1499,905 1412,1054 Q1325,1203 1176.5,1290.5 Q1028,1378 852,1378 Q678,1378 529,1291 Q380,1204 292.5,1055.5 Q205,907 205,731"/> 
            <glyph glyph-name="ª" unicode="&#xAA;" horiz-adv-x="625" d=" M532,801 L508,885 Q416,788 276,788 Q181,788 125.5,837.5 Q70,887 70,989 Q70,1091 147,1143.5 Q224,1196 389,1202 L506,1206 L506,1245 Q506,1378 358,1378 Q258,1378 154,1327 L111,1423 Q225,1479 358,1479 Q488,1479 556.5,1426.5 Q625,1374 625,1253 L625,801 M193,989 Q193,889 305,889 Q506,889 506,1069 L506,1118 L408,1114 Q296,1110 244.5,1081.5 Q193,1053 193,989"/> 
            <glyph glyph-name="«" unicode="&#xAB;" horiz-adv-x="938" d=" M82,551 L424,958 L543,889 L254,539 L543,188 L424,117 L82,524 M477,551 L821,958 L938,889 L651,539 L938,188 L821,117 L477,524"/> 
            <glyph glyph-name="¬" unicode="&#xAC;" horiz-adv-x="1065" d=" M1065,791 L1065,264 L928,264 L928,653 L104,653 L104,791"/> 
            <glyph glyph-name="­" unicode="&#xAD;" horiz-adv-x="575" d=" M84,473 L84,625 L575,625 L575,473"/> 
            <glyph glyph-name="®" unicode="&#xAE;" horiz-adv-x="1604" d=" M723,762 L831,762 Q911,762 959.5,803.5 Q1008,845 1008,909 Q1008,984 965,1016.5 Q922,1049 829,1049 L723,1049 M1157,913 Q1157,833 1114.5,771.5 Q1072,710 995,680 L1233,285 L1065,285 L858,639 L723,639 L723,285 L575,285 L575,1176 L836,1176 Q1002,1176 1079.5,1111 Q1157,1046 1157,913 M100,731 Q100,931 200,1106 Q300,1281 475,1382 Q650,1483 852,1483 Q1052,1483 1227,1383 Q1402,1283 1503,1108 Q1604,933 1604,731 Q1604,534 1507,361 Q1410,188 1235,84 Q1060,-20 852,-20 Q645,-20 470,83.5 Q295,187 197.5,360 Q100,533 100,731 M205,731 Q205,558 292,407.5 Q379,257 529.5,170.5 Q680,84 852,84 Q1026,84 1175,171 Q1324,258 1411.5,406.5 Q1499,555 1499,731 Q1499,905 1412,1054 Q1325,1203 1176.5,1290.5 Q1028,1378 852,1378 Q678,1378 529,1291 Q380,1204 292.5,1055.5 Q205,907 205,731"/> 
            <glyph glyph-name="¯" unicode="&#xAF;" horiz-adv-x="1030" d=" M1030,1556 L-6,1556 L-6,1683 L1030,1683"/> 
            <glyph glyph-name="°" unicode="&#xB0;" horiz-adv-x="750" d=" M127,1171 Q127,1301 217.5,1392 Q308,1483 438,1483 Q568,1483 659,1392.5 Q750,1302 750,1171 Q750,1087 709,1015.5 Q668,944 595,902 Q522,860 438,860 Q308,860 217.5,950 Q127,1040 127,1171 M242,1171 Q242,1089 300.5,1032 Q359,975 440,975 Q520,975 577.5,1031.5 Q635,1088 635,1171 Q635,1255 578.5,1311.5 Q522,1368 440,1368 Q357,1368 299.5,1311 Q242,1254 242,1171"/> 
            <glyph glyph-name="±" unicode="&#xB1;" horiz-adv-x="1065" d=" M653,791 L1065,791 L1065,653 L653,653 L653,227 L514,227 L514,653 L104,653 L104,791 L514,791 L514,1219 L653,1219 M104,65537 L104,65675 L1065,65675 L1065,65537"/> 
            <glyph glyph-name="²" unicode="&#xB2;" horiz-adv-x="653" d=" M653,586 L49,586 L49,690 L285,920 Q374,1006 415,1054.5 Q456,1103 472.5,1141 Q489,1179 489,1233 Q489,1301 449,1335.5 Q409,1370 346,1370 Q294,1370 245,1351 Q196,1332 127,1282 L61,1370 Q192,1481 344,1481 Q476,1481 549.5,1416 Q623,1351 623,1239 Q623,1159 578.5,1083.5 Q534,1008 387,870 L213,705 L653,705"/> 
            <glyph glyph-name="³" unicode="&#xB3;" horiz-adv-x="653" d=" M627,1255 Q627,1175 586,1123.5 Q545,1072 477,1049 Q653,1002 653,840 Q653,712 561,640.5 Q469,569 301,569 Q149,569 33,625 L33,748 Q180,680 303,680 Q514,680 514,842 Q514,987 283,987 L166,987 L166,1094 L285,1094 Q388,1094 437.5,1133.5 Q487,1173 487,1241 Q487,1302 447,1336 Q407,1370 340,1370 Q274,1370 218,1348.5 Q162,1327 106,1292 L37,1382 Q100,1427 170,1454 Q240,1481 334,1481 Q470,1481 548.5,1421.5 Q627,1362 627,1255"/> 
            <glyph glyph-name="´" unicode="&#xB4;" horiz-adv-x="786" d=" M393,1266 Q441,1328 496.5,1416 Q552,1504 584,1569 L786,1569 L786,1548 Q742,1483 655,1388 Q568,1293 504,1241 L393,1241"/> 
            <glyph glyph-name="µ" unicode="&#xB5;" horiz-adv-x="1092" d=" M342,381 Q342,119 596,119 Q767,119 846.5,213.5 Q926,308 926,520 L926,1096 L1092,1096 L1092,0 L956,0 L930,147 L920,147 Q809,-20 580,-20 Q430,-20 342,72 L332,72 Q342,-12 342,-172 L342,-492 L176,-492 L176,1096 L342,1096"/> 
            <glyph glyph-name="¶" unicode="&#xB6;" horiz-adv-x="1120" d=" M1120,-260 L1006,-260 L1006,1452 L793,1452 L793,-260 L678,-260 L678,559 Q616,541 532,541 Q316,541 214.5,666 Q113,791 113,1042 Q113,1302 222,1429 Q331,1556 563,1556 L1120,1556"/> 
            <glyph glyph-name="·" unicode="&#xB7;" horiz-adv-x="393" d=" M152,723 Q152,789 183,823.5 Q214,858 270,858 Q328,858 360.5,823.5 Q393,789 393,723 Q393,658 360,623 Q327,588 270,588 Q219,588 185.5,619.5 Q152,651 152,723"/> 
            <glyph glyph-name="¸" unicode="&#xB8;" horiz-adv-x="436" d=" M436,-289 Q436,-386 359.5,-439 Q283,-492 133,-492 Q82,-492 37,-483 L37,-377 Q82,-385 141,-385 Q220,-385 260.5,-365 Q301,-345 301,-291 Q301,-248 261.5,-221.5 Q222,-195 113,-178 L201,0 L311,0 L256,-115 Q436,-154 436,-289"/> 
            <glyph glyph-name="¹" unicode="&#xB9;" horiz-adv-x="481" d=" M338,1462 L481,1462 L481,586 L348,586 L348,1165 Q348,1256 354,1346 Q332,1324 305,1301.5 Q278,1279 143,1184 L76,1280"/> 
            <glyph glyph-name="º" unicode="&#xBA;" horiz-adv-x="702" d=" M702,1135 Q702,971 616.5,879.5 Q531,788 381,788 Q235,788 150.5,881 Q66,974 66,1135 Q66,1298 150,1388.5 Q234,1479 385,1479 Q537,1479 619.5,1388 Q702,1297 702,1135 M188,1135 Q188,1013 233.5,952 Q279,891 383,891 Q488,891 534,952 Q580,1013 580,1135 Q580,1258 534,1317 Q488,1376 383,1376 Q280,1376 234,1317 Q188,1258 188,1135"/> 
            <glyph glyph-name="»" unicode="&#xBB;" horiz-adv-x="936" d=" M936,524 L592,117 L475,188 L762,539 L475,889 L592,958 L936,551 M541,524 L197,117 L80,188 L367,539 L80,889 L197,958 L541,551"/> 
            <glyph glyph-name="¼" unicode="&#xBC;" horiz-adv-x="1489" d=" M1298,1462 L395,0 L252,0 L1155,1462 M593,1462 L736,1462 L736,586 L603,586 L603,1165 Q603,1256 609,1346 Q587,1324 560,1301.5 Q533,1279 398,1184 L331,1280 M1489,65739 L1364,65739 L1364,65537 L1219,65537 L1219,65739 L817,65739 L817,65840 L1225,66419 L1364,66419 L1364,65856 L1489,65856 M1219,65856 L1219,66051 Q1219,66185 1225,66260 Q1220,66248 1208,66228.5 Q1196,66209 1181,66186.5 Q1166,66164 1151,66141.5 Q1136,66119 1125,66102 L957,65856"/> 
            <glyph glyph-name="½" unicode="&#xBD;" horiz-adv-x="1499" d=" M1230,1462 L327,0 L184,0 L1087,1462 M564,1462 L707,1462 L707,586 L574,586 L574,1165 Q574,1256 580,1346 Q558,1324 531,1301.5 Q504,1279 369,1184 L302,1280 M1499,65537 L895,65537 L895,65641 L1131,65871 Q1220,65957 1261,66005.5 Q1302,66054 1318.5,66092 Q1335,66130 1335,66184 Q1335,66252 1295,66286.5 Q1255,66321 1192,66321 Q1140,66321 1091,66302 Q1042,66283 973,66233 L907,66321 Q1038,66432 1190,66432 Q1322,66432 1395.5,66367 Q1469,66302 1469,66190 Q1469,66110 1424.5,66034.5 Q1380,65959 1233,65821 L1059,65656 L1499,65656"/> 
            <glyph glyph-name="¾" unicode="&#xBE;" horiz-adv-x="1569" d=" M876,1255 Q876,1175 835,1123.5 Q794,1072 726,1049 Q902,1002 902,840 Q902,712 810,640.5 Q718,569 550,569 Q398,569 282,625 L282,748 Q429,680 552,680 Q763,680 763,842 Q763,987 532,987 L415,987 L415,1094 L534,1094 Q637,1094 686.5,1133.5 Q736,1173 736,1241 Q736,1302 696,1336 Q656,1370 589,1370 Q523,1370 467,1348.5 Q411,1327 355,1292 L286,1382 Q349,1427 419,1454 Q489,1481 583,1481 Q719,1481 797.5,1421.5 Q876,1362 876,1255 M1390,1462 L487,0 L344,0 L1247,1462 M1569,65739 L1444,65739 L1444,65537 L1299,65537 L1299,65739 L897,65739 L897,65840 L1305,66419 L1444,66419 L1444,65856 L1569,65856 M1299,65856 L1299,66051 Q1299,66185 1305,66260 Q1300,66248 1288,66228.5 Q1276,66209 1261,66186.5 Q1246,66164 1231,66141.5 Q1216,66119 1205,66102 L1037,65856"/> 
            <glyph glyph-name="¿" unicode="&#xBF;" horiz-adv-x="852" d=" M590,684 L590,633 Q590,511 552.5,437 Q515,363 418,279 Q297,173 266.5,135.5 Q236,98 223.5,59.5 Q211,21 211,-35 Q211,-135 277,-191.5 Q343,-248 465,-248 Q545,-248 620,-229 Q695,-210 793,-162 L852,-297 Q655,-393 457,-393 Q267,-393 159,-300 Q51,-207 51,-37 Q51,33 68.5,85.5 Q86,138 118,182.5 Q150,227 194.5,268 Q239,309 293,356 Q394,444 426.5,502 Q459,560 459,653 L459,684 M639,983 Q639,848 518,848 Q459,848 428,882.5 Q397,917 397,983 Q397,1047 430,1082.5 Q463,1118 518,1118 Q569,1118 604,1086 Q639,1054 639,983"/> 
            <glyph glyph-name="À" unicode="&#xC0;" horiz-adv-x="1296" d=" M1120,0 L938,465 L352,465 L172,0 L0,0 L578,1468 L721,1468 L1296,0 M885,618 L715,1071 Q682,1157 647,1282 Q625,1186 584,1071 L412,618 M66260,1579 L66150,1579 Q66085,1631 65996,1727 Q65907,1823 65867,1886 L65867,1907 L66070,1907 Q66102,1838 66159,1747.5 Q66216,1657 66260,1604"/> 
            <glyph glyph-name="Á" unicode="&#xC1;" horiz-adv-x="1296" d=" M1120,0 L938,465 L352,465 L172,0 L0,0 L578,1468 L721,1468 L1296,0 M885,618 L715,1071 Q682,1157 647,1282 Q625,1186 584,1071 L412,618 M526,1604 Q574,1666 629.5,1754 Q685,1842 717,1907 L919,1907 L919,1886 Q875,1821 788,1726 Q701,1631 637,1579 L526,1579"/> 
            <glyph glyph-name="Â" unicode="&#xC2;" horiz-adv-x="1296" d=" M1120,0 L938,465 L352,465 L172,0 L0,0 L578,1468 L721,1468 L1296,0 M885,618 L715,1071 Q682,1157 647,1282 Q625,1186 584,1071 L412,618 M303,1602 Q430,1738 481,1802 Q532,1866 555,1907 L721,1907 Q743,1865 797.5,1798.5 Q852,1732 977,1602 L977,1579 L858,1579 Q770,1634 637,1765 Q501,1631 418,1579 L303,1579"/> 
            <glyph glyph-name="Ã" unicode="&#xC3;" horiz-adv-x="1296" d=" M1120,0 L938,465 L352,465 L172,0 L0,0 L578,1468 L721,1468 L1296,0 M885,618 L715,1071 Q682,1157 647,1282 Q625,1186 584,1071 L412,618 M792,1581 Q749,1581 708,1599.5 Q667,1618 627.5,1640.5 Q588,1663 551.5,1681.5 Q515,1700 481,1700 Q431,1700 405.5,1670 Q380,1640 366,1579 L268,1579 Q281,1700 338.5,1768.5 Q396,1837 487,1837 Q533,1837 576,1818.5 Q619,1800 658,1777.5 Q697,1755 733,1736.5 Q769,1718 801,1718 Q850,1718 874,1747.5 Q898,1777 913,1839 L1012,1839 Q999,1718 942.5,1649.5 Q886,1581 792,1581"/> 
            <glyph glyph-name="Ä" unicode="&#xC4;" horiz-adv-x="1296" d=" M1120,0 L938,465 L352,465 L172,0 L0,0 L578,1468 L721,1468 L1296,0 M885,618 L715,1071 Q682,1157 647,1282 Q625,1186 584,1071 L412,618 M364,1731 Q364,1783 390.5,1806 Q417,1829 454,1829 Q492,1829 519.5,1806 Q547,1783 547,1731 Q547,1681 519.5,1656.5 Q492,1632 454,1632 Q417,1632 390.5,1656.5 Q364,1681 364,1731 M745,1731 Q745,1783 771.5,1806 Q798,1829 835,1829 Q872,1829 899.5,1806 Q927,1783 927,1731 Q927,1681 899.5,1656.5 Q872,1632 835,1632 Q798,1632 771.5,1656.5 Q745,1681 745,1731"/> 
            <glyph glyph-name="Å" unicode="&#xC5;" horiz-adv-x="1296" d=" M1120,0 L938,465 L352,465 L172,0 L0,0 L578,1468 L721,1468 L1296,0 M885,618 L715,1071 Q682,1157 647,1282 Q625,1186 584,1071 L412,618 M870,1587 Q870,1489 808.5,1429.5 Q747,1370 645,1370 Q544,1370 484,1428.5 Q424,1487 424,1585 Q424,1683 484.5,1740.5 Q545,1798 645,1798 Q746,1798 808,1738.5 Q870,1679 870,1587 M762,1585 Q762,1641 729,1671.5 Q696,1702 645,1702 Q594,1702 561,1671.5 Q528,1641 528,1585 Q528,1529 558,1498.5 Q588,1468 645,1468 Q697,1468 729.5,1498.5 Q762,1529 762,1585"/> 
            <glyph glyph-name="Æ" unicode="&#xC6;" horiz-adv-x="1665" d=" M1665,0 L915,0 L915,465 L401,465 L174,0 L-2,0 L696,1462 L1665,1462 L1665,1311 L1085,1311 L1085,840 L1626,840 L1626,690 L1085,690 L1085,152 L1665,152 M469,618 L915,618 L915,1311 L797,1311"/> 
            <glyph glyph-name="Ç" unicode="&#xC7;" horiz-adv-x="1231" d=" M827,1331 Q586,1331 446.5,1170.5 Q307,1010 307,731 Q307,444 441.5,287.5 Q576,131 825,131 Q978,131 1174,186 L1174,37 Q1022,-20 799,-20 Q476,-20 300.5,176 Q125,372 125,733 Q125,959 209.5,1129 Q294,1299 453.5,1391 Q613,1483 829,1483 Q1059,1483 1231,1399 L1159,1253 Q993,1331 827,1331 M950,-289 Q950,-386 873.5,-439 Q797,-492 647,-492 Q596,-492 551,-483 L551,-377 Q596,-385 655,-385 Q734,-385 774.5,-365 Q815,-345 815,-291 Q815,-248 775.5,-221.5 Q736,-195 627,-178 L715,0 L825,0 L770,-115 Q950,-154 950,-289"/> 
            <glyph glyph-name="È" unicode="&#xC8;" horiz-adv-x="1016" d=" M1016,0 L201,0 L201,1462 L1016,1462 L1016,1311 L371,1311 L371,840 L977,840 L977,690 L371,690 L371,152 L1016,152 M66249,1579 L66139,1579 Q66074,1631 65985,1727 Q65896,1823 65856,1886 L65856,1907 L66059,1907 Q66091,1838 66148,1747.5 Q66205,1657 66249,1604"/> 
            <glyph glyph-name="É" unicode="&#xC9;" horiz-adv-x="1016" d=" M1016,0 L201,0 L201,1462 L1016,1462 L1016,1311 L371,1311 L371,840 L977,840 L977,690 L371,690 L371,152 L1016,152 M456,1604 Q504,1666 559.5,1754 Q615,1842 647,1907 L849,1907 L849,1886 Q805,1821 718,1726 Q631,1631 567,1579 L456,1579"/> 
            <glyph glyph-name="Ê" unicode="&#xCA;" horiz-adv-x="1016" d=" M1016,0 L201,0 L201,1462 L1016,1462 L1016,1311 L371,1311 L371,840 L977,840 L977,690 L371,690 L371,152 L1016,152 M65799,1602 Q65926,1738 65977,1802 Q66028,1866 66051,1907 L66217,1907 Q66239,1865 66293.5,1798.5 Q66348,1732 66473,1602 L66473,1579 L66354,1579 Q66266,1634 66133,1765 Q65997,1631 65914,1579 L65799,1579"/> 
            <glyph glyph-name="Ë" unicode="&#xCB;" horiz-adv-x="1016" d=" M1016,0 L201,0 L201,1462 L1016,1462 L1016,1311 L371,1311 L371,840 L977,840 L977,690 L371,690 L371,152 L1016,152 M327,1731 Q327,1783 353.5,1806 Q380,1829 417,1829 Q455,1829 482.5,1806 Q510,1783 510,1731 Q510,1681 482.5,1656.5 Q455,1632 417,1632 Q380,1632 353.5,1656.5 Q327,1681 327,1731 M708,1731 Q708,1783 734.5,1806 Q761,1829 798,1829 Q835,1829 862.5,1806 Q890,1783 890,1731 Q890,1681 862.5,1656.5 Q835,1632 798,1632 Q761,1632 734.5,1656.5 Q708,1681 708,1731"/> 
            <glyph glyph-name="Ì" unicode="&#xCC;" horiz-adv-x="398" d=" M201,0 L201,1462 L371,1462 L371,0 M65934,1579 L65824,1579 Q65759,1631 65670,1727 Q65581,1823 65541,1886 L65541,1907 L65744,1907 Q65776,1838 65833,1747.5 Q65890,1657 65934,1604"/> 
            <glyph glyph-name="Í" unicode="&#xCD;" horiz-adv-x="572" d=" M201,0 L201,1462 L371,1462 L371,0 M65715,1604 Q65763,1666 65818.5,1754 Q65874,1842 65906,1907 L66108,1907 L66108,1886 Q66064,1821 65977,1726 Q65890,1631 65826,1579 L65715,1579"/> 
            <glyph glyph-name="Î" unicode="&#xCE;" horiz-adv-x="617" d=" M201,0 L201,1462 L371,1462 L371,0 M65479,1602 Q65606,1738 65657,1802 Q65708,1866 65731,1907 L65897,1907 Q65919,1865 65973.5,1798.5 Q66028,1732 66153,1602 L66153,1579 L66034,1579 Q65946,1634 65813,1765 Q65677,1631 65594,1579 L65479,1579"/> 
            <glyph glyph-name="Ï" unicode="&#xCF;" horiz-adv-x="568" d=" M201,0 L201,1462 L371,1462 L371,0 M65541,1731 Q65541,1783 65567.5,1806 Q65594,1829 65631,1829 Q65669,1829 65696.5,1806 Q65724,1783 65724,1731 Q65724,1681 65696.5,1656.5 Q65669,1632 65631,1632 Q65594,1632 65567.5,1656.5 Q65541,1681 65541,1731 M65922,1731 Q65922,1783 65948.5,1806 Q65975,1829 66012,1829 Q66049,1829 66076.5,1806 Q66104,1783 66104,1731 Q66104,1681 66076.5,1656.5 Q66049,1632 66012,1632 Q65975,1632 65948.5,1656.5 Q65922,1681 65922,1731"/> 
            <glyph glyph-name="Ð" unicode="&#xD0;" horiz-adv-x="1352" d=" M1352,745 Q1352,383 1155.5,191.5 Q959,0 590,0 L201,0 L201,649 L47,649 L47,799 L201,799 L201,1462 L635,1462 Q972,1462 1162,1274.5 Q1352,1087 1352,745 M1171,739 Q1171,1315 602,1315 L371,1315 L371,799 L750,799 L750,649 L371,649 L371,147 L561,147 Q1171,147 1171,739"/> 
            <glyph glyph-name="Ñ" unicode="&#xD1;" horiz-adv-x="1343" d=" M1343,0 L1149,0 L350,1227 L342,1227 Q358,1011 358,831 L358,0 L201,0 L201,1462 L393,1462 L1190,240 L1198,240 Q1196,267 1189,413.5 Q1182,560 1184,623 L1184,1462 L1343,1462 M935,1581 Q892,1581 851,1599.5 Q810,1618 770.5,1640.5 Q731,1663 694.5,1681.5 Q658,1700 624,1700 Q574,1700 548.5,1670 Q523,1640 509,1579 L411,1579 Q424,1700 481.5,1768.5 Q539,1837 630,1837 Q676,1837 719,1818.5 Q762,1800 801,1777.5 Q840,1755 876,1736.5 Q912,1718 944,1718 Q993,1718 1017,1747.5 Q1041,1777 1056,1839 L1155,1839 Q1142,1718 1085.5,1649.5 Q1029,1581 935,1581"/> 
            <glyph glyph-name="Ò" unicode="&#xD2;" horiz-adv-x="1470" d=" M1470,733 Q1470,382 1292.5,181 Q1115,-20 799,-20 Q476,-20 300.5,177.5 Q125,375 125,735 Q125,1092 301,1288.5 Q477,1485 801,1485 Q1116,1485 1293,1285 Q1470,1085 1470,733 M305,733 Q305,436 431.5,282.5 Q558,129 799,129 Q1042,129 1166,282 Q1290,435 1290,733 Q1290,1028 1166.5,1180.5 Q1043,1333 801,1333 Q558,1333 431.5,1179.5 Q305,1026 305,733 M907,1579 L797,1579 Q732,1631 643,1727 Q554,1823 514,1886 L514,1907 L717,1907 Q749,1838 806,1747.5 Q863,1657 907,1604"/> 
            <glyph glyph-name="Ó" unicode="&#xD3;" horiz-adv-x="1470" d=" M1470,733 Q1470,382 1292.5,181 Q1115,-20 799,-20 Q476,-20 300.5,177.5 Q125,375 125,735 Q125,1092 301,1288.5 Q477,1485 801,1485 Q1116,1485 1293,1285 Q1470,1085 1470,733 M305,733 Q305,436 431.5,282.5 Q558,129 799,129 Q1042,129 1166,282 Q1290,435 1290,733 Q1290,1028 1166.5,1180.5 Q1043,1333 801,1333 Q558,1333 431.5,1179.5 Q305,1026 305,733 M659,1604 Q707,1666 762.5,1754 Q818,1842 850,1907 L1052,1907 L1052,1886 Q1008,1821 921,1726 Q834,1631 770,1579 L659,1579"/> 
            <glyph glyph-name="Ô" unicode="&#xD4;" horiz-adv-x="1470" d=" M1470,733 Q1470,382 1292.5,181 Q1115,-20 799,-20 Q476,-20 300.5,177.5 Q125,375 125,735 Q125,1092 301,1288.5 Q477,1485 801,1485 Q1116,1485 1293,1285 Q1470,1085 1470,733 M305,733 Q305,436 431.5,282.5 Q558,129 799,129 Q1042,129 1166,282 Q1290,435 1290,733 Q1290,1028 1166.5,1180.5 Q1043,1333 801,1333 Q558,1333 431.5,1179.5 Q305,1026 305,733 M448,1602 Q575,1738 626,1802 Q677,1866 700,1907 L866,1907 Q888,1865 942.5,1798.5 Q997,1732 1122,1602 L1122,1579 L1003,1579 Q915,1634 782,1765 Q646,1631 563,1579 L448,1579"/> 
            <glyph glyph-name="Õ" unicode="&#xD5;" horiz-adv-x="1470" d=" M1470,733 Q1470,382 1292.5,181 Q1115,-20 799,-20 Q476,-20 300.5,177.5 Q125,375 125,735 Q125,1092 301,1288.5 Q477,1485 801,1485 Q1116,1485 1293,1285 Q1470,1085 1470,733 M305,733 Q305,436 431.5,282.5 Q558,129 799,129 Q1042,129 1166,282 Q1290,435 1290,733 Q1290,1028 1166.5,1180.5 Q1043,1333 801,1333 Q558,1333 431.5,1179.5 Q305,1026 305,733 M942,1581 Q899,1581 858,1599.5 Q817,1618 777.5,1640.5 Q738,1663 701.5,1681.5 Q665,1700 631,1700 Q581,1700 555.5,1670 Q530,1640 516,1579 L418,1579 Q431,1700 488.5,1768.5 Q546,1837 637,1837 Q683,1837 726,1818.5 Q769,1800 808,1777.5 Q847,1755 883,1736.5 Q919,1718 951,1718 Q1000,1718 1024,1747.5 Q1048,1777 1063,1839 L1162,1839 Q1149,1718 1092.5,1649.5 Q1036,1581 942,1581"/> 
            <glyph glyph-name="Ö" unicode="&#xD6;" horiz-adv-x="1470" d=" M1470,733 Q1470,382 1292.5,181 Q1115,-20 799,-20 Q476,-20 300.5,177.5 Q125,375 125,735 Q125,1092 301,1288.5 Q477,1485 801,1485 Q1116,1485 1293,1285 Q1470,1085 1470,733 M305,733 Q305,436 431.5,282.5 Q558,129 799,129 Q1042,129 1166,282 Q1290,435 1290,733 Q1290,1028 1166.5,1180.5 Q1043,1333 801,1333 Q558,1333 431.5,1179.5 Q305,1026 305,733 M522,1731 Q522,1783 548.5,1806 Q575,1829 612,1829 Q650,1829 677.5,1806 Q705,1783 705,1731 Q705,1681 677.5,1656.5 Q650,1632 612,1632 Q575,1632 548.5,1656.5 Q522,1681 522,1731 M903,1731 Q903,1783 929.5,1806 Q956,1829 993,1829 Q1030,1829 1057.5,1806 Q1085,1783 1085,1731 Q1085,1681 1057.5,1656.5 Q1030,1632 993,1632 Q956,1632 929.5,1656.5 Q903,1681 903,1731"/> 
            <glyph glyph-name="×" unicode="&#xD7;" horiz-adv-x="1036" d=" M940,1176 L1036,1077 L684,723 L1034,371 L938,272 L584,623 L236,272 L135,371 L485,723 L133,1075 L233,1176 L586,821"/> 
            <glyph glyph-name="Ø" unicode="&#xD8;" horiz-adv-x="1470" d=" M1470,733 Q1470,382 1292.5,181 Q1115,-20 799,-20 Q564,-20 416,80 L315,-61 L195,18 L303,172 Q125,370 125,735 Q125,1092 301,1288.5 Q477,1485 801,1485 Q1010,1485 1167,1391 L1264,1526 L1384,1446 L1278,1298 Q1470,1096 1470,733 M1290,733 Q1290,1005 1180,1159 L508,211 Q623,129 799,129 Q1042,129 1166,282 Q1290,435 1290,733 M305,733 Q305,471 406,317 L1075,1260 Q969,1333 801,1333 Q558,1333 431.5,1179.5 Q305,1026 305,733"/> 
            <glyph glyph-name="Ù" unicode="&#xD9;" horiz-adv-x="1305" d=" M1305,1462 L1305,516 Q1305,266 1154,123 Q1003,-20 739,-20 Q475,-20 330.5,124 Q186,268 186,520 L186,1462 L356,1462 L356,508 Q356,325 456,227 Q556,129 750,129 Q935,129 1035,227.5 Q1135,326 1135,510 L1135,1462 M856,1579 L746,1579 Q681,1631 592,1727 Q503,1823 463,1886 L463,1907 L666,1907 Q698,1838 755,1747.5 Q812,1657 856,1604"/> 
            <glyph glyph-name="Ú" unicode="&#xDA;" horiz-adv-x="1305" d=" M1305,1462 L1305,516 Q1305,266 1154,123 Q1003,-20 739,-20 Q475,-20 330.5,124 Q186,268 186,520 L186,1462 L356,1462 L356,508 Q356,325 456,227 Q556,129 750,129 Q935,129 1035,227.5 Q1135,326 1135,510 L1135,1462 M600,1604 Q648,1666 703.5,1754 Q759,1842 791,1907 L993,1907 L993,1886 Q949,1821 862,1726 Q775,1631 711,1579 L600,1579"/> 
            <glyph glyph-name="Û" unicode="&#xDB;" horiz-adv-x="1305" d=" M1305,1462 L1305,516 Q1305,266 1154,123 Q1003,-20 739,-20 Q475,-20 330.5,124 Q186,268 186,520 L186,1462 L356,1462 L356,508 Q356,325 456,227 Q556,129 750,129 Q935,129 1035,227.5 Q1135,326 1135,510 L1135,1462 M393,1602 Q520,1738 571,1802 Q622,1866 645,1907 L811,1907 Q833,1865 887.5,1798.5 Q942,1732 1067,1602 L1067,1579 L948,1579 Q860,1634 727,1765 Q591,1631 508,1579 L393,1579"/> 
            <glyph glyph-name="Ü" unicode="&#xDC;" horiz-adv-x="1305" d=" M1305,1462 L1305,516 Q1305,266 1154,123 Q1003,-20 739,-20 Q475,-20 330.5,124 Q186,268 186,520 L186,1462 L356,1462 L356,508 Q356,325 456,227 Q556,129 750,129 Q935,129 1035,227.5 Q1135,326 1135,510 L1135,1462 M461,1731 Q461,1783 487.5,1806 Q514,1829 551,1829 Q589,1829 616.5,1806 Q644,1783 644,1731 Q644,1681 616.5,1656.5 Q589,1632 551,1632 Q514,1632 487.5,1656.5 Q461,1681 461,1731 M842,1731 Q842,1783 868.5,1806 Q895,1829 932,1829 Q969,1829 996.5,1806 Q1024,1783 1024,1731 Q1024,1681 996.5,1656.5 Q969,1632 932,1632 Q895,1632 868.5,1656.5 Q842,1681 842,1731"/> 
            <glyph glyph-name="Ý" unicode="&#xDD;" horiz-adv-x="1147" d=" M573,731 L963,1462 L1147,1462 L659,567 L659,0 L487,0 L487,559 L0,1462 L186,1462 M442,1604 Q490,1666 545.5,1754 Q601,1842 633,1907 L835,1907 L835,1886 Q791,1821 704,1726 Q617,1631 553,1579 L442,1579"/> 
            <glyph glyph-name="Þ" unicode="&#xDE;" horiz-adv-x="1145" d=" M1145,784 Q1145,557 993.5,438 Q842,319 555,319 L371,319 L371,0 L201,0 L201,1462 L371,1462 L371,1206 L586,1206 Q867,1206 1006,1102.5 Q1145,999 1145,784 M371,465 L539,465 Q765,465 866,536.5 Q967,608 967,772 Q967,921 872,990 Q777,1059 575,1059 L371,1059"/> 
            <glyph glyph-name="ß" unicode="&#xDF;" horiz-adv-x="1180" d=" M1049,1266 Q1049,1131 906,1016 Q818,946 790,912.5 Q762,879 762,846 Q762,814 775.5,793 Q789,772 824.5,743.5 Q860,715 938,664 Q1078,569 1129,490.5 Q1180,412 1180,311 Q1180,151 1083,65.5 Q986,-20 807,-20 Q619,-20 512,49 L512,203 Q575,164 653,140.5 Q731,117 803,117 Q1018,117 1018,299 Q1018,374 976.5,427.5 Q935,481 825,551 Q698,633 650,694.5 Q602,756 602,840 Q602,903 636.5,956 Q671,1009 742,1062 Q817,1119 849,1164 Q881,1209 881,1262 Q881,1342 813,1384.5 Q745,1427 618,1427 Q342,1427 342,1204 L342,0 L176,0 L176,1202 Q176,1380 286,1473.5 Q396,1567 618,1567 Q824,1567 936.5,1488.5 Q1049,1410 1049,1266"/> 
            <glyph glyph-name="à" unicode="&#xE0;" horiz-adv-x="973" d=" M850,0 L817,156 L809,156 Q727,53 645.5,16.5 Q564,-20 442,-20 Q279,-20 186.5,64 Q94,148 94,303 Q94,635 625,651 L811,657 L811,725 Q811,854 755.5,915.5 Q700,977 578,977 Q441,977 268,893 L217,1020 Q298,1064 394.5,1089 Q491,1114 588,1114 Q784,1114 878.5,1027 Q973,940 973,748 L973,0 M475,117 Q630,117 718.5,202 Q807,287 807,440 L807,539 L641,532 Q443,525 355.5,470.5 Q268,416 268,301 Q268,211 322.5,164 Q377,117 475,117 M928,1241 L818,1241 Q753,1293 664,1389 Q575,1485 535,1548 L535,1569 L738,1569 Q770,1500 827,1409.5 Q884,1319 928,1266"/> 
            <glyph glyph-name="á" unicode="&#xE1;" horiz-adv-x="973" d=" M850,0 L817,156 L809,156 Q727,53 645.5,16.5 Q564,-20 442,-20 Q279,-20 186.5,64 Q94,148 94,303 Q94,635 625,651 L811,657 L811,725 Q811,854 755.5,915.5 Q700,977 578,977 Q441,977 268,893 L217,1020 Q298,1064 394.5,1089 Q491,1114 588,1114 Q784,1114 878.5,1027 Q973,940 973,748 L973,0 M475,117 Q630,117 718.5,202 Q807,287 807,440 L807,539 L641,532 Q443,525 355.5,470.5 Q268,416 268,301 Q268,211 322.5,164 Q377,117 475,117 M436,1266 Q484,1328 539.5,1416 Q595,1504 627,1569 L829,1569 L829,1548 Q785,1483 698,1388 Q611,1293 547,1241 L436,1241"/> 
            <glyph glyph-name="â" unicode="&#xE2;" horiz-adv-x="973" d=" M850,0 L817,156 L809,156 Q727,53 645.5,16.5 Q564,-20 442,-20 Q279,-20 186.5,64 Q94,148 94,303 Q94,635 625,651 L811,657 L811,725 Q811,854 755.5,915.5 Q700,977 578,977 Q441,977 268,893 L217,1020 Q298,1064 394.5,1089 Q491,1114 588,1114 Q784,1114 878.5,1027 Q973,940 973,748 L973,0 M475,117 Q630,117 718.5,202 Q807,287 807,440 L807,539 L641,532 Q443,525 355.5,470.5 Q268,416 268,301 Q268,211 322.5,164 Q377,117 475,117 M484,1264 Q611,1400 662,1464 Q713,1528 736,1569 L902,1569 Q924,1527 978.5,1460.5 Q1033,1394 1158,1264 L1158,1241 L1039,1241 Q951,1296 818,1427 Q682,1293 599,1241 L484,1241"/> 
            <glyph glyph-name="ã" unicode="&#xE3;" horiz-adv-x="973" d=" M850,0 L817,156 L809,156 Q727,53 645.5,16.5 Q564,-20 442,-20 Q279,-20 186.5,64 Q94,148 94,303 Q94,635 625,651 L811,657 L811,725 Q811,854 755.5,915.5 Q700,977 578,977 Q441,977 268,893 L217,1020 Q298,1064 394.5,1089 Q491,1114 588,1114 Q784,1114 878.5,1027 Q973,940 973,748 L973,0 M475,117 Q630,117 718.5,202 Q807,287 807,440 L807,539 L641,532 Q443,525 355.5,470.5 Q268,416 268,301 Q268,211 322.5,164 Q377,117 475,117 M977,1243 Q934,1243 893,1261.5 Q852,1280 812.5,1302.5 Q773,1325 736.5,1343.5 Q700,1362 666,1362 Q616,1362 590.5,1332 Q565,1302 551,1241 L453,1241 Q466,1362 523.5,1430.5 Q581,1499 672,1499 Q718,1499 761,1480.5 Q804,1462 843,1439.5 Q882,1417 918,1398.5 Q954,1380 986,1380 Q1035,1380 1059,1409.5 Q1083,1439 1098,1501 L1197,1501 Q1184,1380 1127.5,1311.5 Q1071,1243 977,1243"/> 
            <glyph glyph-name="ä" unicode="&#xE4;" horiz-adv-x="973" d=" M850,0 L817,156 L809,156 Q727,53 645.5,16.5 Q564,-20 442,-20 Q279,-20 186.5,64 Q94,148 94,303 Q94,635 625,651 L811,657 L811,725 Q811,854 755.5,915.5 Q700,977 578,977 Q441,977 268,893 L217,1020 Q298,1064 394.5,1089 Q491,1114 588,1114 Q784,1114 878.5,1027 Q973,940 973,748 L973,0 M475,117 Q630,117 718.5,202 Q807,287 807,440 L807,539 L641,532 Q443,525 355.5,470.5 Q268,416 268,301 Q268,211 322.5,164 Q377,117 475,117 M535,1393 Q535,1445 561.5,1468 Q588,1491 625,1491 Q663,1491 690.5,1468 Q718,1445 718,1393 Q718,1343 690.5,1318.5 Q663,1294 625,1294 Q588,1294 561.5,1318.5 Q535,1343 535,1393 M916,1393 Q916,1445 942.5,1468 Q969,1491 1006,1491 Q1043,1491 1070.5,1468 Q1098,1445 1098,1393 Q1098,1343 1070.5,1318.5 Q1043,1294 1006,1294 Q969,1294 942.5,1318.5 Q916,1343 916,1393"/> 
            <glyph glyph-name="å" unicode="&#xE5;" horiz-adv-x="973" d=" M850,0 L817,156 L809,156 Q727,53 645.5,16.5 Q564,-20 442,-20 Q279,-20 186.5,64 Q94,148 94,303 Q94,635 625,651 L811,657 L811,725 Q811,854 755.5,915.5 Q700,977 578,977 Q441,977 268,893 L217,1020 Q298,1064 394.5,1089 Q491,1114 588,1114 Q784,1114 878.5,1027 Q973,940 973,748 L973,0 M475,117 Q630,117 718.5,202 Q807,287 807,440 L807,539 L641,532 Q443,525 355.5,470.5 Q268,416 268,301 Q268,211 322.5,164 Q377,117 475,117 M1060,1458 Q1060,1360 998.5,1300.5 Q937,1241 835,1241 Q734,1241 674,1299.5 Q614,1358 614,1456 Q614,1554 674.5,1611.5 Q735,1669 835,1669 Q936,1669 998,1609.5 Q1060,1550 1060,1458 M952,1456 Q952,1512 919,1542.5 Q886,1573 835,1573 Q784,1573 751,1542.5 Q718,1512 718,1456 Q718,1400 748,1369.5 Q778,1339 835,1339 Q887,1339 919.5,1369.5 Q952,1400 952,1456"/> 
            <glyph glyph-name="æ" unicode="&#xE6;" horiz-adv-x="1651" d=" M94,303 Q94,464 218,553.5 Q342,643 596,651 L780,657 L780,725 Q780,854 722,915.5 Q664,977 545,977 Q401,977 238,893 L186,1020 Q260,1061 359.5,1087.5 Q459,1114 557,1114 Q687,1114 769.5,1070.5 Q852,1027 893,932 Q946,1020 1031.5,1068 Q1117,1116 1227,1116 Q1419,1116 1535,982.5 Q1651,849 1651,627 L1651,520 L950,520 Q958,125 1272,125 Q1363,125 1441.5,142.5 Q1520,160 1604,199 L1604,51 Q1518,13 1443.5,-3.5 Q1369,-20 1268,-20 Q979,-20 854,213 Q773,86 674.5,33 Q576,-20 442,-20 Q279,-20 186.5,65 Q94,150 94,303 M268,301 Q268,206 321.5,161.5 Q375,117 463,117 Q608,117 692,201.5 Q776,286 776,440 L776,539 L618,532 Q432,524 350,469.5 Q268,415 268,301 M1225,977 Q1104,977 1034.5,894 Q965,811 954,653 L1473,653 Q1473,809 1409,893 Q1345,977 1225,977"/> 
            <glyph glyph-name="ç" unicode="&#xE7;" horiz-adv-x="907" d=" M614,-20 Q376,-20 245.5,126.5 Q115,273 115,541 Q115,816 247.5,966 Q380,1116 625,1116 Q704,1116 783,1099 Q862,1082 907,1059 L856,918 Q801,940 736,954.5 Q671,969 621,969 Q287,969 287,543 Q287,341 368.5,233 Q450,125 610,125 Q747,125 891,184 L891,37 Q781,-20 614,-20 M762,-289 Q762,-386 685.5,-439 Q609,-492 459,-492 Q408,-492 363,-483 L363,-377 Q408,-385 467,-385 Q546,-385 586.5,-365 Q627,-345 627,-291 Q627,-248 587.5,-221.5 Q548,-195 439,-178 L527,0 L637,0 L582,-115 Q762,-154 762,-289"/> 
            <glyph glyph-name="è" unicode="&#xE8;" horiz-adv-x="1042" d=" M639,-20 Q396,-20 255.5,128 Q115,276 115,539 Q115,804 245.5,960 Q376,1116 596,1116 Q802,1116 922,980.5 Q1042,845 1042,623 L1042,518 L287,518 Q292,325 384.5,225 Q477,125 645,125 Q822,125 995,199 L995,51 Q907,13 828.5,-3.5 Q750,-20 639,-20 M594,977 Q462,977 383.5,891 Q305,805 291,653 L864,653 Q864,810 794,893.5 Q724,977 594,977 M967,1241 L857,1241 Q792,1293 703,1389 Q614,1485 574,1548 L574,1569 L777,1569 Q809,1500 866,1409.5 Q923,1319 967,1266"/> 
            <glyph glyph-name="é" unicode="&#xE9;" horiz-adv-x="1042" d=" M639,-20 Q396,-20 255.5,128 Q115,276 115,539 Q115,804 245.5,960 Q376,1116 596,1116 Q802,1116 922,980.5 Q1042,845 1042,623 L1042,518 L287,518 Q292,325 384.5,225 Q477,125 645,125 Q822,125 995,199 L995,51 Q907,13 828.5,-3.5 Q750,-20 639,-20 M594,977 Q462,977 383.5,891 Q305,805 291,653 L864,653 Q864,810 794,893.5 Q724,977 594,977 M471,1266 Q519,1328 574.5,1416 Q630,1504 662,1569 L864,1569 L864,1548 Q820,1483 733,1388 Q646,1293 582,1241 L471,1241"/> 
            <glyph glyph-name="ê" unicode="&#xEA;" horiz-adv-x="1042" d=" M639,-20 Q396,-20 255.5,128 Q115,276 115,539 Q115,804 245.5,960 Q376,1116 596,1116 Q802,1116 922,980.5 Q1042,845 1042,623 L1042,518 L287,518 Q292,325 384.5,225 Q477,125 645,125 Q822,125 995,199 L995,51 Q907,13 828.5,-3.5 Q750,-20 639,-20 M594,977 Q462,977 383.5,891 Q305,805 291,653 L864,653 Q864,810 794,893.5 Q724,977 594,977 M515,1264 Q642,1400 693,1464 Q744,1528 767,1569 L933,1569 Q955,1527 1009.5,1460.5 Q1064,1394 1189,1264 L1189,1241 L1070,1241 Q982,1296 849,1427 Q713,1293 630,1241 L515,1241"/> 
            <glyph glyph-name="ë" unicode="&#xEB;" horiz-adv-x="1042" d=" M639,-20 Q396,-20 255.5,128 Q115,276 115,539 Q115,804 245.5,960 Q376,1116 596,1116 Q802,1116 922,980.5 Q1042,845 1042,623 L1042,518 L287,518 Q292,325 384.5,225 Q477,125 645,125 Q822,125 995,199 L995,51 Q907,13 828.5,-3.5 Q750,-20 639,-20 M594,977 Q462,977 383.5,891 Q305,805 291,653 L864,653 Q864,810 794,893.5 Q724,977 594,977 M319,1393 Q319,1445 345.5,1468 Q372,1491 409,1491 Q447,1491 474.5,1468 Q502,1445 502,1393 Q502,1343 474.5,1318.5 Q447,1294 409,1294 Q372,1294 345.5,1318.5 Q319,1343 319,1393 M700,1393 Q700,1445 726.5,1468 Q753,1491 790,1491 Q827,1491 854.5,1468 Q882,1445 882,1393 Q882,1343 854.5,1318.5 Q827,1294 790,1294 Q753,1294 726.5,1318.5 Q700,1343 700,1393"/> 
            <glyph glyph-name="ì" unicode="&#xEC;" horiz-adv-x="355" d=" M342,0 L176,0 L176,1096 L342,1096 M65891,1241 L65781,1241 Q65716,1293 65627,1389 Q65538,1485 65498,1548 L65498,1569 L65701,1569 Q65733,1500 65790,1409.5 Q65847,1319 65891,1266"/> 
            <glyph glyph-name="í" unicode="&#xED;" horiz-adv-x="562" d=" M342,0 L176,0 L176,1096 L342,1096 M65705,1266 Q65753,1328 65808.5,1416 Q65864,1504 65896,1569 L66098,1569 L66098,1548 Q66054,1483 65967,1388 Q65880,1293 65816,1241 L65705,1241"/> 
            <glyph glyph-name="î" unicode="&#xEE;" horiz-adv-x="597" d=" M342,0 L176,0 L176,1096 L342,1096 M65459,1264 Q65586,1400 65637,1464 Q65688,1528 65711,1569 L65877,1569 Q65899,1527 65953.5,1460.5 Q66008,1394 66133,1264 L66133,1241 L66014,1241 Q65926,1296 65793,1427 Q65657,1293 65574,1241 L65459,1241"/> 
            <glyph glyph-name="ï" unicode="&#xEF;" horiz-adv-x="543" d=" M342,0 L176,0 L176,1096 L342,1096 M65516,1393 Q65516,1445 65542.5,1468 Q65569,1491 65606,1491 Q65644,1491 65671.5,1468 Q65699,1445 65699,1393 Q65699,1343 65671.5,1318.5 Q65644,1294 65606,1294 Q65569,1294 65542.5,1318.5 Q65516,1343 65516,1393 M65897,1393 Q65897,1445 65923.5,1468 Q65950,1491 65987,1491 Q66024,1491 66051.5,1468 Q66079,1445 66079,1393 Q66079,1343 66051.5,1318.5 Q66024,1294 65987,1294 Q65950,1294 65923.5,1318.5 Q65897,1343 65897,1393"/> 
            <glyph glyph-name="ð" unicode="&#xF0;" horiz-adv-x="1122" d=" M1122,563 Q1122,282 991.5,131 Q861,-20 614,-20 Q392,-20 252.5,114.5 Q113,249 113,475 Q113,705 244.5,836 Q376,967 596,967 Q822,967 922,846 L930,850 Q873,1064 668,1255 L397,1100 L324,1208 L557,1341 Q465,1403 371,1452 L440,1569 Q596,1496 698,1421 L936,1559 L1012,1452 L805,1333 Q957,1190 1039.5,991 Q1122,792 1122,563 M954,512 Q954,659 864,744 Q774,829 618,829 Q281,829 281,469 Q281,302 368.5,210.5 Q456,119 618,119 Q793,119 873.5,219.5 Q954,320 954,512"/> 
            <glyph glyph-name="ñ" unicode="&#xF1;" horiz-adv-x="1092" d=" M926,0 L926,709 Q926,843 865,909 Q804,975 674,975 Q502,975 422,882 Q342,789 342,575 L342,0 L176,0 L176,1096 L311,1096 L338,946 L346,946 Q397,1027 489,1071.5 Q581,1116 694,1116 Q892,1116 992,1020.5 Q1092,925 1092,715 L1092,0 M802,1243 Q759,1243 718,1261.5 Q677,1280 637.5,1302.5 Q598,1325 561.5,1343.5 Q525,1362 491,1362 Q441,1362 415.5,1332 Q390,1302 376,1241 L278,1241 Q291,1362 348.5,1430.5 Q406,1499 497,1499 Q543,1499 586,1480.5 Q629,1462 668,1439.5 Q707,1417 743,1398.5 Q779,1380 811,1380 Q860,1380 884,1409.5 Q908,1439 923,1501 L1022,1501 Q1009,1380 952.5,1311.5 Q896,1243 802,1243"/> 
            <glyph glyph-name="ò" unicode="&#xF2;" horiz-adv-x="1122" d=" M1122,549 Q1122,281 987,130.5 Q852,-20 614,-20 Q467,-20 353,49 Q239,118 177,247 Q115,376 115,549 Q115,817 249,966.5 Q383,1116 621,1116 Q851,1116 986.5,963 Q1122,810 1122,549 M287,549 Q287,339 371,229 Q455,119 618,119 Q781,119 865.5,228.5 Q950,338 950,549 Q950,758 865.5,866.5 Q781,975 616,975 Q453,975 370,868 Q287,761 287,549 M998,1241 L888,1241 Q823,1293 734,1389 Q645,1485 605,1548 L605,1569 L808,1569 Q840,1500 897,1409.5 Q954,1319 998,1266"/> 
            <glyph glyph-name="ó" unicode="&#xF3;" horiz-adv-x="1122" d=" M1122,549 Q1122,281 987,130.5 Q852,-20 614,-20 Q467,-20 353,49 Q239,118 177,247 Q115,376 115,549 Q115,817 249,966.5 Q383,1116 621,1116 Q851,1116 986.5,963 Q1122,810 1122,549 M287,549 Q287,339 371,229 Q455,119 618,119 Q781,119 865.5,228.5 Q950,338 950,549 Q950,758 865.5,866.5 Q781,975 616,975 Q453,975 370,868 Q287,761 287,549 M479,1266 Q527,1328 582.5,1416 Q638,1504 670,1569 L872,1569 L872,1548 Q828,1483 741,1388 Q654,1293 590,1241 L479,1241"/> 
            <glyph glyph-name="ô" unicode="&#xF4;" horiz-adv-x="1122" d=" M1122,549 Q1122,281 987,130.5 Q852,-20 614,-20 Q467,-20 353,49 Q239,118 177,247 Q115,376 115,549 Q115,817 249,966.5 Q383,1116 621,1116 Q851,1116 986.5,963 Q1122,810 1122,549 M287,549 Q287,339 371,229 Q455,119 618,119 Q781,119 865.5,228.5 Q950,338 950,549 Q950,758 865.5,866.5 Q781,975 616,975 Q453,975 370,868 Q287,761 287,549 M282,1264 Q409,1400 460,1464 Q511,1528 534,1569 L700,1569 Q722,1527 776.5,1460.5 Q831,1394 956,1264 L956,1241 L837,1241 Q749,1296 616,1427 Q480,1293 397,1241 L282,1241"/> 
            <glyph glyph-name="õ" unicode="&#xF5;" horiz-adv-x="1122" d=" M1122,549 Q1122,281 987,130.5 Q852,-20 614,-20 Q467,-20 353,49 Q239,118 177,247 Q115,376 115,549 Q115,817 249,966.5 Q383,1116 621,1116 Q851,1116 986.5,963 Q1122,810 1122,549 M287,549 Q287,339 371,229 Q455,119 618,119 Q781,119 865.5,228.5 Q950,338 950,549 Q950,758 865.5,866.5 Q781,975 616,975 Q453,975 370,868 Q287,761 287,549 M1029,1243 Q986,1243 945,1261.5 Q904,1280 864.5,1302.5 Q825,1325 788.5,1343.5 Q752,1362 718,1362 Q668,1362 642.5,1332 Q617,1302 603,1241 L505,1241 Q518,1362 575.5,1430.5 Q633,1499 724,1499 Q770,1499 813,1480.5 Q856,1462 895,1439.5 Q934,1417 970,1398.5 Q1006,1380 1038,1380 Q1087,1380 1111,1409.5 Q1135,1439 1150,1501 L1249,1501 Q1236,1380 1179.5,1311.5 Q1123,1243 1029,1243"/> 
            <glyph glyph-name="ö" unicode="&#xF6;" horiz-adv-x="1122" d=" M1122,549 Q1122,281 987,130.5 Q852,-20 614,-20 Q467,-20 353,49 Q239,118 177,247 Q115,376 115,549 Q115,817 249,966.5 Q383,1116 621,1116 Q851,1116 986.5,963 Q1122,810 1122,549 M287,549 Q287,339 371,229 Q455,119 618,119 Q781,119 865.5,228.5 Q950,338 950,549 Q950,758 865.5,866.5 Q781,975 616,975 Q453,975 370,868 Q287,761 287,549 M336,1393 Q336,1445 362.5,1468 Q389,1491 426,1491 Q464,1491 491.5,1468 Q519,1445 519,1393 Q519,1343 491.5,1318.5 Q464,1294 426,1294 Q389,1294 362.5,1318.5 Q336,1343 336,1393 M717,1393 Q717,1445 743.5,1468 Q770,1491 807,1491 Q844,1491 871.5,1468 Q899,1445 899,1393 Q899,1343 871.5,1318.5 Q844,1294 807,1294 Q770,1294 743.5,1318.5 Q717,1343 717,1393"/> 
            <glyph glyph-name="÷" unicode="&#xF7;" horiz-adv-x="1065" d=" M104,653 L104,791 L1065,791 L1065,653 M471,373 Q471,433 500.5,463.5 Q530,494 584,494 Q636,494 665,462.5 Q694,431 694,373 Q694,316 664.5,284 Q635,252 584,252 Q532,252 501.5,283.5 Q471,315 471,373 M471,1071 Q471,1131 500.5,1161.5 Q530,1192 584,1192 Q636,1192 665,1160.5 Q694,1129 694,1071 Q694,1014 664.5,982 Q635,950 584,950 Q532,950 501.5,981.5 Q471,1013 471,1071"/> 
            <glyph glyph-name="ø" unicode="&#xF8;" horiz-adv-x="1122" d=" M1122,549 Q1122,281 987,130.5 Q852,-20 614,-20 Q460,-20 348,49 L264,-68 L150,10 L244,141 Q115,293 115,549 Q115,817 249,966.5 Q383,1116 621,1116 Q775,1116 891,1040 L975,1159 L1092,1083 L995,950 Q1122,798 1122,549 M287,549 Q287,378 340,276 L805,922 Q730,975 616,975 Q453,975 370,868 Q287,761 287,549 M950,549 Q950,713 899,813 L434,170 Q505,119 618,119 Q781,119 865.5,228.5 Q950,338 950,549"/> 
            <glyph glyph-name="ù" unicode="&#xF9;" horiz-adv-x="1081" d=" M332,1096 L332,385 Q332,251 393,185 Q454,119 584,119 Q756,119 835.5,213 Q915,307 915,520 L915,1096 L1081,1096 L1081,0 L944,0 L920,147 L911,147 Q860,66 769.5,23 Q679,-20 563,-20 Q363,-20 263.5,75 Q164,170 164,379 L164,1096 M982,1241 L872,1241 Q807,1293 718,1389 Q629,1485 589,1548 L589,1569 L792,1569 Q824,1500 881,1409.5 Q938,1319 982,1266"/> 
            <glyph glyph-name="ú" unicode="&#xFA;" horiz-adv-x="1081" d=" M332,1096 L332,385 Q332,251 393,185 Q454,119 584,119 Q756,119 835.5,213 Q915,307 915,520 L915,1096 L1081,1096 L1081,0 L944,0 L920,147 L911,147 Q860,66 769.5,23 Q679,-20 563,-20 Q363,-20 263.5,75 Q164,170 164,379 L164,1096 M506,1266 Q554,1328 609.5,1416 Q665,1504 697,1569 L899,1569 L899,1548 Q855,1483 768,1388 Q681,1293 617,1241 L506,1241"/> 
            <glyph glyph-name="û" unicode="&#xFB;" horiz-adv-x="1081" d=" M332,1096 L332,385 Q332,251 393,185 Q454,119 584,119 Q756,119 835.5,213 Q915,307 915,520 L915,1096 L1081,1096 L1081,0 L944,0 L920,147 L911,147 Q860,66 769.5,23 Q679,-20 563,-20 Q363,-20 263.5,75 Q164,170 164,379 L164,1096 M286,1264 Q413,1400 464,1464 Q515,1528 538,1569 L704,1569 Q726,1527 780.5,1460.5 Q835,1394 960,1264 L960,1241 L841,1241 Q753,1296 620,1427 Q484,1293 401,1241 L286,1241"/> 
            <glyph glyph-name="ü" unicode="&#xFC;" horiz-adv-x="1081" d=" M332,1096 L332,385 Q332,251 393,185 Q454,119 584,119 Q756,119 835.5,213 Q915,307 915,520 L915,1096 L1081,1096 L1081,0 L944,0 L920,147 L911,147 Q860,66 769.5,23 Q679,-20 563,-20 Q363,-20 263.5,75 Q164,170 164,379 L164,1096 M342,1393 Q342,1445 368.5,1468 Q395,1491 432,1491 Q470,1491 497.5,1468 Q525,1445 525,1393 Q525,1343 497.5,1318.5 Q470,1294 432,1294 Q395,1294 368.5,1318.5 Q342,1343 342,1393 M723,1393 Q723,1445 749.5,1468 Q776,1491 813,1491 Q850,1491 877.5,1468 Q905,1445 905,1393 Q905,1343 877.5,1318.5 Q850,1294 813,1294 Q776,1294 749.5,1318.5 Q723,1343 723,1393"/> 
            <glyph glyph-name="ý" unicode="&#xFD;" horiz-adv-x="1030" d=" M2,1096 L180,1096 L420,471 Q499,257 518,162 L526,162 Q539,213 580.5,336.5 Q622,460 852,1096 L1030,1096 L559,-152 Q489,-337 395.5,-414.5 Q302,-492 166,-492 Q90,-492 16,-475 L16,-342 Q71,-354 139,-354 Q310,-354 383,-162 L444,-6 M411,1266 Q459,1328 514.5,1416 Q570,1504 602,1569 L804,1569 L804,1548 Q760,1483 673,1388 Q586,1293 522,1241 L411,1241"/> 
            <glyph glyph-name="þ" unicode="&#xFE;" horiz-adv-x="1141" d=" M344,948 Q410,1037 495,1076.5 Q580,1116 686,1116 Q901,1116 1021,966 Q1141,816 1141,549 Q1141,281 1020.5,130.5 Q900,-20 686,-20 Q464,-20 342,141 L330,141 L334,107 Q342,30 342,-33 L342,-492 L176,-492 L176,1556 L342,1556 L342,1090 Q342,1038 336,948 M664,975 Q496,975 420,883 Q344,791 342,590 L342,549 Q342,318 419,218.5 Q496,119 666,119 Q969,119 969,551 Q969,766 895,870.5 Q821,975 664,975"/> 
            <glyph glyph-name="ÿ" unicode="&#xFF;" horiz-adv-x="1030" d=" M2,1096 L180,1096 L420,471 Q499,257 518,162 L526,162 Q539,213 580.5,336.5 Q622,460 852,1096 L1030,1096 L559,-152 Q489,-337 395.5,-414.5 Q302,-492 166,-492 Q90,-492 16,-475 L16,-342 Q71,-354 139,-354 Q310,-354 383,-162 L444,-6 M490,1393 Q490,1445 516.5,1468 Q543,1491 580,1491 Q618,1491 645.5,1468 Q673,1445 673,1393 Q673,1343 645.5,1318.5 Q618,1294 580,1294 Q543,1294 516.5,1318.5 Q490,1343 490,1393 M871,1393 Q871,1445 897.5,1468 Q924,1491 961,1491 Q998,1491 1025.5,1468 Q1053,1445 1053,1393 Q1053,1343 1025.5,1318.5 Q998,1294 961,1294 Q924,1294 897.5,1318.5 Q871,1343 871,1393"/> 
            <glyph glyph-name="ı" unicode="&#x131;" horiz-adv-x="342" d=" M342,0 L176,0 L176,1096 L342,1096"/> 
            <glyph glyph-name="Œ" unicode="&#x152;" horiz-adv-x="1767" d=" M1767,0 L999,0 Q897,-20 805,-20 Q478,-20 301.5,176.5 Q125,373 125,735 Q125,1095 299,1290 Q473,1485 793,1485 Q895,1485 985,1462 L1767,1462 L1767,1311 L1178,1311 L1178,840 L1729,840 L1729,690 L1178,690 L1178,152 L1767,152 M811,1333 Q562,1333 433.5,1180.5 Q305,1028 305,733 Q305,436 433.5,282.5 Q562,129 809,129 Q921,129 1008,162 L1008,1303 Q921,1333 811,1333"/> 
            <glyph glyph-name="œ" unicode="&#x153;" horiz-adv-x="1823" d=" M1430,-20 Q1137,-20 1012,215 Q950,99 845.5,39.5 Q741,-20 604,-20 Q381,-20 247,132.5 Q113,285 113,549 Q113,814 244,964 Q375,1114 610,1114 Q741,1114 843.5,1054.5 Q946,995 1008,881 Q1066,993 1162,1053.5 Q1258,1114 1384,1114 Q1585,1114 1704,981.5 Q1823,849 1823,623 L1823,518 L1094,518 Q1102,125 1432,125 Q1526,125 1606.5,142.5 Q1687,160 1774,199 L1774,51 Q1686,12 1610,-4 Q1534,-20 1430,-20 M287,549 Q287,338 363,228.5 Q439,119 606,119 Q769,119 845.5,225.5 Q922,332 922,541 Q922,762 844.5,868.5 Q767,975 602,975 Q436,975 361.5,867 Q287,759 287,549 M1382,975 Q1255,975 1182.5,893 Q1110,811 1098,653 L1642,653 Q1642,811 1576,893 Q1510,975 1382,975"/> 
            <glyph glyph-name="ˆ" unicode="&#x2C6;" horiz-adv-x="942" d=" M268,1264 Q395,1400 446,1464 Q497,1528 520,1569 L686,1569 Q708,1527 762.5,1460.5 Q817,1394 942,1264 L942,1241 L823,1241 Q735,1296 602,1427 Q466,1293 383,1241 L268,1241"/> 
            <glyph glyph-name="˚" unicode="&#x2DA;" horiz-adv-x="813" d=" M813,1458 Q813,1360 751.5,1300.5 Q690,1241 588,1241 Q487,1241 427,1299.5 Q367,1358 367,1456 Q367,1554 427.5,1611.5 Q488,1669 588,1669 Q689,1669 751,1609.5 Q813,1550 813,1458 M705,1456 Q705,1512 672,1542.5 Q639,1573 588,1573 Q537,1573 504,1542.5 Q471,1512 471,1456 Q471,1400 501,1369.5 Q531,1339 588,1339 Q640,1339 672.5,1369.5 Q705,1400 705,1456"/> 
            <glyph glyph-name="˜" unicode="&#x2DC;" horiz-adv-x="1008" d=" M788,1243 Q745,1243 704,1261.5 Q663,1280 623.5,1302.5 Q584,1325 547.5,1343.5 Q511,1362 477,1362 Q427,1362 401.5,1332 Q376,1302 362,1241 L264,1241 Q277,1362 334.5,1430.5 Q392,1499 483,1499 Q529,1499 572,1480.5 Q615,1462 654,1439.5 Q693,1417 729,1398.5 Q765,1380 797,1380 Q846,1380 870,1409.5 Q894,1439 909,1501 L1008,1501 Q995,1380 938.5,1311.5 Q882,1243 788,1243"/> 
            <glyph glyph-name="–" unicode="&#x2013;" horiz-adv-x="942" d=" M82,473 L82,625 L942,625 L942,473"/> 
            <glyph glyph-name="—" unicode="&#x2014;" horiz-adv-x="1966" d=" M82,473 L82,625 L1966,625 L1966,473"/> 
            <glyph glyph-name="‘" unicode="&#x2018;" horiz-adv-x="324" d=" M37,961 L25,983 Q47,1073 96,1207 Q145,1341 201,1462 L324,1462 Q258,1208 221,961"/> 
            <glyph glyph-name="’" unicode="&#x2019;" horiz-adv-x="324" d=" M309,1462 L324,1440 Q298,1340 249,1207.5 Q200,1075 147,961 L25,961 Q95,1246 127,1462"/> 
            <glyph glyph-name="‚" unicode="&#x201A;" horiz-adv-x="365" d=" M350,238 L365,215 Q339,115 290,-17.5 Q241,-150 188,-264 L63,-264 Q90,-160 122.5,-7 Q155,146 168,238"/> 
            <glyph glyph-name="“" unicode="&#x201C;" horiz-adv-x="692" d=" M406,961 L391,983 Q447,1198 569,1462 L692,1462 Q662,1347 632.5,1202.5 Q603,1058 590,961 M37,961 L25,983 Q47,1073 96,1207 Q145,1341 201,1462 L324,1462 Q258,1208 221,961"/> 
            <glyph glyph-name="”" unicode="&#x201D;" horiz-adv-x="692" d=" M309,1462 L324,1440 Q298,1340 249,1207.5 Q200,1075 147,961 L25,961 Q95,1246 127,1462 M678,1462 L692,1440 Q668,1349 620,1216 Q572,1083 516,961 L391,961 Q417,1061 450,1215 Q483,1369 496,1462"/> 
            <glyph glyph-name="„" unicode="&#x201E;" horiz-adv-x="692" d=" M309,65774 L324,65752 Q298,65652 249,65519.5 Q200,65387 147,65273 L25,65273 Q95,65558 127,65774 M678,65774 L692,65752 Q668,65661 620,65528 Q572,65395 516,65273 L391,65273 Q417,65373 450,65527 Q483,65681 496,65774"/> 
            <glyph glyph-name="•" unicode="&#x2022;" horiz-adv-x="606" d=" M164,748 Q164,869 220.5,932 Q277,995 385,995 Q490,995 548,933 Q606,871 606,748 Q606,629 548.5,564.5 Q491,500 385,500 Q278,500 221,565.5 Q164,631 164,748"/> 
            <glyph glyph-name="…" unicode="&#x2026;" horiz-adv-x="1454" d=" M152,106 Q152,173 182.5,207.5 Q213,242 270,242 Q328,242 360.5,207.5 Q393,173 393,106 Q393,41 360,6 Q327,-29 270,-29 Q219,-29 185.5,2.5 Q152,34 152,106 M682,106 Q682,173 712.5,207.5 Q743,242 800,242 Q858,242 890.5,207.5 Q923,173 923,106 Q923,41 890,6 Q857,-29 800,-29 Q749,-29 715.5,2.5 Q682,34 682,106 M1213,106 Q1213,173 1243.5,207.5 Q1274,242 1331,242 Q1389,242 1421.5,207.5 Q1454,173 1454,106 Q1454,41 1421,6 Q1388,-29 1331,-29 Q1280,-29 1246.5,2.5 Q1213,34 1213,106"/> 
            <glyph glyph-name="‹" unicode="&#x2039;" horiz-adv-x="543" d=" M82,551 L424,958 L543,889 L254,539 L543,188 L424,117 L82,524"/> 
            <glyph glyph-name="›" unicode="&#x203A;" horiz-adv-x="541" d=" M541,524 L197,117 L80,188 L367,539 L80,889 L197,958 L541,551"/> 
            <glyph glyph-name="⁄" unicode="&#x2044;" horiz-adv-x="655" d=" M655,1462 L-248,0 L-391,0 L512,1462"/> 
            <glyph glyph-name="⁴" unicode="&#x2074;" horiz-adv-x="692" d=" M692,788 L567,788 L567,586 L422,586 L422,788 L20,788 L20,889 L428,1468 L567,1468 L567,905 L692,905 M422,905 L422,1100 Q422,1234 428,1309 Q423,1297 411,1277.5 Q399,1258 384,1235.5 Q369,1213 354,1190.5 Q339,1168 328,1151 L160,905"/> 
            <glyph glyph-name="€" unicode="&#x20AC;" horiz-adv-x="1161" d=" M795,1333 Q476,1333 397,930 L907,930 L907,801 L383,801 L381,744 L381,680 L383,635 L846,635 L846,506 L399,506 Q436,326 537.5,227.5 Q639,129 809,129 Q965,129 1118,195 L1118,45 Q972,-20 801,-20 Q564,-20 419.5,114.5 Q275,249 229,506 L63,506 L63,635 L215,635 L213,677 L213,721 L215,801 L63,801 L63,930 L227,930 Q266,1191 412,1337 Q558,1483 795,1483 Q996,1483 1161,1386 L1090,1247 Q924,1333 795,1333"/> 
            <glyph glyph-name="−" unicode="&#x2212;" horiz-adv-x="1065" d=" M104,653 L104,791 L1065,791 L1065,653"/> 
            <glyph glyph-name=" " unicode="&#x20;" horiz-adv-x="393" d=" M326,403 L221,403 L170,1462 L377,1462 M152,106 Q152,242 272,242 Q330,242 361.5,207 Q393,172 393,106 Q393,42 361,6.5 Q329,-29 272,-29 Q220,-29 186,2.5 Q152,34 152,106"/> 
            <glyph glyph-name="!" unicode="&#x21;" horiz-adv-x="688" d=" M319,1462 L279,934 L174,934 L133,1462 M688,1462 L647,934 L543,934 L502,1462"/> 
            <glyph glyph-name="&quot;" unicode="&#x22;" horiz-adv-x="1270" d=" M981,899 L915,559 L1198,559 L1198,430 L891,430 L807,0 L670,0 L754,430 L451,430 L369,0 L233,0 L313,430 L51,430 L51,559 L338,559 L406,899 L129,899 L129,1026 L428,1026 L510,1462 L649,1462 L567,1026 L872,1026 L956,1462 L1090,1462 L1006,1026 L1270,1026 L1270,899 M475,559 L778,559 L844,899 L541,899"/> 
            <glyph glyph-name="#" unicode="&#x23;" horiz-adv-x="1036" d=" M1036,449 Q1036,313 934,224.5 Q832,136 649,113 L649,-119 L520,-119 L520,104 Q408,104 303,121.5 Q198,139 131,170 L131,326 Q214,289 322.5,265.5 Q431,242 520,242 L520,682 Q315,747 232.5,833 Q150,919 150,1055 Q150,1186 251.5,1270 Q353,1354 520,1372 L520,1554 L649,1554 L649,1374 Q833,1369 1004,1300 L952,1169 Q803,1228 649,1239 L649,805 Q806,755 884,707.5 Q962,660 999,598.5 Q1036,537 1036,449 M866,436 Q866,508 821.5,552.5 Q777,597 649,641 L649,252 Q866,282 866,436 M319,1057 Q319,981 364,935 Q409,889 520,848 L520,1235 Q421,1219 370,1172.5 Q319,1126 319,1057"/> 
            <glyph glyph-name="$" unicode="&#x24;" horiz-adv-x="1581" d=" M242,1026 Q242,856 279,771 Q316,686 399,686 Q563,686 563,1026 Q563,1364 399,1364 Q316,1364 279,1280 Q242,1196 242,1026 M700,1026 Q700,798 623.5,681.5 Q547,565 399,565 Q259,565 181.5,684 Q104,803 104,1026 Q104,1253 178.5,1368 Q253,1483 399,1483 Q544,1483 622,1364 Q700,1245 700,1026 M1122,440 Q1122,269 1159,184.5 Q1196,100 1280,100 Q1364,100 1404,183.5 Q1444,267 1444,440 Q1444,611 1404,693.5 Q1364,776 1280,776 Q1196,776 1159,693.5 Q1122,611 1122,440 M1581,440 Q1581,213 1504.5,96.5 Q1428,-20 1280,-20 Q1138,-20 1061.5,99 Q985,218 985,440 Q985,667 1059.5,782 Q1134,897 1280,897 Q1422,897 1501.5,779.5 Q1581,662 1581,440 M1323,1462 L512,0 L365,0 L1176,1462"/> 
            <glyph glyph-name="%" unicode="&#x25;" horiz-adv-x="1491" d=" M414,1171 Q414,1102 450,1039.5 Q486,977 573,889 Q702,964 752.5,1027.5 Q803,1091 803,1174 Q803,1251 751.5,1299.5 Q700,1348 614,1348 Q525,1348 469.5,1300 Q414,1252 414,1171 M569,129 Q810,129 969,283 L532,707 Q421,639 375,594.5 Q329,550 307,499 Q285,448 285,383 Q285,266 362.5,197.5 Q440,129 569,129 M113,379 Q113,509 182.5,609 Q252,709 432,811 Q347,906 316.5,955 Q286,1004 268,1057 Q250,1110 250,1167 Q250,1317 348,1401 Q446,1485 621,1485 Q783,1485 876,1401.5 Q969,1318 969,1169 Q969,1062 901,971.5 Q833,881 676,788 L1083,397 Q1139,459 1172.5,542.5 Q1206,626 1229,725 L1397,725 Q1329,439 1192,291 L1491,0 L1262,0 L1077,178 Q959,72 837,26 Q715,-20 565,-20 Q350,-20 231.5,86 Q113,192 113,379"/> 
            <glyph glyph-name="&amp;" unicode="&#x26;" horiz-adv-x="319" d=" M319,1462 L279,934 L174,934 L133,1462"/> 
            <glyph glyph-name="'" unicode="&#x27;" horiz-adv-x="545" d=" M82,561 Q82,826 159.5,1057 Q237,1288 383,1462 L545,1462 Q401,1269 328.5,1038 Q256,807 256,563 Q256,323 330,94 Q404,-135 543,-324 L383,-324 Q236,-154 159,73 Q82,300 82,561"/> 
            <glyph glyph-name="(" unicode="&#x28;" horiz-adv-x="524" d=" M524,561 Q524,298 446.5,71 Q369,-156 223,-324 L63,-324 Q202,-136 276,93.5 Q350,323 350,563 Q350,807 277.5,1038 Q205,1269 61,1462 L223,1462 Q370,1287 447,1055.5 Q524,824 524,561"/> 
            <glyph glyph-name=")" unicode="&#x29;" horiz-adv-x="1038" d=" M657,1556 L614,1161 L1012,1272 L1038,1090 L657,1059 L905,733 L733,639 L557,1001 L397,639 L221,733 L463,1059 L86,1090 L115,1272 L506,1161 L463,1556"/> 
            <glyph glyph-name="*" unicode="&#x2A;" horiz-adv-x="1065" d=" M653,791 L1065,791 L1065,653 L653,653 L653,227 L514,227 L514,653 L104,653 L104,791 L514,791 L514,1219 L653,1219"/> 
            <glyph glyph-name="+" unicode="&#x2B;" horiz-adv-x="365" d=" M350,238 L365,215 Q339,115 290,-17.5 Q241,-150 188,-264 L63,-264 Q90,-160 122.5,-7 Q155,146 168,238"/> 
            <glyph glyph-name="," unicode="&#x2C;" horiz-adv-x="575" d=" M84,473 L84,625 L575,625 L575,473"/> 
            <glyph glyph-name="-" unicode="&#x2D;" horiz-adv-x="393" d=" M152,106 Q152,173 182.5,207.5 Q213,242 270,242 Q328,242 360.5,207.5 Q393,173 393,106 Q393,41 360,6 Q327,-29 270,-29 Q219,-29 185.5,2.5 Q152,34 152,106"/> 
            <glyph glyph-name="." unicode="&#x2E;" horiz-adv-x="731" d=" M731,1462 L186,0 L20,0 L565,1462"/> 
            <glyph glyph-name="/" unicode="&#x2F;" horiz-adv-x="1069" d=" M1069,733 Q1069,354 949.5,167 Q830,-20 584,-20 Q348,-20 225,171.5 Q102,363 102,733 Q102,1115 221,1300 Q340,1485 584,1485 Q822,1485 945.5,1292 Q1069,1099 1069,733 M270,733 Q270,414 345,268.5 Q420,123 584,123 Q750,123 824.5,270.5 Q899,418 899,733 Q899,1048 824.5,1194.5 Q750,1341 584,1341 Q420,1341 345,1196.5 Q270,1052 270,733"/> 
            <glyph glyph-name="0" unicode="&#x30;" horiz-adv-x="715" d=" M715,0 L553,0 L553,1042 Q553,1172 561,1288 Q540,1267 514,1244 Q488,1221 276,1049 L188,1163 L575,1462 L715,1462"/> 
            <glyph glyph-name="1" unicode="&#x31;" horiz-adv-x="1061" d=" M1061,0 L100,0 L100,143 L485,530 Q661,708 717,784 Q773,860 801,932 Q829,1004 829,1087 Q829,1204 758,1272.5 Q687,1341 561,1341 Q470,1341 388.5,1311 Q307,1281 207,1202 L119,1315 Q321,1483 559,1483 Q765,1483 882,1377.5 Q999,1272 999,1094 Q999,955 921,819 Q843,683 629,475 L309,162 L309,154 L1061,154"/> 
            <glyph glyph-name="2" unicode="&#x32;" horiz-adv-x="1051" d=" M1006,1118 Q1006,978 927.5,889 Q849,800 705,770 L705,762 Q881,740 966,650 Q1051,560 1051,414 Q1051,205 906,92.5 Q761,-20 494,-20 Q378,-20 281.5,-2.5 Q185,15 94,59 L94,217 Q189,170 296.5,145.5 Q404,121 500,121 Q879,121 879,418 Q879,684 461,684 L317,684 L317,827 L463,827 Q634,827 734,902.5 Q834,978 834,1112 Q834,1219 760.5,1280 Q687,1341 561,1341 Q465,1341 380,1315 Q295,1289 186,1219 L102,1331 Q192,1402 309.5,1442.5 Q427,1483 557,1483 Q770,1483 888,1385.5 Q1006,1288 1006,1118"/> 
            <glyph glyph-name="3" unicode="&#x33;" horiz-adv-x="1130" d=" M1130,336 L913,336 L913,0 L754,0 L754,336 L43,336 L43,481 L737,1470 L913,1470 L913,487 L1130,487 M754,487 L754,973 Q754,1116 764,1296 L756,1296 Q708,1200 666,1137 L209,487"/> 
            <glyph glyph-name="4" unicode="&#x34;" horiz-adv-x="1053" d=" M557,893 Q788,893 920.5,778.5 Q1053,664 1053,465 Q1053,238 908.5,109 Q764,-20 510,-20 Q263,-20 133,59 L133,219 Q203,174 307,148.5 Q411,123 512,123 Q688,123 785.5,206 Q883,289 883,446 Q883,752 508,752 Q413,752 254,723 L168,778 L223,1462 L950,1462 L950,1309 L365,1309 L328,870 Q443,893 557,893"/> 
            <glyph glyph-name="5" unicode="&#x35;" horiz-adv-x="1071" d=" M117,625 Q117,1056 284.5,1269.5 Q452,1483 780,1483 Q893,1483 958,1464 L958,1321 Q881,1346 782,1346 Q547,1346 423,1199.5 Q299,1053 287,739 L299,739 Q409,911 647,911 Q844,911 957.5,792 Q1071,673 1071,469 Q1071,241 946.5,110.5 Q822,-20 610,-20 Q383,-20 250,150.5 Q117,321 117,625 M608,121 Q750,121 828.5,210.5 Q907,300 907,469 Q907,614 834,697 Q761,780 616,780 Q526,780 451,743 Q376,706 331.5,641 Q287,576 287,506 Q287,403 327,314 Q367,225 440.5,173 Q514,121 608,121"/> 
            <glyph glyph-name="6" unicode="&#x36;" horiz-adv-x="1067" d=" M285,0 L891,1309 L94,1309 L94,1462 L1067,1462 L1067,1329 L469,0"/> 
            <glyph glyph-name="7" unicode="&#x37;" horiz-adv-x="1065" d=" M584,1483 Q784,1483 901,1390 Q1018,1297 1018,1133 Q1018,1025 951,936 Q884,847 737,774 Q915,689 990,595.5 Q1065,502 1065,379 Q1065,197 938,88.5 Q811,-20 590,-20 Q356,-20 230,82.5 Q104,185 104,373 Q104,624 410,764 Q272,842 212,932.5 Q152,1023 152,1135 Q152,1294 269.5,1388.5 Q387,1483 584,1483 M268,369 Q268,249 351.5,182 Q435,115 586,115 Q735,115 818,185 Q901,255 901,377 Q901,474 823,549.5 Q745,625 551,696 Q402,632 335,554.5 Q268,477 268,369 M582,1348 Q457,1348 386,1288 Q315,1228 315,1128 Q315,1036 374,970 Q433,904 592,838 Q735,898 794.5,967 Q854,1036 854,1128 Q854,1229 781.5,1288.5 Q709,1348 582,1348"/> 
            <glyph glyph-name="8" unicode="&#x38;" horiz-adv-x="1061" d=" M1061,838 Q1061,-20 397,-20 Q281,-20 213,0 L213,143 Q293,117 395,117 Q635,117 757.5,265.5 Q880,414 891,721 L879,721 Q824,638 733,594.5 Q642,551 528,551 Q334,551 220,667 Q106,783 106,991 Q106,1219 233.5,1351 Q361,1483 569,1483 Q718,1483 829.5,1406.5 Q941,1330 1001,1183.5 Q1061,1037 1061,838 M569,1341 Q426,1341 348,1249 Q270,1157 270,993 Q270,849 342,766.5 Q414,684 561,684 Q652,684 728.5,721 Q805,758 849,822 Q893,886 893,956 Q893,1061 852,1150 Q811,1239 737.5,1290 Q664,1341 569,1341"/> 
            <glyph glyph-name="9" unicode="&#x39;" horiz-adv-x="393" d=" M152,106 Q152,173 182.5,207.5 Q213,242 270,242 Q328,242 360.5,207.5 Q393,173 393,106 Q393,41 360,6 Q327,-29 270,-29 Q219,-29 185.5,2.5 Q152,34 152,106 M152,989 Q152,1124 270,1124 Q393,1124 393,989 Q393,924 360,889 Q327,854 270,854 Q219,854 185.5,885.5 Q152,917 152,989"/> 
            <glyph glyph-name=":" unicode="&#x3A;" horiz-adv-x="389" d=" M350,238 L365,215 Q339,115 290,-17.5 Q241,-150 188,-264 L63,-264 Q90,-160 122.5,-7 Q155,146 168,238 M147,989 Q147,1124 266,1124 Q389,1124 389,989 Q389,924 356,889 Q323,854 266,854 Q208,854 177.5,889 Q147,924 147,989"/> 
            <glyph glyph-name=";" unicode="&#x3B;" horiz-adv-x="1065" d=" M1065,242 L104,664 L104,762 L1065,1241 L1065,1092 L283,721 L1065,393"/> 
            <glyph glyph-name="&lt;" unicode="&#x3C;" horiz-adv-x="1049" d=" M119,858 L119,995 L1049,995 L1049,858 M119,449 L119,586 L1049,586 L1049,449"/> 
            <glyph glyph-name="=" unicode="&#x3D;" horiz-adv-x="1065" d=" M104,393 L887,719 L104,1092 L104,1241 L1065,762 L1065,664 L104,242"/> 
            <glyph glyph-name="&gt;" unicode="&#x3E;" horiz-adv-x="825" d=" M289,403 L289,457 Q289,574 325,649.5 Q361,725 459,809 Q595,924 630.5,982 Q666,1040 666,1122 Q666,1224 600.5,1279.5 Q535,1335 412,1335 Q333,1335 258,1316.5 Q183,1298 86,1249 L27,1384 Q216,1483 422,1483 Q613,1483 719,1389 Q825,1295 825,1124 Q825,1051 805.5,995.5 Q786,940 748,890.5 Q710,841 584,731 Q483,645 450.5,588 Q418,531 418,436 L418,403 M240,106 Q240,242 360,242 Q418,242 449.5,207 Q481,172 481,106 Q481,42 449,6.5 Q417,-29 360,-29 Q308,-29 274,2.5 Q240,34 240,106"/> 
            <glyph glyph-name="?" unicode="&#x3F;" horiz-adv-x="1720" d=" M1720,729 Q1720,587 1676,469 Q1632,351 1552,286 Q1472,221 1368,221 Q1282,221 1223,273 Q1164,325 1153,406 L1145,406 Q1105,319 1030.5,270 Q956,221 854,221 Q704,221 619.5,323.5 Q535,426 535,602 Q535,806 653,933.5 Q771,1061 963,1061 Q1031,1061 1117,1048.5 Q1203,1036 1272,1014 L1247,544 L1247,522 Q1247,344 1380,344 Q1471,344 1528,451.5 Q1585,559 1585,731 Q1585,912 1511,1048 Q1437,1184 1300.5,1257.5 Q1164,1331 987,1331 Q764,1331 599,1238.5 Q434,1146 347,974.5 Q260,803 260,578 Q260,273 421,109 Q582,-55 885,-55 Q1095,-55 1321,31 L1321,-102 Q1129,-186 885,-186 Q522,-186 321.5,13.5 Q121,213 121,571 Q121,831 228,1034 Q335,1237 533,1348.5 Q731,1460 987,1460 Q1202,1460 1369.5,1369.5 Q1537,1279 1628.5,1112.5 Q1720,946 1720,729 M686,598 Q686,344 881,344 Q1088,344 1106,657 L1120,918 Q1048,938 963,938 Q833,938 759.5,848 Q686,758 686,598"/> 
            <glyph glyph-name="@" unicode="&#x40;" horiz-adv-x="1296" d=" M1120,0 L938,465 L352,465 L172,0 L0,0 L578,1468 L721,1468 L1296,0 M885,618 L715,1071 Q682,1157 647,1282 Q625,1186 584,1071 L412,618"/> 
            <glyph glyph-name="A" unicode="&#x41;" horiz-adv-x="1214" d=" M201,1462 L614,1462 Q905,1462 1035,1375 Q1165,1288 1165,1100 Q1165,970 1092.5,885.5 Q1020,801 881,776 L881,766 Q1214,709 1214,416 Q1214,220 1081.5,110 Q949,0 711,0 L201,0 M371,836 L651,836 Q831,836 910,892.5 Q989,949 989,1083 Q989,1206 901,1260.5 Q813,1315 621,1315 L371,1315 M371,692 L371,145 L676,145 Q853,145 942.5,213.5 Q1032,282 1032,428 Q1032,564 940.5,628 Q849,692 662,692"/> 
            <glyph glyph-name="B" unicode="&#x42;" horiz-adv-x="1231" d=" M827,1331 Q586,1331 446.5,1170.5 Q307,1010 307,731 Q307,444 441.5,287.5 Q576,131 825,131 Q978,131 1174,186 L1174,37 Q1022,-20 799,-20 Q476,-20 300.5,176 Q125,372 125,733 Q125,959 209.5,1129 Q294,1299 453.5,1391 Q613,1483 829,1483 Q1059,1483 1231,1399 L1159,1253 Q993,1331 827,1331"/> 
            <glyph glyph-name="C" unicode="&#x43;" horiz-adv-x="1368" d=" M1368,745 Q1368,383 1171.5,191.5 Q975,0 606,0 L201,0 L201,1462 L649,1462 Q990,1462 1179,1273 Q1368,1084 1368,745 M1188,739 Q1188,1025 1044.5,1170 Q901,1315 618,1315 L371,1315 L371,147 L578,147 Q882,147 1035,296.5 Q1188,446 1188,739"/> 
            <glyph glyph-name="D" unicode="&#x44;" horiz-adv-x="1016" d=" M1016,0 L201,0 L201,1462 L1016,1462 L1016,1311 L371,1311 L371,840 L977,840 L977,690 L371,690 L371,152 L1016,152"/> 
            <glyph glyph-name="E" unicode="&#x45;" horiz-adv-x="1016" d=" M371,0 L201,0 L201,1462 L1016,1462 L1016,1311 L371,1311 L371,776 L977,776 L977,625 L371,625"/> 
            <glyph glyph-name="F" unicode="&#x46;" horiz-adv-x="1341" d=" M844,766 L1341,766 L1341,55 Q1225,18 1105,-1 Q985,-20 827,-20 Q495,-20 310,177.5 Q125,375 125,731 Q125,959 216.5,1130.5 Q308,1302 480,1392.5 Q652,1483 883,1483 Q1117,1483 1319,1397 L1253,1247 Q1055,1331 872,1331 Q605,1331 455,1172 Q305,1013 305,731 Q305,435 449.5,282 Q594,129 874,129 Q1026,129 1171,164 L1171,614 L844,614"/> 
            <glyph glyph-name="G" unicode="&#x47;" horiz-adv-x="1311" d=" M1311,0 L1141,0 L1141,688 L371,688 L371,0 L201,0 L201,1462 L371,1462 L371,840 L1141,840 L1141,1462 L1311,1462"/> 
            <glyph glyph-name="H" unicode="&#x48;" horiz-adv-x="371" d=" M201,0 L201,1462 L371,1462 L371,0"/> 
            <glyph glyph-name="I" unicode="&#x49;" horiz-adv-x="360" d=" M-12,-385 Q-106,-385 -160,-358 L-160,-213 Q-89,-233 -12,-233 Q87,-233 138.5,-173 Q190,-113 190,0 L190,1462 L360,1462 L360,14 Q360,-176 264,-280.5 Q168,-385 -12,-385"/> 
            <glyph glyph-name="J" unicode="&#x4A;" horiz-adv-x="1257" d=" M1257,0 L1057,0 L524,709 L371,573 L371,0 L201,0 L201,1462 L371,1462 L371,737 L1034,1462 L1235,1462 L647,827"/> 
            <glyph glyph-name="K" unicode="&#x4B;" horiz-adv-x="1016" d=" M201,0 L201,1462 L371,1462 L371,154 L1016,154 L1016,0"/> 
            <glyph glyph-name="L" unicode="&#x4C;" horiz-adv-x="1649" d=" M848,0 L352,1296 L344,1296 Q358,1142 358,930 L358,0 L201,0 L201,1462 L457,1462 L920,256 L928,256 L1395,1462 L1649,1462 L1649,0 L1479,0 L1479,942 Q1479,1104 1493,1294 L1485,1294 L985,0"/> 
            <glyph glyph-name="M" unicode="&#x4D;" horiz-adv-x="1343" d=" M1343,0 L1149,0 L350,1227 L342,1227 Q358,1011 358,831 L358,0 L201,0 L201,1462 L393,1462 L1190,240 L1198,240 Q1196,267 1189,413.5 Q1182,560 1184,623 L1184,1462 L1343,1462"/> 
            <glyph glyph-name="N" unicode="&#x4E;" horiz-adv-x="1470" d=" M1470,733 Q1470,382 1292.5,181 Q1115,-20 799,-20 Q476,-20 300.5,177.5 Q125,375 125,735 Q125,1092 301,1288.5 Q477,1485 801,1485 Q1116,1485 1293,1285 Q1470,1085 1470,733 M305,733 Q305,436 431.5,282.5 Q558,129 799,129 Q1042,129 1166,282 Q1290,435 1290,733 Q1290,1028 1166.5,1180.5 Q1043,1333 801,1333 Q558,1333 431.5,1179.5 Q305,1026 305,733"/> 
            <glyph glyph-name="O" unicode="&#x4F;" horiz-adv-x="1128" d=" M1128,1036 Q1128,814 976.5,694.5 Q825,575 543,575 L371,575 L371,0 L201,0 L201,1462 L580,1462 Q1128,1462 1128,1036 M371,721 L524,721 Q750,721 851,794 Q952,867 952,1028 Q952,1173 857,1244 Q762,1315 561,1315 L371,1315"/> 
            <glyph glyph-name="P" unicode="&#x50;" horiz-adv-x="1470" d=" M1470,733 Q1470,452 1357,266 Q1244,80 1038,14 L1386,-348 L1139,-348 L854,-18 L799,-20 Q476,-20 300.5,177.5 Q125,375 125,735 Q125,1092 301,1288.5 Q477,1485 801,1485 Q1116,1485 1293,1285 Q1470,1085 1470,733 M305,733 Q305,436 431.5,282.5 Q558,129 799,129 Q1042,129 1166,282 Q1290,435 1290,733 Q1290,1028 1166.5,1180.5 Q1043,1333 801,1333 Q558,1333 431.5,1179.5 Q305,1026 305,733"/> 
            <glyph glyph-name="Q" unicode="&#x51;" horiz-adv-x="1231" d=" M371,608 L371,0 L201,0 L201,1462 L602,1462 Q871,1462 999.5,1359 Q1128,1256 1128,1049 Q1128,759 834,657 L1231,0 L1030,0 L676,608 M371,754 L604,754 Q784,754 868,825.5 Q952,897 952,1040 Q952,1185 866.5,1249 Q781,1313 592,1313 L371,1313"/> 
            <glyph glyph-name="R" unicode="&#x52;" horiz-adv-x="1026" d=" M1026,389 Q1026,196 886,88 Q746,-20 506,-20 Q246,-20 106,47 L106,211 Q196,173 302,151 Q408,129 512,129 Q682,129 768,193.5 Q854,258 854,373 Q854,449 823.5,497.5 Q793,546 721.5,587 Q650,628 504,680 Q300,753 212.5,853 Q125,953 125,1114 Q125,1283 252,1383 Q379,1483 588,1483 Q806,1483 989,1403 L936,1255 Q755,1331 584,1331 Q449,1331 373,1273 Q297,1215 297,1112 Q297,1036 325,987.5 Q353,939 419.5,898.5 Q486,858 623,809 Q853,727 939.5,633 Q1026,539 1026,389"/> 
            <glyph glyph-name="S" unicode="&#x53;" horiz-adv-x="1114" d=" M651,0 L481,0 L481,1311 L18,1311 L18,1462 L1114,1462 L1114,1311 L651,1311"/> 
            <glyph glyph-name="T" unicode="&#x54;" horiz-adv-x="1305" d=" M1305,1462 L1305,516 Q1305,266 1154,123 Q1003,-20 739,-20 Q475,-20 330.5,124 Q186,268 186,520 L186,1462 L356,1462 L356,508 Q356,325 456,227 Q556,129 750,129 Q935,129 1035,227.5 Q1135,326 1135,510 L1135,1462"/> 
            <glyph glyph-name="U" unicode="&#x55;" horiz-adv-x="1219" d=" M1036,1462 L1219,1462 L692,0 L524,0 L0,1462 L180,1462 L516,516 Q574,353 608,199 Q644,361 702,522"/> 
            <glyph glyph-name="V" unicode="&#x56;" horiz-adv-x="1868" d=" M1477,0 L1309,0 L1014,979 Q993,1044 967,1143 Q941,1242 940,1262 Q918,1130 870,973 L584,0 L416,0 L27,1462 L207,1462 L438,559 Q486,369 508,215 Q535,398 588,573 L850,1462 L1030,1462 L1305,565 Q1353,410 1386,215 Q1405,357 1458,561 L1688,1462 L1868,1462"/> 
            <glyph glyph-name="W" unicode="&#x57;" horiz-adv-x="1174" d=" M1174,0 L981,0 L588,643 L188,0 L8,0 L494,764 L41,1462 L229,1462 L592,883 L958,1462 L1139,1462 L686,770"/> 
            <glyph glyph-name="X" unicode="&#x58;" horiz-adv-x="1147" d=" M573,731 L963,1462 L1147,1462 L659,567 L659,0 L487,0 L487,559 L0,1462 L186,1462"/> 
            <glyph glyph-name="Y" unicode="&#x59;" horiz-adv-x="1087" d=" M1087,0 L82,0 L82,133 L858,1309 L106,1309 L106,1462 L1065,1462 L1065,1329 L289,154 L1087,154"/> 
            <glyph glyph-name="Z" unicode="&#x5A;" horiz-adv-x="623" d=" M623,-324 L166,-324 L166,1462 L623,1462 L623,1321 L334,1321 L334,-182 L623,-182"/> 
            <glyph glyph-name="[" unicode="&#x5B;" horiz-adv-x="733" d=" M186,1462 L733,0 L567,0 L23,1462"/> 
            <glyph glyph-name="\" unicode="&#x5C;" horiz-adv-x="508" d=" M51,-182 L340,-182 L340,1321 L51,1321 L51,1462 L508,1462 L508,-324 L51,-324"/> 
            <glyph glyph-name="]" unicode="&#x5D;" horiz-adv-x="1059" d=" M49,551 L483,1473 L582,1473 L1059,551 L907,551 L535,1296 L201,551"/> 
            <glyph glyph-name="^" unicode="&#x5E;" horiz-adv-x="922" d=" M922,-315 L-4,-315 L-4,-184 L922,-184"/> 
            <glyph glyph-name="_" unicode="&#x5F;" horiz-adv-x="786" d=" M786,1241 L676,1241 Q611,1293 522,1389 Q433,1485 393,1548 L393,1569 L596,1569 Q628,1500 685,1409.5 Q742,1319 786,1266"/> 
            </font>
</defs>
</svg>
